<svg width="20" height="20" viewBox="0 0 20 20" fill="none" xmlns="http://www.w3.org/2000/svg">
<g id="streamline:mail-send-email-send-email-paper-airplane" clip-path="url(#clip0_973_10048)">
<path id="Vector" d="M5.10022 12.4852L1.18594 8.57087C1.00176 8.38688 0.866177 8.16002 0.791371 7.91066C0.716565 7.66131 0.70488 7.39728 0.757367 7.14229C0.808218 6.86193 0.933016 6.60023 1.11886 6.38425C1.30471 6.16826 1.54487 6.00582 1.81451 5.91372L17.1431 0.799436C17.4303 0.6927 17.7421 0.670678 18.0415 0.735987C18.3408 0.801295 18.6152 0.951188 18.8318 1.16785C19.0485 1.38451 19.1984 1.65882 19.2637 1.95819C19.329 2.25755 19.307 2.56937 19.2002 2.85658L14.0859 18.1852C13.9999 18.4458 13.8483 18.68 13.6457 18.8651C13.443 19.0503 13.1962 19.1801 12.9288 19.2423C12.6631 19.3076 12.3849 19.3025 12.1219 19.2273C11.8588 19.1521 11.6199 19.0096 11.4288 18.8137L8.31451 15.7137L4.97165 17.4423L5.10022 12.4852ZM5.10022 12.4852L18.7431 1.11372" stroke="#174BDD" stroke-width="1.7" stroke-linecap="round" stroke-linejoin="round"/>
</g>
<defs>
<clipPath id="clip0_973_10048">
<rect width="20" height="20" fill="white"/>
</clipPath>
</defs>
</svg>
