<svg width="18" height="18" viewBox="0 0 18 18" fill="none" xmlns="http://www.w3.org/2000/svg">
<g id="streamline:interface-alert-alarm-bell-1-notification-vibrate-ring-sound-alarm-alert-bell-noise" clip-path="url(#clip0_149_340)">
<path id="Vector" d="M7.71425 17.0358H10.2857M0.642822 7.22578C0.643515 6.00197 0.935367 4.79588 1.49427 3.70714C2.05317 2.61839 2.86308 1.67825 3.85711 0.964355M17.3571 7.22578C17.3564 6.00197 17.0646 4.79588 16.5057 3.70714C15.9468 2.61839 15.1368 1.67825 14.1428 0.964355M14.1428 7.39293C14.1428 6.02896 13.601 4.72085 12.6365 3.75638C11.672 2.7919 10.3639 2.25007 8.99997 2.25007C7.636 2.25007 6.32789 2.7919 5.36342 3.75638C4.39894 4.72085 3.85711 6.02896 3.85711 7.39293V11.8929C3.85711 12.4044 3.65392 12.895 3.29224 13.2566C2.93057 13.6183 2.44003 13.8215 1.92854 13.8215H16.0714C15.5599 13.8215 15.0694 13.6183 14.7077 13.2566C14.346 12.895 14.1428 12.4044 14.1428 11.8929V7.39293Z" stroke="#174BDD" stroke-width="1.3" stroke-linecap="round" stroke-linejoin="round"/>
</g>
<defs>
<clipPath id="clip0_149_340">
<rect width="18" height="18" fill="white"/>
</clipPath>
</defs>
</svg>
