<svg width="24" height="24" viewBox="0 0 24 24" fill="none" xmlns="http://www.w3.org/2000/svg">
<g id="solar:reply-outline">
<path id="Vector" fill-rule="evenodd" clip-rule="evenodd" d="M13.9697 17.5307C13.8292 17.39 13.7503 17.1994 13.7503 17.0007C13.7503 16.8019 13.8292 16.6113 13.9697 16.4707L17.6897 12.7507L9.49968 12.7507C8.54668 12.7507 7.13268 12.4707 5.93668 11.6097C4.70168 10.7197 3.74968 9.24466 3.74968 7.00066C3.74968 6.80175 3.8287 6.61098 3.96935 6.47033C4.11001 6.32968 4.30077 6.25066 4.49968 6.25066C4.6986 6.25066 4.88936 6.32968 5.03002 6.47033C5.17067 6.61098 5.24968 6.80175 5.24968 7.00066C5.24968 8.75666 5.96468 9.78066 6.81268 10.3917C7.69968 11.0307 8.78668 11.2507 9.49968 11.2507L17.6897 11.2507L13.9697 7.53066C13.896 7.462 13.8369 7.3792 13.7959 7.2872C13.7549 7.1952 13.7329 7.09588 13.7311 6.99518C13.7293 6.89448 13.7478 6.79445 13.7856 6.70106C13.8233 6.60767 13.8794 6.52284 13.9506 6.45162C14.0219 6.3804 14.1067 6.32426 14.2001 6.28654C14.2935 6.24882 14.3935 6.23029 14.4942 6.23207C14.5949 6.23385 14.6942 6.25589 14.7862 6.29688C14.8782 6.33787 14.961 6.39697 15.0297 6.47066L20.0297 11.4707C20.1701 11.6113 20.249 11.8019 20.249 12.0007C20.249 12.1994 20.1701 12.39 20.0297 12.5307L15.0297 17.5307C14.8891 17.6711 14.6984 17.75 14.4997 17.75C14.3009 17.75 14.1103 17.6711 13.9697 17.5307Z" fill="#192534"/>
</g>
</svg>
