<svg width="24" height="24" viewBox="0 0 24 24" fill="none" xmlns="http://www.w3.org/2000/svg">
<g clip-path="url(#clip0_149_513)">
<path d="M10.2857 22.7142H13.7143M0.857178 9.63422C0.858102 8.00246 1.24724 6.39434 1.99244 4.94268C2.73764 3.49103 3.81753 2.2375 5.14289 1.28564M23.1429 9.63422C23.142 8.00246 22.7528 6.39434 22.0076 4.94268C21.2624 3.49103 20.1825 2.2375 18.8572 1.28564M18.8572 9.85707C18.8572 8.03845 18.1347 6.2943 16.8488 5.00834C15.5628 3.72238 13.8187 2.99993 12 2.99993C10.1814 2.99993 8.43727 3.72238 7.1513 5.00834C5.86534 6.2943 5.14289 8.03845 5.14289 9.85707V15.8571C5.14289 16.5391 4.87197 17.1931 4.38974 17.6753C3.9075 18.1576 3.25345 18.4285 2.57146 18.4285H21.4286C20.7466 18.4285 20.0926 18.1576 19.6103 17.6753C19.1281 17.1931 18.8572 16.5391 18.8572 15.8571V9.85707Z" stroke="#36363D" stroke-width="2" stroke-linecap="round" stroke-linejoin="round"/>
</g>
<defs>
<clipPath id="clip0_149_513">
<rect width="24" height="24" fill="white"/>
</clipPath>
</defs>
</svg>
