<svg version="1.1" id="레이어_1" xmlns="http://www.w3.org/2000/svg" xmlns:xlink="http://www.w3.org/1999/xlink" x="0px"
	 y="0px" viewBox="0 0 125.94 40" style="enable-background:new 0 0 125.94 40;" xml:space="preserve">
<style type="text/css">
	.st0{fill:#FDC315;}
	.st1{fill:#E0E0E0;}
	.st2{fill:#FFFFFF;}
	.st3{fill:#262626;}
</style>
<g>
	<g>
		<g>
			<path class="st0" d="M13.59,23.54l2.01,3.47l0,0c2.55,4.38,8.16,5.87,12.54,3.34s5.9-8.14,3.38-12.53l0,0l-2.01-3.47L13.59,23.54
				z"/>
			<path class="st1" d="M7.23,27.24c-2.2,1.27-2.95,4.08-1.68,6.28s4.08,2.95,6.28,1.68c2.2-1.27,2.95-4.08,1.68-6.28l-2.3-3.98
				L7.23,27.24z"/>
			<path class="st1" d="M35.91,10.69c2.2-1.27,5.01-0.52,6.28,1.68c1.27,2.2,0.52,5.01-1.68,6.28s-5.01,0.52-6.28-1.68l-2.3-3.98
				L35.91,10.69z"/>
			<path class="st2" d="M15.58,8.59c-4.4,2.54-5.91,8.16-3.37,12.56l15.93-9.2C25.6,7.55,19.98,6.05,15.58,8.59z"/>
			<g>
				<g>
					<ellipse transform="matrix(0.866 -0.5 0.5 0.866 -5.9256 9.5232)" class="st3" cx="14.81" cy="15.82" rx="1.66" ry="1.84"/>
					<circle class="st2" cx="14.94" cy="14.84" r="0.37"/>
				</g>
				<g>
					<ellipse transform="matrix(0.866 -0.5 0.5 0.866 -2.7798 12.669)" class="st3" cx="22.25" cy="11.52" rx="1.66" ry="1.84"/>
					<circle class="st2" cx="21.34" cy="11.14" r="0.37"/>
				</g>
			</g>
			<path class="st3" d="M34.52,8.27l-3.98,2.3c-2.15-3.72-5.99-5.84-9.99-5.96l0-1.62c0-0.71-0.58-1.29-1.29-1.29
				c-0.71,0-1.29,0.58-1.29,1.29l0,1.82C16.67,5.06,15.4,5.5,14.2,6.2c-1.19,0.69-2.21,1.56-3.07,2.55l-1.57-0.9
				C8.95,7.49,8.16,7.7,7.81,8.32c-0.36,0.62-0.14,1.4,0.47,1.76l1.39,0.8c-1.9,3.53-2,7.93,0.16,11.65l-3.98,2.3
				c-3.52,2.03-4.72,6.53-2.69,10.05c2.03,3.52,6.53,4.72,10.05,2.69c2.03-1.17,3.29-3.17,3.6-5.33c3.08,2.11,7.04,2.7,10.67,1.43
				l2.49,1.13c0.62,0.28,1.34-0.13,1.4-0.81l0.27-2.82c2.73-2.5,4.1-6.11,3.82-9.71c2.02,0.81,4.38,0.72,6.42-0.45
				c3.52-2.03,4.72-6.53,2.69-10.05C42.54,7.45,38.04,6.24,34.52,8.27z M13.19,28.36C13.19,28.36,13.19,28.36,13.19,28.36l0.31,0.54
				c1.27,2.2,0.52,5.01-1.68,6.28c-2.2,1.27-5.01,0.52-6.28-1.68c-1.27-2.2-0.52-5.01,1.68-6.28l3.98-2.3L13.19,28.36z M15.58,8.59
				c4.4-2.54,10.02-1.03,12.56,3.37l-15.93,9.2C9.67,16.75,11.18,11.13,15.58,8.59z M28.15,30.35c-3.36,1.94-7.42,1.51-10.29-0.74
				l14.79-8.54C33.17,24.68,31.5,28.41,28.15,30.35z M31.81,18.36l-15.87,9.16c-0.12-0.18-0.24-0.36-0.35-0.55l-1.99-3.44l15.93-9.2
				l1.99,3.44C31.62,17.97,31.71,18.17,31.81,18.36z M40.49,18.63c-2.2,1.27-5.01,0.52-6.28-1.68l-0.31-0.54c0,0,0,0,0,0l-1.99-3.44
				l3.98-2.3c2.2-1.27,5.01-0.52,6.28,1.68C43.45,14.55,42.69,17.36,40.49,18.63z"/>
		</g>
		<g>
			<path class="st3" d="M64.64,23.79c-0.26,2.96-2.46,5.04-5.86,5.04c-2.67,0-4.61-0.81-5.4-1.35c-0.49-0.34-0.69-0.68-0.69-1.37
				V12.97c0-1.33,0.81-2.14,2.02-2.14c1.21,0,2.02,0.81,2.02,2.14v2.57c0.64-0.29,1.67-0.49,2.53-0.49c2.91,0,5.12,2.08,5.37,5.04
				C64.73,21.07,64.73,22.78,64.64,23.79z M58.58,24.96c1.35,0,2-0.83,2.08-1.98c0.05-0.64,0.06-1.3,0-2.08
				c-0.08-1.15-0.73-1.98-2.08-1.98c-0.66,0-1.42,0.17-1.84,0.46v5.12C57.16,24.79,57.91,24.96,58.58,24.96z"/>
			<path class="st3" d="M70.81,12.11c0,1.27-0.94,2.23-2.18,2.23s-2.18-0.96-2.18-2.23c0-1.24,0.94-2.18,2.18-2.18
				S70.81,10.88,70.81,12.11z M66.62,17.31c0-1.33,0.81-2.14,2.02-2.14c1.21,0,2.02,0.81,2.02,2.14v9.25c0,1.33-0.81,2.14-2.02,2.14
				c-1.21,0-2.02-0.81-2.02-2.14V17.31z"/>
			<path class="st3" d="M83.51,26.71c0,1.13-0.71,1.87-2.03,1.87H74.1c-1.22,0-1.87-0.68-1.87-1.7c0-0.79,0.32-1.28,0.81-1.87
				l4.99-6l-3.45,0.01c-1.32,0-2.03-0.76-2.03-1.87s0.71-1.86,2.03-1.86h6.95c1.11,0,1.92,0.48,1.92,1.65
				c0,0.89-0.35,1.47-0.88,2.09l-4.83,5.8h3.75C82.8,24.84,83.51,25.58,83.51,26.71z"/>
			<path class="st3" d="M97.12,23.79c-0.26,2.96-2.46,5.04-5.86,5.04c-2.67,0-4.61-0.81-5.4-1.35c-0.49-0.34-0.69-0.68-0.69-1.37
				V12.97c0-1.33,0.81-2.14,2.02-2.14c1.21,0,2.02,0.81,2.02,2.14v2.57c0.64-0.29,1.67-0.49,2.53-0.49c2.91,0,5.12,2.08,5.37,5.04
				C97.21,21.07,97.21,22.78,97.12,23.79z M91.05,24.96c1.35,0,2-0.83,2.08-1.98c0.05-0.64,0.06-1.3,0-2.08
				c-0.08-1.15-0.73-1.98-2.08-1.98c-0.66,0-1.42,0.17-1.84,0.46v5.12C89.63,24.79,90.39,24.96,91.05,24.96z"/>
			<path class="st3" d="M98.78,23.72c-0.07-0.92-0.09-2.5-0.01-3.32c0.28-3.1,2.53-5.36,6.12-5.36c3.59,0,5.67,2.21,5.67,5.68v0.56
				c0,1.63-0.37,1.86-1.8,1.86h-6.25v0.18c-0.01,1.17,1.03,1.97,2.62,1.97c1,0,1.67-0.22,2.04-0.36c0.5-0.17,0.86-0.38,1.32-0.38
				c0.96,0,1.67,0.61,1.67,1.65c0,1-0.72,1.54-1.33,1.81c-0.8,0.36-2.28,0.8-3.82,0.8C101.42,28.83,99.01,26.69,98.78,23.72z
				 M106.93,20.56c0.11-1.36-0.81-2.25-2.21-2.25c-1.35,0-2.11,0.91-2.2,2.25H106.93z"/>
			<path class="st3" d="M112,23.72c-0.07-0.92-0.09-2.5-0.01-3.32c0.28-3.1,2.53-5.36,6.12-5.36c3.59,0,5.67,2.21,5.67,5.68v0.56
				c0,1.63-0.37,1.86-1.8,1.86h-6.25v0.18c-0.01,1.17,1.03,1.97,2.62,1.97c1,0,1.67-0.22,2.04-0.36c0.5-0.17,0.86-0.38,1.32-0.38
				c0.96,0,1.67,0.61,1.67,1.65c0,1-0.72,1.54-1.33,1.81c-0.8,0.36-2.28,0.8-3.82,0.8C114.64,28.83,112.23,26.69,112,23.72z
				 M120.15,20.56c0.11-1.36-0.81-2.25-2.21-2.25c-1.35,0-2.11,0.91-2.2,2.25H120.15z"/>
		</g>
	</g>
</g>
</svg>
