<svg width="100" height="100" viewBox="0 0 100 100" fill="none" xmlns="http://www.w3.org/2000/svg">
<g id="hulam_icon02" clip-path="url(#clip0_149_347)">
<path id="Vector" d="M88.5686 80.6877H85.2207C86.2616 79.5064 86.8364 77.9865 86.8378 76.4121V64.5549C86.8389 63.9268 86.5909 63.3241 86.148 62.8787C85.7052 62.4333 85.1037 62.1818 84.4756 62.1794H76.1579V23.5923C76.1596 21.8879 75.4852 20.2522 74.2828 19.0443C73.0803 17.8363 71.4479 17.1547 69.7435 17.1487H22.0199C21.8647 17.1503 21.7117 17.1863 21.5721 17.2544C19.9494 17.369 18.4306 18.0955 17.323 19.287C16.2154 20.4785 15.6016 22.046 15.6057 23.6728V30.0344C15.6047 30.6626 15.853 31.2655 16.2959 31.711C16.7388 32.1565 17.3403 32.408 17.9685 32.4106H26.2864V59.6815C23.7088 59.3045 21.0793 59.8025 18.818 61.0957C16.5567 62.389 14.7941 64.4025 13.8119 66.8153C12.8298 69.228 12.6847 71.9004 13.3999 74.4052C14.115 76.9101 15.6491 79.1031 17.7571 80.6336L1.78854 80.6291C1.50682 80.6363 1.23912 80.7534 1.04243 80.9552C0.845735 81.157 0.735596 81.4278 0.735596 81.7096C0.735596 81.9914 0.845735 82.2622 1.04243 82.464C1.23912 82.6658 1.50682 82.7828 1.78854 82.7901C1.6664 82.8151 38.2171 82.8508 88.5678 82.848C88.8495 82.8407 89.1173 82.7237 89.314 82.5219C89.5107 82.3201 89.6207 82.0493 89.6207 81.7675C89.6207 81.4857 89.5107 81.2149 89.314 81.0131C89.1173 80.8113 88.8495 80.6942 88.5678 80.687L88.5686 80.6877ZM76.1579 64.3351H84.4756C84.5325 64.3351 84.587 64.3574 84.6272 64.3976C84.6674 64.4378 84.69 64.4925 84.69 64.5493V76.4065C84.6922 76.9788 84.5794 77.5458 84.3582 78.0736C84.137 78.6015 83.812 79.0794 83.4024 79.4792C82.9928 79.8789 82.507 80.1924 81.9739 80.4006C81.4408 80.6089 80.8713 80.7077 80.2992 80.6915C79.7271 80.6753 79.1641 80.5446 78.6437 80.3065C78.1232 80.0684 77.6559 79.7278 77.2696 79.3055C76.8832 78.8832 76.5858 78.3879 76.3948 77.8483C76.2038 77.3088 76.1232 76.7361 76.1579 76.1648V64.3351ZM17.9692 30.2444C17.9124 30.2444 17.858 30.2218 17.8178 30.1816C17.7776 30.1414 17.755 30.0867 17.755 30.0299V23.6686C17.7539 23.071 17.878 22.4798 18.1195 21.9331C18.361 21.3865 18.7145 20.8967 19.1571 20.4952C19.5996 20.0936 20.1214 19.7893 20.6889 19.6019C21.2563 19.4145 21.8567 19.348 22.4514 19.407C23.5315 19.556 24.5193 20.0969 25.2267 20.9266C25.9342 21.7563 26.3121 22.8171 26.2886 23.9072V30.243L17.9692 30.2444ZM28.4342 23.9086V23.5863C28.4363 22.0067 27.8577 20.4815 26.8085 19.3006H69.7435C70.8774 19.304 71.9637 19.7572 72.7637 20.5607C73.5637 21.3642 74.0122 22.4524 74.0107 23.5863V76.4093C74.009 77.9818 74.5832 79.5006 75.6249 80.6786L32.2399 80.6451C31.9876 80.618 31.7383 80.568 31.495 80.4958C32.9052 79.4295 34.0546 78.0563 34.8561 76.4804C35.6576 74.9045 36.0903 73.1669 36.1214 71.3992C36.1323 70.6526 36.0725 69.9069 35.9429 69.1716H68.6414C68.9231 69.1643 69.1909 69.0473 69.3876 68.8455C69.5843 68.6436 69.6943 68.3729 69.6943 68.0911C69.6943 67.8093 69.5843 67.5385 69.3876 67.3367C69.1909 67.1349 68.9231 67.0178 68.6414 67.0106H35.3436C34.7448 65.4507 33.818 64.0378 32.6259 62.8672C31.4337 61.6965 30.004 60.7952 28.4335 60.2249L28.4342 23.9086ZM15.1021 71.027C15.1455 69.2125 15.7112 67.4491 16.7315 65.9479C17.7518 64.4466 19.1833 63.2713 20.8545 62.563C22.5257 61.8548 24.3657 61.6435 26.1539 61.9544C27.9422 62.2653 29.603 63.0855 30.937 64.3163C32.2711 65.5471 33.2219 67.1365 33.6756 68.8939C34.1292 70.6514 34.0665 72.5022 33.4949 74.2249C32.9233 75.9477 31.867 77.4693 30.4527 78.6069C29.0383 79.7445 27.3259 80.4501 25.5207 80.6392H23.6136C21.2484 80.3955 19.0609 79.2727 17.4845 77.4926C15.9082 75.7125 15.0579 73.4043 15.1021 71.027Z" fill="#1A1818"/>
<path id="path" d="M98.2136 80.6958H95.1001C94.8183 80.703 94.5506 80.8197 94.3539 81.0216C94.1572 81.2234 94.0471 81.4941 94.0471 81.7759C94.0471 82.0578 94.1572 82.3285 94.3539 82.5303C94.5506 82.7322 94.8183 82.8492 95.1001 82.8564H98.2136C98.4953 82.8492 98.7631 82.7322 98.9598 82.5303C99.1564 82.3285 99.2665 82.0578 99.2665 81.7759C99.2665 81.4941 99.1564 81.2234 98.9598 81.0216C98.7631 80.8197 98.4953 80.703 98.2136 80.6958Z" fill="#1A1818"/>
<path id="path_2" d="M60.6365 74.2092H41.8071C41.5254 74.2165 41.2577 74.3335 41.061 74.5353C40.8643 74.7371 40.7543 75.0079 40.7543 75.2897C40.7543 75.5715 40.8643 75.8423 41.061 76.0441C41.2577 76.2459 41.5254 76.3626 41.8071 76.3699H60.6365C60.9182 76.3626 61.1859 76.2459 61.3826 76.0441C61.5793 75.8423 61.6894 75.5715 61.6894 75.2897C61.6894 75.0079 61.5793 74.7371 61.3826 74.5353C61.1859 74.3335 60.9182 74.2165 60.6365 74.2092Z" fill="#1A1818"/>
<path id="path_3" d="M33.8022 61.9714H68.6422C68.9239 61.9642 69.1916 61.8471 69.3883 61.6453C69.585 61.4435 69.6952 61.1728 69.6952 60.8909C69.6952 60.6091 69.585 60.3387 69.3883 60.1369C69.1916 59.9351 68.9239 59.818 68.6422 59.8108H33.8022C33.5205 59.818 33.2527 59.9351 33.056 60.1369C32.8593 60.3387 32.7493 60.6091 32.7493 60.8909C32.7493 61.1728 32.8593 61.4435 33.056 61.6453C33.2527 61.8471 33.5205 61.9642 33.8022 61.9714Z" fill="#1A1818"/>
<path id="path_4" d="M34.0529 54.7742H68.8929C69.1747 54.7669 69.4424 54.6499 69.6391 54.4481C69.8358 54.2463 69.9459 53.9758 69.9459 53.694C69.9459 53.4122 69.8358 53.1414 69.6391 52.9396C69.4424 52.7378 69.1747 52.6208 68.8929 52.6135H34.0529C33.7712 52.6208 33.5034 52.7378 33.3067 52.9396C33.1101 53.1414 33 53.4122 33 53.694C33 53.9758 33.1101 54.2463 33.3067 54.4481C33.5034 54.6499 33.7712 54.7669 34.0529 54.7742Z" fill="#1A1818"/>
<path id="path_5" d="M29.6679 68.6543C29.8247 68.4943 29.9121 68.2788 29.9113 68.0548C29.9104 67.8307 29.8214 67.6162 29.6635 67.4573C29.5055 67.2984 29.2914 67.208 29.0673 67.2058C28.8433 67.2037 28.6275 67.29 28.4665 67.4458L22.8179 73.1207L20.6115 70.9C20.448 70.7563 20.2358 70.68 20.0182 70.6869C19.8006 70.6939 19.5938 70.7835 19.4398 70.9374C19.2858 71.0913 19.1962 71.2984 19.1891 71.516C19.1819 71.7336 19.2578 71.9456 19.4015 72.1092L22.2222 74.9378C22.2999 75.0189 22.393 75.0834 22.4963 75.1275C22.5995 75.1716 22.7106 75.1945 22.8229 75.1945C22.9352 75.1945 23.0463 75.1716 23.1495 75.1275C23.2528 75.0834 23.3461 75.0189 23.4237 74.9378L29.6679 68.6543Z" fill="#1A1818"/>
<g id="Group">
<path id="Vector_2" d="M53.3077 46H41V31.3846L47.1538 26L53.3077 31.3846V46ZM53.3077 46H61V35.2308H53.3077M47.1538 46V42.9231M44.8462 38.3077H49.4615M44.8462 33.6923H49.4615" stroke="#1A1818" stroke-width="2" stroke-linecap="round" stroke-linejoin="round"/>
</g>
</g>
<defs>
<clipPath id="clip0_149_347">
<rect width="100" height="100" fill="white"/>
</clipPath>
</defs>
</svg>
