<svg width="28" height="28" viewBox="0 0 28 28" fill="none" xmlns="http://www.w3.org/2000/svg">
<g id="icon-park-outline:locking-computer">
<g id="Group">
<path id="Vector" d="M14 3.5H5.25C4.78587 3.5 4.34075 3.68437 4.01256 4.01256C3.68437 4.34075 3.5 4.78587 3.5 5.25V18.0833C3.5 18.5475 3.68437 18.9926 4.01256 19.3208C4.34075 19.649 4.78587 19.8333 5.25 19.8333H22.75C23.2141 19.8333 23.6592 19.649 23.9874 19.3208C24.3156 18.9926 24.5 18.5475 24.5 18.0833V15.75M14 19.8333V24.5" stroke="#36363D" stroke-width="2" stroke-linecap="round" stroke-linejoin="round"/>
<path id="Vector_2" d="M22.75 7H19.25C18.2835 7 17.5 7.7835 17.5 8.75V9.91667C17.5 10.8832 18.2835 11.6667 19.25 11.6667H22.75C23.7165 11.6667 24.5 10.8832 24.5 9.91667V8.75C24.5 7.7835 23.7165 7 22.75 7Z" stroke="#36363D" stroke-width="2" stroke-linejoin="round"/>
<path id="Vector_3" d="M21 3.5C21.4641 3.5 21.9092 3.68437 22.2374 4.01256C22.5656 4.34075 22.75 4.78587 22.75 5.25V7H19.25V5.25C19.25 4.78587 19.4344 4.34075 19.7626 4.01256C20.0908 3.68437 20.5359 3.5 21 3.5Z" stroke="#36363D" stroke-width="2" stroke-linejoin="round"/>
<path id="Vector_4" d="M8.16675 24.5H19.8334" stroke="#36363D" stroke-width="2" stroke-linecap="round" stroke-linejoin="round"/>
</g>
</g>
</svg>
