<svg width="225" height="26" viewBox="0 0 225 26" fill="none" xmlns="http://www.w3.org/2000/svg">
<g clip-path="url(#clip0_1403_4577)">
<path d="M23.2739 12.2248V15.1817H0.5V12.2248H10.0685V10.0832H3.261V1.12695H20.5388V4.08567H6.84269V7.12805H20.677V10.085H13.6778V12.2266H23.2739V12.2248ZM20.5405 21.2398C20.5405 24.2822 17.2318 26.0001 11.7928 26.0001C6.35373 26.0001 3.07094 24.2822 3.07094 21.2398C3.07094 18.1974 6.352 16.451 11.7928 16.451C17.2336 16.451 20.5405 18.1689 20.5405 21.2398ZM16.8759 21.2398C16.8759 19.8868 15.1533 19.2673 11.7911 19.2673C8.42879 19.2673 6.70619 19.8868 6.70619 21.2398C6.70619 22.5928 8.42879 23.1838 11.7911 23.1838C15.1533 23.1838 16.8759 22.5928 16.8759 21.2398Z" fill="black"/>
<path d="M32.7326 12.6482C28.878 12.6482 25.9805 10.1702 25.9805 6.70412C25.9805 3.23804 28.878 0.788471 32.7326 0.788471C36.5873 0.788471 39.4313 3.26653 39.4313 6.70412C39.4313 10.1417 36.5614 12.6482 32.7326 12.6482ZM32.7326 9.63435C34.5917 9.63435 35.9308 8.56444 35.9308 6.70412C35.9308 4.84379 34.5917 3.77389 32.7326 3.77389C30.8735 3.77389 29.4792 4.87228 29.4792 6.70412C29.4792 8.53595 30.8735 9.63435 32.7326 9.63435ZM47.1683 22.7883V25.6616H29.7799V18.5069H42.9577V16.9297H29.7522V14.0849H46.5393V21.1559H33.3616V22.7901H47.1683V22.7883ZM46.5393 13.0132H42.9041V0.0283203H46.5393V13.015V13.0132Z" fill="black"/>
<path d="M58.8171 6.50651C58.8171 10.7043 59.9108 15.0141 63.3283 17.3516L61.3604 20.2248C59.2283 18.8719 57.8875 16.6751 57.0962 14.0564C56.222 16.9297 54.7447 19.4077 52.4761 20.8176L50.3164 18.028C54.0069 15.7191 55.3477 11.071 55.3477 6.64715V2.28207H58.8205V6.50651H58.8171ZM63.8467 0.450231H67.2089V24.816H63.8467V11.8026H60.6745V8.78874H63.8467V0.450231ZM72.3767 0.0283203V25.9714H68.9592V0.0283203H72.3767Z" fill="black"/>
<path d="M98.7332 17.4923H89.0559V25.9714H85.4465V17.4923H75.9316V14.5336H98.7332V17.4923ZM95.9998 11.7742H78.5579V1.2959H95.9998V11.7742ZM92.4734 4.22613H82.1119V8.84578H92.4734V4.22613Z" fill="black"/>
<path d="M111.092 18.45C113.143 18.3093 115.194 18.1687 117.161 17.8856L117.434 20.5898C111.94 21.6312 106.116 21.6597 101.66 21.6597L101.223 18.6458C103.109 18.6458 105.241 18.6458 107.484 18.5888V16.392C104.777 15.8562 103.028 14.1098 103.028 11.6887C103.028 8.78696 105.597 6.81627 109.29 6.81627C112.982 6.81627 115.523 8.78874 115.523 11.6887C115.523 14.1116 113.773 15.858 111.095 16.392V18.4482L111.092 18.45ZM116.833 5.80333H101.715V2.90158H107.484V0.11199H111.093V2.90158H116.835V5.80333H116.833ZM109.288 13.7751C110.983 13.7751 112.104 13.0435 112.104 11.6905C112.104 10.3375 110.983 9.63435 109.288 9.63435C107.593 9.63435 106.472 10.366 106.472 11.6905C106.472 13.015 107.621 13.7751 109.288 13.7751ZM122.082 0.0283203V25.9714H118.473V0.0283203H122.082Z" fill="black"/>
<path d="M139.306 0.59103H142.668V24.8446H139.306V16.337H135.807V13.3516H139.306V9.83033H136.272C135.151 14.1117 132.635 17.7185 127.934 20.5917L125.883 17.9997C130.859 14.8737 133.046 11.1263 133.511 6.05628H127.305V3.09935H137.093C137.093 4.42383 137.011 5.66286 136.873 6.8734H139.306V0.59103ZM147.891 0V25.9715H144.474V0H147.891Z" fill="black"/>
<path d="M160.661 5.80333C160.661 10.4799 162.439 15.1833 166.484 17.2394L164.296 20.1696C161.672 18.79 159.894 16.2817 158.855 13.1841C157.762 16.4793 155.875 19.2119 153.033 20.6485L150.873 17.6346C155.111 15.5785 157.024 10.6206 157.024 5.80333V2.0275H160.659V5.80155L160.661 5.80333ZM174.768 13.0986H171.105V25.9714H167.496V0.0283203H171.105V9.99929H174.768V13.0986Z" fill="black"/>
<path d="M199.346 17.4923H189.669V25.9714H186.06V17.4923H176.545V14.5336H199.346V17.4923ZM196.613 11.7742H179.171V1.2959H196.613V11.7742ZM193.085 4.22613H182.723V8.84578H193.085V4.22613Z" fill="black"/>
<path d="M224.501 19.915V22.9004H201.699V19.915H211.186V14.1115H214.796V19.915H224.501ZM222.26 14.9286C217.832 14.1115 214.604 11.6886 212.964 8.4771C211.325 11.6601 208.125 14.1115 203.724 14.9286L202.249 11.8577C207.935 10.9 211.052 6.92832 211.052 3.32339V1.46484H214.906V3.32339C214.906 7.01377 217.996 10.9 223.737 11.8577L222.262 14.9286H222.26Z" fill="black"/>
</g>
<defs>
<clipPath id="clip0_1403_4577">
<rect width="224" height="26" fill="white" transform="translate(0.5)"/>
</clipPath>
</defs>
</svg>
