<svg width="16" height="16" viewBox="0 0 16 16" fill="none" xmlns="http://www.w3.org/2000/svg">
<g id="16 / document-icon">
<g id="Group">
<path id="Vector" d="M3.33301 13.3333V2.66667C3.33301 2.48986 3.40325 2.32029 3.52827 2.19526C3.65329 2.07024 3.82286 2 3.99967 2H8.11434C8.46793 2.00008 8.80702 2.1406 9.05701 2.39067L12.2757 5.60933C12.5257 5.85932 12.6663 6.19841 12.6663 6.552V13.3333C12.6663 13.5101 12.5961 13.6797 12.4711 13.8047C12.3461 13.9298 12.1765 14 11.9997 14H3.99967C3.82286 14 3.65329 13.9298 3.52827 13.8047C3.40325 13.6797 3.33301 13.5101 3.33301 13.3333Z" stroke="white" stroke-width="1.44" stroke-linejoin="round"/>
<path id="Vector_2" d="M8 2V6C8 6.17681 8.07024 6.34638 8.19526 6.4714C8.32029 6.59643 8.48986 6.66667 8.66667 6.66667H12.6667" stroke="white" stroke-width="1.44" stroke-linejoin="round"/>
</g>
</g>
</svg>
