<svg width="145" height="71" viewBox="0 0 145 71" fill="none" xmlns="http://www.w3.org/2000/svg">
<g clip-path="url(#clip0_1293_3433)">
<path d="M17.5884 44.361H0.395508V41.1207H6.97105V36.2604H10.9827V41.1207H17.5884V44.361ZM20.2729 36.0804H24.1036V69.0827H20.2729V58.552H15.7485C14.542 61.3421 12.0384 63.0523 8.93164 63.0223C4.558 63.0223 1.45121 59.632 1.45121 54.7717C1.45121 49.9114 4.558 46.4011 8.93164 46.4011C13.3053 46.4011 16.4422 49.7913 16.4422 54.7717V55.3117H20.2729V50.3314H15.8691V47.0912H20.2729V36.0804ZM12.8528 54.7417C12.8528 51.7415 11.224 49.7613 8.93164 49.7613C6.63925 49.7613 5.01045 51.7115 5.01045 54.7417C5.01045 57.7719 6.63925 59.632 8.93164 59.632C11.224 59.632 12.8528 57.7119 12.8528 54.7417ZM30.7998 35.3604V70.7328H26.939V35.3604H30.7998Z" fill="#1D1D1B"/>
<path d="M46.5445 55.4017C41.2057 55.4017 37.1035 51.7115 37.1035 46.5511C37.1035 41.3908 41.2057 37.7305 46.5445 37.7305C51.8834 37.7305 56.0157 41.3608 56.0157 46.5511C56.0157 51.7415 51.9136 55.4017 46.5445 55.4017ZM46.5445 51.9215C49.6513 51.9215 52.0644 49.8213 52.0644 46.5511C52.0644 43.2809 49.6513 41.2408 46.5445 41.2408C43.4378 41.2408 41.085 43.3409 41.085 46.5511C41.085 49.7613 43.4378 51.9215 46.5445 51.9215ZM46.0016 66.7725H65.8489V70.0727H41.9296V58.642H46.0318V66.7725H46.0016ZM69.4383 45.8611V49.1913H64.401V61.2821H60.3592V35.3604H64.401V45.8611H69.4383Z" fill="#1D1D1B"/>
<g opacity="0.9">
<path d="M88.0495 61.4922C88.0495 61.4922 87.6875 62.2722 87.1144 63.5923C86.481 64.9124 85.6365 66.0825 84.5808 67.1326L83.1631 66.1425C84.3998 65.2124 85.3047 64.1023 85.9381 62.8723C86.5112 61.6122 86.8128 60.9821 86.8128 60.9521C86.8128 60.9521 87.024 61.0421 87.4462 61.1921C87.8082 61.3722 88.0495 61.4622 88.0797 61.4922H88.0495ZM95.1378 59.782H87.4462V58.582H105.996V56.2418H84.0981V54.9517H105.996V52.6116H87.5971V51.4115H107.474V54.9517H111.878V56.2418H107.474V59.782H96.465C96.9476 60.1421 97.4302 60.5921 97.943 61.1021C98.4557 61.6422 99.0892 62.4522 99.8734 63.5623L98.3954 64.4924C97.7017 63.2623 97.0682 62.3022 96.4348 61.6122C95.7712 60.9521 95.2283 60.4121 94.8362 60.0521L95.1378 59.782ZM90.553 50.5414V48.7413L84.7617 49.1313L84.3093 47.6912L90.5229 47.4512V45.141H85.3047V44.001H90.5229V41.8108H84.9729V40.6407H90.5229V38.0605L92.3025 38.5106C92.3025 38.5106 92.2422 38.6606 92.1215 38.9306C92.0009 39.2006 91.9405 39.5006 91.9405 39.7407V40.6707H96.9476V41.8408H91.9405V44.031H96.7063V45.171H91.9405V47.4212L97.0682 47.0612V48.2913L91.9405 48.6513V50.5714H90.5229L90.553 50.5414ZM106.268 63.9823C106.268 63.9823 106.177 64.4324 106.027 65.1824C105.846 65.9325 105.273 66.5625 104.338 67.1326C103.161 67.7626 101.08 68.0626 98.0335 68.0326C94.9568 67.9726 93.0566 67.8526 92.393 67.6126C90.9451 67.0725 90.3117 65.1224 90.4324 61.6722L92.1215 61.8522L92.0612 64.0723C92.031 64.6424 92.0612 65.1224 92.2422 65.6024C92.3628 66.0525 92.9359 66.3225 93.871 66.4425C94.806 66.5625 96.0427 66.5925 97.581 66.5925C99.0892 66.5925 100.386 66.5025 101.412 66.3825C102.799 66.2025 103.674 65.8725 103.976 65.4524C104.277 65.0024 104.549 64.4624 104.73 63.7723L106.238 63.9823H106.268ZM103.674 50.5114V48.7413H97.943V47.4512H103.674V45.111H98.878V43.9109H103.674V41.8708H98.1843V40.6407H103.674V38.0905L105.544 38.6006C105.544 38.6006 105.484 38.7206 105.363 38.8406C105.242 39.0206 105.152 39.2606 105.122 39.5306V40.6707H110.672V41.9008H105.122V43.941H109.978V45.141H105.122V47.4812H111.094V48.7713H105.122V50.5414H103.674V50.5114ZM111.878 65.4824L110.491 66.4125C110.249 65.8125 109.737 65.0324 108.983 64.0423C108.229 63.0523 107.324 62.1222 106.268 61.2521L107.203 60.5321C108.168 61.1021 109.073 61.7922 109.827 62.6022C110.551 63.4723 111.245 64.4024 111.878 65.4824Z" fill="#726F6F"/>
<path d="M117.7 66.5924V40.5806H125.271V66.5924H117.7ZM119.178 41.9607V48.7711H123.853V41.9607H119.178ZM119.178 50.1212V56.8417H123.853V50.1212H119.178ZM119.178 58.1618V65.2723H123.853V58.1618H119.178ZM134.984 52.9714C135.165 54.6515 135.587 56.1216 136.19 57.3817C136.763 58.6718 137.035 59.3319 137.065 59.3319L142.404 55.4616L143.339 56.7817L137.728 60.5319C139.327 63.0221 140.896 64.7022 142.434 65.5123C143.942 66.3223 144.726 66.7424 144.756 66.7424L143.52 68.0925C143.309 68.0025 141.831 66.9524 139.116 64.9722C136.371 62.9621 134.561 59.0018 133.626 53.0314H130.459V65.2123L136.22 62.9921V64.4022L127.051 68.1225C127.051 68.1225 126.9 67.8524 126.689 67.4024C126.447 66.9524 126.357 66.7124 126.357 66.7124L129.072 65.7823V39.7705H141.258V53.0314H135.014L134.984 52.9714ZM130.489 40.9706V45.6209H139.78V40.9706H130.489ZM130.489 46.941V51.6813H139.78V46.941H130.489Z" fill="#726F6F"/>
</g>
<path d="M41.2966 7.6686C41.4475 7.81861 41.6284 7.96862 41.7792 8.14863C41.9602 8.29864 42.111 8.47865 42.2619 8.59866C42.4127 8.74867 42.5333 8.89868 42.654 8.98869C42.7746 9.1087 42.8651 9.1687 42.9254 9.1987C42.9858 9.25871 43.0461 9.28871 43.1064 9.31871C43.1667 9.31871 43.1969 9.37871 43.2271 9.40872C43.2874 9.40872 43.3176 9.40872 43.3477 9.43872C43.3779 9.46872 43.4382 9.43872 43.4684 9.46872C43.4985 9.49872 43.5287 9.52872 43.589 9.55873C43.6192 9.55873 43.6795 9.61873 43.7097 9.61873C43.7398 9.64873 43.77 9.67873 43.8303 9.73874C43.8605 9.76874 43.8907 9.82874 43.951 9.88875C44.132 10.1288 44.2828 10.3988 44.4034 10.6988C44.5241 10.9688 44.6146 11.1788 44.6749 11.2988C44.7955 11.5989 44.8257 11.8689 44.7955 12.0489C44.7654 12.2289 44.6749 12.3489 44.5542 12.4089C44.4336 12.4689 44.2828 12.4089 44.1018 12.3189C43.9208 12.1989 43.7097 12.0189 43.5287 11.7189C43.4081 11.5389 43.2271 11.2988 43.0159 11.0288C42.8048 10.7588 42.5635 10.4588 42.3222 10.1588C42.0809 9.85875 41.8094 9.55873 41.5681 9.28871C41.3268 9.01869 41.1157 8.77867 40.9347 8.59866C40.4521 9.25871 39.9091 9.91875 39.336 10.5788C38.7629 11.2388 38.1295 11.7789 37.4961 12.2289C37.0437 12.5889 36.742 12.7089 36.5912 12.5889C36.4404 12.4689 36.4706 12.2889 36.7119 12.0489C37.1945 11.6289 37.6469 11.1188 38.0994 10.5488C38.5518 9.94875 38.9741 9.34871 39.336 8.68867C39.7282 8.02862 40.06 7.36858 40.3314 6.70853C40.6029 6.04848 40.7839 5.41844 40.9045 4.8484C40.9648 4.57838 40.9045 4.36837 40.8442 4.24836C40.7537 4.12835 40.5727 4.00834 40.2711 3.85833C39.9695 3.70832 39.8488 3.52831 39.9091 3.3783C39.9695 3.19829 40.1504 3.13828 40.4521 3.16829C40.7537 3.19829 41.1157 3.25829 41.4776 3.3483C41.8697 3.4383 42.2015 3.52831 42.5333 3.64832C42.7445 3.76833 42.8651 3.85833 42.8953 4.00834C42.9254 4.12835 42.9254 4.27836 42.8953 4.39837C42.8953 4.42837 42.8651 4.48838 42.835 4.51838C42.835 4.57838 42.8048 4.60839 42.7746 4.66839C42.7746 4.72839 42.7143 4.7884 42.7143 4.8484C42.7143 4.90841 42.6841 4.93841 42.6841 4.96841C42.5333 5.38844 42.3523 5.83847 42.1412 6.3185C41.9301 6.79854 41.6586 7.24857 41.3871 7.7286L41.2966 7.6686ZM46.3339 7.93862C46.183 7.93862 46.0322 7.96862 45.8814 7.99862C45.7306 8.02862 45.6099 8.08863 45.4893 8.11863C45.248 8.23864 45.0369 8.26864 44.8559 8.26864C44.6749 8.26864 44.5241 8.23864 44.3733 8.14863C44.2526 8.11863 44.0415 8.02862 43.8002 7.93862C43.5589 7.81861 43.3176 7.6986 43.1366 7.57859C42.8953 7.42858 42.8048 7.24857 42.835 7.12856C42.8651 6.97855 43.0461 6.94855 43.3176 6.97855C43.4985 6.97855 43.77 7.00855 44.1018 7.03855C44.4638 7.03855 44.7654 7.03855 45.0369 7.03855H45.5798C45.5798 7.03855 45.7909 7.03855 45.9116 7.03855C46.0322 7.03855 46.1529 7.03855 46.3037 7.03855V4.03835C46.3037 3.76833 46.3037 3.49831 46.2132 3.3183C46.1529 3.10828 46.0624 2.95827 45.9116 2.86827C45.7608 2.74826 45.5798 2.65825 45.3988 2.56824C45.1877 2.47824 44.9765 2.41823 44.7352 2.35823C44.6447 2.35823 44.5844 2.29823 44.5241 2.23822C44.4939 2.14822 44.4939 2.08821 44.5241 1.99821C44.5241 1.9082 44.5844 1.8482 44.6749 1.78819C44.7352 1.72819 44.8559 1.69819 44.9765 1.69819C45.3988 1.69819 45.8513 1.75819 46.3037 1.81819C46.7863 1.8782 47.2388 1.9682 47.661 2.11821C47.7515 2.14822 47.8119 2.23822 47.8722 2.32823C47.9325 2.41823 47.9325 2.53824 47.8722 2.68825C47.8119 2.83826 47.7817 2.98827 47.7817 3.16829C47.7817 3.3483 47.7817 3.52831 47.7817 3.70832V13.039C47.7817 14.3291 47.7214 15.3491 47.6007 16.1292C47.4499 16.9092 47.2388 17.2993 46.9673 17.2993C46.8466 17.2993 46.726 17.2393 46.6657 17.0592C46.5752 16.8792 46.5148 16.6392 46.4847 16.3392C46.4244 16.0392 46.3942 15.7092 46.3942 15.3191C46.3942 14.9291 46.3942 14.5391 46.3942 14.119V7.96862L46.3339 7.93862ZM50.8282 2.86827V13.639C50.8282 14.9291 50.7678 15.9492 50.617 16.7292C50.4662 17.5093 50.2551 17.8993 49.9534 17.8993C49.8328 17.8993 49.7121 17.8393 49.6518 17.6593C49.5613 17.4793 49.501 17.2393 49.4708 16.9392C49.4105 16.6392 49.3803 16.3092 49.3803 15.9192C49.3803 15.5291 49.3803 15.1391 49.3803 14.7191V3.19829C49.3803 2.92827 49.3803 2.68825 49.32 2.47824C49.2597 2.26822 49.1692 2.11821 49.0184 2.02821C48.8676 1.9082 48.6564 1.81819 48.4453 1.72819C48.204 1.63818 47.9627 1.54817 47.7214 1.51817C47.6309 1.51817 47.5705 1.45817 47.5404 1.36816C47.5102 1.27816 47.5102 1.21815 47.5404 1.12815C47.5404 1.03814 47.6007 0.978135 47.6912 0.918131C47.7515 0.858127 47.8722 0.828125 47.9928 0.828125C48.4151 0.828125 48.8977 0.888129 49.4407 0.978135C49.9836 1.03814 50.436 1.15815 50.8885 1.27816C50.9488 1.30816 51.0091 1.36816 51.0695 1.48817C51.1298 1.57818 51.1298 1.69818 51.0695 1.8482C51.0091 1.99821 50.9488 2.17822 50.9488 2.35823C50.9488 2.53824 50.9186 2.71826 50.9186 2.89827L50.8282 2.86827Z" fill="#1D1D1B"/>
<path d="M62.2899 10.9083V13.6385C62.2899 14.9286 62.2296 15.9486 62.0184 16.7287C61.8375 17.5087 61.5962 17.8688 61.3247 17.8688C61.204 17.8688 61.0834 17.8088 60.9929 17.6287C60.9024 17.4487 60.8421 17.2087 60.7818 16.9087C60.7214 16.6087 60.6913 16.2787 60.6611 15.8886C60.6611 15.4986 60.6309 15.1086 60.6309 14.6885V10.9083C60.0578 10.9083 59.4847 10.9383 58.9418 10.9683C58.3989 10.9683 57.9464 11.0283 57.6448 11.0583C57.5241 11.0583 57.4337 11.0583 57.3432 11.0883C57.2527 11.0883 57.1622 11.1183 57.1019 11.1483C57.0114 11.1483 56.9511 11.2083 56.8606 11.2383C56.8002 11.2383 56.7097 11.2983 56.6494 11.2983C56.4684 11.3583 56.2875 11.3883 56.0763 11.4183C55.8652 11.4183 55.5937 11.4183 55.2619 11.3283C55.0508 11.2983 54.8095 11.2083 54.5078 11.1183C54.2364 10.9983 53.9046 10.8783 53.5728 10.6983C53.2108 10.5183 53.06 10.3382 53.1203 10.1582C53.1807 9.97822 53.422 9.91821 53.9046 9.97822C54.4475 10.0382 55.0206 10.0982 55.654 10.1282C56.2875 10.1282 56.8606 10.1582 57.4337 10.1582H59.0021C59.6356 10.1582 60.2991 10.1582 60.9627 10.1582C61.6565 10.1582 62.3201 10.1582 62.9535 10.1582C63.6171 10.1582 64.16 10.1582 64.6125 10.1282C64.8538 10.1282 65.0951 10.0982 65.3364 10.0382C65.5777 9.97822 65.7285 9.91821 65.7888 9.88821C65.8793 9.85821 65.9698 9.82821 66.0904 9.79821C66.1809 9.79821 66.3016 9.7682 66.3921 9.7382C66.6937 9.7382 66.9953 9.7082 67.297 9.7382C67.5986 9.7382 67.9304 9.7382 68.232 9.7682C68.594 9.79821 68.8654 9.85821 69.0766 9.97822C69.2877 10.0682 69.3782 10.2182 69.3782 10.4282C69.3782 10.6683 69.2576 10.8183 69.0464 10.9083C68.8353 10.9983 68.5638 11.0283 68.232 11.0283C67.9002 11.0283 67.4779 11.0283 66.9953 11.0283C66.5127 11.0283 66 11.0283 65.457 11.0283C64.9141 11.0283 64.3712 11.0283 63.8282 11.0283C63.2853 11.0283 62.7725 11.0283 62.2899 11.0283V10.9083ZM56.8002 3.34776C56.8002 3.16775 56.6796 3.01774 56.5288 2.89773C56.378 2.77772 56.1065 2.68771 55.7445 2.59771C55.5635 2.5377 55.4731 2.4177 55.5334 2.23768C55.5636 2.02767 55.7144 1.93766 55.9557 1.90766C56.2875 1.90766 56.7097 1.90766 57.1924 1.93766C57.7051 1.96766 58.1877 2.02767 58.6703 2.08767H59.6657C60.1483 2.08767 60.6309 2.08767 61.1739 2.08767C61.7168 2.08767 62.1994 2.08767 62.682 2.05767C63.1646 2.05767 63.4964 2.02767 63.6774 1.99767C63.7377 1.99767 63.7981 1.99767 63.8584 1.99767C63.9187 1.99767 63.9489 1.96766 63.979 1.96766C64.0092 1.96766 64.0394 1.96766 64.0997 1.96766C64.1298 1.96766 64.16 1.93766 64.2203 1.90766C64.2203 1.90766 64.2807 1.90766 64.3108 1.87766C64.341 1.84766 64.4013 1.87766 64.4315 1.84766C64.6728 1.84766 64.9443 1.84766 65.2157 1.84766C65.4872 1.84766 65.7285 1.87766 65.9396 1.90766C66.1508 1.96766 66.2714 2.05767 66.3016 2.20768C66.3016 2.35769 66.3016 2.4777 66.2413 2.56771C66.2111 2.62771 66.1809 2.65771 66.1206 2.71772C66.0904 2.77772 66.0603 2.83772 66 2.89773C65.9698 2.95773 65.9396 3.04774 65.9095 3.10774C65.9095 3.16775 65.8793 3.25775 65.8491 3.31776L65.3062 6.828C65.5173 6.828 65.6983 6.858 65.819 6.94801C65.9698 7.03801 66.0301 7.12802 66.0301 7.24803C66.0301 7.39804 65.9396 7.48805 65.7888 7.57805C65.638 7.66806 65.4269 7.69806 65.1856 7.69806C64.7633 7.69806 64.1902 7.69806 63.4964 7.69806C62.8027 7.69806 62.1089 7.69806 61.4152 7.72806C60.7214 7.72806 60.1182 7.72806 59.5752 7.75806C59.0323 7.75806 58.6703 7.75806 58.5195 7.75806C58.4894 8.02808 58.3989 8.2381 58.2481 8.3281C58.0972 8.44811 57.9464 8.50812 57.8258 8.50812C57.7051 8.50812 57.5845 8.44811 57.4337 8.2981C57.2828 8.14809 57.1924 7.87807 57.1622 7.48805L56.8304 3.37776L56.8002 3.34776ZM64.1298 2.83772L58.429 2.89773L58.5799 6.828L63.979 6.768L64.1298 2.86773V2.83772Z" fill="#1D1D1B"/>
<path d="M83.7664 2.86816V7.18845C83.7664 8.11852 83.6759 8.86857 83.495 9.46861C83.314 10.0687 83.1028 10.3387 82.8917 10.3387C82.6805 10.3387 82.5297 10.1287 82.4393 9.67863C82.3488 9.22859 82.2884 8.68856 82.2884 8.02851V6.13838C82.2884 6.13838 82.1075 6.13838 82.0471 6.13838C81.9868 6.13838 81.9566 6.13838 81.9265 6.13838C81.8058 6.13838 81.655 6.19839 81.474 6.22839C81.293 6.25839 81.1121 6.31839 80.9311 6.4084C80.6898 6.52841 80.4787 6.55841 80.2675 6.55841C80.0564 6.55841 79.9055 6.52841 79.7547 6.4384C79.6944 6.4384 79.6341 6.4384 79.5738 6.3784C79.5134 6.31839 79.3928 6.3484 79.242 6.31839V8.35853C79.242 8.74856 79.1515 9.10859 78.9403 9.43861C78.7594 9.76863 78.5482 9.94864 78.3672 9.94864C78.2767 9.94864 78.1863 9.94864 78.1259 9.88864C78.0656 9.82864 78.0053 9.79863 77.945 9.73863C77.8846 9.67863 77.8545 9.58862 77.8243 9.52862C77.7941 9.46861 77.764 9.40861 77.764 9.3486L73.5713 9.40861C73.5713 9.40861 73.511 9.52862 73.4507 9.61862C73.3903 9.70863 73.3602 9.79863 73.2999 9.85864C73.2395 9.94864 73.149 10.0086 73.0586 10.0687C72.9681 10.1287 72.8776 10.1587 72.7569 10.1587C72.5759 10.1587 72.4251 10.0687 72.3045 9.82864C72.1537 9.58862 72.0933 9.16859 72.0933 8.56855V4.57827C72.0933 4.57827 72.0933 4.33826 72.0632 4.18825C72.0632 4.03824 71.9727 3.91823 71.852 3.82822C71.7314 3.73822 71.5806 3.64821 71.3996 3.58821C71.1884 3.5282 71.0075 3.4682 70.7963 3.4382C70.736 3.4382 70.6757 3.40819 70.6455 3.31819C70.6455 3.25818 70.6455 3.16818 70.6455 3.07817C70.6455 2.98816 70.6455 2.92816 70.736 2.83815C70.7963 2.77815 70.8566 2.71815 70.9773 2.71815C71.3091 2.71815 71.7012 2.71815 72.214 2.77815C72.7268 2.83815 73.149 2.89816 73.511 2.98816C73.5713 3.01817 73.6316 3.10817 73.692 3.19818C73.7221 3.31819 73.7523 3.4382 73.692 3.5582C73.692 3.58821 73.692 3.64821 73.692 3.67821C73.692 3.73822 73.692 3.79822 73.692 3.85822C73.692 3.91823 73.692 3.97823 73.692 4.06824C73.692 4.12824 73.692 4.21825 73.692 4.27825V5.02831L77.8545 4.9383V3.88823C77.8545 3.88823 77.8545 3.64821 77.7941 3.4982C77.7941 3.34819 77.7037 3.22818 77.6132 3.13818C77.4925 3.04817 77.3417 2.95816 77.1004 2.89816C76.8591 2.83815 76.6479 2.77815 76.4368 2.74815C76.3765 2.74815 76.3162 2.71815 76.286 2.62814C76.286 2.56814 76.2558 2.47813 76.286 2.38812C76.286 2.29812 76.3463 2.23811 76.3765 2.14811C76.4368 2.0881 76.4971 2.0281 76.6178 2.0281C76.7686 2.0281 76.9797 2.0281 77.1909 2.0281C77.4322 2.0281 77.6735 2.0281 77.8846 2.0881C78.1259 2.0881 78.3672 2.14811 78.6085 2.17811C78.8499 2.20811 79.061 2.23811 79.2118 2.29812C79.2721 2.32812 79.3325 2.41813 79.3928 2.50813C79.4229 2.62814 79.4229 2.74815 79.3928 2.86816C79.3928 2.89816 79.3928 2.95816 79.3928 3.01817C79.3928 3.07817 79.3928 3.13818 79.3928 3.22818C79.3928 3.31819 79.3928 3.37819 79.3928 3.4682C79.3928 3.5582 79.3928 3.61821 79.3928 3.67821V5.23832C79.3928 5.23832 79.6341 5.23832 79.7547 5.23832C79.8754 5.23832 79.9659 5.23832 80.0865 5.23832H81.474C81.474 5.23832 81.7757 5.23832 81.9265 5.23832C82.0773 5.23832 82.2583 5.23832 82.4393 5.23832V3.10817C82.4393 2.83815 82.4392 2.59814 82.3789 2.38812C82.3186 2.20811 82.2281 2.0581 82.0773 1.93809C81.8661 1.78808 81.655 1.69808 81.3835 1.60807C81.1121 1.51806 80.8708 1.45806 80.5993 1.39806C80.5088 1.39806 80.4485 1.33805 80.4183 1.24805C80.3882 1.15804 80.3882 1.09803 80.4183 1.00803C80.4183 0.918022 80.4787 0.858018 80.539 0.798014C80.5993 0.73801 80.72 0.708008 80.8406 0.708008C81.293 0.708008 81.836 0.768012 82.4393 0.828016C83.0425 0.918022 83.5553 1.00803 84.0077 1.12804C84.068 1.15804 84.1284 1.21804 84.1887 1.33805C84.249 1.42806 84.249 1.54807 84.1887 1.69808C84.1284 1.87809 84.068 2.0581 84.068 2.23811C84.068 2.41813 84.0077 2.59814 84.0077 2.77815L83.7664 2.86816ZM77.7036 5.92837L73.5412 5.98837V8.59855L77.7036 8.50854V5.92837ZM83.7362 12.0788V15.619C83.7362 16.1591 83.6458 16.5791 83.4648 16.9091C83.2838 17.2391 83.0727 17.4192 82.8314 17.4192C82.6202 17.4192 82.4694 17.3292 82.3488 17.1791C82.2583 17.0291 82.1979 16.9091 82.1979 16.7891H77.221C77.221 16.7891 77.0702 17.0891 76.9194 17.2992C76.7686 17.5092 76.5876 17.6292 76.3765 17.6292C76.1653 17.6292 76.0145 17.5092 75.8637 17.2691C75.7431 17.0291 75.6827 16.6091 75.6827 16.0091V12.9789C75.6827 12.9789 75.6827 12.7388 75.6224 12.5888C75.6224 12.4388 75.5319 12.3188 75.4113 12.2288C75.3208 12.1388 75.2001 12.0488 75.0191 11.9888C74.8683 11.9288 74.6874 11.8688 74.5064 11.8388C74.446 11.8388 74.3857 11.8088 74.3556 11.7188C74.3556 11.6588 74.3556 11.5688 74.3556 11.5088C74.3556 11.4187 74.4159 11.3587 74.4762 11.2987C74.5365 11.2387 74.627 11.2087 74.7175 11.1787C75.0493 11.1787 75.4113 11.1787 75.8637 11.2387C76.3162 11.2687 76.7083 11.3287 77.0702 11.4187C77.1306 11.4487 77.1909 11.5388 77.2512 11.6288C77.2814 11.7488 77.2814 11.8688 77.2512 11.9888C77.2512 11.9888 77.2512 12.0488 77.2512 12.0788C77.2512 12.0788 77.2512 12.1388 77.2512 12.1988C77.2512 12.2588 77.2512 12.2888 77.2512 12.3488C77.2512 12.4088 77.2512 12.4688 77.2512 12.4988V12.9188H82.2884V12.4088C82.2884 12.4088 82.2884 12.1688 82.2281 12.0188C82.2281 11.8688 82.1376 11.7488 82.017 11.6588C81.9265 11.5688 81.7757 11.4787 81.5947 11.4187C81.4137 11.3587 81.2026 11.2987 81.0216 11.2687C80.9613 11.2687 80.9009 11.2387 80.8708 11.1487C80.8708 11.0887 80.8406 10.9987 80.8708 10.9087C80.8708 10.8187 80.9009 10.7587 80.9613 10.6687C81.0216 10.6087 81.0819 10.5487 81.2026 10.5487C81.5343 10.5487 81.9265 10.5487 82.4393 10.6087C82.9219 10.6687 83.3743 10.7287 83.7061 10.7887C83.7664 10.8187 83.8267 10.9087 83.8871 10.9987C83.9172 11.1187 83.9172 11.2387 83.8871 11.3587C83.8871 11.3587 83.8871 11.4187 83.8871 11.4787C83.8871 11.5388 83.8871 11.5688 83.8871 11.6288C83.8871 11.6888 83.8871 11.7788 83.8871 11.8388C83.8871 11.8988 83.8871 11.9588 83.8871 12.0488L83.7362 12.0788ZM82.2281 15.8891V13.7889H77.1909V15.9191H82.2281V15.8891Z" fill="#1D1D1B"/>
<path d="M91.9404 2.958C93.0866 2.958 94.0518 3.28802 94.8059 3.91807C95.5599 4.54811 95.9219 5.41817 95.9219 6.52825C95.9219 7.06828 95.8314 7.54832 95.6203 7.99835C95.4091 8.44838 95.1377 8.8084 94.7757 9.13843C94.4137 9.43845 94.0216 9.67846 93.5089 9.85848C93.0263 10.0385 92.4833 10.1285 91.9102 10.1285C91.3371 10.1285 90.7942 10.0385 90.3116 9.85848C89.829 9.67846 89.4067 9.43845 89.0447 9.13843C88.7129 8.83841 88.4415 8.44838 88.2303 7.99835C88.0192 7.54832 87.9287 7.06828 87.9287 6.52825C87.9287 5.98821 88.0192 5.47817 88.2303 5.05815C88.4415 4.60811 88.7129 4.24809 89.0447 3.94807C89.4067 3.64805 89.829 3.40803 90.3116 3.22802C90.7942 3.04801 91.3371 2.958 91.9102 2.958H91.9404ZM91.9404 3.94807C91.1863 3.94807 90.583 4.18809 90.1608 4.66812C89.7385 5.14815 89.5273 5.7782 89.5273 6.49825C89.5273 7.21829 89.7385 7.81834 90.1608 8.32837C90.583 8.8084 91.1863 9.07842 91.9404 9.07842C92.6945 9.07842 93.2676 8.83841 93.6898 8.32837C94.1121 7.84834 94.3534 7.21829 94.3534 6.49825C94.3534 5.7782 94.1423 5.14815 93.6898 4.66812C93.2676 4.18809 92.6643 3.94807 91.9404 3.94807ZM94.2026 13.6987V15.5889C94.2026 15.7989 94.2629 15.9489 94.4138 16.0389C94.5646 16.1289 94.7154 16.1589 94.8964 16.1589H98.0936C98.2746 16.1289 98.4858 16.0989 98.7271 16.0689C98.9684 16.0689 99.1795 15.9789 99.4208 15.8589C99.451 15.8589 99.5113 15.7989 99.6018 15.7689C99.6923 15.7389 99.7828 15.7089 99.8733 15.6789C100.115 15.6789 100.356 15.6789 100.627 15.6789C100.899 15.6789 101.14 15.6789 101.351 15.7389C101.593 15.7689 101.774 15.8589 101.894 15.9789C102.015 16.0989 102.075 16.2489 102.075 16.3689C102.075 16.4889 102.015 16.6389 101.894 16.759C101.774 16.879 101.593 16.939 101.321 16.939L94.3534 16.999C93.8708 16.999 93.4485 16.939 93.0866 16.759C92.7246 16.5789 92.5436 16.2189 92.5436 15.6489V13.8188C92.5436 13.8188 92.5436 13.5787 92.4833 13.4287C92.4532 13.2787 92.3627 13.1887 92.2722 13.1287C92.1515 13.0687 92.0007 13.0087 91.7896 12.9487C91.5784 12.8887 91.3673 12.8587 91.0958 12.8287C91.0053 12.8287 90.945 12.7987 90.9148 12.7087C90.8847 12.6187 90.8847 12.5587 90.9148 12.4687C90.9148 12.3787 90.9752 12.3186 91.0355 12.2286C91.0958 12.1386 91.1863 12.1086 91.307 12.1086H91.9102C92.1515 12.1086 92.423 12.1086 92.6643 12.1086C92.9056 12.1086 93.1771 12.1086 93.4485 12.1386C93.72 12.1386 93.9311 12.1686 94.1423 12.2286C94.2026 12.2586 94.2629 12.3486 94.3233 12.4387C94.3534 12.5587 94.3534 12.6787 94.3233 12.7987C94.3233 12.8587 94.2931 13.0087 94.2629 13.1887C94.2629 13.3687 94.2629 13.5487 94.2629 13.6987H94.2026ZM100.477 2.86799V10.9085C100.477 11.8386 100.386 12.5887 100.175 13.1887C99.9939 13.7887 99.7828 14.0588 99.5716 14.0588C99.3605 14.0588 99.2097 13.8488 99.1192 13.3987C99.0287 12.9487 98.9684 12.4087 98.9684 11.7486V3.19802C98.9684 2.928 98.9684 2.68798 98.908 2.47797C98.8477 2.29796 98.7572 2.14794 98.6064 2.02794C98.3953 1.87793 98.154 1.78792 97.9127 1.69791C97.6412 1.60791 97.3999 1.5479 97.1284 1.4879C97.0379 1.4879 96.9776 1.4279 96.9173 1.33789C96.8871 1.24788 96.8871 1.18788 96.9173 1.09787C96.9173 1.00787 96.9776 0.947862 97.0379 0.887858C97.0983 0.827854 97.2189 0.797852 97.3396 0.797852C97.792 0.797852 98.3349 0.857856 98.9382 0.91786C99.5415 1.00787 100.054 1.09787 100.507 1.21788C100.567 1.24788 100.627 1.30789 100.688 1.4279C100.748 1.5179 100.748 1.63791 100.688 1.78792C100.627 1.96793 100.597 2.14794 100.567 2.32796C100.567 2.50797 100.537 2.68798 100.537 2.86799H100.477Z" fill="#1D1D1B"/>
</g>
<defs>
<clipPath id="clip0_1293_3433">
<rect width="145" height="71" fill="white"/>
</clipPath>
</defs>
</svg>
