<svg width="20" height="20" viewBox="0 0 20 20" fill="none" xmlns="http://www.w3.org/2000/svg">
<g id="20 / file-list">
<path id="Vector" d="M15.8334 18.3333H4.16669C2.78598 18.3333 1.66669 17.214 1.66669 15.8333V2.49996C1.66669 2.03973 2.03979 1.66663 2.50002 1.66663H14.1667C14.6269 1.66663 15 2.03973 15 2.49996V12.5H18.3334V15.8333C18.3334 17.214 17.2141 18.3333 15.8334 18.3333ZM15 14.1666V15.8333C15 16.2935 15.3731 16.6666 15.8334 16.6666C16.2936 16.6666 16.6667 16.2935 16.6667 15.8333V14.1666H15ZM13.3334 16.6666V3.33329H3.33335V15.8333C3.33335 16.2935 3.70645 16.6666 4.16669 16.6666H13.3334ZM5.00002 5.83329H11.6667V7.49996H5.00002V5.83329ZM5.00002 9.16663H11.6667V10.8333H5.00002V9.16663ZM5.00002 12.5H9.16669V14.1666H5.00002V12.5Z" fill="white"/>
</g>
</svg>
