<svg width="20" height="21" viewBox="0 0 20 21" fill="none" xmlns="http://www.w3.org/2000/svg">
<g id="ci:info">
<path id="Vector" d="M9.5 9.22222V13.1111M9.5 17C8.58075 17 7.67049 16.8189 6.82122 16.4672C5.97194 16.1154 5.20026 15.5998 4.55025 14.9497C3.90024 14.2997 3.38463 13.5281 3.03284 12.6788C2.68106 11.8295 2.5 10.9193 2.5 10C2.5 9.08075 2.68106 8.17049 3.03284 7.32122C3.38463 6.47194 3.90024 5.70026 4.55025 5.05025C5.20026 4.40024 5.97194 3.88463 6.82122 3.53284C7.67049 3.18106 8.58075 3 9.5 3C11.3565 3 13.137 3.7375 14.4497 5.05025C15.7625 6.36301 16.5 8.14348 16.5 10C16.5 11.8565 15.7625 13.637 14.4497 14.9497C13.137 16.2625 11.3565 17 9.5 17ZM9.53889 6.88889V6.96667H9.46111V6.88889H9.53889Z" stroke="#73777A" stroke-width="1.2" stroke-linecap="round" stroke-linejoin="round"/>
</g>
</svg>
