<svg width="48" height="48" viewBox="0 0 48 48" fill="none" xmlns="http://www.w3.org/2000/svg">
<g id="48/icon_point">
<g id="Group">
<circle id="Ellipse 31" cx="23.075" cy="23.075" r="23.075" fill="white"/>
<path id="Vector" fill-rule="evenodd" clip-rule="evenodd" d="M23.0769 44.3077C34.8018 44.3077 44.3077 34.8018 44.3077 23.0769C44.3077 11.352 34.8018 1.84615 23.0769 1.84615C11.352 1.84615 1.84615 11.352 1.84615 23.0769C1.84615 34.8018 11.352 44.3077 23.0769 44.3077ZM23.0769 46.1538C35.8228 46.1538 46.1538 35.8228 46.1538 23.0769C46.1538 10.3311 35.8228 0 23.0769 0C10.3311 0 0 10.3311 0 23.0769C0 35.8228 10.3311 46.1538 23.0769 46.1538Z" fill="#1A1818"/>
</g>
<g id="Group_2">
<path id="Vector_2" d="M30.2 15.9219C31.76 16.0743 32.81 16.4211 33.5936 17.2059C35 18.6111 35 20.8743 35 25.3995C35 29.9247 35 32.1879 33.5936 33.5931C32.1884 34.9995 29.9252 34.9995 25.4 34.9995H20.6C16.0748 34.9995 13.8116 34.9995 12.4064 33.5931C11 32.1879 11 29.9247 11 25.3995C11 20.8743 11 18.6111 12.4064 17.2059C13.19 16.4211 14.24 16.0743 15.8 15.9219" stroke="#1A1818" stroke-width="2"/>
<path id="Vector_3" d="M20.6 15.8H25.4M21.8 19.4H24.2M18.3908 22.76L17.5268 22.04C16.6784 21.332 16.2536 20.978 16.0268 20.4944C15.8 20.0096 15.8 19.4576 15.8 18.3512V17C15.8 14.1716 15.8 12.7568 16.6784 11.8784C17.5568 11 18.9716 11 21.8 11H24.2C27.0284 11 28.442 11 29.3216 11.8784C30.2 12.7568 30.2 14.1716 30.2 17V18.3524C30.2 19.4564 30.2 20.0096 29.9732 20.4944C29.7464 20.978 29.3216 21.332 28.4732 22.0388L27.6092 22.7588C25.406 24.5948 24.3032 25.514 23 25.514C21.6968 25.514 20.5952 24.596 18.3908 22.7588V22.76Z" stroke="#1A1818" stroke-width="2" stroke-linecap="round"/>
<path id="Vector_4" d="M15.8 20.5996L18.3908 22.7596C20.5952 24.5956 21.6968 25.5136 23 25.5136C24.3032 25.5136 25.406 24.5956 27.6092 22.7584L30.2 20.5996" stroke="#1A1818" stroke-width="2" stroke-linecap="round"/>
</g>
</g>
</svg>
