<svg width="226" height="29" viewBox="0 0 226 29" fill="none" xmlns="http://www.w3.org/2000/svg">
<path d="M11.9111 29C7.75607 29 3.84672 26.8972 3.84672 23.0026C3.84672 19.7875 6.52416 17.7777 9.81755 17.1912V15.0883H-1.13965V11.7195H24.3459C25.1772 11.7195 25.3001 12.2452 25.3001 13.42C25.3001 14.5948 25.1772 15.0901 24.3459 15.0901H14.0651V17.193C17.3283 17.8116 19.9754 19.7893 19.9754 23.0044C19.9754 26.899 16.0661 29.0018 11.9111 29.0018V29ZM2.58455 3.09169V0H20.6217C21.3302 0 21.453 0.402331 21.453 1.54495C21.453 2.68757 21.3302 3.0899 20.6217 3.0899H14.5583C15.7902 4.76003 19.7903 6.39796 21.7913 7.20083C22.5603 7.51018 22.2826 7.81953 21.7913 8.99434C21.3302 10.1083 21.145 10.3551 20.3439 10.0762C18.2825 9.33408 14.4034 7.75695 12.1568 5.37693C10.2786 7.54058 5.78537 9.45747 3.44618 10.1691C2.70739 10.3855 2.42968 10.1691 1.9686 9.05692C1.41495 7.69615 1.26008 7.44939 1.99886 7.17044C3.59927 6.61432 8.12457 4.9442 9.44727 3.0899H2.58455V3.09169ZM11.9413 20.4348C9.63241 20.4348 8.032 21.4237 8.032 23.0008C8.032 24.578 9.63241 25.5668 11.9413 25.5668C14.2503 25.5668 15.7884 24.578 15.7884 23.0008C15.7884 21.4237 14.188 20.4348 11.9413 20.4348Z" fill="#003973"/>
<path d="M36.437 6.02739H27.9115V2.31879H37.3912C38.3151 2.31879 39.0539 3.09127 39.9155 4.20528C40.7166 5.22452 41.0548 6.09176 41.0548 6.70867C41.0548 12.9528 34.9612 18.024 29.9748 20.8993C29.3891 21.2087 28.8675 21.0531 28.0967 19.8801C27.3276 18.7357 27.0196 18.1796 27.7282 17.7164C31.2672 15.4598 36.9621 11.2559 36.9621 6.64787C36.9621 6.24554 36.777 6.02918 36.4387 6.02918L36.437 6.02739ZM49.6105 25.7219C49.6105 26.4336 48.8415 26.6178 47.4565 26.6178C46.164 26.6178 45.363 26.4622 45.363 25.7523V0.185547H49.6105V25.7219Z" fill="#003973"/>
<path d="M61.8546 2.59596C66.533 2.59596 69.8887 5.84142 69.8887 10.6962C69.8887 15.551 66.533 18.7965 61.8546 18.7965C57.1762 18.7965 53.8525 15.551 53.8525 10.6962C53.8525 5.84142 57.1762 2.59596 61.8546 2.59596ZM61.8546 6.15256C59.608 6.15256 57.9755 7.94606 57.9755 10.6962C57.9755 13.4464 59.6062 15.2417 61.8546 15.2417C64.103 15.2417 65.7319 13.4803 65.7319 10.6962C65.7319 7.91209 64.1012 6.15256 61.8546 6.15256ZM76.9988 25.7219C76.9988 26.4336 76.2298 26.6178 74.8448 26.6178C73.5523 26.6178 72.7512 26.4622 72.7512 25.7523V0.185547H76.9988V25.7219Z" fill="#003973"/>
<path d="M106.512 20.188C107.343 20.188 107.466 20.8371 107.466 22.0119C107.466 23.1867 107.343 23.8054 106.512 23.8054H81.0264V20.188H89.89V14.3139H94.1376V20.188H106.512ZM99.2468 16.9729V12.676H84.8111V9.0586H99.2468V6.30666C99.2468 5.75055 98.9994 5.62717 98.5704 5.62717H84.8111V2.00977H99.5228C100.324 2.00977 101.431 2.72144 102.14 3.43134C102.786 4.08043 103.432 5.03887 103.432 5.65757V16.9729C103.432 17.6846 102.693 17.8688 101.308 17.8688C100.016 17.8688 99.2468 17.6828 99.2468 16.9729Z" fill="#003973"/>
<path d="M131.096 11.5622C131.805 11.5622 131.928 12.2417 131.928 13.3861C131.928 14.5305 131.805 15.1796 131.096 15.1796H124.665V20.1882H134.822C135.654 20.1882 135.777 20.8373 135.777 22.0121C135.777 23.1869 135.654 23.8056 134.822 23.8056H109.337V20.1882H120.417V15.1796H116.908C116.109 15.1796 114.969 14.4072 114.293 13.7259C113.647 13.0464 113.001 12.0879 113.001 11.4692V2.31934H117.248V10.8523C117.248 11.3155 117.494 11.564 117.925 11.564H131.098L131.096 11.5622Z" fill="#003973"/>
<path d="M142.173 19.9087C141.372 19.9087 140.234 19.1362 139.556 18.4549C138.91 17.7755 138.264 16.817 138.264 16.1983V2.31879H152.514V17.5913C152.514 19.045 151.838 19.9105 150.36 19.9105H142.173V19.9087ZM142.511 15.5814C142.511 16.0463 142.759 16.2931 143.188 16.2931H148.267V5.9362H142.511V15.5814ZM161.009 25.7219C161.009 26.4336 160.24 26.6178 158.855 26.6178C157.563 26.6178 156.762 26.4622 156.762 25.7523V0.185547H161.009V25.7219Z" fill="#003973"/>
<path d="M172.728 14.6469H169.18V13.1037H173.125C173.51 13.1037 173.818 13.4256 174.175 13.8887C174.508 14.3125 174.649 14.6737 174.649 14.9312C174.649 17.5294 172.114 19.6394 170.038 20.8356C169.794 20.9644 169.577 20.9 169.257 20.4118C168.936 19.9362 168.808 19.7037 169.104 19.5124C170.576 18.5736 172.945 16.823 172.945 14.9062C172.945 14.7399 172.869 14.6487 172.726 14.6487L172.728 14.6469ZM178.209 22.8419C178.209 23.137 177.889 23.2138 177.314 23.2138C176.776 23.2138 176.443 23.1495 176.443 22.8544V12.2168H178.211V22.8419H178.209Z" fill="#003973"/>
<path d="M189.735 17.7725C189.735 18.0819 189.402 18.1713 188.864 18.1713C188.327 18.1713 187.994 18.0819 187.994 17.7725V15.625H185.868C185.587 16.9625 184.369 17.9031 182.833 17.9031C181.092 17.9031 179.746 16.68 179.746 15.0349C179.746 13.3898 181.092 12.1274 182.833 12.1274C184.255 12.1274 185.407 12.9499 185.792 14.148H187.994V12.0898H189.735V17.7761V17.7725ZM182.831 13.5919C182 13.5919 181.436 14.2088 181.436 15.0331C181.436 15.8574 182 16.435 182.831 16.435C183.663 16.435 184.241 15.8557 184.241 15.0331C184.241 14.2106 183.677 13.5919 182.831 13.5919ZM183.677 23.9345C183.331 23.9345 182.934 23.6519 182.651 23.3551C182.37 23.0851 182.114 22.7114 182.114 22.4682V18.7882H183.842V19.9594H187.864V18.7882H189.592V22.9939C189.592 23.5858 189.297 23.9327 188.67 23.9327H183.675L183.677 23.9345ZM187.866 22.4825V21.3882H183.844V22.2894C183.844 22.4181 183.908 22.4825 184.011 22.4825H187.866Z" fill="#003973"/>
<path d="M194.908 17.735C194.343 18.7381 193.293 19.9863 192.563 20.5781C192.319 20.7838 192.077 20.6049 191.705 20.2044C191.372 19.8575 191.167 19.6394 191.41 19.4069C192.627 18.275 193.907 16.8731 193.907 15.0206V14.6093H191.614V13.1037H197.774C198.068 13.1037 198.119 13.3737 198.119 13.8494C198.119 14.325 198.068 14.6093 197.774 14.6093H195.712V14.9956C195.712 16.6424 196.967 18.1731 198.082 19.2281C198.324 19.4605 198.222 19.7037 197.838 20.09C197.416 20.5012 197.3 20.6175 197.044 20.4118C196.287 19.7949 195.429 18.7399 194.906 17.735H194.908ZM201.003 22.8419C201.003 23.137 200.683 23.2138 200.106 23.2138C199.568 23.2138 199.235 23.1495 199.235 22.8544V12.2168H201.003V22.8419Z" fill="#003973"/>
<path d="M202.744 18.3393V16.9625H209.813C210.159 16.9625 210.21 17.1681 210.21 17.6581C210.21 18.148 210.159 18.3393 209.813 18.3393H206.83V19.6393C206.83 19.9344 206.548 20.013 205.972 20.013C205.395 20.013 205.126 19.9361 205.126 19.6393V18.3393H202.744ZM206.344 16.5512C204.832 16.5512 203.501 15.6124 203.501 14.1712C203.501 12.73 204.832 11.8037 206.344 11.8037C207.855 11.8037 209.187 12.73 209.187 14.1712C209.187 15.6124 207.855 16.5512 206.344 16.5512ZM206.036 23.8075C205.754 23.8075 205.37 23.5375 205.101 23.2549C204.845 22.9974 204.601 22.6505 204.601 22.4181V20.5906H206.342V22.0193C206.342 22.2518 206.443 22.3537 206.636 22.3537H212.462C212.744 22.3537 212.795 22.6505 212.795 23.0868C212.795 23.5625 212.744 23.8075 212.462 23.8075H206.034H206.036ZM206.344 13.1037C205.575 13.1037 205.165 13.6312 205.165 14.1712C205.165 14.7112 205.575 15.2512 206.344 15.2512C207.113 15.2512 207.522 14.7112 207.522 14.1712C207.522 13.6312 207.113 13.1037 206.344 13.1037ZM208.686 18.8025H210.915V12.088H212.656V20.8105C212.656 21.1449 212.259 21.1968 211.786 21.1968C211.236 21.1968 210.915 21.1074 210.915 20.8105V20.2437H208.686V18.8025Z" fill="#003973"/>
<path d="M216.421 16.628C216.421 16.8086 216.498 16.898 216.69 16.898H221.005C221.301 16.898 221.351 17.1412 221.351 17.6186C221.351 18.096 221.299 18.3392 221.005 18.3392H216.293C215.973 18.3392 215.524 18.0299 215.243 17.7474C214.974 17.4773 214.718 17.0786 214.718 16.7961V12.5117H220.288C220.584 12.5117 220.633 12.7441 220.633 13.2198C220.633 13.6954 220.582 13.9529 220.288 13.9529H216.42V16.628H216.421ZM223.824 22.3518C224.105 22.3518 224.156 22.6486 224.156 23.0849C224.156 23.5606 224.105 23.8056 223.824 23.8056H218.047C217.714 23.8056 217.253 23.4962 216.984 23.2137C216.703 22.9437 216.446 22.5449 216.446 22.3V19.5605H218.187V22.0693C218.187 22.2624 218.291 22.3518 218.483 22.3518H223.824ZM223.927 19.9092C223.927 20.2436 223.53 20.2954 223.056 20.2954C222.506 20.2954 222.186 20.206 222.186 19.9092V12.0879H223.927V14.9185H225.86V16.3973H223.927V19.9092Z" fill="#003973"/>
</svg>
