<svg width="21" height="20" viewBox="0 0 21 20" fill="none" xmlns="http://www.w3.org/2000/svg">
<g clip-path="url(#clip0_264_3311)">
<path fill-rule="evenodd" clip-rule="evenodd" d="M2.16699 9.58333C2.16699 5.53583 6.04699 2.5 10.5003 2.5C14.9537 2.5 18.8337 5.53583 18.8337 9.58333C18.8337 13.6308 14.9537 16.6667 10.5003 16.6667C10.0628 16.6667 9.63199 16.6383 9.21199 16.5833L6.79533 18.1933C6.6582 18.2847 6.49708 18.3333 6.33232 18.3331C6.16756 18.3329 6.00656 18.2838 5.86967 18.1922C5.73278 18.1005 5.62613 17.9703 5.56321 17.818C5.50029 17.6657 5.48391 17.4982 5.51616 17.3367L5.88699 15.4858C3.69033 14.2417 2.16699 12.0975 2.16699 9.58333Z" fill="#191600"/>
</g>
<defs>
<clipPath id="clip0_264_3311">
<rect width="20" height="20" fill="white" transform="translate(0.5)"/>
</clipPath>
</defs>
</svg>
