<svg width="52" height="52" viewBox="0 0 52 52" fill="none" xmlns="http://www.w3.org/2000/svg">
<g clip-path="url(#clip0_264_3385)">
<path d="M18.572 18.5717C23.1875 18.5717 26.9291 14.8301 26.9291 10.2146C26.9291 5.59904 23.1875 1.85742 18.572 1.85742C13.9565 1.85742 10.2148 5.59904 10.2148 10.2146C10.2148 14.8301 13.9565 18.5717 18.572 18.5717Z" stroke="black" stroke-width="3.42857" stroke-linecap="round" stroke-linejoin="round"/>
<path d="M13.0003 46.4292H1.85742V40.8577C1.88699 38.0267 2.63362 35.2493 4.02758 32.785C5.42154 30.3208 7.41734 28.25 9.82856 26.7662C12.2398 25.2824 14.9877 24.4339 17.8158 24.3C20.6438 24.1661 23.4597 24.7512 26.0003 26.0006M50.1431 31.572L32.6489 49.0663L24.7374 50.1435L25.8517 42.232L43.3089 24.7377L50.1431 31.572Z" stroke="black" stroke-width="3.42857" stroke-linecap="round" stroke-linejoin="round"/>
</g>
<defs>
<clipPath id="clip0_264_3385">
<rect width="52" height="52" fill="white"/>
</clipPath>
</defs>
</svg>
