<svg width="17" height="16" viewBox="0 0 17 16" fill="none" xmlns="http://www.w3.org/2000/svg">
<g id="16 / out">
<g id="Vector">
<path d="M9.1665 8.00065H15.1665H9.1665ZM15.1665 8.00065L12.9445 5.33398L15.1665 8.00065Z" fill="#9E9FA3"/>
<path d="M15.1665 8.00065L12.9445 5.33398M9.1665 8.00065H15.1665H9.1665Z" stroke="#9E9FA3" stroke-width="1.33333" stroke-linecap="round" stroke-linejoin="round"/>
</g>
<path id="Vector_2" d="M15.1668 8L12.9448 10.6667" stroke="#9E9FA3" stroke-width="1.33333" stroke-linecap="round" stroke-linejoin="round"/>
<path id="Vector_3" d="M9.8335 4.66584V3.4485C9.83349 3.26408 9.79522 3.08167 9.72112 2.9128C9.64701 2.74393 9.53868 2.59226 9.40297 2.46739C9.26726 2.34252 9.10713 2.24716 8.93268 2.18734C8.75824 2.12751 8.57328 2.10453 8.3895 2.11984L3.05616 2.56384C2.72286 2.59159 2.41217 2.7436 2.1857 2.98971C1.95922 3.23582 1.83351 3.55805 1.8335 3.8925V12.1058C1.83351 12.4403 1.95922 12.7625 2.1857 13.0086C2.41217 13.2547 2.72286 13.4067 3.05616 13.4345L8.3895 13.8792C8.57333 13.8945 8.75835 13.8715 8.93284 13.8116C9.10733 13.7518 9.2675 13.6563 9.40322 13.5314C9.53894 13.4064 9.64726 13.2547 9.72132 13.0857C9.79538 12.9168 9.83358 12.7343 9.8335 12.5498V11.3325" stroke="#9E9FA3" stroke-width="1.33333" stroke-linecap="round" stroke-linejoin="round"/>
</g>
</svg>
