<svg width="200" height="40" viewBox="0 0 200 40" fill="none" xmlns="http://www.w3.org/2000/svg">
<g clip-path="url(#clip0_1403_4632)">
<path d="M15.8765 16.0783H21.768V0.649048H24.8027V39.2606H21.768V18.8936H15.8765V33.4109H0V3.2069H15.8765V16.0783ZM2.99022 30.5518H12.8835V6.066H2.99022V30.5518ZM30.5191 40V0H33.5983V40H30.5191Z" fill="#0F0F0F"/>
<path d="M44.2392 31.3981C42.305 29.2181 41.3379 25.888 41.3379 21.4104V15.4293C41.3379 10.9517 42.305 7.62153 44.2392 5.4416C46.1734 3.26167 48.68 2.16897 51.7592 2.16897C54.8383 2.16897 57.345 3.25893 59.2792 5.4416C61.2134 7.62426 62.1805 10.9517 62.1805 15.4293V21.4104C62.1805 25.888 61.2134 29.2181 59.2792 31.3981C57.345 33.578 54.8383 34.6707 51.7592 34.6707C48.68 34.6707 46.1734 33.5807 44.2392 31.3981ZM57.081 29.251C58.401 27.5476 59.0597 24.9185 59.0597 21.3638V15.4265C59.0597 11.8718 58.401 9.25099 57.081 7.56128C55.761 5.87156 53.988 5.02533 51.7592 5.02533C49.5304 5.02533 47.763 5.87156 46.4596 7.56128C45.1535 9.25099 44.5032 11.8746 44.5032 15.4265V21.3638C44.5032 24.9185 45.1563 27.5476 46.4596 29.251C47.763 30.9571 49.5304 31.8088 51.7592 31.8088C53.988 31.8088 55.761 30.9571 57.081 29.251ZM73.8773 40H70.7121V0H73.8773V40Z" fill="#0F0F0F"/>
<path d="M111.523 0H114.688V40H111.523V19.329H99.6064C96.5578 25.2526 91.4416 30.5244 84.2579 35.1472L82.4098 32.7646C85.6057 30.7709 88.4181 28.5335 90.8525 26.0468C93.2841 23.5629 95.235 20.9339 96.7023 18.1597C92.656 18.5924 88.1402 18.8388 83.1574 18.8963H82.3209L82.1875 16.0372H83.024C85.136 16.0099 87.6566 15.9222 90.5885 15.7771C93.5203 15.6319 95.9964 15.4594 98.0195 15.2567C99.045 12.5702 99.5591 9.85349 99.5591 7.10941V6.24127H83.0685V3.42325H102.724V6.54252C102.724 9.95208 102.107 13.274 100.876 16.5083H111.517V0H111.523Z" fill="#0F0F0F"/>
<path d="M152.374 16.0783V0H155.495V40H152.374V18.8963H142.786V33.4137H123.395V3.2069H142.786V16.0783H152.374ZM126.518 30.5518H139.666V6.066H126.518V30.5518Z" fill="#0F0F0F"/>
<path d="M162.006 36.7494V33.9314H200.001V36.7494H162.006ZM180.167 13.9095C177.44 17.927 172.633 21.553 165.744 24.7872L164.293 22.1445C169.512 19.6606 173.375 17.0534 175.881 14.323C178.388 11.5927 179.641 8.65414 179.641 5.50475V2.29785H182.762V5.50475C182.762 7.46833 182.368 9.39083 181.576 11.2695L197.713 22.2759L195.954 24.79L180.167 13.9123V13.9095Z" fill="#0F0F0F"/>
</g>
<defs>
<clipPath id="clip0_1403_4632">
<rect width="200" height="40" fill="white"/>
</clipPath>
</defs>
</svg>
