<svg width="155" height="40" viewBox="0 0 155 40" fill="none" xmlns="http://www.w3.org/2000/svg">
<g clip-path="url(#clip0_1403_4643)">
<path d="M15.4586 16.0783H21.195V0.649048H24.1498V39.2606H21.195V18.8936H15.4586V33.4109H0V3.2069H15.4586V16.0783ZM2.91151 30.5518H12.5444V6.066H2.91151V30.5518ZM29.7158 40V0H32.7139V40H29.7158Z" fill="#0F0F0F"/>
<path d="M43.0749 31.3981C41.1916 29.2181 40.25 25.888 40.25 21.4104V15.4293C40.25 10.9517 41.1916 7.62153 43.0749 5.4416C44.9582 3.26167 47.3989 2.16897 50.397 2.16897C53.3951 2.16897 55.8358 3.25893 57.7191 5.4416C59.6023 7.62426 60.544 10.9517 60.544 15.4293V21.4104C60.544 25.888 59.6023 29.2181 57.7191 31.3981C55.8358 33.578 53.3951 34.6707 50.397 34.6707C47.3989 34.6707 44.9582 33.5807 43.0749 31.3981ZM55.5787 29.251C56.864 27.5476 57.5053 24.9185 57.5053 21.3638V15.4265C57.5053 11.8718 56.864 9.25099 55.5787 7.56128C54.2934 5.87156 52.5671 5.02533 50.397 5.02533C48.2269 5.02533 46.506 5.86882 45.2369 7.56128C43.9651 9.25099 43.332 11.8746 43.332 15.4265V21.3638C43.332 24.9185 43.9679 27.5476 45.2369 29.251C46.506 30.9571 48.2269 31.8088 50.397 31.8088C52.5671 31.8088 54.2934 30.9571 55.5787 29.251ZM71.933 40H68.851V0H71.933V40Z" fill="#0F0F0F"/>
<path d="M108.629 16.0783V0H111.668V40H108.629V18.8963H99.2936V33.4137H80.4121V3.2069H99.2936V16.0783H108.629ZM83.4508 30.5518H96.2522V6.066H83.4508V30.5518Z" fill="#0F0F0F"/>
<path d="M118.006 36.7496V33.9316H155V36.7496H118.006ZM135.689 13.9124C133.034 17.9272 128.353 21.5531 121.645 24.7902L120.233 22.1474C125.314 19.6635 129.076 17.0564 131.516 14.326C133.957 11.5956 135.177 8.65707 135.177 5.50768V2.30078H138.216V5.50768C138.216 7.474 137.832 9.39376 137.061 11.2724L152.773 22.2789L151.061 24.7929L135.689 13.9152V13.9124Z" fill="#0F0F0F"/>
</g>
<defs>
<clipPath id="clip0_1403_4643">
<rect width="155" height="40" fill="white"/>
</clipPath>
</defs>
</svg>
