<svg width="225" height="28" viewBox="0 0 225 28" fill="none" xmlns="http://www.w3.org/2000/svg">
<g clip-path="url(#clip0_1293_3449)">
<path d="M15.4948 18.0494L13.0201 21.2816C12.1017 20.6963 11.1449 19.78 10.1535 18.5345C9.16206 17.289 8.50881 16.082 8.19563 14.9096C7.84019 16.2283 7.15043 17.5623 6.12828 18.9118C5.10422 20.2613 3.98792 21.2815 2.77557 21.9726L0.425781 18.8656C2.32597 17.7144 3.7516 16.1397 4.70266 14.1415C5.65371 12.1433 6.12828 9.5945 6.12828 6.49901V2.69894H10.263V6.43355C10.263 9.5098 10.701 11.9431 11.5791 13.7315C12.4571 15.5198 13.7617 16.9598 15.4948 18.0474V18.0494ZM19.4431 26.7121H15.683V12.9326H12.363V9.4482H15.683V0.502441H19.4431V26.7121ZM25.0822 27.9692H21.1973V0H25.0822V27.9692Z" fill="#050505"/>
<path d="M42.9386 27.9997H38.8346V18.8018H28.3711V15.5696H53.5904V18.8018H42.9386V27.9997ZM50.3953 1.25488V12.7128H31.597V1.25488H50.3953ZM46.2587 9.44794V4.51978H35.7644V9.44794H46.2587Z" fill="#050505"/>
<path d="M69.5378 14.1569H56.5361V1.25514H60.6708V4.64517H65.4011V1.25514H69.5358V14.1569H69.5378ZM78.6218 27.6227H60.0752V16.4169H64.2426V18.9272H74.4564V16.4169H78.6237V27.6227H78.6218ZM65.4011 10.9247V7.87928H60.6708V10.9247H65.4011ZM74.4564 24.3578V22.1613H64.2426V24.3578H74.4564ZM78.6545 15.1291H74.4564V9.32115H70.9788V5.83679H74.4564V0H78.6545V15.1291Z" fill="#050505"/>
<path d="M83.291 9.10362C83.291 7.0746 84.0269 5.4152 85.5005 4.12926C86.9742 2.84332 88.8052 2.19842 90.9994 2.19842C93.1935 2.19842 95.0303 2.84139 96.5136 4.12926C97.9969 5.41712 98.7385 7.0746 98.7385 9.10362C98.7385 11.1326 97.9969 12.7612 96.5136 14.0472C95.0303 15.335 93.1935 15.978 90.9994 15.978C88.8052 15.978 86.9742 15.335 85.5005 14.0472C84.0269 12.7593 83.291 11.1115 83.291 9.10362ZM106.318 27.2781H86.7379V18.2072H90.9052V24.0459H106.32V27.2781H106.318ZM87.3316 9.10362C87.3316 10.1297 87.6755 10.9517 88.3652 11.5677C89.055 12.1856 89.9311 12.4937 90.9975 12.4937C92.0638 12.4937 92.9438 12.1856 93.6451 11.5677C94.3444 10.9498 94.6941 10.1297 94.6941 9.10362C94.6941 8.07756 94.3444 7.21513 93.6451 6.57601C92.9457 5.93882 92.0638 5.61926 90.9975 5.61926C89.9311 5.61926 89.055 5.93882 88.3652 6.57601C87.6755 7.21513 87.3316 8.05638 87.3316 9.10362ZM105.753 20.2786H101.555V0H105.753V20.2786Z" fill="#050505"/>
<path d="M130.721 20.3729C129.927 20.6039 128.553 20.808 126.601 20.9851C124.647 21.1641 122.847 21.2527 121.197 21.2527H118.972V2.57381H123.106V17.7972H123.608C125.988 17.7972 128.223 17.5566 130.311 17.0753C130.354 17.4526 130.415 18.007 130.5 18.7385C130.582 19.472 130.657 20.0149 130.719 20.371L130.721 20.3729ZM132.194 11.9277H126.962V8.60117H132.194V0.47164H136.048V26.6813H132.194V11.9277ZM141.718 27.9692H137.77V0H141.718V27.9692Z" fill="#050505"/>
<path d="M170.227 24.5464H145.008V21.2507H155.504V16.9502C152.977 16.6364 150.966 15.7836 149.473 14.3918C147.98 12.9999 147.233 11.2905 147.233 9.25955C147.233 6.95718 148.184 5.0841 150.084 3.6403C151.984 2.19651 154.49 1.47461 157.602 1.47461C160.715 1.47461 163.251 2.19651 165.153 3.6403C167.053 5.0841 168.004 6.95718 168.004 9.25955C168.004 11.3097 167.253 13.0307 165.749 14.4226C164.244 15.8144 162.219 16.6575 159.671 16.9502V21.2507H170.229V24.5464H170.227ZM162.065 12.588C163.203 11.7506 163.773 10.6533 163.773 9.29227C163.773 7.93126 163.214 6.8436 162.098 6.02737C160.98 5.21115 159.481 4.80304 157.602 4.80304C155.723 4.80304 154.224 5.21115 153.106 6.02737C151.988 6.8436 151.431 7.93126 151.431 9.29227C151.431 10.6533 151.996 11.7525 153.123 12.588C154.251 13.4254 155.744 13.8431 157.604 13.8431C159.464 13.8431 160.93 13.4254 162.069 12.588H162.065Z" fill="#050505"/>
<path d="M176.993 13.152C177.097 13.152 177.249 13.1578 177.447 13.1674C177.645 13.1789 177.787 13.1828 177.869 13.1828C180.502 13.1828 182.778 12.973 184.7 12.5552C184.742 12.9114 184.794 13.435 184.857 14.1242C184.921 14.8152 184.973 15.3389 185.015 15.6931C182.863 16.1532 178.874 16.3842 173.047 16.3842V2.19649H183.948V5.46139H176.993V7.59628H183.635V10.8612H176.993V13.152ZM176.304 18.2053H195.916V27.998H191.782V21.4682H176.305V18.2033L176.304 18.2053ZM195.916 16.9829H192.001V10.5801H190.122V16.9829H186.237V0.50244H190.122V7.3133H192.001V0H195.916V16.9829Z" fill="#050505"/>
<path d="M224.425 24.3906H199.206V21.0949H224.425V24.3906ZM223.736 12.744L221.887 16.1032C219.903 15.7066 217.903 14.8327 215.887 13.4832C213.872 12.1337 212.498 10.5167 211.768 8.63397C211.057 10.5167 209.716 12.1299 207.743 13.4678C205.769 14.8076 203.769 15.6855 201.742 16.1051C201.637 15.8972 201.356 15.3948 200.897 14.5978C200.438 13.8028 200.092 13.1848 199.863 12.7459C202.349 12.4321 204.588 11.433 206.584 9.74858C208.578 8.06416 209.575 6.01782 209.575 3.61149V1.94824H214.023V3.61149C214.023 6.01782 215.011 8.05838 216.984 9.73318C218.957 11.408 221.209 12.4129 223.736 12.7459V12.744Z" fill="#050505"/>
</g>
<defs>
<clipPath id="clip0_1293_3449">
<rect width="224" height="28" fill="white" transform="translate(0.425781)"/>
</clipPath>
</defs>
</svg>
