<svg width="20" height="20" viewBox="0 0 20 20" fill="none" xmlns="http://www.w3.org/2000/svg">
<g id="20 / money-dollar-circle">
<path id="Vector" d="M10.0041 18.3357C5.40168 18.3357 1.67072 14.6048 1.67072 10.0024C1.67072 5.40003 5.40168 1.66907 10.0041 1.66907C14.6064 1.66907 18.3374 5.40003 18.3374 10.0024C18.3374 14.6048 14.6064 18.3357 10.0041 18.3357ZM10.0041 16.669C13.686 16.669 16.6707 13.6843 16.6707 10.0024C16.6707 6.3205 13.686 3.33573 10.0041 3.33573C6.32215 3.33573 3.33738 6.3205 3.33738 10.0024C3.33738 13.6843 6.32215 16.669 10.0041 16.669ZM7.08738 11.669H11.6707C11.9008 11.669 12.0874 11.4825 12.0874 11.2524C12.0874 11.0223 11.9008 10.8357 11.6707 10.8357H8.3374C7.18679 10.8357 6.25405 9.90296 6.25405 8.75238C6.25405 7.60181 7.18679 6.66907 8.3374 6.66907H9.17073V5.0024H10.8374V6.66907H12.9207V8.33571H8.3374C8.10727 8.33571 7.92072 8.52229 7.92072 8.75238C7.92072 8.98254 8.10727 9.16904 8.3374 9.16904H11.6707C12.8213 9.16904 13.7541 10.1018 13.7541 11.2524C13.7541 12.403 12.8213 13.3357 11.6707 13.3357H10.8374V15.0024H9.17073V13.3357H7.08738V11.669Z" fill="white"/>
</g>
</svg>
