<svg version="1.1" id="레이어_1" xmlns="http://www.w3.org/2000/svg" xmlns:xlink="http://www.w3.org/1999/xlink" x="0px"
	 y="0px" viewBox="0 0 240 59.45" style="enable-background:new 0 0 240 59.45;" xml:space="preserve">
<g>
	<path d="M44.85,32.85H3.15v-6.3h41.7V32.85z M5.2,44.45c0-2.95,1.35-5.05,3.8-6.5c3.3-1.9,8.45-2.65,15.05-2.65
		c6.55,0,11.75,0.75,15.05,2.65c2.45,1.45,3.8,3.55,3.8,6.5c0,3-1.35,5.05-3.8,6.5c-3.3,1.95-8.5,2.65-15.05,2.65
		c-6.6,0-11.75-0.7-15.05-2.65C6.55,49.5,5.2,47.45,5.2,44.45z M42,6.7v6.15H13.55v4.75h28.7v6.05H5.95V6.7H42z M12.75,44.45
		c0,0.8,0.4,1.4,1.2,1.8c1.65,0.95,4.95,1.25,10.1,1.25c5.1,0,8.4-0.3,10.05-1.25c0.8-0.4,1.2-1,1.2-1.8c0-0.75-0.4-1.4-1.2-1.85
		c-1.65-0.9-4.95-1.15-10.05-1.15c-5.15,0-8.45,0.25-10.1,1.15C13.15,43.05,12.75,43.7,12.75,44.45z"/>
	<path d="M68.25,17.45V13.4h-15.4V7H75.8v9.55c0,18.35-6.75,29.5-23.2,33.4V43C63.6,39.8,68.25,31.1,68.25,17.45z M82.6,6.2h7.6
		v46.15h-7.6V6.2z"/>
	<path d="M112.85,49.35H100.6V7h17.05v6.35h-9.9v29.7h5.45c2.3,0,4.45-0.1,6.2-0.6v6.1C117.65,49.2,115.3,49.35,112.85,49.35z
		 M122.3,30.35h-8.1v-6.5h8.1V6.45h7v45.5h-7V30.35z M138.9,6.2v46.15h-7.15V6.2H138.9z"/>
	<path d="M172.75,28.15c0,8.55-0.85,14.75-3.8,18.3c-1.9,2.4-4.9,3.55-8.45,3.55c-3.5,0-6.45-1.15-8.45-3.55
		c-2.95-3.55-3.8-9.75-3.8-18.3c0-8.5,0.85-14.7,3.8-18.25c2-2.45,4.95-3.65,8.45-3.65c3.55,0,6.55,1.2,8.45,3.65
		C171.9,13.45,172.75,19.65,172.75,28.15z M155.8,28.15c0,7.25,0.4,12,1.8,14.05c0.65,0.95,1.75,1.45,2.9,1.45
		c1.2,0,2.25-0.5,2.95-1.45c1.4-2.05,1.8-6.8,1.8-14.05c0-7.2-0.4-11.95-1.8-14c-0.7-0.95-1.75-1.5-2.95-1.5
		c-1.15,0-2.25,0.55-2.9,1.5C156.2,16.2,155.8,20.95,155.8,28.15z M178.6,6.2h7.6v46.15h-7.6V6.2z"/>
	<path d="M214.7,49.35h-17.85V7h22.8v6.4h-15.3v11.35h13.15v6.4h-13.15V43h10.7c3.2,0,5.85-0.15,7.95-0.75v6.15
		C220.9,49.15,218.1,49.35,214.7,49.35z M226.6,6.2h7.6v46.15h-7.6v-21.8h-7.3V24h7.3V6.2z"/>
</g>
</svg>
