<svg width="76" height="18" viewBox="0 0 76 18" fill="none" xmlns="http://www.w3.org/2000/svg">
<path d="M18.26 13.36V16.48H0.98V13.36H7.92V10.68H1.76V7.6H4.36V3.5H1.94V0.4H17.3V3.5H14.88V7.6H17.48V10.68H11.32V13.36H18.26ZM7.74 7.6H11.5V3.5H7.74V7.6ZM37.2183 12.06H34.0583V-1.19209e-06H37.2183V12.06ZM27.7383 6.96C27.1916 8.34667 26.2783 9.40667 24.9983 10.14C23.7183 10.8733 22.1916 11.24 20.4183 11.24V8.4C21.4449 8.38667 22.2849 8.26 22.9383 8.02C23.5916 7.78 24.0916 7.40667 24.4383 6.9H20.4183V4.16H25.1583V3.88V3H20.4183V0.2H28.2783V3.86V3.88H29.7583V0.079999H32.8783V9.54H29.7583V6.96H27.7383ZM36.8983 17.28L29.1983 14.48C28.2116 15.3333 27.0316 15.98 25.6583 16.42C24.2983 16.86 22.8583 17.08 21.3383 17.08V13.92C22.4716 13.92 23.5249 13.76 24.4983 13.44C25.4849 13.12 26.3116 12.66 26.9783 12.06C27.6449 11.46 28.0916 10.7467 28.3183 9.92L31.6983 10.58C31.5649 11.1133 31.3649 11.62 31.0983 12.1L37.9983 14.3L36.8983 17.28ZM55.6966 2.58H43.8566V3.78H55.8966V6.36H40.4966V-1.19209e-06H55.6966V2.58ZM56.7366 9.84H39.4566V7.24H56.7366V9.84ZM48.0966 10.56C50.5499 10.56 52.4699 10.8333 53.8566 11.38C55.2432 11.9133 55.9366 12.7667 55.9366 13.94C55.9366 15.1133 55.2432 15.9667 53.8566 16.5C52.4699 17.0467 50.5499 17.32 48.0966 17.32C45.6432 17.32 43.7232 17.0467 42.3366 16.5C40.9499 15.9667 40.2566 15.1133 40.2566 13.94C40.2566 12.7667 40.9499 11.9133 42.3366 11.38C43.7232 10.8333 45.6432 10.56 48.0966 10.56ZM48.0966 13.08C46.7899 13.08 45.7566 13.1533 44.9966 13.3C44.2366 13.4333 43.8566 13.6467 43.8566 13.94C43.8566 14.5133 45.2699 14.8 48.0966 14.8C50.9232 14.8 52.3366 14.5133 52.3366 13.94C52.3366 13.6467 51.9566 13.4333 51.1966 13.3C50.4366 13.1533 49.4032 13.08 48.0966 13.08ZM75.2148 17.08H71.8348V-1.19209e-06H75.2148V17.08ZM69.1948 5.02C69.1948 7.31333 68.7882 9.30667 67.9748 11C67.1748 12.6933 66.0348 14 64.5548 14.92C63.0748 15.8267 61.3415 16.28 59.3548 16.28V13.08C61.3948 13.0667 62.9682 12.3467 64.0748 10.92C65.1815 9.49333 65.7348 7.52667 65.7348 5.02V3.48H59.3548V0.4H69.1948V5.02Z" fill="white"/>
</svg>
