<svg width="48" height="48" viewBox="0 0 48 48" fill="none" xmlns="http://www.w3.org/2000/svg">
<g id="48/icon_point" clip-path="url(#clip0_676_20384)">
<g id="Group">
<circle id="Ellipse 31" cx="23.075" cy="23.075" r="23.075" fill="white"/>
<path id="Vector" fill-rule="evenodd" clip-rule="evenodd" d="M23.0769 44.3077C34.8018 44.3077 44.3077 34.8018 44.3077 23.0769C44.3077 11.352 34.8018 1.84615 23.0769 1.84615C11.352 1.84615 1.84615 11.352 1.84615 23.0769C1.84615 34.8018 11.352 44.3077 23.0769 44.3077ZM23.0769 46.1538C35.8228 46.1538 46.1538 35.8228 46.1538 23.0769C46.1538 10.3311 35.8228 0 23.0769 0C10.3311 0 0 10.3311 0 23.0769C0 35.8228 10.3311 46.1538 23.0769 46.1538Z" fill="#1A1818"/>
<g id="Vector_2">
<path d="M30.8574 32.5859V42.8717C30.8574 44.7574 34.286 46.3002 38.5717 46.3002C42.8574 46.3002 46.286 44.7574 46.286 42.8717V32.5859" fill="white"/>
<path d="M30.8574 32.5859V42.8717C30.8574 44.7574 34.286 46.3002 38.5717 46.3002C42.8574 46.3002 46.286 44.7574 46.286 42.8717V32.5859" stroke="#1A1818" stroke-width="1.7" stroke-linecap="round" stroke-linejoin="round"/>
</g>
<path id="Vector_3" d="M38.5717 36.0153C42.8322 36.0153 46.286 34.4803 46.286 32.5868C46.286 30.6932 42.8322 29.1582 38.5717 29.1582C34.3112 29.1582 30.8574 30.6932 30.8574 32.5868C30.8574 34.4803 34.3112 36.0153 38.5717 36.0153Z" fill="white" stroke="#1A1818" stroke-width="1.7" stroke-linecap="round" stroke-linejoin="round"/>
<g id="Vector_4">
<path d="M46.2855 37.7285C46.2855 39.6142 42.8569 41.1571 38.5712 41.1571C34.2855 41.1571 30.8569 39.6142 30.8569 37.7285" fill="white"/>
<path d="M46.2855 37.7285C46.2855 39.6142 42.8569 41.1571 38.5712 41.1571C34.2855 41.1571 30.8569 39.6142 30.8569 37.7285" stroke="#1A1818" stroke-width="1.7" stroke-linecap="round" stroke-linejoin="round"/>
</g>
</g>
<path id="Vector_5" d="M18 33.8V13H24.5C26.2239 13 27.8772 13.6848 29.0962 14.9038C30.3152 16.1228 31 17.7761 31 19.5C31 21.2239 30.3152 22.8772 29.0962 24.0962C27.8772 25.3152 26.2239 26 24.5 26H18" stroke="#1A1818" stroke-width="2" stroke-linecap="round" stroke-linejoin="round"/>
</g>
<defs>
<clipPath id="clip0_676_20384">
<rect width="48" height="48" fill="white"/>
</clipPath>
</defs>
</svg>
