<svg width="24" height="24" viewBox="0 0 24 24" fill="none" xmlns="http://www.w3.org/2000/svg">
<g id="system-uicons:document">
<g id="Group">
<path id="Vector" d="M7.42878 12H13.1431M7.42878 14.2857H15.4288M7.42878 16.5714H10.8574M18.8574 17.7143V9.71429L13.1431 4H7.42878C6.82257 4 6.24119 4.24082 5.81254 4.66947C5.38388 5.09812 5.14307 5.67951 5.14307 6.28571V17.7143C5.14307 18.3205 5.38388 18.9019 5.81254 19.3305C6.24119 19.7592 6.82257 20 7.42878 20H16.5716C17.1778 20 17.7592 19.7592 18.1879 19.3305C18.6165 18.9019 18.8574 18.3205 18.8574 17.7143Z" stroke="black" stroke-width="1.14286" stroke-linecap="round" stroke-linejoin="round"/>
<path id="Vector_2" d="M13.1431 4V7.42857C13.1431 8.03478 13.3839 8.61616 13.8125 9.04482C14.2412 9.47347 14.8226 9.71429 15.4288 9.71429H18.8574" stroke="black" stroke-width="1.14286" stroke-linecap="round" stroke-linejoin="round"/>
</g>
</g>
</svg>
