<svg width="16" height="16" viewBox="0 0 16 16" fill="none" xmlns="http://www.w3.org/2000/svg">
<path d="M8.79999 8.00003L6.28719 5.26403C6.18411 5.15992 6.12628 5.01933 6.12628 4.87283C6.12628 4.72632 6.18411 4.58573 6.28719 4.48163C6.33781 4.43023 6.39814 4.38941 6.46469 4.36155C6.53123 4.33368 6.60265 4.31934 6.67479 4.31934C6.74693 4.31934 6.81835 4.33368 6.88489 4.36155C6.95143 4.38941 7.01177 4.43023 7.06239 4.48163L10.1264 7.60803C10.2293 7.71237 10.287 7.85305 10.287 7.99963C10.287 8.1462 10.2293 8.28688 10.1264 8.39123L7.06239 11.5176C7.01177 11.569 6.95143 11.6098 6.88489 11.6377C6.81835 11.6656 6.74693 11.6799 6.67479 11.6799C6.60265 11.6799 6.53123 11.6656 6.46469 11.6377C6.39814 11.6098 6.33781 11.569 6.28719 11.5176C6.18411 11.4135 6.12628 11.2729 6.12628 11.1264C6.12628 10.9799 6.18411 10.8393 6.28719 10.7352L8.79999 8.00003Z" fill="#8D99A8"/>
</svg>
