<svg width="20" height="20" viewBox="0 0 20 20" fill="none" xmlns="http://www.w3.org/2000/svg">
<g id="icon-park-outline:volume-notice">
<g id="Group">
<path id="Vector" d="M9.99984 2.5V17.5C7.08317 17.5 4.91609 13.6833 4.91609 13.6833H2.49984C2.27882 13.6833 2.06686 13.5955 1.91058 13.4393C1.7543 13.283 1.6665 13.071 1.6665 12.85V7.0875C1.6665 6.86649 1.7543 6.65452 1.91058 6.49824C2.06686 6.34196 2.27882 6.25417 2.49984 6.25417H4.91609C4.91609 6.25417 7.08317 2.5 9.99984 2.5Z" stroke="black" stroke-width="1.3" stroke-linejoin="round"/>
<path id="Vector_2" d="M13.333 6.25C13.5935 6.48278 13.8287 6.74241 14.0347 7.02458C14.6644 7.8886 15.0025 8.93083 14.9997 10C14.9997 11.1058 14.6472 12.1279 14.0505 12.9542C13.8407 13.2445 13.6001 13.5113 13.333 13.75" stroke="black" stroke-width="1.3" stroke-linecap="round" stroke-linejoin="round"/>
<path id="Vector_3" d="M14.2646 17.1607C16.7013 15.7065 18.333 13.0436 18.333 9.99987C18.333 7.0032 16.7513 4.37654 14.3776 2.9082" stroke="black" stroke-width="1.3" stroke-linecap="round"/>
</g>
</g>
</svg>
