<svg width="24" height="24" viewBox="0 0 20 20" fill="none" xmlns="http://www.w3.org/2000/svg">
<g id="ion:star">
<path id="Vector" d="M15.3907 18.7496C15.2591 18.7501 15.1308 18.7091 15.0239 18.6324L10.0001 14.9902L4.97624 18.6324C4.86891 18.7103 4.7396 18.752 4.60701 18.7515C4.47442 18.751 4.34542 18.7084 4.23866 18.6298C4.1319 18.5511 4.05291 18.4406 4.01311 18.3141C3.97331 18.1876 3.97476 18.0518 4.01725 17.9262L5.97663 12.1227L0.898504 8.64024C0.788508 8.5649 0.70549 8.45635 0.661579 8.33046C0.617668 8.20457 0.615165 8.06794 0.654436 7.94053C0.693707 7.81311 0.772694 7.7016 0.879856 7.62227C0.987018 7.54295 1.11674 7.49997 1.25007 7.49962H7.51491L9.40554 1.68126C9.44626 1.55564 9.52573 1.44616 9.63254 1.3685C9.73935 1.29085 9.86801 1.24902 10.0001 1.24902C10.1321 1.24902 10.2608 1.29085 10.3676 1.3685C10.4744 1.44616 10.5539 1.55564 10.5946 1.68126L12.4852 7.50157H18.7501C18.8836 7.50151 19.0136 7.54419 19.1211 7.62336C19.2285 7.70253 19.3078 7.81404 19.3474 7.94155C19.3869 8.06906 19.3845 8.20587 19.3407 8.33195C19.2968 8.45803 19.2137 8.56676 19.1036 8.6422L14.0235 12.1227L15.9817 17.9246C16.0134 18.0186 16.0224 18.1187 16.0077 18.2168C15.9931 18.3148 15.9554 18.408 15.8977 18.4886C15.8399 18.5692 15.7638 18.6349 15.6757 18.6803C15.5875 18.7257 15.4898 18.7494 15.3907 18.7496Z" fill="#FEC84B"/>
</g>
</svg>
