<svg width="16" height="17" viewBox="0 0 16 17" fill="none" xmlns="http://www.w3.org/2000/svg">
<g id="clarity:success-standard-solid" clip-path="url(#clip0_256_2987)">
<path id="Vector" d="M7.99979 1.38867C6.59334 1.38867 5.21848 1.80573 4.04906 2.58711C2.87965 3.36849 1.9682 4.47909 1.42998 5.77848C0.891753 7.07786 0.750929 8.50767 1.02531 9.88709C1.2997 11.2665 1.97696 12.5336 2.97147 13.5281C3.96598 14.5226 5.23306 15.1999 6.61248 15.4743C7.9919 15.7486 9.4217 15.6078 10.7211 15.0696C12.0205 14.5314 13.1311 13.6199 13.9125 12.4505C14.6938 11.2811 15.1109 9.90623 15.1109 8.49978C15.1109 6.6138 14.3617 4.80506 13.0281 3.47147C11.6945 2.13788 9.88577 1.38867 7.99979 1.38867ZM12.6442 6.11312L6.80423 11.9487L3.35534 8.49978C3.23747 8.38191 3.17125 8.22204 3.17125 8.05534C3.17125 7.88864 3.23747 7.72877 3.35534 7.61089C3.47322 7.49302 3.63309 7.4268 3.79979 7.4268C3.96649 7.4268 4.12636 7.49302 4.24423 7.61089L6.81312 10.1798L11.7642 5.23312C11.8226 5.17475 11.8919 5.12845 11.9681 5.09687C12.0444 5.06528 12.1261 5.04902 12.2087 5.04902C12.2912 5.04902 12.3729 5.06528 12.4492 5.09687C12.5255 5.12845 12.5948 5.17475 12.6531 5.23312C12.7115 5.29148 12.7578 5.36077 12.7894 5.43703C12.821 5.51329 12.8372 5.59502 12.8372 5.67756C12.8372 5.7601 12.821 5.84183 12.7894 5.91809C12.7578 5.99435 12.7115 6.06364 12.6531 6.12201L12.6442 6.11312Z" fill="#12B76A"/>
</g>
<defs>
<clipPath id="clip0_256_2987">
<rect width="16" height="16" fill="white" transform="translate(0 0.5)"/>
</clipPath>
</defs>
</svg>
