<svg width="20" height="20" viewBox="0 0 20 20" fill="none" xmlns="http://www.w3.org/2000/svg">
<g id="ci:info">
<path id="Vector" d="M9.5 8.72222V12.6111M9.5 16.5C8.58075 16.5 7.6705 16.3189 6.82122 15.9672C5.97194 15.6154 5.20026 15.0998 4.55025 14.4497C3.90024 13.7997 3.38463 13.0281 3.03284 12.1788C2.68106 11.3295 2.5 10.4193 2.5 9.5C2.5 8.58075 2.68106 7.6705 3.03284 6.82122C3.38463 5.97194 3.90024 5.20026 4.55025 4.55025C5.20026 3.90024 5.97194 3.38463 6.82122 3.03284C7.6705 2.68106 8.58075 2.5 9.5 2.5C11.3565 2.5 13.137 3.2375 14.4497 4.55025C15.7625 5.86301 16.5 7.64348 16.5 9.5C16.5 11.3565 15.7625 13.137 14.4497 14.4497C13.137 15.7625 11.3565 16.5 9.5 16.5ZM9.53889 6.38889V6.46667H9.46111V6.38889H9.53889Z" stroke="#F04438" stroke-width="1.2" stroke-linecap="round" stroke-linejoin="round"/>
</g>
</svg>
