<svg width="20" height="20" viewBox="0 0 20 20" fill="none" xmlns="http://www.w3.org/2000/svg">
<g id="20 / user-setting">
<path id="Vector" d="M9.99998 11.6667V13.3334C7.23855 13.3334 4.99998 15.572 4.99998 18.3334H3.33331C3.33331 14.6515 6.31808 11.6667 9.99998 11.6667ZM9.99998 10.8334C7.23748 10.8334 4.99998 8.59587 4.99998 5.83337C4.99998 3.07087 7.23748 0.833374 9.99998 0.833374C12.7625 0.833374 15 3.07087 15 5.83337C15 8.59587 12.7625 10.8334 9.99998 10.8334ZM9.99998 9.16671C11.8416 9.16671 13.3333 7.67504 13.3333 5.83337C13.3333 3.99171 11.8416 2.50004 9.99998 2.50004C8.15831 2.50004 6.66665 3.99171 6.66665 5.83337C6.66665 7.67504 8.15831 9.16671 9.99998 9.16671ZM12.1621 15.6763C12.1106 15.4593 12.0833 15.2329 12.0833 15C12.0833 14.7673 12.1106 14.5409 12.1621 14.3239L11.3357 13.8468L12.1691 12.4034L12.996 12.8808C13.3236 12.571 13.723 12.3362 14.1666 12.2041V11.25H15.8333V12.2041C16.277 12.3362 16.6763 12.571 17.0039 12.8808L17.8309 12.4033L18.6643 13.8467L17.8379 14.3238C17.8894 14.5409 17.9166 14.7673 17.9166 15C17.9166 15.2328 17.8894 15.4592 17.8379 15.6762L18.6643 16.1533L17.831 17.5967L17.004 17.1192C16.6764 17.4291 16.2771 17.6639 15.8334 17.7959V18.75H14.1667V17.796C13.7231 17.664 13.3236 17.4292 12.9961 17.1193L12.1691 17.5968L11.3357 16.1534L12.1621 15.6763ZM15 16.25C15.6903 16.25 16.25 15.6904 16.25 15C16.25 14.3097 15.6903 13.75 15 13.75C14.3096 13.75 13.75 14.3097 13.75 15C13.75 15.6904 14.3096 16.25 15 16.25Z" fill="white"/>
</g>
</svg>
