<svg width="226" height="23" viewBox="0 0 226 23" fill="none" xmlns="http://www.w3.org/2000/svg">
<g clip-path="url(#clip0_1293_3408)">
<path d="M90.6932 12.6494C90.6932 19.3905 87.0565 23.0003 80.2649 23.0003C73.4732 23.0003 69.833 19.2936 69.833 12.7152V0.513672H77.3305V12.337C77.3305 15.5413 78.1827 16.9535 80.1996 16.9535C82.2164 16.9535 83.1958 15.6728 83.1958 12.01V0.513672H90.6932V12.6476V12.6494Z" fill="#00894C"/>
<path d="M35.1376 5.49747L33.2725 12.9583H37.0539L35.1376 5.49747ZM40.013 22.3136L38.7478 18.3238H31.6368L30.2904 22.3136H22.7383L30.3963 0.530273H39.9865L47.5616 22.3136H40.0112H40.013Z" fill="#00894C"/>
<path d="M156.973 5.49747L155.107 12.9583H158.889L156.973 5.49747ZM161.848 22.3136L160.583 18.3238H153.472L152.125 22.3136H144.573L152.231 0.530273H161.821L169.397 22.3136H161.846H161.848Z" fill="#00894C"/>
<path d="M208.76 22.3136L204.015 14.3741V22.3136H196.66V0.530273H204.015V8.50628L208.456 0.530273H216.675L209.771 11.2648L217.564 22.3136H208.76Z" fill="#00894C"/>
<path d="M218.856 3.27188V3.25178C218.856 1.4834 220.245 0 222.01 0C223.774 0 225.142 1.4633 225.142 3.23717V3.25178C225.142 5.02565 223.757 6.50905 221.992 6.50905C220.227 6.50905 218.856 5.04209 218.856 3.27188ZM224.704 3.25178V3.23717C224.704 1.69531 223.547 0.436616 222.008 0.436616C220.469 0.436616 219.292 1.71175 219.292 3.25178V3.27188C219.292 4.81373 220.455 6.07243 221.992 6.07243C223.529 6.07243 224.706 4.79364 224.706 3.25178M220.773 1.50167H222.206C222.611 1.50167 222.948 1.63685 223.155 1.85059C223.308 2.00039 223.414 2.22692 223.414 2.49364V2.51008C223.414 3.049 223.068 3.3687 222.585 3.48562L223.577 4.81739H222.991L222.068 3.56417H221.246V4.81739H220.771V1.50167H220.773ZM222.165 3.12756C222.613 3.12756 222.922 2.91564 222.922 2.54114V2.52104C222.922 2.17394 222.648 1.95107 222.19 1.95107H221.247V3.12756H222.163H222.165Z" fill="#00894C"/>
<path d="M188.178 14.1732C190.75 13.1976 192.152 10.5176 192.152 8.00207C192.152 2.86133 188.757 0.530273 183.934 0.530273H172.563V22.3136H179.862V15.8502H181.704L185.494 22.3136H193.369L188.178 14.1732ZM184.765 8.03496C184.765 9.46355 183.89 10.2948 182.454 10.2948H179.862V5.74044H182.48C183.865 5.74044 184.763 6.47118 184.763 7.96736V8.03496H184.765Z" fill="#00894C"/>
<path d="M17.4144 0.530273L12.5654 17.0961L7.69006 0.530273H0.139648L7.71476 22.3136H17.305L24.9648 0.530273H17.4144Z" fill="#00894C"/>
<path d="M95.0742 0.530273V22.3136H112.15V16.8659H102.431V13.9649L110.531 13.9686V8.8479L102.431 8.84425V5.97975H112.15V0.530273H95.0742Z" fill="#00894C"/>
<path d="M140.832 0.513672H131.93L129.077 12.538L126.223 0.513672H117.321L116.309 22.3299H122.375L122.927 8.27046L125.961 21.8786H132.191L135.226 8.27046L135.778 22.3299H141.845L140.832 0.513672Z" fill="#00894C"/>
<path d="M57.836 15.5378V0.530273H50.4814V22.3136H57.836H67.1668V15.5378H57.836Z" fill="#00894C"/>
</g>
<defs>
<clipPath id="clip0_1293_3408">
<rect width="225" height="23" fill="white" transform="translate(0.139648)"/>
</clipPath>
</defs>
</svg>
