<svg width="16" height="16" viewBox="0 0 16 16" fill="none" xmlns="http://www.w3.org/2000/svg">
<g id="16/interface-edit-view-eye-eyeball-open-view" clip-path="url(#clip0_695_16526)">
<g id="Group">
<path id="Vector" d="M15.1204 7.23345C15.3099 7.44345 15.4148 7.71628 15.4148 7.99916C15.4148 8.28205 15.3099 8.55488 15.1204 8.76488C13.9204 10.0563 11.189 12.5706 8.00038 12.5706C4.81181 12.5706 2.08038 10.0563 0.880382 8.76488C0.690851 8.55488 0.585937 8.28205 0.585938 7.99916C0.585937 7.71628 0.690851 7.44345 0.880382 7.23345C2.08038 5.94202 4.81181 3.42773 8.00038 3.42773C11.189 3.42773 13.9204 5.94202 15.1204 7.23345Z" stroke="white" stroke-width="1.44" stroke-linecap="round" stroke-linejoin="round"/>
<path id="Vector_2" d="M8.00056 10.2843C9.26292 10.2843 10.2863 9.26097 10.2863 7.99861C10.2863 6.73624 9.26292 5.71289 8.00056 5.71289C6.73819 5.71289 5.71484 6.73624 5.71484 7.99861C5.71484 9.26097 6.73819 10.2843 8.00056 10.2843Z" stroke="white" stroke-width="1.44" stroke-linecap="round" stroke-linejoin="round"/>
</g>
</g>
<defs>
<clipPath id="clip0_695_16526">
<rect width="16" height="16" fill="white"/>
</clipPath>
</defs>
</svg>
