<svg width="47" height="40" viewBox="0 0 47 40" fill="none" xmlns="http://www.w3.org/2000/svg">
<path d="M5.21695 39.6378C3.33197 39.6378 1.65935 38.6526 0.746411 37.004C-0.168714 35.3555 -0.118361 33.4158 0.877768 31.8154L19.1628 2.50295C20.102 0.994527 21.7242 0.0947266 23.5019 0.0947266C25.2796 0.0947266 26.9019 0.994527 27.8411 2.50295L46.1239 31.8176C47.1222 33.418 47.1704 35.3577 46.2575 37.0062C45.3423 38.6548 43.6719 39.64 41.7847 39.64H5.21695V39.6378Z" fill="#FFEB34"/>
<path d="M23.8224 28.5297H23.1831C22.4694 28.5297 21.8805 27.9714 21.8433 27.2599L21.1143 13.9534C21.1427 13.6381 21.2369 13.2747 21.4799 12.9573C22.3403 11.832 24.6653 11.832 25.5279 12.9573C25.7709 13.2747 25.865 13.6381 25.8935 13.9534L25.1645 27.2599C25.125 27.9714 24.5361 28.5297 23.8246 28.5297H23.8224Z" fill="black"/>
<path d="M23.5035 33.8541C24.5312 33.8541 25.3644 33.021 25.3644 31.9932C25.3644 30.9655 24.5312 30.1323 23.5035 30.1323C22.4757 30.1323 21.6426 30.9655 21.6426 31.9932C21.6426 33.021 22.4757 33.8541 23.5035 33.8541Z" fill="black"/>
</svg>
