<svg width="620" height="500" viewBox="0 0 620 500" fill="none" xmlns="http://www.w3.org/2000/svg">
<g clip-path="url(#clip0_58_163)">
<rect width="620" height="500" rx="15" fill="#DBE7FA"/>
<rect width="620" height="500" rx="15" fill="#EEF8FD"/>
<g filter="url(#filter0_d_58_163)">
<path d="M68 68C68 62.4772 72.4772 58 78 58H541C546.523 58 551 62.4772 551 68V554C551 559.523 546.523 564 541 564H78C72.4771 564 68 559.523 68 554V68Z" fill="white"/>
<path d="M68.5 68C68.5 62.7533 72.7533 58.5 78 58.5H541C546.247 58.5 550.5 62.7533 550.5 68V554C550.5 559.247 546.247 563.5 541 563.5H78C72.7533 563.5 68.5 559.247 68.5 554V68Z" stroke="black" stroke-opacity="0.1"/>
</g>
<path d="M92.3203 80.2266V80.959H88.7461V83.8301H87.8379V80.959H84.3125V80.2266H92.3203ZM86.2266 75.4316V76.5742H90.3867V75.4316H91.3145V79.2305H85.3086V75.4316H86.2266ZM86.2266 78.4883H90.3867V77.3164H86.2266V78.4883ZM100.953 79.3379V80.0801H92.9648V79.3379H96.5098V78.4102H93.9609V75.4805H99.9668V76.2129H94.8789V77.668H100.025V78.4102H97.4082V79.3379H100.953ZM96.9492 80.6465C98.834 80.6465 99.9668 81.2227 99.9668 82.2383C99.9668 83.2539 98.834 83.8203 96.9492 83.8301C95.0547 83.8203 93.9121 83.2539 93.9121 82.2383C93.9121 81.2227 95.0547 80.6465 96.9492 80.6465ZM96.9492 81.3691C95.6113 81.3691 94.8496 81.6816 94.8496 82.2383C94.8496 82.7949 95.6113 83.1074 96.9492 83.0977C98.2676 83.1074 99.0391 82.7949 99.0391 82.2383C99.0391 81.6816 98.2676 81.3691 96.9492 81.3691ZM104.645 76.6816C104.645 77.8535 105.465 78.957 106.793 79.4062L106.314 80.1387C105.333 79.792 104.605 79.0938 104.215 78.2148C103.834 79.1963 103.082 79.9629 102.057 80.3438L101.539 79.6113C102.926 79.1328 103.727 77.9609 103.727 76.6523V75.6172H104.645V76.6816ZM108.482 75.0703V77.707H109.752V78.498H108.482V81.5254H107.555V75.0703H108.482ZM108.863 82.8926V83.6445H102.945V80.9004H103.893V82.8926H108.863ZM118.238 79.1914V79.9531H110.25V79.1914H118.238ZM117.311 77.6777V78.4297H111.246V75.3926H117.252V76.1543H112.164V77.6777H117.311ZM114.234 80.6367C116.119 80.6367 117.252 81.2129 117.252 82.2285C117.252 83.2441 116.119 83.8203 114.234 83.8105C112.34 83.8203 111.197 83.2441 111.197 82.2285C111.197 81.2129 112.34 80.6367 114.234 80.6367ZM114.234 81.3496C112.896 81.3594 112.135 81.6719 112.135 82.2285C112.135 82.7852 112.896 83.0977 114.234 83.0977C115.553 83.0977 116.324 82.7852 116.324 82.2285C116.324 81.6719 115.553 81.3594 114.234 81.3496ZM126.168 75.0801V83.8301H125.23V75.0801H126.168ZM123.561 76.0176C123.561 78.5762 122.467 80.8027 119.469 82.2383L118.98 81.4863C121.31 80.3779 122.442 78.8008 122.623 76.7598H119.4V76.0176H123.561ZM132.994 76.4766C132.994 77.6289 133.795 78.6934 135.104 79.123L134.605 79.8555C133.648 79.5186 132.931 78.835 132.555 77.9707C132.169 78.9521 131.427 79.7188 130.406 80.0996L129.908 79.3574C131.275 78.8691 132.066 77.707 132.076 76.3984V75.5391H132.994V76.4766ZM136.852 75.0801V77.2773H138.121V78.0586H136.852V80.3633H135.924V75.0801H136.852ZM134.029 80.5684C135.826 80.5684 136.93 81.1641 136.93 82.1895C136.93 83.2246 135.826 83.8203 134.029 83.8105C132.213 83.8203 131.09 83.2246 131.09 82.1895C131.09 81.1641 132.213 80.5684 134.029 80.5684ZM134.029 81.3008C132.76 81.3008 132.008 81.6328 132.018 82.1895C132.008 82.7656 132.76 83.0781 134.029 83.0879C135.289 83.0781 136.021 82.7656 136.021 82.1895C136.021 81.6328 135.289 81.3008 134.029 81.3008ZM141.285 77.4727C141.285 78.8691 141.871 80.3633 143.043 81.0762L142.525 81.7891C141.705 81.2959 141.148 80.4219 140.855 79.4062C140.528 80.5195 139.928 81.4668 139.078 81.9844L138.502 81.291C139.742 80.5488 140.387 79.0059 140.387 77.5117V75.8809H141.285V77.4727ZM146.148 75.0801V83.8301H145.26V75.0801H146.148ZM144.332 75.2461V83.4004H143.453V78.9277H142.096V78.1562H143.453V75.2461H144.332Z" fill="black"/>
<path d="M88.0898 117.332C88.0898 119.219 89.2969 121.117 90.8086 121.809L90.2578 122.559C89.0742 121.949 88.0957 120.701 87.6328 119.219C87.1699 120.777 86.1914 122.113 85.0078 122.746L84.4102 122.008C85.9336 121.258 87.1523 119.254 87.1523 117.332V115.434H88.0898V117.332ZM93.0586 114.531V124.973H92.1445V118.844H89.6719V118.094H92.1445V114.531H93.0586ZM99.5391 114.66C101.859 114.66 103.219 115.305 103.219 116.465C103.219 117.637 101.859 118.27 99.5391 118.281C97.2188 118.27 95.8477 117.637 95.8477 116.465C95.8477 115.305 97.2188 114.66 99.5391 114.66ZM99.5391 115.363C97.8047 115.375 96.7969 115.773 96.8086 116.465C96.7969 117.18 97.8047 117.566 99.5391 117.578C101.262 117.566 102.281 117.18 102.281 116.465C102.281 115.773 101.262 115.375 99.5391 115.363ZM104.285 118.973V119.711H99.9844V120.695H103.066V123.027H96.8789V124.105H103.383V124.832H95.9648V122.348H102.164V121.398H95.9414V120.695H99.0703V119.711H94.793V118.973H104.285ZM114.656 120.051V120.789H105.152V120.051H114.656ZM113.426 121.809V124.949H112.488V122.547H106.219V121.809H113.426ZM113.531 118.328V119.043H106.418V114.812H113.473V115.551H107.344V116.547H113.191V117.262H107.344V118.328H113.531ZM124.16 114.531V119.98H123.246V118.645H120.785V119.559H116.062V115.023H116.977V116.523H119.883V115.023H120.785V116.031H123.246V114.531H124.16ZM124.16 120.484V122.934H118.348V124.07H124.559V124.809H117.434V122.23H123.246V121.223H117.41V120.484H124.16ZM116.977 118.809H119.883V117.25H116.977V118.809ZM120.785 117.918H123.246V116.746H120.785V117.918ZM129.609 117.332C129.598 119.23 130.898 121.152 132.434 121.844L131.871 122.57C130.688 121.99 129.662 120.766 129.164 119.277C128.678 120.854 127.652 122.166 126.434 122.781L125.848 122.008C127.395 121.293 128.684 119.312 128.695 117.332V115.434H129.609V117.332ZM134.496 114.531V124.973H133.57V114.531H134.496ZM148.793 119.488V120.262H139.289V119.488H148.793ZM147.68 117.742V118.492H140.496V114.953H147.609V115.727H141.398V117.742H147.68ZM144.035 121.176C146.273 121.176 147.609 121.855 147.621 123.051C147.609 124.258 146.273 124.926 144.035 124.926C141.785 124.926 140.438 124.258 140.438 123.051C140.438 121.855 141.785 121.176 144.035 121.176ZM144.035 121.891C142.359 121.902 141.363 122.324 141.375 123.051C141.363 123.789 142.359 124.199 144.035 124.199C145.688 124.199 146.695 123.789 146.695 123.051C146.695 122.324 145.688 121.902 144.035 121.891ZM158.273 114.531V124.949H157.348V114.531H158.273ZM155.191 115.668C155.18 118.668 153.785 121.316 150.293 122.992L149.789 122.242C152.607 120.906 154.043 118.908 154.254 116.418H150.27V115.668H155.191ZM168.27 115.211V116.125C168.27 117.115 168.27 118.188 167.977 119.688H169.523V120.449H165.223V124.973H164.297V120.449H160.031V119.688H167.039C167.355 118.188 167.355 117.092 167.355 116.125V115.973H161.227V115.211H168.27ZM182.332 114.531V124.949H181.441V114.531H182.332ZM180.199 114.789V124.41H179.32V119.289H177.047V118.516H179.32V114.789H180.199ZM177.75 115.82V116.582H174.715V121.668C176.215 121.662 177.164 121.598 178.289 121.352L178.383 122.137C177.176 122.383 176.156 122.43 174.48 122.441H173.824V115.82H177.75ZM192.375 114.531V124.973H191.449V114.531H192.375ZM186.832 115.34C188.379 115.352 189.492 116.758 189.492 118.973C189.492 121.188 188.379 122.594 186.832 122.594C185.273 122.594 184.172 121.188 184.172 118.973C184.172 116.758 185.273 115.352 186.832 115.34ZM186.832 116.16C185.789 116.172 185.062 117.273 185.062 118.973C185.062 120.672 185.789 121.773 186.832 121.773C187.875 121.773 188.602 120.672 188.602 118.973C188.602 117.273 187.875 116.172 186.832 116.16ZM202.793 114.531V124.973H201.879V119.23H199.676V118.469H201.879V114.531H202.793ZM199.5 115.492V116.254H195.562V118.422H199.043V119.172H195.562V121.691C197.479 121.691 198.697 121.627 200.133 121.375L200.238 122.137C198.727 122.383 197.449 122.453 195.434 122.453H194.637V115.492H199.5ZM214.066 122.887V123.66H204.527V122.887H208.816V120.918H205.723V117.707H211.957V116.066H205.699V115.305H212.859V118.457H206.637V120.156H213.105V120.918H209.719V122.887H214.066ZM221.285 115.516V124H220.219V116.617H220.172L218.109 117.988V116.922L220.219 115.516H221.285ZM223.547 124L223.535 123.227L226.43 120.18C227.438 119.113 227.918 118.539 227.918 117.754C227.918 116.887 227.18 116.312 226.23 116.312C225.223 116.312 224.578 116.957 224.578 117.906H223.582C223.57 116.406 224.73 115.398 226.266 115.398C227.801 115.398 228.902 116.43 228.902 117.754C228.902 118.703 228.457 119.441 226.957 120.988L225.012 122.992V123.062H229.055V124H223.547ZM233.52 124.117C231.832 124.117 230.625 123.215 230.566 121.867H231.633C231.691 122.676 232.5 123.18 233.508 123.18C234.621 123.18 235.441 122.57 235.441 121.691C235.441 120.766 234.703 120.109 233.379 120.109H232.688V119.184H233.379C234.41 119.184 235.125 118.609 235.125 117.73C235.125 116.887 234.504 116.312 233.543 116.312C232.641 116.312 231.809 116.816 231.762 117.648H230.742C230.801 116.301 232.043 115.398 233.555 115.398C235.172 115.398 236.156 116.453 236.145 117.672C236.156 118.633 235.594 119.348 234.703 119.594V119.652C235.805 119.828 236.484 120.613 236.473 121.691C236.484 123.086 235.207 124.117 233.52 124.117ZM249.539 114.531V124.949H248.66V114.531H249.539ZM247.43 114.789V124.41H246.562V119.043H244.805V118.293H246.562V114.789H247.43ZM243.691 117.508C243.691 119.312 244.5 121.105 245.941 121.938L245.379 122.617C244.354 122.002 243.627 120.877 243.27 119.547C242.889 120.982 242.133 122.207 241.09 122.863L240.504 122.172C241.957 121.305 242.801 119.406 242.801 117.508V116.523H240.797V115.762H245.602V116.523H243.691V117.508ZM254.379 115.516V124H253.312V116.617H253.266L251.203 117.988V116.922L253.312 115.516H254.379ZM265.758 119.828V120.59H256.266V119.828H265.758ZM261.457 114.508V115.551H264.797V116.301H261.516C261.592 117.455 263.244 118.252 265.195 118.434L264.914 119.148C263.186 118.967 261.645 118.346 261.012 117.297C260.373 118.346 258.826 118.967 257.109 119.148L256.816 118.434C258.768 118.252 260.42 117.455 260.508 116.301H257.25V115.551H260.555V114.508H261.457ZM261.012 121.48C263.273 121.48 264.586 122.09 264.598 123.203C264.586 124.328 263.273 124.926 261.012 124.926C258.75 124.926 257.414 124.328 257.414 123.203C257.414 122.09 258.75 121.48 261.012 121.48ZM261.012 122.172C259.324 122.172 258.34 122.547 258.352 123.203C258.34 123.859 259.324 124.223 261.012 124.211C262.676 124.223 263.672 123.859 263.672 123.203C263.672 122.547 262.676 122.172 261.012 122.172ZM278.555 114.531V124.949H277.676V114.531H278.555ZM276.445 114.789V124.41H275.578V119.043H273.82V118.293H275.578V114.789H276.445ZM272.707 117.508C272.707 119.312 273.516 121.105 274.957 121.938L274.395 122.617C273.369 122.002 272.643 120.877 272.285 119.547C271.904 120.982 271.148 122.207 270.105 122.863L269.52 122.172C270.973 121.305 271.816 119.406 271.816 117.508V116.523H269.812V115.762H274.617V116.523H272.707V117.508ZM286.406 115.516V124H285.34V116.617H285.293L283.23 117.988V116.922L285.34 115.516H286.406ZM291.445 124.117C289.559 124.117 288.48 122.535 288.48 119.758C288.48 117.004 289.582 115.398 291.445 115.398C293.309 115.398 294.41 117.004 294.41 119.758C294.41 122.535 293.32 124.117 291.445 124.117ZM291.445 123.18C292.664 123.18 293.379 121.949 293.379 119.758C293.379 117.566 292.664 116.312 291.445 116.312C290.227 116.312 289.5 117.566 289.5 119.758C289.5 121.949 290.215 123.18 291.445 123.18ZM298.816 115.516V124H297.75V116.617H297.703L295.641 117.988V116.922L297.75 115.516H298.816ZM309.703 116.078V116.84H301.172V116.078H304.992V114.707H305.895V116.078H309.703ZM310.242 122.969V123.73H300.703V122.969H304.992V121.504C303.141 121.404 302.016 120.684 302.027 119.512C302.016 118.27 303.328 117.543 305.449 117.555C307.547 117.543 308.871 118.27 308.871 119.512C308.871 120.684 307.734 121.404 305.895 121.504V122.969H310.242ZM305.449 118.281C303.891 118.281 302.941 118.738 302.953 119.512C302.941 120.309 303.891 120.754 305.449 120.766C306.984 120.754 307.934 120.309 307.934 119.512C307.934 118.738 306.984 118.281 305.449 118.281ZM85.2891 142.391V131.152H87.7734V131.984H86.2383V141.547H87.7734V142.391H85.2891ZM97.4297 130.531V140.949H96.5391V130.531H97.4297ZM95.2969 130.789V140.41H94.418V135.289H92.1445V134.516H94.418V130.789H95.2969ZM92.8477 131.82V132.582H89.8125V137.668C91.3125 137.662 92.2617 137.598 93.3867 137.352L93.4805 138.137C92.2734 138.383 91.2539 138.43 89.5781 138.441H88.9219V131.82H92.8477ZM107.473 130.531V140.973H106.547V130.531H107.473ZM101.93 131.34C103.477 131.352 104.59 132.758 104.59 134.973C104.59 137.188 103.477 138.594 101.93 138.594C100.371 138.594 99.2695 137.188 99.2695 134.973C99.2695 132.758 100.371 131.352 101.93 131.34ZM101.93 132.16C100.887 132.172 100.16 133.273 100.16 134.973C100.16 136.672 100.887 137.773 101.93 137.773C102.973 137.773 103.699 136.672 103.699 134.973C103.699 133.273 102.973 132.172 101.93 132.16ZM117.891 130.531V140.973H116.977V135.23H114.773V134.469H116.977V130.531H117.891ZM114.598 131.492V132.254H110.66V134.422H114.141V135.172H110.66V137.691C112.576 137.691 113.795 137.627 115.23 137.375L115.336 138.137C113.824 138.383 112.547 138.453 110.531 138.453H109.734V131.492H114.598ZM129.129 135.688V136.426H119.625V135.688H123.926V134.469H120.832V131.023H127.945V131.762H121.734V133.719H128.016V134.469H124.816V135.688H129.129ZM124.371 137.188C126.609 137.188 127.945 137.867 127.957 139.062C127.945 140.27 126.609 140.938 124.371 140.949C122.121 140.938 120.773 140.27 120.773 139.062C120.773 137.867 122.121 137.188 124.371 137.188ZM124.371 137.914C122.695 137.914 121.699 138.348 121.711 139.062C121.699 139.789 122.695 140.211 124.371 140.211C126.023 140.211 127.031 139.789 127.031 139.062C127.031 138.348 126.023 137.914 124.371 137.914ZM136.383 131.516V140H135.316V132.617H135.27L133.207 133.988V132.922L135.316 131.516H136.383ZM138.645 140L138.633 139.227L141.527 136.18C142.535 135.113 143.016 134.539 143.016 133.754C143.016 132.887 142.277 132.312 141.328 132.312C140.32 132.312 139.676 132.957 139.676 133.906H138.68C138.668 132.406 139.828 131.398 141.363 131.398C142.898 131.398 144 132.43 144 133.754C144 134.703 143.555 135.441 142.055 136.988L140.109 138.992V139.062H144.152V140H138.645ZM148.617 140.117C146.93 140.117 145.723 139.215 145.664 137.867H146.73C146.789 138.676 147.598 139.18 148.605 139.18C149.719 139.18 150.539 138.57 150.539 137.691C150.539 136.766 149.801 136.109 148.477 136.109H147.785V135.184H148.477C149.508 135.184 150.223 134.609 150.223 133.73C150.223 132.887 149.602 132.312 148.641 132.312C147.738 132.312 146.906 132.816 146.859 133.648H145.84C145.898 132.301 147.141 131.398 148.652 131.398C150.27 131.398 151.254 132.453 151.242 133.672C151.254 134.633 150.691 135.348 149.801 135.594V135.652C150.902 135.828 151.582 136.613 151.57 137.691C151.582 139.086 150.305 140.117 148.617 140.117ZM156.75 135.91V136.836H153.035V135.91H156.75ZM161.285 131.516V140H160.219V132.617H160.172L158.109 133.988V132.922L160.219 131.516H161.285ZM163.547 140L163.535 139.227L166.43 136.18C167.438 135.113 167.918 134.539 167.918 133.754C167.918 132.887 167.18 132.312 166.23 132.312C165.223 132.312 164.578 132.957 164.578 133.906H163.582C163.57 132.406 164.73 131.398 166.266 131.398C167.801 131.398 168.902 132.43 168.902 133.754C168.902 134.703 168.457 135.441 166.957 136.988L165.012 138.992V139.062H169.055V140H163.547ZM178.852 130.543V138.254H177.926V134.246H175.465V136.473H170.742V131.234H171.656V133.086H174.562V131.234H175.465V133.473H177.926V130.543H178.852ZM179.086 139.953V140.727H172.113V137.492H173.039V139.953H179.086ZM171.656 135.711H174.562V133.812H171.656V135.711ZM184.312 133.73C184.312 135.5 185.602 137.293 187.137 137.961L186.621 138.688C185.402 138.131 184.348 136.93 183.867 135.488C183.375 137.018 182.326 138.348 181.137 138.945L180.586 138.219C182.074 137.504 183.375 135.535 183.387 133.73V132.371H180.926V131.609H186.797V132.371H184.312V133.73ZM189.176 130.531V140.949H188.25V130.531H189.176ZM193.336 142.391H190.852V141.547H192.387V131.984H190.852V131.152H193.336V142.391Z" fill="black"/>
<path d="M402.664 116.48V117.73H405.193V116.48H405.955V120.26H401.912V116.48H402.664ZM402.664 119.635H405.193V118.326H402.664V119.635ZM408.328 116.109V117.994H409.637V118.639H408.328V120.602H407.566V116.109H408.328ZM408.328 121.012V123.111H403.562V124.068H408.65V124.693H402.811V122.525H407.566V121.627H402.791V121.012H408.328ZM411.98 121.08V122.232H416.326V121.08H417.088V124.674H411.219V121.08H411.98ZM411.98 124.049H416.326V122.838H411.98V124.049ZM417.088 116.51V117.145C417.088 117.809 417.088 118.58 416.854 119.664H418.133V120.299H410.184V119.664H416.102C416.326 118.585 416.326 117.809 416.326 117.145H411.189V116.51H417.088ZM421.287 116.432C422.586 116.441 423.533 117.223 423.533 118.355C423.533 119.488 422.586 120.27 421.287 120.27C419.969 120.27 419.031 119.488 419.031 118.355C419.031 117.223 419.969 116.441 421.287 116.432ZM421.287 117.076C420.418 117.076 419.773 117.604 419.783 118.355C419.773 119.117 420.418 119.645 421.287 119.645C422.146 119.645 422.791 119.117 422.791 118.355C422.791 117.604 422.146 117.076 421.287 117.076ZM425.994 116.109V120.572H425.232V116.109H425.994ZM425.994 120.992V123.082H421.121V124.059H426.307V124.674H420.369V122.506H425.232V121.607H420.35V120.992H425.994ZM430.408 118.775C430.398 120.172 431.404 121.705 432.664 122.301L432.225 122.906C431.248 122.433 430.423 121.397 430.037 120.221C429.637 121.5 428.763 122.623 427.791 123.121L427.322 122.516C428.572 121.91 429.646 120.26 429.656 118.775V117.643H427.635V117.008H432.361V117.643H430.408V118.775ZM434.188 116.109V119.625H435.643V120.279H434.188V124.791H433.426V116.109H434.188ZM439.539 124.059C439.197 124.059 438.904 123.775 438.914 123.424C438.904 123.082 439.197 122.799 439.539 122.799C439.881 122.799 440.164 123.082 440.164 123.424C440.164 123.775 439.881 124.059 439.539 124.059ZM439.539 120.133C439.197 120.133 438.904 119.85 438.914 119.498C438.904 119.156 439.197 118.873 439.539 118.873C439.881 118.873 440.164 119.156 440.164 119.498C440.164 119.85 439.881 120.133 439.539 120.133ZM443.982 124L443.973 123.355L446.385 120.816C447.225 119.928 447.625 119.449 447.625 118.795C447.625 118.072 447.01 117.594 446.219 117.594C445.379 117.594 444.842 118.131 444.842 118.922H444.012C444.002 117.672 444.969 116.832 446.248 116.832C447.527 116.832 448.445 117.691 448.445 118.795C448.445 119.586 448.074 120.201 446.824 121.49L445.203 123.16V123.219H448.572V124H443.982ZM452.166 124.098C450.594 124.098 449.695 122.779 449.695 120.465C449.695 118.17 450.613 116.832 452.166 116.832C453.719 116.832 454.637 118.17 454.637 120.465C454.637 122.779 453.729 124.098 452.166 124.098ZM452.166 123.316C453.182 123.316 453.777 122.291 453.777 120.465C453.777 118.639 453.182 117.594 452.166 117.594C451.15 117.594 450.545 118.639 450.545 120.465C450.545 122.291 451.141 123.316 452.166 123.316ZM455.809 124L455.799 123.355L458.211 120.816C459.051 119.928 459.451 119.449 459.451 118.795C459.451 118.072 458.836 117.594 458.045 117.594C457.205 117.594 456.668 118.131 456.668 118.922H455.838C455.828 117.672 456.795 116.832 458.074 116.832C459.354 116.832 460.271 117.691 460.271 118.795C460.271 119.586 459.9 120.201 458.65 121.49L457.029 123.16V123.219H460.398V124H455.809ZM464.119 124.098C462.713 124.098 461.707 123.346 461.658 122.223H462.547C462.596 122.896 463.27 123.316 464.109 123.316C465.037 123.316 465.721 122.809 465.721 122.076C465.721 121.305 465.105 120.758 464.002 120.758H463.426V119.986H464.002C464.861 119.986 465.457 119.508 465.457 118.775C465.457 118.072 464.939 117.594 464.139 117.594C463.387 117.594 462.693 118.014 462.654 118.707H461.805C461.854 117.584 462.889 116.832 464.148 116.832C465.496 116.832 466.316 117.711 466.307 118.727C466.316 119.527 465.848 120.123 465.105 120.328V120.377C466.023 120.523 466.59 121.178 466.58 122.076C466.59 123.238 465.525 124.098 464.119 124.098ZM470.896 120.592V121.363H467.801V120.592H470.896ZM474.676 116.93V124H473.787V117.848H473.748L472.029 118.99V118.102L473.787 116.93H474.676ZM479.061 116.93V124H478.172V117.848H478.133L476.414 118.99V118.102L478.172 116.93H479.061ZM483.992 120.592V121.363H480.896V120.592H483.992ZM487.586 124.098C486.014 124.098 485.115 122.779 485.115 120.465C485.115 118.17 486.033 116.832 487.586 116.832C489.139 116.832 490.057 118.17 490.057 120.465C490.057 122.779 489.148 124.098 487.586 124.098ZM487.586 123.316C488.602 123.316 489.197 122.291 489.197 120.465C489.197 118.639 488.602 117.594 487.586 117.594C486.57 117.594 485.965 118.639 485.965 120.465C485.965 122.291 486.561 123.316 487.586 123.316ZM493.729 116.93V124H492.84V117.848H492.801L491.082 118.99V118.102L492.84 116.93H493.729ZM500.623 116.93V124H499.734V117.848H499.695L497.977 118.99V118.102L499.734 116.93H500.623ZM505.008 116.93V124H504.119V117.848H504.08L502.361 118.99V118.102L504.119 116.93H505.008ZM507.498 124.059C507.156 124.059 506.863 123.775 506.873 123.424C506.863 123.082 507.156 122.799 507.498 122.799C507.84 122.799 508.123 123.082 508.123 123.424C508.123 123.775 507.84 124.059 507.498 124.059ZM507.498 120.133C507.156 120.133 506.863 119.85 506.873 119.498C506.863 119.156 507.156 118.873 507.498 118.873C507.84 118.873 508.123 119.156 508.123 119.498C508.123 119.85 507.84 120.133 507.498 120.133ZM511.746 124.098C510.174 124.098 509.275 122.779 509.275 120.465C509.275 118.17 510.193 116.832 511.746 116.832C513.299 116.832 514.217 118.17 514.217 120.465C514.217 122.779 513.309 124.098 511.746 124.098ZM511.746 123.316C512.762 123.316 513.357 122.291 513.357 120.465C513.357 118.639 512.762 117.594 511.746 117.594C510.73 117.594 510.125 118.639 510.125 120.465C510.125 122.291 510.721 123.316 511.746 123.316ZM517.889 116.93V124H517V117.848H516.961L515.242 118.99V118.102L517 116.93H517.889ZM520.379 124.059C520.037 124.059 519.744 123.775 519.754 123.424C519.744 123.082 520.037 122.799 520.379 122.799C520.721 122.799 521.004 123.082 521.004 123.424C521.004 123.775 520.721 124.059 520.379 124.059ZM520.379 120.133C520.037 120.133 519.744 119.85 519.754 119.498C519.744 119.156 520.037 118.873 520.379 118.873C520.721 118.873 521.004 119.156 521.004 119.498C521.004 119.85 520.721 120.133 520.379 120.133ZM524.812 116.93V124H523.924V117.848H523.885L522.166 118.99V118.102L523.924 116.93H524.812ZM529.002 124.098C527.723 124.098 526.756 123.307 526.707 122.223H527.557C527.625 122.857 528.24 123.326 529.002 123.326C529.92 123.326 530.584 122.652 530.584 121.764C530.584 120.846 529.891 120.172 528.943 120.162C528.348 120.152 527.889 120.338 527.625 120.797H526.775L527.273 116.93H531.102V117.711H528.006L527.742 119.781H527.811C528.123 119.537 528.602 119.371 529.1 119.371C530.447 119.371 531.443 120.367 531.443 121.744C531.443 123.111 530.408 124.098 529.002 124.098Z" fill="#828282"/>
<line x1="68" y1="93.73" x2="551" y2="93.73" stroke="black" stroke-opacity="0.1" stroke-width="0.54"/>
<path d="M84 180C84 178.895 84.8954 178 86 178H215C216.105 178 217 178.895 217 180V206H84V180Z" fill="#2961FF"/>
<path d="M126.67 186.449V188.582H128.146V189.66H126.67V191.77H125.369V186.449H126.67ZM123.693 186.988V191.324H118.678V186.988H123.693ZM119.955 188.02V190.293H122.416V188.02H119.955ZM126.67 192.227V195.004H121.045V195.883H126.998V196.914H119.756V194.055H125.369V193.234H119.744V192.227H126.67ZM138.365 194.676V195.73H128.686V194.676H132.834V192.227H134.123V194.676H138.365ZM134.158 187.867C134.158 189.473 135.764 191.055 137.99 191.406L137.428 192.484C135.635 192.145 134.17 191.119 133.467 189.73C132.764 191.113 131.311 192.156 129.529 192.484L128.967 191.406C131.182 191.055 132.764 189.461 132.775 187.867V187.094H134.158V187.867ZM142.842 188.992C142.83 190.879 143.779 192.801 145.42 193.586L144.623 194.629C143.475 194.049 142.648 192.93 142.197 191.582C141.734 193.023 140.867 194.219 139.654 194.828L138.857 193.785C140.557 192.977 141.529 190.949 141.541 188.992V187.305H142.842V188.992ZM147.354 186.449V190.598H148.982V191.711H147.354V197.043H146.053V186.449H147.354ZM157.783 186.449V189.238H159.26V190.328H157.783V193.211H156.482V186.449H157.783ZM154.361 193.305C156.529 193.305 157.9 193.996 157.9 195.168C157.9 196.328 156.529 197.031 154.361 197.031C152.158 197.031 150.811 196.328 150.822 195.168C150.811 193.996 152.158 193.305 154.361 193.305ZM154.361 194.301C152.908 194.301 152.1 194.582 152.111 195.168C152.1 195.73 152.908 196.047 154.361 196.047C155.791 196.047 156.6 195.73 156.6 195.168C156.6 194.582 155.791 194.301 154.361 194.301ZM155.721 187.527V188.547H149.439V187.527H151.936V186.379H153.236V187.527H155.721ZM152.58 188.969C154.115 188.969 155.158 189.73 155.17 190.867C155.158 192.004 154.115 192.754 152.58 192.754C151.033 192.754 149.979 192.004 149.979 190.867C149.979 189.73 151.033 188.969 152.58 188.969ZM152.58 189.93C151.771 189.93 151.244 190.281 151.244 190.867C151.244 191.441 151.771 191.77 152.58 191.77C153.389 191.77 153.928 191.441 153.928 190.867C153.928 190.281 153.389 189.93 152.58 189.93ZM172.326 194.723V195.812H162.646V194.723H166.807V192.637H163.479V191.605H164.967V188.441H163.443V187.387H171.482V188.441H169.936V191.605H171.447V192.637H168.096V194.723H172.326ZM166.268 191.605H168.646V188.441H166.268V191.605ZM181.373 186.449V189.133H182.85V190.223H181.373V192.836H180.072V186.449H181.373ZM181.373 193.34V196.914H174.529V193.34H181.373ZM175.818 194.371V195.859H180.084V194.371H175.818ZM179.311 187.469V188.512H173.029V187.469H175.525V186.379H176.826V187.469H179.311ZM176.17 188.898C177.705 188.898 178.748 189.672 178.76 190.797C178.748 191.934 177.705 192.695 176.17 192.695C174.623 192.695 173.568 191.934 173.568 190.797C173.568 189.672 174.623 188.898 176.17 188.898ZM176.17 189.883C175.361 189.883 174.834 190.223 174.834 190.797C174.834 191.383 175.361 191.723 176.17 191.723C176.979 191.723 177.518 191.383 177.518 190.797C177.518 190.223 176.979 189.883 176.17 189.883Z" fill="white"/>
<rect x="84" y="206" width="121" height="165" fill="#F8F9FB"/>
<path d="M493 190.5C493 183.596 498.596 178 505.5 178H519.5C526.404 178 532 183.596 532 190.5C532 197.404 526.404 203 519.5 203H505.5C498.596 203 493 197.404 493 190.5Z" fill="black"/>
<path d="M511.504 186.051V192.428H510.41V186.051H511.504ZM511.748 193.814V194.693H505.664V191.783H506.758V193.814H511.748ZM506.689 186.627C508.027 186.627 509.062 187.555 509.062 188.834C509.062 190.143 508.027 191.051 506.689 191.051C505.342 191.051 504.307 190.143 504.307 188.834C504.307 187.555 505.342 186.627 506.689 186.627ZM506.689 187.574C505.938 187.574 505.361 188.072 505.371 188.834C505.361 189.615 505.938 190.104 506.689 190.104C507.422 190.104 507.998 189.615 507.998 188.834C507.998 188.072 507.422 187.574 506.689 187.574ZM515.566 190.426V192.037C516.138 192.003 516.699 191.954 517.197 191.881L517.256 192.682C515.811 192.975 513.965 193.004 512.832 193.004L512.676 192.105C513.188 192.105 513.833 192.101 514.521 192.076V190.426H515.566ZM520.391 186.041V194.869H519.365V190.475H518.535V194.439H517.52V186.207H518.535V189.576H519.365V186.041H520.391ZM515.586 187.467C515.576 188.414 516.143 189.332 517.295 189.732L516.748 190.553C515.933 190.25 515.371 189.688 515.059 188.98C514.736 189.771 514.146 190.401 513.252 190.738L512.705 189.918C513.906 189.479 514.502 188.512 514.502 187.467V186.734H515.586V187.467Z" fill="white"/>
<line x1="83.9993" y1="206.7" x2="531.999" y2="205.7" stroke="black" stroke-opacity="0.1" stroke-width="0.6"/>
<line x1="83.9993" y1="247.7" x2="531.999" y2="246.7" stroke="black" stroke-opacity="0.1" stroke-width="0.6"/>
<line x1="83.9993" y1="288.7" x2="531.999" y2="287.7" stroke="black" stroke-opacity="0.1" stroke-width="0.6"/>
<line x1="83.9993" y1="329.7" x2="531.999" y2="328.7" stroke="black" stroke-opacity="0.1" stroke-width="0.6"/>
<line x1="83.9993" y1="370.7" x2="531.999" y2="369.7" stroke="black" stroke-opacity="0.1" stroke-width="0.6"/>
<line x1="83.9993" y1="435.7" x2="531.999" y2="434.7" stroke="black" stroke-opacity="0.1" stroke-width="0.6"/>
<line x1="83.9993" y1="476.7" x2="531.999" y2="475.7" stroke="black" stroke-opacity="0.1" stroke-width="0.6"/>
<line x1="205.25" y1="206" x2="205.25" y2="370" stroke="black" stroke-opacity="0.1" stroke-width="0.5"/>
<path d="M136.727 229.828V230.59H127.188V229.828H131.453V227.273H132.355V229.828H136.727ZM132.379 223.043C132.379 224.789 134.441 226.312 136.258 226.629L135.848 227.391C134.26 227.068 132.584 225.99 131.91 224.484C131.225 225.984 129.561 227.068 127.973 227.391L127.562 226.629C129.379 226.312 131.418 224.789 131.418 223.043V222.246H132.379V223.043ZM147.086 227.473V228.234H144.566V231.949H143.641V228.234H140.969V231.949H140.02V228.234H137.547V227.473H147.086ZM142.293 221.953C144.484 221.953 145.961 222.832 145.961 224.227C145.961 225.609 144.484 226.488 142.293 226.477C140.102 226.488 138.625 225.609 138.625 224.227C138.625 222.832 140.102 221.953 142.293 221.953ZM142.293 222.703C140.664 222.703 139.562 223.301 139.574 224.227C139.562 225.152 140.664 225.738 142.293 225.738C143.91 225.738 145.023 225.152 145.023 224.227C145.023 223.301 143.91 222.703 142.293 222.703ZM151.457 224.73C151.445 226.406 152.652 228.246 154.164 228.961L153.637 229.688C152.465 229.119 151.475 227.877 151.012 226.465C150.531 228 149.482 229.348 148.316 229.945L147.754 229.219C149.254 228.492 150.543 226.512 150.555 224.73V223.371H148.129V222.609H153.801V223.371H151.457V224.73ZM155.992 221.531V225.75H157.738V226.535H155.992V231.949H155.078V221.531H155.992ZM161.711 222.117L158.969 232.277H158.055L160.785 222.117H161.711ZM167.02 228.117C169.258 228.117 170.676 228.82 170.676 230.027C170.676 231.223 169.258 231.926 167.02 231.926C164.793 231.926 163.375 231.223 163.375 230.027C163.375 228.82 164.793 228.117 167.02 228.117ZM167.02 228.82C165.355 228.832 164.277 229.289 164.289 230.027C164.277 230.754 165.355 231.199 167.02 231.199C168.684 231.199 169.75 230.754 169.762 230.027C169.75 229.289 168.684 228.832 167.02 228.82ZM170.594 222.07V222.949C170.594 223.793 170.594 224.637 170.301 225.715L169.398 225.609C169.68 224.531 169.68 223.77 169.68 222.949V222.82H163.445V222.07H170.594ZM171.801 226.395V227.145H162.32V226.395H166.246V224.379H167.148V226.395H171.801ZM182.207 227.473V228.234H179.688V231.949H178.762V228.234H176.09V231.949H175.141V228.234H172.668V227.473H182.207ZM177.414 221.953C179.605 221.953 181.082 222.832 181.082 224.227C181.082 225.609 179.605 226.488 177.414 226.477C175.223 226.488 173.746 225.609 173.746 224.227C173.746 222.832 175.223 221.953 177.414 221.953ZM177.414 222.703C175.785 222.703 174.684 223.301 174.695 224.227C174.684 225.152 175.785 225.738 177.414 225.738C179.031 225.738 180.145 225.152 180.145 224.227C180.145 223.301 179.031 222.703 177.414 222.703ZM186.578 224.73C186.566 226.406 187.773 228.246 189.285 228.961L188.758 229.688C187.586 229.119 186.596 227.877 186.133 226.465C185.652 228 184.604 229.348 183.438 229.945L182.875 229.219C184.375 228.492 185.664 226.512 185.676 224.73V223.371H183.25V222.609H188.922V223.371H186.578V224.73ZM191.113 221.531V225.75H192.859V226.535H191.113V231.949H190.199V221.531H191.113Z" fill="black"/>
<path d="M123.66 267.766C123.672 265.551 124.27 263.711 125.348 262.152H126.238C125.441 263.312 124.703 265.68 124.703 267.766C124.703 269.852 125.441 272.23 126.238 273.391H125.348C124.27 271.82 123.672 269.98 123.66 267.766ZM132.367 263.008C132.355 264.402 134.219 265.586 136.035 265.855L135.695 266.582C134.066 266.307 132.484 265.439 131.852 264.18C131.219 265.439 129.631 266.307 128.031 266.582L127.668 265.855C129.473 265.586 131.336 264.402 131.336 263.008V262.938H127.996V262.188H135.695V262.938H132.367V263.008ZM136.598 267.473V268.234H132.285V271.949H131.383V268.234H127.105V267.473H136.598ZM142.914 262.445V267.273H138.027V262.445H142.914ZM138.93 263.207V266.535H142.012V263.207H138.93ZM146.078 261.543V269.031H145.164V261.543H146.078ZM146.406 270.836V271.598H139.352V268.305H140.266V270.836H146.406ZM150.449 267.766C150.438 269.98 149.84 271.82 148.762 273.391H147.871C148.668 272.23 149.406 269.852 149.406 267.766C149.406 265.68 148.668 263.312 147.871 262.152H148.762C149.84 263.711 150.438 265.551 150.449 267.766ZM161.441 266.488V267.262H151.938V266.488H161.441ZM160.328 264.742V265.492H153.145V261.953H160.258V262.727H154.047V264.742H160.328ZM156.684 268.176C158.922 268.176 160.258 268.855 160.27 270.051C160.258 271.258 158.922 271.926 156.684 271.926C154.434 271.926 153.086 271.258 153.086 270.051C153.086 268.855 154.434 268.176 156.684 268.176ZM156.684 268.891C155.008 268.902 154.012 269.324 154.023 270.051C154.012 270.789 155.008 271.199 156.684 271.199C158.336 271.199 159.344 270.789 159.344 270.051C159.344 269.324 158.336 268.902 156.684 268.891ZM171.836 267.273V268.035H162.297V267.273H166.609V266.172H163.539V263.629H169.68V262.551H163.504V261.801H170.605V264.32H164.453V265.434H170.828V266.172H167.512V267.273H171.836ZM170.664 268.832V271.855H169.738V269.582H163.363V268.832H170.664ZM181.316 261.543V269.254H180.391V265.246H177.93V267.473H173.207V262.234H174.121V264.086H177.027V262.234H177.93V264.473H180.391V261.543H181.316ZM181.551 270.953V271.727H174.578V268.492H175.504V270.953H181.551ZM174.121 266.711H177.027V264.812H174.121V266.711ZM192.051 263.078V263.84H183.52V263.078H187.34V261.707H188.242V263.078H192.051ZM192.59 269.969V270.73H183.051V269.969H187.34V268.504C185.488 268.404 184.363 267.684 184.375 266.512C184.363 265.27 185.676 264.543 187.797 264.555C189.895 264.543 191.219 265.27 191.219 266.512C191.219 267.684 190.082 268.404 188.242 268.504V269.969H192.59ZM187.797 265.281C186.238 265.281 185.289 265.738 185.301 266.512C185.289 267.309 186.238 267.754 187.797 267.766C189.332 267.754 190.281 267.309 190.281 266.512C190.281 265.738 189.332 265.281 187.797 265.281Z" fill="black"/>
<path d="M155.887 309.027V310.938C156.889 310.896 157.914 310.809 158.875 310.668L158.945 311.348C156.566 311.781 154 311.793 152.125 311.793L151.996 311.031C152.869 311.025 153.9 311.02 154.984 310.984V309.027H155.887ZM158.336 304.902V305.664H155.887C155.91 307.012 157.029 308.107 158.57 308.547L158.137 309.273C156.883 308.898 155.904 308.096 155.441 307.035C154.984 308.154 154.012 308.986 152.758 309.367L152.312 308.664C153.854 308.213 154.938 307.07 154.961 305.664H152.57V304.902H154.984V303.613H155.887V304.902H158.336ZM160.48 303.531V313.973H159.566V303.531H160.48ZM167.5 307.234V308.723H171.801V309.484H162.309V308.723H166.598V307.234H167.5ZM167.055 310.34C169.293 310.34 170.629 310.973 170.641 312.133C170.629 313.293 169.293 313.926 167.055 313.926C164.793 313.926 163.457 313.293 163.457 312.133C163.457 310.973 164.793 310.34 167.055 310.34ZM167.055 311.066C165.367 311.066 164.383 311.453 164.395 312.133C164.383 312.812 165.367 313.211 167.055 313.211C168.719 313.211 169.715 312.812 169.715 312.133C169.715 311.453 168.719 311.066 167.055 311.066ZM170.957 304.023V304.773H167.652C167.711 305.934 169.457 306.83 171.273 307.023L170.934 307.75C169.229 307.545 167.629 306.801 167.055 305.641C166.486 306.801 164.893 307.545 163.176 307.75L162.836 307.023C164.652 306.83 166.387 305.945 166.457 304.773H163.176V304.023H170.957ZM176.406 306.73C176.406 308.5 177.695 310.293 179.23 310.961L178.715 311.688C177.496 311.131 176.441 309.93 175.961 308.488C175.469 310.018 174.42 311.348 173.23 311.945L172.68 311.219C174.168 310.504 175.469 308.535 175.48 306.73V305.371H173.02V304.609H178.891V305.371H176.406V306.73ZM181.27 303.531V313.949H180.344V303.531H181.27ZM192.578 309.051V309.801H188.336V311.84H187.422V309.801H183.039V309.051H192.578ZM191.512 312.953V313.727H184.258V310.879H185.172V312.953H191.512ZM185.23 303.871V305.207H190.387V303.871H191.301V308.031H184.316V303.871H185.23ZM185.23 307.281H190.387V305.91H185.23V307.281Z" fill="black"/>
<path d="M140.699 349.488V350.262H131.195V349.488H140.699ZM139.586 347.742V348.492H132.402V344.953H139.516V345.727H133.305V347.742H139.586ZM135.941 351.176C138.18 351.176 139.516 351.855 139.527 353.051C139.516 354.258 138.18 354.926 135.941 354.926C133.691 354.926 132.344 354.258 132.344 353.051C132.344 351.855 133.691 351.176 135.941 351.176ZM135.941 351.891C134.266 351.902 133.27 352.324 133.281 353.051C133.27 353.789 134.266 354.199 135.941 354.199C137.594 354.199 138.602 353.789 138.602 353.051C138.602 352.324 137.594 351.902 135.941 351.891ZM150.18 344.531V354.949H149.254V344.531H150.18ZM147.098 345.668C147.086 348.668 145.691 351.316 142.199 352.992L141.695 352.242C144.514 350.906 145.949 348.908 146.16 346.418H142.176V345.668H147.098ZM160.293 345.586V346.629C160.281 347.906 160.281 349.336 159.906 351.434L158.969 351.328C159.367 349.336 159.367 347.871 159.367 346.629V346.348H152.945V345.586H160.293ZM161.43 352.711V353.473H151.938V352.711H155.664V348.984H156.566V352.711H161.43ZM171.836 350.473V351.234H169.316V354.949H168.391V351.234H165.719V354.949H164.77V351.234H162.297V350.473H171.836ZM167.043 344.953C169.234 344.953 170.711 345.832 170.711 347.227C170.711 348.609 169.234 349.488 167.043 349.477C164.852 349.488 163.375 348.609 163.375 347.227C163.375 345.832 164.852 344.953 167.043 344.953ZM167.043 345.703C165.414 345.703 164.312 346.301 164.324 347.227C164.312 348.152 165.414 348.738 167.043 348.738C168.66 348.738 169.773 348.152 169.773 347.227C169.773 346.301 168.66 345.703 167.043 345.703ZM181.316 344.543V352.254H180.391V348.246H177.93V350.473H173.207V345.234H174.121V347.086H177.027V345.234H177.93V347.473H180.391V344.543H181.316ZM181.551 353.953V354.727H174.578V351.492H175.504V353.953H181.551ZM174.121 349.711H177.027V347.812H174.121V349.711ZM192.051 346.078V346.84H183.52V346.078H187.34V344.707H188.242V346.078H192.051ZM192.59 352.969V353.73H183.051V352.969H187.34V351.504C185.488 351.404 184.363 350.684 184.375 349.512C184.363 348.27 185.676 347.543 187.797 347.555C189.895 347.543 191.219 348.27 191.219 349.512C191.219 350.684 190.082 351.404 188.242 351.504V352.969H192.59ZM187.797 348.281C186.238 348.281 185.289 348.738 185.301 349.512C185.289 350.309 186.238 350.754 187.797 350.766C189.332 350.754 190.281 350.309 190.281 349.512C190.281 348.738 189.332 348.281 187.797 348.281Z" fill="black"/>
<path d="M101.961 458.91V459.672H92.4219V458.91H95.082V456.426H93.2891V455.664H94.918V452.266H93.2656V451.504H101.047V452.266H99.3945V455.664H101.023V456.426H99.2305V458.91H101.961ZM95.832 455.664H98.4922V452.266H95.832V455.664ZM96.0078 458.91H98.3164V456.426H96.0078V458.91ZM106.496 453.332C106.484 455.23 107.785 457.152 109.32 457.844L108.758 458.57C107.574 457.99 106.549 456.766 106.051 455.277C105.564 456.854 104.539 458.166 103.32 458.781L102.734 458.008C104.281 457.293 105.57 455.312 105.582 453.332V451.434H106.496V453.332ZM111.383 450.531V460.973H110.457V450.531H111.383ZM121.801 450.543V458.254H120.875V454.246H118.414V456.473H113.691V451.234H114.605V453.086H117.512V451.234H118.414V453.473H120.875V450.543H121.801ZM122.035 459.953V460.727H115.062V457.492H115.988V459.953H122.035ZM114.605 455.711H117.512V453.812H114.605V455.711ZM132.535 452.078V452.84H124.004V452.078H127.824V450.707H128.727V452.078H132.535ZM133.074 458.969V459.73H123.535V458.969H127.824V457.504C125.973 457.404 124.848 456.684 124.859 455.512C124.848 454.27 126.16 453.543 128.281 453.555C130.379 453.543 131.703 454.27 131.703 455.512C131.703 456.684 130.566 457.404 128.727 457.504V458.969H133.074ZM128.281 454.281C126.723 454.281 125.773 454.738 125.785 455.512C125.773 456.309 126.723 456.754 128.281 456.766C129.816 456.754 130.766 456.309 130.766 455.512C130.766 454.738 129.816 454.281 128.281 454.281Z" fill="black"/>
<path d="M171.047 450.531V456.191H170.133V453.836H168.023V453.062H170.133V450.531H171.047ZM165.27 456.695V457.996H170.133V456.695H171.047V460.809H164.344V456.695H165.27ZM165.27 460.059H170.133V458.734H165.27V460.059ZM166.043 452.23C166.043 453.566 167.086 454.879 168.609 455.406L168.129 456.121C166.951 455.693 166.043 454.82 165.598 453.742C165.146 454.949 164.186 455.916 162.949 456.367L162.469 455.641C164.004 455.09 165.117 453.707 165.117 452.23V451.926H162.762V451.164H168.375V451.926H166.043V452.23ZM178.02 451.504C178.02 452.969 179.941 454.246 181.816 454.504L181.441 455.254C179.824 454.984 178.225 454.088 177.551 452.805C176.883 454.094 175.277 454.984 173.66 455.254L173.285 454.504C175.16 454.246 177.07 452.992 177.07 451.504V450.906H178.02V451.504ZM182.285 456.402V457.176H177.973V460.949H177.07V457.176H172.793V456.402H182.285Z" fill="black"/>
<path d="M221.961 458.828V459.59H212.422V458.828H216.688V456.273H217.59V458.828H221.961ZM217.613 452.043C217.613 453.789 219.676 455.312 221.492 455.629L221.082 456.391C219.494 456.068 217.818 454.99 217.145 453.484C216.459 454.984 214.795 456.068 213.207 456.391L212.797 455.629C214.613 455.312 216.652 453.789 216.652 452.043V451.246H217.613V452.043ZM231.746 450.531V460.949H230.855V455.535H229.438V460.422H228.559V450.754H229.438V454.75H230.855V450.531H231.746ZM225.875 453.379C225.875 455.289 226.66 456.965 228.148 457.727L227.598 458.441C226.543 457.867 225.822 456.836 225.453 455.559C225.096 457.012 224.363 458.148 223.262 458.793L222.688 458.09C224.188 457.27 224.984 455.488 224.984 453.379V452.547H222.934V451.773H227.809V452.547H225.875V453.379ZM236.891 453.73C236.891 455.5 238.18 457.293 239.715 457.961L239.199 458.688C237.98 458.131 236.926 456.93 236.445 455.488C235.953 457.018 234.904 458.348 233.715 458.945L233.164 458.219C234.652 457.504 235.953 455.535 235.965 453.73V452.371H233.504V451.609H239.375V452.371H236.891V453.73ZM241.754 450.531V460.949H240.828V450.531H241.754ZM252.172 450.543V458.254H251.246V454.246H248.785V456.473H244.062V451.234H244.977V453.086H247.883V451.234H248.785V453.473H251.246V450.543H252.172ZM252.406 459.953V460.727H245.434V457.492H246.359V459.953H252.406ZM244.977 455.711H247.883V453.812H244.977V455.711ZM255.617 459.215L254.703 462.402H253.836L254.48 459.215H255.617ZM268.625 450.543V458.242H267.699V454.527H265.391V453.754H267.699V450.543H268.625ZM265.438 451.34C265.426 454.012 263.516 456.051 260.551 457.023L260.152 456.285C262.555 455.494 264.225 454 264.43 452.113H260.68V451.34H265.438ZM268.895 459.953V460.727H261.992V457.457H262.93V459.953H268.895ZM279.852 454.938V455.688H275.551V456.719H278.633V459.051H272.445V460.105H278.949V460.832H271.531V458.359H277.73V457.434H271.508V456.719H274.637V455.688H270.359V454.938H279.852ZM278.621 450.883V454.059H271.59V450.883H278.621ZM272.504 451.621V453.32H277.707V451.621H272.504ZM289.367 450.531V456.707H288.441V455.066H286.004V455.957H281.223V451.328H286.004V452.23H288.441V450.531H289.367ZM282.137 452.078V455.207H285.102V452.078H282.137ZM285.91 457.012C288.078 457.012 289.402 457.727 289.402 458.98C289.402 460.223 288.078 460.926 285.91 460.926C283.742 460.926 282.418 460.223 282.418 458.98C282.418 457.727 283.742 457.012 285.91 457.012ZM285.91 457.727C284.316 457.738 283.32 458.195 283.332 458.98C283.32 459.73 284.316 460.199 285.91 460.199C287.504 460.199 288.488 459.73 288.488 458.98C288.488 458.195 287.504 457.738 285.91 457.727ZM286.004 454.293H288.441V452.992H286.004V454.293ZM294.887 452.711C294.887 454.035 296.023 455.207 297.582 455.652L297.148 456.367C295.918 456.004 294.934 455.213 294.453 454.176C293.996 455.318 293.023 456.215 291.77 456.637L291.312 455.91C292.859 455.418 293.973 454.141 293.973 452.711V452.57H291.57V451.832H293.973V450.531H294.898V451.832H297.277V452.57H294.887V452.711ZM299.703 450.543V456.93H298.789V450.543H299.703ZM296.223 457.152C298.402 457.141 299.727 457.832 299.738 459.027C299.727 460.246 298.402 460.926 296.223 460.926C294.031 460.926 292.707 460.246 292.707 459.027C292.707 457.832 294.031 457.141 296.223 457.152ZM296.223 457.879C294.594 457.879 293.633 458.312 293.633 459.027C293.633 459.766 294.594 460.199 296.223 460.199C297.84 460.199 298.824 459.766 298.824 459.027C298.824 458.312 297.84 457.879 296.223 457.879ZM309.922 451.211V455.453H305.035V451.211H309.922ZM305.938 451.961V454.727H309.02V451.961H305.938ZM313.074 450.531V456.52H312.172V450.531H313.074ZM310.25 457.949C310.25 458.969 311.914 459.977 313.707 460.199L313.391 460.914C311.82 460.703 310.391 459.965 309.781 458.992C309.148 459.982 307.684 460.703 306.113 460.914L305.785 460.199C307.578 460 309.301 458.992 309.301 457.949H306.219V457.234H309.312V456.215H310.227V457.234H313.344V457.949H310.25ZM326.504 450.543V458.254H325.578V454.246H323.117V456.473H318.395V451.234H319.309V453.086H322.215V451.234H323.117V453.473H325.578V450.543H326.504ZM326.738 459.953V460.727H319.766V457.492H320.691V459.953H326.738ZM319.309 455.711H322.215V453.812H319.309V455.711ZM337.238 452.078V452.84H328.707V452.078H332.527V450.707H333.43V452.078H337.238ZM337.777 458.969V459.73H328.238V458.969H332.527V457.504C330.676 457.404 329.551 456.684 329.562 455.512C329.551 454.27 330.863 453.543 332.984 453.555C335.082 453.543 336.406 454.27 336.406 455.512C336.406 456.684 335.27 457.404 333.43 457.504V458.969H337.777ZM332.984 454.281C331.426 454.281 330.477 454.738 330.488 455.512C330.477 456.309 331.426 456.754 332.984 456.766C334.52 456.754 335.469 456.309 335.469 455.512C335.469 454.738 334.52 454.281 332.984 454.281Z" fill="black"/>
<path d="M374.059 450.543V458.242H373.133V454.527H370.824V453.754H373.133V450.543H374.059ZM370.871 451.34C370.859 454.012 368.949 456.051 365.984 457.023L365.586 456.285C367.988 455.494 369.658 454 369.863 452.113H366.113V451.34H370.871ZM374.328 459.953V460.727H367.426V457.457H368.363V459.953H374.328ZM385.285 454.938V455.688H380.984V456.719H384.066V459.051H377.879V460.105H384.383V460.832H376.965V458.359H383.164V457.434H376.941V456.719H380.07V455.688H375.793V454.938H385.285ZM384.055 450.883V454.059H377.023V450.883H384.055ZM377.938 451.621V453.32H383.141V451.621H377.938ZM395.059 450.531V460.949H394.156V455.559H392.656V460.41H391.789V450.766H392.656V454.773H394.156V450.531H395.059ZM387.605 451.809V457.434C388.643 457.422 389.744 457.352 391.016 457.094L391.133 457.914C389.68 458.172 388.484 458.254 387.336 458.254H386.691V451.809H387.605ZM405.172 457.246V460.949H404.246V457.984H398.164V457.246H405.172ZM405.172 450.531V456.672H404.246V455.172H401.562C401.076 455.764 400.309 456.115 399.406 456.109C397.848 456.121 396.699 455.09 396.699 453.613C396.699 452.16 397.848 451.129 399.406 451.129C400.303 451.129 401.07 451.48 401.562 452.066H404.246V450.531H405.172ZM399.406 451.914C398.34 451.914 397.578 452.629 397.578 453.613C397.578 454.633 398.34 455.336 399.406 455.336C400.426 455.336 401.211 454.633 401.211 453.613C401.211 452.629 400.426 451.914 399.406 451.914ZM401.973 454.41H404.246V452.828H401.973C402.055 453.074 402.102 453.332 402.102 453.613C402.102 453.895 402.055 454.164 401.973 454.41Z" fill="black"/>
<path d="M442.926 455.488V456.262H433.422V455.488H442.926ZM441.812 453.742V454.492H434.629V450.953H441.742V451.727H435.531V453.742H441.812ZM438.168 457.176C440.406 457.176 441.742 457.855 441.754 459.051C441.742 460.258 440.406 460.926 438.168 460.926C435.918 460.926 434.57 460.258 434.57 459.051C434.57 457.855 435.918 457.176 438.168 457.176ZM438.168 457.891C436.492 457.902 435.496 458.324 435.508 459.051C435.496 459.789 436.492 460.199 438.168 460.199C439.82 460.199 440.828 459.789 440.828 459.051C440.828 458.324 439.82 457.902 438.168 457.891ZM452.406 450.531V460.949H451.48V450.531H452.406ZM449.324 451.668C449.312 454.668 447.918 457.316 444.426 458.992L443.922 458.242C446.74 456.906 448.176 454.908 448.387 452.418H444.402V451.668H449.324ZM462.754 450.543V458.453H461.828V457.375H459.672V456.707H461.828V450.543H462.754ZM463.012 459.953V460.727H455.605V457.68H456.531V459.953H463.012ZM454.105 455.371C456.051 455.359 458.652 455.348 460.891 455.066L460.949 455.734C460.018 455.881 459.045 455.975 458.09 456.027V458.09H457.164V456.074C456.109 456.121 455.107 456.127 454.234 456.121L454.105 455.371ZM457.527 450.965C459.051 450.965 460.094 451.691 460.105 452.781C460.094 453.895 459.051 454.586 457.527 454.586C455.992 454.586 454.949 453.895 454.949 452.781C454.949 451.691 455.992 450.965 457.527 450.965ZM457.527 451.668C456.508 451.656 455.816 452.113 455.828 452.781C455.816 453.461 456.508 453.906 457.527 453.906C458.512 453.906 459.215 453.461 459.227 452.781C459.215 452.113 458.512 451.656 457.527 451.668ZM473.137 450.543V458.16H472.223V450.543H473.137ZM473.465 459.953V460.727H466.41V457.387H467.324V459.953H473.465ZM467.512 451.27C469.07 451.27 470.242 452.324 470.242 453.824C470.242 455.348 469.07 456.391 467.512 456.391C465.953 456.391 464.781 455.348 464.781 453.824C464.781 452.324 465.953 451.27 467.512 451.27ZM467.512 452.078C466.457 452.078 465.672 452.805 465.684 453.824C465.672 454.867 466.457 455.582 467.512 455.582C468.543 455.582 469.34 454.867 469.34 453.824C469.34 452.805 468.543 452.078 467.512 452.078ZM483.355 451.211V455.453H478.469V451.211H483.355ZM479.371 451.961V454.727H482.453V451.961H479.371ZM486.508 450.531V456.52H485.605V450.531H486.508ZM483.684 457.949C483.684 458.969 485.348 459.977 487.141 460.199L486.824 460.914C485.254 460.703 483.824 459.965 483.215 458.992C482.582 459.982 481.117 460.703 479.547 460.914L479.219 460.199C481.012 460 482.734 458.992 482.734 457.949H479.652V457.234H482.746V456.215H483.66V457.234H486.777V457.949H483.684ZM499.914 450.531V460.949H498.988V450.531H499.914ZM496.832 451.668C496.82 454.668 495.426 457.316 491.934 458.992L491.43 458.242C494.248 456.906 495.684 454.908 495.895 452.418H491.91V451.668H496.832ZM507.016 451.48V452.254H503.055V454.41H506.781V455.16H503.055V457.68C504.93 457.68 506.248 457.604 507.812 457.34L507.918 458.102C506.289 458.371 504.918 458.43 502.949 458.441H502.129V451.48H507.016ZM509.734 450.531V454.727H511.48V455.512H509.734V460.949H508.82V450.531H509.734ZM515.535 453.332C515.535 455.172 516.754 457.059 518.23 457.785L517.668 458.523C516.52 457.92 515.559 456.689 515.102 455.242C514.633 456.783 513.648 458.096 512.477 458.723L511.891 457.984C513.414 457.234 514.621 455.23 514.633 453.332V451.434H515.535V453.332ZM520.105 450.531V454.762H521.852V455.559H520.105V460.949H519.191V450.531H520.105ZM530.559 450.531V453.438H532.129V454.223H530.559V457.258H529.645V450.531H530.559ZM527.266 457.328C529.387 457.328 530.676 457.996 530.676 459.133C530.676 460.27 529.387 460.926 527.266 460.926C525.145 460.926 523.844 460.27 523.855 459.133C523.844 457.996 525.145 457.328 527.266 457.328ZM527.266 458.055C525.707 458.055 524.758 458.441 524.77 459.133C524.758 459.812 525.707 460.211 527.266 460.211C528.824 460.211 529.762 459.812 529.762 459.133C529.762 458.441 528.824 458.055 527.266 458.055ZM528.648 451.727V452.453H522.438V451.727H525.086V450.449H526V451.727H528.648ZM525.543 452.992C527.043 452.992 528.039 453.719 528.051 454.832C528.039 455.957 527.043 456.672 525.543 456.672C524.031 456.672 523.023 455.957 523.035 454.832C523.023 453.719 524.031 452.992 525.543 452.992ZM525.543 453.684C524.559 453.695 523.902 454.152 523.914 454.832C523.902 455.512 524.559 455.957 525.543 455.957C526.516 455.957 527.172 455.512 527.184 454.832C527.172 454.152 526.516 453.695 525.543 453.684Z" fill="black"/>
<path d="M221.371 227.027V228.938C222.373 228.896 223.398 228.809 224.359 228.668L224.43 229.348C222.051 229.781 219.484 229.793 217.609 229.793L217.48 229.031C218.354 229.025 219.385 229.02 220.469 228.984V227.027H221.371ZM223.82 222.902V223.664H221.371C221.395 225.012 222.514 226.107 224.055 226.547L223.621 227.273C222.367 226.898 221.389 226.096 220.926 225.035C220.469 226.154 219.496 226.986 218.242 227.367L217.797 226.664C219.338 226.213 220.422 225.07 220.445 223.664H218.055V222.902H220.469V221.613H221.371V222.902H223.82ZM225.965 221.531V231.973H225.051V221.531H225.965ZM237.297 226.488V227.262H227.793V226.488H237.297ZM236.184 224.742V225.492H229V221.953H236.113V222.727H229.902V224.742H236.184ZM232.539 228.176C234.777 228.176 236.113 228.855 236.125 230.051C236.113 231.258 234.777 231.926 232.539 231.926C230.289 231.926 228.941 231.258 228.941 230.051C228.941 228.855 230.289 228.176 232.539 228.176ZM232.539 228.891C230.863 228.902 229.867 229.324 229.879 230.051C229.867 230.789 230.863 231.199 232.539 231.199C234.191 231.199 235.199 230.789 235.199 230.051C235.199 229.324 234.191 228.902 232.539 228.891ZM246.777 221.531V231.949H245.852V221.531H246.777ZM243.695 222.668C243.684 225.668 242.289 228.316 238.797 229.992L238.293 229.242C241.111 227.906 242.547 225.908 242.758 223.418H238.773V222.668H243.695Z" fill="black"/>
<path d="M220.75 271.117C219.273 271.094 217.656 270.227 217.656 267.086C217.656 264.086 218.887 262.398 220.879 262.398C222.367 262.398 223.41 263.312 223.633 264.648H222.59C222.391 263.898 221.828 263.336 220.879 263.336C219.484 263.336 218.652 264.531 218.652 266.57H218.758C219.25 265.867 220.023 265.445 220.938 265.445C222.449 265.445 223.703 266.617 223.703 268.258C223.703 269.852 222.531 271.129 220.75 271.117ZM220.75 270.191C221.852 270.191 222.672 269.324 222.684 268.27C222.672 267.227 221.887 266.371 220.773 266.371C219.66 266.371 218.805 267.273 218.793 268.281C218.793 269.277 219.613 270.191 220.75 270.191ZM227.922 271.117C226.387 271.117 225.227 270.168 225.168 268.867H226.188C226.27 269.629 227.008 270.191 227.922 270.191C229.023 270.191 229.82 269.383 229.82 268.316C229.82 267.215 228.988 266.406 227.852 266.395C227.137 266.383 226.586 266.605 226.27 267.156H225.25L225.848 262.516H230.441V263.453H226.727L226.41 265.938H226.492C226.867 265.645 227.441 265.445 228.039 265.445C229.656 265.445 230.852 266.641 230.852 268.293C230.852 269.934 229.609 271.117 227.922 271.117ZM235.094 271.117C233.207 271.117 232.129 269.535 232.129 266.758C232.129 264.004 233.23 262.398 235.094 262.398C236.957 262.398 238.059 264.004 238.059 266.758C238.059 269.535 236.969 271.117 235.094 271.117ZM235.094 270.18C236.312 270.18 237.027 268.949 237.027 266.758C237.027 264.566 236.312 263.312 235.094 263.312C233.875 263.312 233.148 264.566 233.148 266.758C233.148 268.949 233.863 270.18 235.094 270.18ZM239.465 271L239.453 270.227L242.348 267.18C243.355 266.113 243.836 265.539 243.836 264.754C243.836 263.887 243.098 263.312 242.148 263.312C241.141 263.312 240.496 263.957 240.496 264.906H239.5C239.488 263.406 240.648 262.398 242.184 262.398C243.719 262.398 244.82 263.43 244.82 264.754C244.82 265.703 244.375 266.441 242.875 267.988L240.93 269.992V270.062H244.973V271H239.465ZM249.508 262.516V271H248.441V263.617H248.395L246.332 264.988V263.922L248.441 262.516H249.508ZM254.77 262.516V271H253.703V263.617H253.656L251.594 264.988V263.922L253.703 262.516H254.77ZM260.688 266.301V267.227H256.973V266.301H260.688ZM264.648 267.285H263.852L263.922 265.469L262.375 266.441L261.977 265.75L263.594 264.906L261.977 264.051L262.375 263.359L263.922 264.332L263.852 262.516H264.648L264.578 264.332L266.125 263.359L266.523 264.051L264.918 264.906L266.523 265.75L266.125 266.441L264.578 265.469L264.648 267.285ZM270.297 267.285H269.5L269.57 265.469L268.023 266.441L267.625 265.75L269.242 264.906L267.625 264.051L268.023 263.359L269.57 264.332L269.5 262.516H270.297L270.227 264.332L271.773 263.359L272.172 264.051L270.566 264.906L272.172 265.75L271.773 266.441L270.227 265.469L270.297 267.285ZM275.945 267.285H275.148L275.219 265.469L273.672 266.441L273.273 265.75L274.891 264.906L273.273 264.051L273.672 263.359L275.219 264.332L275.148 262.516H275.945L275.875 264.332L277.422 263.359L277.82 264.051L276.215 264.906L277.82 265.75L277.422 266.441L275.875 265.469L275.945 267.285ZM281.594 267.285H280.797L280.867 265.469L279.32 266.441L278.922 265.75L280.539 264.906L278.922 264.051L279.32 263.359L280.867 264.332L280.797 262.516H281.594L281.523 264.332L283.07 263.359L283.469 264.051L281.863 264.906L283.469 265.75L283.07 266.441L281.523 265.469L281.594 267.285ZM287.242 267.285H286.445L286.516 265.469L284.969 266.441L284.57 265.75L286.188 264.906L284.57 264.051L284.969 263.359L286.516 264.332L286.445 262.516H287.242L287.172 264.332L288.719 263.359L289.117 264.051L287.512 264.906L289.117 265.75L288.719 266.441L287.172 265.469L287.242 267.285ZM292.891 267.285H292.094L292.164 265.469L290.617 266.441L290.219 265.75L291.836 264.906L290.219 264.051L290.617 263.359L292.164 264.332L292.094 262.516H292.891L292.82 264.332L294.367 263.359L294.766 264.051L293.16 264.906L294.766 265.75L294.367 266.441L292.82 265.469L292.891 267.285ZM298.539 267.285H297.742L297.812 265.469L296.266 266.441L295.867 265.75L297.484 264.906L295.867 264.051L296.266 263.359L297.812 264.332L297.742 262.516H298.539L298.469 264.332L300.016 263.359L300.414 264.051L298.809 264.906L300.414 265.75L300.016 266.441L298.469 265.469L298.539 267.285Z" fill="black"/>
<path d="M221.172 305.254C221.172 306.613 222.309 307.82 223.855 308.289L223.387 309.016C222.168 308.629 221.189 307.791 220.715 306.719C220.258 307.867 219.273 308.764 218.031 309.191L217.551 308.465C219.121 307.973 220.246 306.684 220.246 305.254V304.984H217.809V304.234H223.574V304.984H221.172V305.254ZM226.023 303.531V309.168H225.109V303.531H226.023ZM220.188 309.684V310.949H225.109V309.684H226.023V313.809H219.273V309.684H220.188ZM220.188 313.059H225.109V311.688H220.188V313.059ZM235.938 303.531V306.203H237.508V306.988H235.938V309.59H235.023V303.531H235.938ZM230.266 310.047V311.16H235.023V310.047H235.938V313.809H229.352V310.047H230.266ZM230.266 313.07H235.023V311.887H230.266V313.07ZM234.027 304.609V305.371H227.816V304.609H230.465V303.438H231.379V304.609H234.027ZM230.922 305.852C232.422 305.852 233.418 306.566 233.43 307.68C233.418 308.793 232.422 309.508 230.922 309.508C229.41 309.508 228.402 308.793 228.414 307.68C228.402 306.566 229.41 305.852 230.922 305.852ZM230.922 306.566C229.938 306.555 229.281 307.012 229.293 307.68C229.281 308.359 229.938 308.805 230.922 308.805C231.895 308.805 232.551 308.359 232.562 307.68C232.551 307.012 231.895 306.555 230.922 306.566ZM246.801 303.543V311.242H245.875V307.527H243.566V306.754H245.875V303.543H246.801ZM243.613 304.34C243.602 307.012 241.691 309.051 238.727 310.023L238.328 309.285C240.73 308.494 242.4 307 242.605 305.113H238.855V304.34H243.613ZM247.07 312.953V313.727H240.168V310.457H241.105V312.953H247.07ZM258.027 307.938V308.688H253.727V309.719H256.809V312.051H250.621V313.105H257.125V313.832H249.707V311.359H255.906V310.434H249.684V309.719H252.812V308.688H248.535V307.938H258.027ZM256.797 303.883V307.059H249.766V303.883H256.797ZM250.68 304.621V306.32H255.883V304.621H250.68Z" fill="black"/>
<path d="M220.797 345.516V354H219.73V346.617H219.684L217.621 347.988V346.922L219.73 345.516H220.797ZM223.059 354L223.047 353.227L225.941 350.18C226.949 349.113 227.43 348.539 227.43 347.754C227.43 346.887 226.691 346.312 225.742 346.312C224.734 346.312 224.09 346.957 224.09 347.906H223.094C223.082 346.406 224.242 345.398 225.777 345.398C227.312 345.398 228.414 346.43 228.414 347.754C228.414 348.703 227.969 349.441 226.469 350.988L224.523 352.992V353.062H228.566V354H223.059ZM232.879 354.117C230.992 354.117 229.914 352.535 229.914 349.758C229.914 347.004 231.016 345.398 232.879 345.398C234.742 345.398 235.844 347.004 235.844 349.758C235.844 352.535 234.754 354.117 232.879 354.117ZM232.879 353.18C234.098 353.18 234.812 351.949 234.812 349.758C234.812 347.566 234.098 346.312 232.879 346.312C231.66 346.312 230.934 347.566 230.934 349.758C230.934 351.949 231.648 353.18 232.879 353.18ZM240.25 345.516V354H239.184V346.617H239.137L237.074 347.988V346.922L239.184 345.516H240.25ZM246.168 349.301V350.227H242.453V349.301H246.168ZM247.316 354L247.305 353.227L250.199 350.18C251.207 349.113 251.688 348.539 251.688 347.754C251.688 346.887 250.949 346.312 250 346.312C248.992 346.312 248.348 346.957 248.348 347.906H247.352C247.34 346.406 248.5 345.398 250.035 345.398C251.57 345.398 252.672 346.43 252.672 347.754C252.672 348.703 252.227 349.441 250.727 350.988L248.781 352.992V353.062H252.824V354H247.316ZM257.137 354.117C255.25 354.117 254.172 352.535 254.172 349.758C254.172 347.004 255.273 345.398 257.137 345.398C259 345.398 260.102 347.004 260.102 349.758C260.102 352.535 259.012 354.117 257.137 354.117ZM257.137 353.18C258.355 353.18 259.07 351.949 259.07 349.758C259.07 347.566 258.355 346.312 257.137 346.312C255.918 346.312 255.191 347.566 255.191 349.758C255.191 351.949 255.906 353.18 257.137 353.18ZM261.508 354L261.496 353.227L264.391 350.18C265.398 349.113 265.879 348.539 265.879 347.754C265.879 346.887 265.141 346.312 264.191 346.312C263.184 346.312 262.539 346.957 262.539 347.906H261.543C261.531 346.406 262.691 345.398 264.227 345.398C265.762 345.398 266.863 346.43 266.863 347.754C266.863 348.703 266.418 349.441 264.918 350.988L262.973 352.992V353.062H267.016V354H261.508ZM268.551 354L268.539 353.227L271.434 350.18C272.441 349.113 272.922 348.539 272.922 347.754C272.922 346.887 272.184 346.312 271.234 346.312C270.227 346.312 269.582 346.957 269.582 347.906H268.586C268.574 346.406 269.734 345.398 271.27 345.398C272.805 345.398 273.906 346.43 273.906 347.754C273.906 348.703 273.461 349.441 271.961 350.988L270.016 352.992V353.062H274.059V354H268.551ZM279.25 349.301V350.227H275.535V349.301H279.25ZM283.562 354.117C281.676 354.117 280.598 352.535 280.598 349.758C280.598 347.004 281.699 345.398 283.562 345.398C285.426 345.398 286.527 347.004 286.527 349.758C286.527 352.535 285.438 354.117 283.562 354.117ZM283.562 353.18C284.781 353.18 285.496 351.949 285.496 349.758C285.496 347.566 284.781 346.312 283.562 346.312C282.344 346.312 281.617 347.566 281.617 349.758C281.617 351.949 282.332 353.18 283.562 353.18ZM290.934 345.516V354H289.867V346.617H289.82L287.758 347.988V346.922L289.867 345.516H290.934ZM293.195 354L293.184 353.227L296.078 350.18C297.086 349.113 297.566 348.539 297.566 347.754C297.566 346.887 296.828 346.312 295.879 346.312C294.871 346.312 294.227 346.957 294.227 347.906H293.23C293.219 346.406 294.379 345.398 295.914 345.398C297.449 345.398 298.551 346.43 298.551 347.754C298.551 348.703 298.105 349.441 296.605 350.988L294.66 352.992V353.062H298.703V354H293.195ZM303.238 345.516V354H302.172V346.617H302.125L300.062 347.988V346.922L302.172 345.516H303.238ZM305.5 354L305.488 353.227L308.383 350.18C309.391 349.113 309.871 348.539 309.871 347.754C309.871 346.887 309.133 346.312 308.184 346.312C307.176 346.312 306.531 346.957 306.531 347.906H305.535C305.523 346.406 306.684 345.398 308.219 345.398C309.754 345.398 310.855 346.43 310.855 347.754C310.855 348.703 310.41 349.441 308.91 350.988L306.965 352.992V353.062H311.008V354H305.5Z" fill="black"/>
<path d="M86.2857 412H92M86.2857 414.286H94.2857M86.2857 416.571H89.7143M97.7143 417.714V409.714L92 404H86.2857C85.6795 404 85.0981 404.241 84.6695 404.669C84.2408 405.098 84 405.68 84 406.286V417.714C84 418.32 84.2408 418.902 84.6695 419.331C85.0981 419.759 85.6795 420 86.2857 420H95.4286C96.0348 420 96.6162 419.759 97.0448 419.331C97.4735 418.902 97.7143 418.32 97.7143 417.714Z" stroke="black" stroke-width="1.14286" stroke-linecap="round" stroke-linejoin="round"/>
<path d="M92 404V407.429C92 408.035 92.2408 408.616 92.6695 409.045C93.0981 409.473 93.6795 409.714 94.2857 409.714H97.7143" stroke="black" stroke-width="1.14286" stroke-linecap="round" stroke-linejoin="round"/>
<path d="M117.561 415.564V416.795H106.268V415.564H109.193V413.021H107.238V411.791H108.975V408.127H107.197V406.91H116.576V408.127H114.771V411.791H116.535V413.021H114.58V415.564H117.561ZM110.492 411.791H113.268V408.127H110.492V411.791ZM110.711 415.564H113.062V413.021H110.711V415.564ZM129.004 405.857V418.217H127.555V405.857H129.004ZM126.488 406.09V417.615H125.053V411.395H123.275V410.164H125.053V406.09H126.488ZM122.182 409.234C122.182 411.326 122.934 413.418 124.697 414.43L123.795 415.551C122.653 414.867 121.895 413.691 121.471 412.283C121.033 413.808 120.247 415.106 119.078 415.838L118.148 414.703C119.939 413.623 120.719 411.381 120.719 409.234V408.414H118.572V407.184H124.178V408.414H122.182V409.234ZM141.746 413.049V414.252H136.824V418.217H135.32V414.252H130.453V413.049H141.746ZM133.324 406.35V407.867H138.848V406.35H140.379V411.764H131.82V406.35H133.324ZM133.324 410.533H138.848V409.07H133.324V410.533ZM146.627 413.227C146.627 410.656 147.393 408.51 148.678 406.678H150.318C149.375 408.031 148.432 410.779 148.432 413.227C148.432 415.674 149.375 418.422 150.318 419.789H148.678C147.393 417.943 146.627 415.811 146.627 413.227ZM155.555 407.102V417H153.764V408.838H153.709L151.398 410.314V408.688L153.846 407.102H155.555ZM168.83 411.777V412.994H157.551V411.777H162.445V410.602H158.932V406.418H167.463V407.607H160.449V409.398H167.531V410.602H163.936V411.777H168.83ZM163.17 413.705C165.836 413.705 167.436 414.512 167.449 415.961C167.436 417.396 165.836 418.217 163.17 418.217C160.477 418.217 158.863 417.396 158.863 415.961C158.863 414.512 160.477 413.705 163.17 413.705ZM163.17 414.867C161.365 414.867 160.395 415.25 160.408 415.961C160.395 416.672 161.365 417.041 163.17 417.041C164.934 417.041 165.918 416.672 165.932 415.961C165.918 415.25 164.934 414.867 163.17 414.867ZM173.656 406.719C175.611 406.705 177.047 407.949 177.061 409.699C177.047 411.463 175.611 412.693 173.656 412.693C171.715 412.693 170.266 411.463 170.266 409.699C170.266 407.949 171.715 406.705 173.656 406.719ZM173.656 408.031C172.576 408.031 171.77 408.674 171.77 409.699C171.77 410.738 172.576 411.367 173.656 411.367C174.75 411.367 175.57 410.738 175.57 409.699C175.57 408.674 174.75 408.031 173.656 408.031ZM179.945 405.857V418.23H178.428V405.857H179.945ZM169.705 414.402C171.934 414.402 175.023 414.375 177.689 413.992L177.812 415.1C175.037 415.633 172.07 415.646 169.896 415.646L169.705 414.402ZM195.422 405.871V414.936H193.904V410.779H191.525V409.521H193.904V405.871H195.422ZM191.607 406.801C191.607 410.055 189.447 412.502 185.879 413.637L185.236 412.42C187.902 411.572 189.659 410 189.953 408.045H185.879V406.801H191.607ZM195.736 416.74V417.971H187.369V414.02H188.914V416.74H195.736ZM208.438 410.875V412.078H203.543V413.008H207.029V416.043H200.002V416.945H207.371V418.107H198.512V414.949H205.539V414.156H198.498V413.008H202.025V412.078H197.172V410.875H208.438ZM206.988 406.24V410.096H198.594V406.24H206.988ZM200.084 407.43V408.906H205.471V407.43H200.084ZM213.277 406.719C215.232 406.705 216.668 407.949 216.682 409.699C216.668 411.463 215.232 412.693 213.277 412.693C211.336 412.693 209.887 411.463 209.887 409.699C209.887 407.949 211.336 406.705 213.277 406.719ZM213.277 408.031C212.197 408.031 211.391 408.674 211.391 409.699C211.391 410.738 212.197 411.367 213.277 411.367C214.371 411.367 215.191 410.738 215.191 409.699C215.191 408.674 214.371 408.031 213.277 408.031ZM219.566 405.857V418.23H218.049V405.857H219.566ZM209.326 414.402C211.555 414.402 214.645 414.375 217.311 413.992L217.434 415.1C214.658 415.633 211.691 415.646 209.518 415.646L209.326 414.402ZM235.986 415.564V416.795H224.693V415.564H227.619V413.021H225.664V411.791H227.4V408.127H225.623V406.91H235.002V408.127H233.197V411.791H234.961V413.021H233.006V415.564H235.986ZM228.918 411.791H231.693V408.127H228.918V411.791ZM229.137 415.564H231.488V413.021H229.137V415.564ZM241.469 408.824C241.455 411.094 242.645 413.363 244.654 414.225L243.752 415.441C242.33 414.785 241.284 413.473 240.717 411.859C240.149 413.603 239.09 415.024 237.586 415.729L236.656 414.457C238.721 413.568 239.924 411.203 239.924 408.824V406.855H241.469V408.824ZM247.074 405.857V418.23H245.543V405.857H247.074ZM252.57 413.227C252.57 415.811 251.805 417.943 250.52 419.789H248.879C249.822 418.422 250.766 415.674 250.766 413.227C250.766 410.779 249.822 408.031 248.879 406.678H250.52C251.805 408.51 252.57 410.656 252.57 413.227Z" fill="black"/>
</g>
<defs>
<filter id="filter0_d_58_163" x="54" y="48" width="511" height="534" filterUnits="userSpaceOnUse" color-interpolation-filters="sRGB">
<feFlood flood-opacity="0" result="BackgroundImageFix"/>
<feColorMatrix in="SourceAlpha" type="matrix" values="0 0 0 0 0 0 0 0 0 0 0 0 0 0 0 0 0 0 127 0" result="hardAlpha"/>
<feOffset dy="4"/>
<feGaussianBlur stdDeviation="7"/>
<feComposite in2="hardAlpha" operator="out"/>
<feColorMatrix type="matrix" values="0 0 0 0 0 0 0 0 0 0 0 0 0 0 0 0 0 0 0.04 0"/>
<feBlend mode="normal" in2="BackgroundImageFix" result="effect1_dropShadow_58_163"/>
<feBlend mode="normal" in="SourceGraphic" in2="effect1_dropShadow_58_163" result="shape"/>
</filter>
<clipPath id="clip0_58_163">
<rect width="620" height="500" rx="15" fill="white"/>
</clipPath>
</defs>
</svg>
