<svg width="620" height="500" viewBox="0 0 620 500" fill="none" xmlns="http://www.w3.org/2000/svg">
<g clip-path="url(#clip0_54_129)">
<rect width="620" height="500" rx="15" fill="white"/>
<rect width="620" height="500" rx="15" fill="#EEF8FD"/>
<g filter="url(#filter0_d_54_129)">
<path d="M68 68C68 62.4772 72.4772 58 78 58H541C546.523 58 551 62.4772 551 68V433C551 438.523 546.523 443 541 443H78C72.4771 443 68 438.523 68 433V68Z" fill="white"/>
<path d="M68.5 68C68.5 62.7533 72.7533 58.5 78 58.5H541C546.247 58.5 550.5 62.7533 550.5 68V433C550.5 438.247 546.247 442.5 541 442.5H78C72.7533 442.5 68.5 438.247 68.5 433V68Z" stroke="black" stroke-opacity="0.2"/>
</g>
<path d="M121.865 165.473V167.223H125.406V165.473H126.473V170.764H120.812V165.473H121.865ZM121.865 169.889H125.406V168.057H121.865V169.889ZM129.795 164.953V167.592H131.627V168.494H129.795V171.242H128.729V164.953H129.795ZM129.795 171.816V174.756H123.123V176.096H130.246V176.971H122.07V173.936H128.729V172.678H122.043V171.816H129.795ZM134.908 171.912V173.525H140.992V171.912H142.059V176.943H133.842V171.912H134.908ZM134.908 176.068H140.992V174.373H134.908V176.068ZM142.059 165.514V166.402C142.059 167.332 142.059 168.412 141.73 169.93H143.521V170.818H132.393V169.93H140.678C140.992 168.419 140.992 167.332 140.992 166.402H133.801V165.514H142.059ZM147.938 165.404C149.756 165.418 151.082 166.512 151.082 168.098C151.082 169.684 149.756 170.777 147.938 170.777C146.092 170.777 144.779 169.684 144.779 168.098C144.779 166.512 146.092 165.418 147.938 165.404ZM147.938 166.307C146.721 166.307 145.818 167.045 145.832 168.098C145.818 169.164 146.721 169.902 147.938 169.902C149.141 169.902 150.043 169.164 150.043 168.098C150.043 167.045 149.141 166.307 147.938 166.307ZM154.527 164.953V171.201H153.461V164.953H154.527ZM154.527 171.789V174.715H147.705V176.082H154.965V176.943H146.652V173.908H153.461V172.65H146.625V171.789H154.527ZM160.707 168.686C160.693 170.641 162.102 172.787 163.865 173.621L163.25 174.469C161.883 173.806 160.728 172.356 160.188 170.709C159.627 172.5 158.403 174.072 157.043 174.77L156.387 173.922C158.137 173.074 159.641 170.764 159.654 168.686V167.1H156.824V166.211H163.441V167.1H160.707V168.686ZM165.998 164.953V169.875H168.035V170.791H165.998V177.107H164.932V164.953H165.998Z" fill="#212121"/>
<path d="M130.684 224.953V237.107H129.658V230.736H127.867V236.479H126.883V225.227H127.867V229.848H129.658V224.953H130.684ZM125.297 226.443V227.332H121.811V233.184C123.485 233.177 124.647 233.115 125.994 232.842L126.09 233.744C124.627 234.045 123.383 234.1 121.523 234.1H120.744V226.443H125.297ZM143.521 234.729V235.617H132.393V234.729H135.496V231.83H133.404V230.941H135.305V226.977H133.377V226.088H142.455V226.977H140.527V230.941H142.428V231.83H140.336V234.729H143.521ZM136.371 230.941H139.475V226.977H136.371V230.941ZM136.576 234.729H139.27V231.83H136.576V234.729ZM154.514 224.953V237.135H153.434V224.953H154.514ZM148.047 225.896C149.852 225.91 151.15 227.551 151.15 230.135C151.15 232.719 149.852 234.359 148.047 234.359C146.229 234.359 144.943 232.719 144.943 230.135C144.943 227.551 146.229 225.91 148.047 225.896ZM148.047 226.854C146.83 226.867 145.982 228.152 145.982 230.135C145.982 232.117 146.83 233.402 148.047 233.402C149.264 233.402 150.111 232.117 150.111 230.135C150.111 228.152 149.264 226.867 148.047 226.854ZM160.666 228.221C160.666 230.367 162.088 232.568 163.811 233.416L163.154 234.277C161.814 233.573 160.693 232.138 160.16 230.449C159.613 232.247 158.465 233.778 157.098 234.51L156.414 233.648C158.191 232.773 159.6 230.436 159.613 228.221V226.006H160.666V228.221ZM165.998 224.953V229.889H168.035V230.818H165.998V237.107H164.932V224.953H165.998Z" fill="#212121"/>
<path d="M124.367 288.221C124.367 290.367 125.789 292.568 127.512 293.416L126.855 294.277C125.516 293.573 124.395 292.138 123.861 290.449C123.314 292.247 122.166 293.778 120.799 294.51L120.115 293.648C121.893 292.773 123.301 290.436 123.314 288.221V286.006H124.367V288.221ZM129.699 284.953V289.889H131.736V290.818H129.699V297.107H128.633V284.953H129.699ZM142.77 284.953V297.107H141.717V290.818H139.967V296.479H138.955V285.227H139.967V289.902H141.717V284.953H142.77ZM134.074 286.443V293.006C135.284 292.992 136.569 292.91 138.053 292.609L138.189 293.566C136.494 293.867 135.1 293.963 133.76 293.963H133.008V286.443H134.074ZM154.514 284.953V297.135H153.434V284.953H154.514ZM148.047 285.896C149.852 285.91 151.15 287.551 151.15 290.135C151.15 292.719 149.852 294.359 148.047 294.359C146.229 294.359 144.943 292.719 144.943 290.135C144.943 287.551 146.229 285.91 148.047 285.896ZM148.047 286.854C146.83 286.867 145.982 288.152 145.982 290.135C145.982 292.117 146.83 293.402 148.047 293.402C149.264 293.402 150.111 292.117 150.111 290.135C150.111 288.152 149.264 286.867 148.047 286.854ZM160.666 288.221C160.666 290.367 162.088 292.568 163.811 293.416L163.154 294.277C161.814 293.573 160.693 292.138 160.16 290.449C159.613 292.247 158.465 293.778 157.098 294.51L156.414 293.648C158.191 292.773 159.6 290.436 159.613 288.221V286.006H160.666V288.221ZM165.998 284.953V289.889H168.035V290.818H165.998V297.107H164.932V284.953H165.998Z" fill="#212121"/>
<path d="M124.367 348.221C124.367 350.367 125.789 352.568 127.512 353.416L126.855 354.277C125.516 353.573 124.395 352.138 123.861 350.449C123.314 352.247 122.166 353.778 120.799 354.51L120.115 353.648C121.893 352.773 123.301 350.436 123.314 348.221V346.006H124.367V348.221ZM129.699 344.953V349.889H131.736V350.818H129.699V357.107H128.633V344.953H129.699ZM142.77 344.953V357.107H141.717V350.818H139.967V356.479H138.955V345.227H139.967V349.902H141.717V344.953H142.77ZM134.074 346.443V353.006C135.284 352.992 136.569 352.91 138.053 352.609L138.189 353.566C136.494 353.867 135.1 353.963 133.76 353.963H133.008V346.443H134.074ZM154.514 344.953V357.135H153.434V344.953H154.514ZM148.047 345.896C149.852 345.91 151.15 347.551 151.15 350.135C151.15 352.719 149.852 354.359 148.047 354.359C146.229 354.359 144.943 352.719 144.943 350.135C144.943 347.551 146.229 345.91 148.047 345.896ZM148.047 346.854C146.83 346.867 145.982 348.152 145.982 350.135C145.982 352.117 146.83 353.402 148.047 353.402C149.264 353.402 150.111 352.117 150.111 350.135C150.111 348.152 149.264 346.867 148.047 346.854ZM160.666 348.221C160.666 350.367 162.088 352.568 163.811 353.416L163.154 354.277C161.814 353.573 160.693 352.138 160.16 350.449C159.613 352.247 158.465 353.778 157.098 354.51L156.414 353.648C158.191 352.773 159.6 350.436 159.613 348.221V346.006H160.666V348.221ZM165.998 344.953V349.889H168.035V350.818H165.998V357.107H164.932V344.953H165.998Z" fill="#212121"/>
<path d="M141.895 403.953V406.934H143.727V407.822H141.895V410.857H140.828V403.953H141.895ZM138.572 404.746C138.559 407.809 136.412 409.996 132.816 410.98L132.379 410.119C135.373 409.312 137.198 407.692 137.424 405.635H132.926V404.746H138.572ZM141.895 411.418V415.943H134.197V411.418H141.895ZM135.264 412.307V415.068H140.828V412.307H135.264ZM148.566 407.221C148.566 409.367 149.988 411.568 151.711 412.416L151.055 413.277C149.715 412.573 148.594 411.138 148.061 409.449C147.514 411.247 146.365 412.778 144.998 413.51L144.314 412.648C146.092 411.773 147.5 409.436 147.514 407.221V405.006H148.566V407.221ZM153.898 403.953V408.889H155.936V409.818H153.898V416.107H152.832V403.953H153.898Z" fill="#212121"/>
<path d="M225.95 231.365V233.594C227.119 233.546 228.315 233.443 229.437 233.279L229.519 234.072C226.743 234.578 223.749 234.592 221.562 234.592L221.411 233.703C222.43 233.696 223.633 233.689 224.897 233.648V231.365H225.95ZM228.808 226.553V227.441H225.95C225.978 229.014 227.283 230.292 229.081 230.805L228.575 231.652C227.112 231.215 225.971 230.278 225.431 229.041C224.897 230.347 223.763 231.317 222.3 231.762L221.78 230.941C223.578 230.415 224.843 229.082 224.87 227.441H222.081V226.553H224.897V225.049H225.95V226.553H228.808ZM231.31 224.953V237.135H230.243V224.953H231.31ZM244.53 230.736V231.639H233.442V230.736H244.53ZM243.231 228.699V229.574H234.851V225.445H243.149V226.348H235.903V228.699H243.231ZM238.979 232.705C241.591 232.705 243.149 233.498 243.163 234.893C243.149 236.301 241.591 237.08 238.979 237.08C236.354 237.08 234.782 236.301 234.782 234.893C234.782 233.498 236.354 232.705 238.979 232.705ZM238.979 233.539C237.024 233.553 235.862 234.045 235.876 234.893C235.862 235.754 237.024 236.232 238.979 236.232C240.907 236.232 242.083 235.754 242.083 234.893C242.083 234.045 240.907 233.553 238.979 233.539ZM255.591 224.953V237.107H254.511V224.953H255.591ZM251.995 226.279C251.981 229.779 250.354 232.869 246.28 234.824L245.692 233.949C248.98 232.391 250.655 230.06 250.901 227.154H246.253V226.279H251.995Z" fill="#212121"/>
<path d="M227.755 285.746C227.755 288.822 225.499 290.996 221.917 291.953L221.479 291.105C224.487 290.312 226.381 288.706 226.62 286.621H222.122V285.746H227.755ZM231.378 284.967V291.83H230.312V284.967H231.378ZM231.378 292.418V296.943H223.476V292.418H231.378ZM224.528 293.279V296.068H230.325V293.279H224.528ZM244.53 290.736V291.639H233.442V290.736H244.53ZM243.231 288.699V289.574H234.851V285.445H243.149V286.348H235.903V288.699H243.231ZM238.979 292.705C241.591 292.705 243.149 293.498 243.163 294.893C243.149 296.301 241.591 297.08 238.979 297.08C236.354 297.08 234.782 296.301 234.782 294.893C234.782 293.498 236.354 292.705 238.979 292.705ZM238.979 293.539C237.024 293.553 235.862 294.045 235.876 294.893C235.862 295.754 237.024 296.232 238.979 296.232C240.907 296.232 242.083 295.754 242.083 294.893C242.083 294.045 240.907 293.553 238.979 293.539ZM255.591 284.953V297.107H254.511V284.953H255.591ZM251.995 286.279C251.981 289.779 250.354 292.869 246.28 294.824L245.692 293.949C248.98 292.391 250.655 290.06 250.901 287.154H246.253V286.279H251.995Z" fill="#212121"/>
<path d="M230.845 344.953V348.125H232.677V349.014H230.845V352.254H229.778V344.953H230.845ZM227.536 345.855C227.536 348.945 225.349 351.229 221.808 352.268L221.356 351.393C224.289 350.545 226.162 348.856 226.388 346.744H221.89V345.855H227.536ZM227.003 352.391C229.45 352.391 230.981 353.279 230.981 354.729C230.981 356.205 229.45 357.08 227.003 357.08C224.583 357.08 223.011 356.205 223.024 354.729C223.011 353.279 224.583 352.391 227.003 352.391ZM227.003 353.252C225.226 353.238 224.077 353.812 224.091 354.729C224.077 355.645 225.226 356.219 227.003 356.219C228.794 356.219 229.942 355.645 229.942 354.729C229.942 353.812 228.794 353.238 227.003 353.252ZM244.53 350.736V351.639H233.442V350.736H244.53ZM243.231 348.699V349.574H234.851V345.445H243.149V346.348H235.903V348.699H243.231ZM238.979 352.705C241.591 352.705 243.149 353.498 243.163 354.893C243.149 356.301 241.591 357.08 238.979 357.08C236.354 357.08 234.782 356.301 234.782 354.893C234.782 353.498 236.354 352.705 238.979 352.705ZM238.979 353.539C237.024 353.553 235.862 354.045 235.876 354.893C235.862 355.754 237.024 356.232 238.979 356.232C240.907 356.232 242.083 355.754 242.083 354.893C242.083 354.045 240.907 353.553 238.979 353.539ZM255.591 344.953V357.107H254.511V344.953H255.591ZM251.995 346.279C251.981 349.779 250.354 352.869 246.28 354.824L245.692 353.949C248.98 352.391 250.655 350.06 250.901 347.154H246.253V346.279H251.995Z" fill="#212121"/>
<path d="M230.845 403.953V407.125H232.677V408.014H230.845V411.309H229.778V403.953H230.845ZM230.845 411.951V416.107H229.778V412.826H222.888V411.951H230.845ZM222.915 404.719V406.633H226.456V404.719H227.522V410.461H221.862V404.719H222.915ZM222.915 409.586H226.456V407.494H222.915V409.586ZM244.53 409.736V410.639H233.442V409.736H244.53ZM243.231 407.699V408.574H234.851V404.445H243.149V405.348H235.903V407.699H243.231ZM238.979 411.705C241.591 411.705 243.149 412.498 243.163 413.893C243.149 415.301 241.591 416.08 238.979 416.08C236.354 416.08 234.782 415.301 234.782 413.893C234.782 412.498 236.354 411.705 238.979 411.705ZM238.979 412.539C237.024 412.553 235.862 413.045 235.876 413.893C235.862 414.754 237.024 415.232 238.979 415.232C240.907 415.232 242.083 414.754 242.083 413.893C242.083 413.045 240.907 412.553 238.979 412.539ZM255.591 403.953V416.107H254.511V403.953H255.591ZM251.995 405.279C251.981 408.779 250.354 411.869 246.28 413.824L245.692 412.949C248.98 411.391 250.655 409.06 250.901 406.154H246.253V405.279H251.995Z" fill="#212121"/>
<path d="M231.076 166.867C231.062 168.604 232.293 170.135 234.084 170.736L233.482 171.57C232.143 171.064 231.09 170.08 230.57 168.795C230.044 170.251 228.93 171.386 227.467 171.939L226.879 171.064C228.752 170.408 229.996 168.795 230.01 166.908V165.65H231.076V166.867ZM236.969 164.953V172.158H235.889V168.453H233.182V167.564H235.889V164.953H236.969ZM232.936 172.514C235.465 172.514 237.01 173.348 237.01 174.811C237.01 176.26 235.465 177.08 232.936 177.08C230.406 177.08 228.861 176.26 228.861 174.811C228.861 173.348 230.406 172.514 232.936 172.514ZM232.936 173.361C231.076 173.361 229.914 173.908 229.928 174.811C229.914 175.686 231.076 176.219 232.936 176.219C234.795 176.219 235.943 175.686 235.943 174.811C235.943 173.908 234.795 173.361 232.936 173.361ZM249.068 164.953V172.158H247.988V170.244H245.145V171.283H239.566V165.883H245.145V166.936H247.988V164.953H249.068ZM240.633 166.758V170.408H244.092V166.758H240.633ZM245.035 172.514C247.564 172.514 249.109 173.348 249.109 174.811C249.109 176.26 247.564 177.08 245.035 177.08C242.506 177.08 240.961 176.26 240.961 174.811C240.961 173.348 242.506 172.514 245.035 172.514ZM245.035 173.348C243.176 173.361 242.014 173.895 242.027 174.811C242.014 175.686 243.176 176.232 245.035 176.232C246.895 176.232 248.043 175.686 248.043 174.811C248.043 173.895 246.895 173.361 245.035 173.348ZM245.145 169.342H247.988V167.824H245.145V169.342Z" fill="#212121"/>
<path d="M303.204 236L303.19 235.098L306.567 231.543C307.743 230.299 308.304 229.629 308.304 228.713C308.304 227.701 307.442 227.031 306.335 227.031C305.159 227.031 304.407 227.783 304.407 228.891H303.245C303.231 227.141 304.585 225.965 306.376 225.965C308.167 225.965 309.452 227.168 309.452 228.713C309.452 229.82 308.933 230.682 307.183 232.486L304.913 234.824V234.906H309.63V236H303.204ZM314.661 236.137C312.46 236.137 311.202 234.291 311.202 231.051C311.202 227.838 312.487 225.965 314.661 225.965C316.835 225.965 318.12 227.838 318.12 231.051C318.12 234.291 316.849 236.137 314.661 236.137ZM314.661 235.043C316.083 235.043 316.917 233.607 316.917 231.051C316.917 228.494 316.083 227.031 314.661 227.031C313.239 227.031 312.392 228.494 312.392 231.051C312.392 233.607 313.226 235.043 314.661 235.043ZM323.261 226.102V236H322.017V227.387H321.962L319.556 228.986V227.742L322.017 226.102H323.261ZM329.194 225.965C330.903 225.979 332.79 227.004 332.79 230.654C332.79 234.168 331.354 236.137 329.03 236.137C327.294 236.137 326.063 235.07 325.817 233.498H327.034C327.253 234.387 327.923 235.043 329.03 235.043C330.644 235.043 331.628 233.648 331.642 231.242H331.505C330.931 232.062 330.028 232.555 328.976 232.555C327.198 232.555 325.735 231.201 325.735 229.287C325.735 227.441 327.089 225.951 329.194 225.965ZM329.194 227.045C327.896 227.045 326.925 228.057 326.938 229.273C326.938 230.504 327.854 231.475 329.153 231.475C330.438 231.475 331.45 230.408 331.45 229.246C331.45 228.111 330.507 227.045 329.194 227.045ZM338.751 230.518V231.598H334.417V230.518H338.751ZM343.782 236.137C341.581 236.137 340.323 234.291 340.323 231.051C340.323 227.838 341.608 225.965 343.782 225.965C345.956 225.965 347.241 227.838 347.241 231.051C347.241 234.291 345.97 236.137 343.782 236.137ZM343.782 235.043C345.204 235.043 346.038 233.607 346.038 231.051C346.038 228.494 345.204 227.031 343.782 227.031C342.36 227.031 341.513 228.494 341.513 231.051C341.513 233.607 342.347 235.043 343.782 235.043ZM352.3 236.137C350.331 236.137 348.923 235.084 348.854 233.512H350.099C350.167 234.455 351.11 235.043 352.286 235.043C353.585 235.043 354.542 234.332 354.542 233.307C354.542 232.227 353.681 231.461 352.136 231.461H351.329V230.381H352.136C353.339 230.381 354.173 229.711 354.173 228.686C354.173 227.701 353.448 227.031 352.327 227.031C351.274 227.031 350.304 227.619 350.249 228.59H349.06C349.128 227.018 350.577 225.965 352.341 225.965C354.228 225.965 355.376 227.195 355.362 228.617C355.376 229.738 354.72 230.572 353.681 230.859V230.928C354.966 231.133 355.759 232.049 355.745 233.307C355.759 234.934 354.269 236.137 352.3 236.137ZM361.788 230.518V231.598H357.454V230.518H361.788ZM366.819 236.137C364.618 236.137 363.36 234.291 363.36 231.051C363.36 227.838 364.646 225.965 366.819 225.965C368.993 225.965 370.278 227.838 370.278 231.051C370.278 234.291 369.007 236.137 366.819 236.137ZM366.819 235.043C368.241 235.043 369.075 233.607 369.075 231.051C369.075 228.494 368.241 227.031 366.819 227.031C365.397 227.031 364.55 228.494 364.55 231.051C364.55 233.607 365.384 235.043 366.819 235.043ZM371.673 233.977V232.965L376.13 226.102H377.647V232.896H379.028V233.977H377.647V236H376.472V233.977H371.673ZM372.999 232.896H376.472V227.66H376.349L372.999 232.814V232.896Z" fill="#212121"/>
<path d="M303.204 296L303.19 295.098L306.567 291.543C307.743 290.299 308.304 289.629 308.304 288.713C308.304 287.701 307.442 287.031 306.335 287.031C305.159 287.031 304.407 287.783 304.407 288.891H303.245C303.231 287.141 304.585 285.965 306.376 285.965C308.167 285.965 309.452 287.168 309.452 288.713C309.452 289.82 308.933 290.682 307.183 292.486L304.913 294.824V294.906H309.63V296H303.204ZM314.661 296.137C312.46 296.137 311.202 294.291 311.202 291.051C311.202 287.838 312.487 285.965 314.661 285.965C316.835 285.965 318.12 287.838 318.12 291.051C318.12 294.291 316.849 296.137 314.661 296.137ZM314.661 295.043C316.083 295.043 316.917 293.607 316.917 291.051C316.917 288.494 316.083 287.031 314.661 287.031C313.239 287.031 312.392 288.494 312.392 291.051C312.392 293.607 313.226 295.043 314.661 295.043ZM323.261 286.102V296H322.017V287.387H321.962L319.556 288.986V287.742L322.017 286.102H323.261ZM329.194 285.965C330.903 285.979 332.79 287.004 332.79 290.654C332.79 294.168 331.354 296.137 329.03 296.137C327.294 296.137 326.063 295.07 325.817 293.498H327.034C327.253 294.387 327.923 295.043 329.03 295.043C330.644 295.043 331.628 293.648 331.642 291.242H331.505C330.931 292.062 330.028 292.555 328.976 292.555C327.198 292.555 325.735 291.201 325.735 289.287C325.735 287.441 327.089 285.951 329.194 285.965ZM329.194 287.045C327.896 287.045 326.925 288.057 326.938 289.273C326.938 290.504 327.854 291.475 329.153 291.475C330.438 291.475 331.45 290.408 331.45 289.246C331.45 288.111 330.507 287.045 329.194 287.045ZM338.751 290.518V291.598H334.417V290.518H338.751ZM343.782 296.137C341.581 296.137 340.323 294.291 340.323 291.051C340.323 287.838 341.608 285.965 343.782 285.965C345.956 285.965 347.241 287.838 347.241 291.051C347.241 294.291 345.97 296.137 343.782 296.137ZM343.782 295.043C345.204 295.043 346.038 293.607 346.038 291.051C346.038 288.494 345.204 287.031 343.782 287.031C342.36 287.031 341.513 288.494 341.513 291.051C341.513 293.607 342.347 295.043 343.782 295.043ZM352.3 296.137C350.331 296.137 348.923 295.084 348.854 293.512H350.099C350.167 294.455 351.11 295.043 352.286 295.043C353.585 295.043 354.542 294.332 354.542 293.307C354.542 292.227 353.681 291.461 352.136 291.461H351.329V290.381H352.136C353.339 290.381 354.173 289.711 354.173 288.686C354.173 287.701 353.448 287.031 352.327 287.031C351.274 287.031 350.304 287.619 350.249 288.59H349.06C349.128 287.018 350.577 285.965 352.341 285.965C354.228 285.965 355.376 287.195 355.362 288.617C355.376 289.738 354.72 290.572 353.681 290.859V290.928C354.966 291.133 355.759 292.049 355.745 293.307C355.759 294.934 354.269 296.137 352.3 296.137ZM361.788 290.518V291.598H357.454V290.518H361.788ZM366.819 296.137C364.618 296.137 363.36 294.291 363.36 291.051C363.36 287.838 364.646 285.965 366.819 285.965C368.993 285.965 370.278 287.838 370.278 291.051C370.278 294.291 369.007 296.137 366.819 296.137ZM366.819 295.043C368.241 295.043 369.075 293.607 369.075 291.051C369.075 288.494 368.241 287.031 366.819 287.031C365.397 287.031 364.55 288.494 364.55 291.051C364.55 293.607 365.384 295.043 366.819 295.043ZM371.673 293.977V292.965L376.13 286.102H377.647V292.896H379.028V293.977H377.647V296H376.472V293.977H371.673ZM372.999 292.896H376.472V287.66H376.349L372.999 292.814V292.896Z" fill="#212121"/>
<path d="M302.432 356L302.418 355.098L305.795 351.543C306.971 350.299 307.531 349.629 307.531 348.713C307.531 347.701 306.67 347.031 305.562 347.031C304.387 347.031 303.635 347.783 303.635 348.891H302.473C302.459 347.141 303.812 345.965 305.604 345.965C307.395 345.965 308.68 347.168 308.68 348.713C308.68 349.82 308.16 350.682 306.41 352.486L304.141 354.824V354.906H308.857V356H302.432ZM313.889 356.137C311.688 356.137 310.43 354.291 310.43 351.051C310.43 347.838 311.715 345.965 313.889 345.965C316.062 345.965 317.348 347.838 317.348 351.051C317.348 354.291 316.076 356.137 313.889 356.137ZM313.889 355.043C315.311 355.043 316.145 353.607 316.145 351.051C316.145 348.494 315.311 347.031 313.889 347.031C312.467 347.031 311.619 348.494 311.619 351.051C311.619 353.607 312.453 355.043 313.889 355.043ZM318.988 356L318.975 355.098L322.352 351.543C323.527 350.299 324.088 349.629 324.088 348.713C324.088 347.701 323.227 347.031 322.119 347.031C320.943 347.031 320.191 347.783 320.191 348.891H319.029C319.016 347.141 320.369 345.965 322.16 345.965C323.951 345.965 325.236 347.168 325.236 348.713C325.236 349.82 324.717 350.682 322.967 352.486L320.697 354.824V354.906H325.414V356H318.988ZM330.445 356.137C328.244 356.137 326.986 354.291 326.986 351.051C326.986 347.838 328.271 345.965 330.445 345.965C332.619 345.965 333.904 347.838 333.904 351.051C333.904 354.291 332.633 356.137 330.445 356.137ZM330.445 355.043C331.867 355.043 332.701 353.607 332.701 351.051C332.701 348.494 331.867 347.031 330.445 347.031C329.023 347.031 328.176 348.494 328.176 351.051C328.176 353.607 329.01 355.043 330.445 355.043ZM339.811 350.518V351.598H335.477V350.518H339.811ZM344.842 356.137C342.641 356.137 341.383 354.291 341.383 351.051C341.383 347.838 342.668 345.965 344.842 345.965C347.016 345.965 348.301 347.838 348.301 351.051C348.301 354.291 347.029 356.137 344.842 356.137ZM344.842 355.043C346.264 355.043 347.098 353.607 347.098 351.051C347.098 348.494 346.264 347.031 344.842 347.031C343.42 347.031 342.572 348.494 342.572 351.051C342.572 353.607 343.406 355.043 344.842 355.043ZM349.695 353.977V352.965L354.152 346.102H355.67V352.896H357.051V353.977H355.67V356H354.494V353.977H349.695ZM351.021 352.896H354.494V347.66H354.371L351.021 352.814V352.896ZM362.943 350.518V351.598H358.609V350.518H362.943ZM367.975 356.137C365.773 356.137 364.516 354.291 364.516 351.051C364.516 347.838 365.801 345.965 367.975 345.965C370.148 345.965 371.434 347.838 371.434 351.051C371.434 354.291 370.162 356.137 367.975 356.137ZM367.975 355.043C369.396 355.043 370.23 353.607 370.23 351.051C370.23 348.494 369.396 347.031 367.975 347.031C366.553 347.031 365.705 348.494 365.705 351.051C365.705 353.607 366.539 355.043 367.975 355.043ZM376.301 356.137C374.51 356.137 373.156 355.029 373.088 353.512H374.277C374.373 354.4 375.234 355.057 376.301 355.057C377.586 355.057 378.516 354.113 378.516 352.869C378.516 351.584 377.545 350.641 376.219 350.627C375.385 350.613 374.742 350.873 374.373 351.516H373.184L373.881 346.102H379.24V347.195H374.906L374.537 350.094H374.633C375.07 349.752 375.74 349.52 376.438 349.52C378.324 349.52 379.719 350.914 379.719 352.842C379.719 354.756 378.27 356.137 376.301 356.137Z" fill="#212121"/>
<path d="M302.432 415L302.418 414.098L305.795 410.543C306.971 409.299 307.531 408.629 307.531 407.713C307.531 406.701 306.67 406.031 305.562 406.031C304.387 406.031 303.635 406.783 303.635 407.891H302.473C302.459 406.141 303.812 404.965 305.604 404.965C307.395 404.965 308.68 406.168 308.68 407.713C308.68 408.82 308.16 409.682 306.41 411.486L304.141 413.824V413.906H308.857V415H302.432ZM313.889 415.137C311.688 415.137 310.43 413.291 310.43 410.051C310.43 406.838 311.715 404.965 313.889 404.965C316.062 404.965 317.348 406.838 317.348 410.051C317.348 413.291 316.076 415.137 313.889 415.137ZM313.889 414.043C315.311 414.043 316.145 412.607 316.145 410.051C316.145 407.494 315.311 406.031 313.889 406.031C312.467 406.031 311.619 407.494 311.619 410.051C311.619 412.607 312.453 414.043 313.889 414.043ZM318.988 415L318.975 414.098L322.352 410.543C323.527 409.299 324.088 408.629 324.088 407.713C324.088 406.701 323.227 406.031 322.119 406.031C320.943 406.031 320.191 406.783 320.191 407.891H319.029C319.016 406.141 320.369 404.965 322.16 404.965C323.951 404.965 325.236 406.168 325.236 407.713C325.236 408.82 324.717 409.682 322.967 411.486L320.697 413.824V413.906H325.414V415H318.988ZM330.445 415.137C328.244 415.137 326.986 413.291 326.986 410.051C326.986 406.838 328.271 404.965 330.445 404.965C332.619 404.965 333.904 406.838 333.904 410.051C333.904 413.291 332.633 415.137 330.445 415.137ZM330.445 414.043C331.867 414.043 332.701 412.607 332.701 410.051C332.701 407.494 331.867 406.031 330.445 406.031C329.023 406.031 328.176 407.494 328.176 410.051C328.176 412.607 329.01 414.043 330.445 414.043ZM339.811 409.518V410.598H335.477V409.518H339.811ZM344.842 415.137C342.641 415.137 341.383 413.291 341.383 410.051C341.383 406.838 342.668 404.965 344.842 404.965C347.016 404.965 348.301 406.838 348.301 410.051C348.301 413.291 347.029 415.137 344.842 415.137ZM344.842 414.043C346.264 414.043 347.098 412.607 347.098 410.051C347.098 407.494 346.264 406.031 344.842 406.031C343.42 406.031 342.572 407.494 342.572 410.051C342.572 412.607 343.406 414.043 344.842 414.043ZM349.695 412.977V411.965L354.152 405.102H355.67V411.896H357.051V412.977H355.67V415H354.494V412.977H349.695ZM351.021 411.896H354.494V406.66H354.371L351.021 411.814V411.896ZM362.943 409.518V410.598H358.609V409.518H362.943ZM367.975 415.137C365.773 415.137 364.516 413.291 364.516 410.051C364.516 406.838 365.801 404.965 367.975 404.965C370.148 404.965 371.434 406.838 371.434 410.051C371.434 413.291 370.162 415.137 367.975 415.137ZM367.975 414.043C369.396 414.043 370.23 412.607 370.23 410.051C370.23 407.494 369.396 406.031 367.975 406.031C366.553 406.031 365.705 407.494 365.705 410.051C365.705 412.607 366.539 414.043 367.975 414.043ZM376.301 415.137C374.51 415.137 373.156 414.029 373.088 412.512H374.277C374.373 413.4 375.234 414.057 376.301 414.057C377.586 414.057 378.516 413.113 378.516 411.869C378.516 410.584 377.545 409.641 376.219 409.627C375.385 409.613 374.742 409.873 374.373 410.516H373.184L373.881 405.102H379.24V406.195H374.906L374.537 409.094H374.633C375.07 408.752 375.74 408.52 376.438 408.52C378.324 408.52 379.719 409.914 379.719 411.842C379.719 413.756 378.27 415.137 376.301 415.137Z" fill="#212121"/>
<path d="M327.423 167.25C327.423 168.48 328.64 169.52 330.362 169.902L329.925 170.764C328.523 170.422 327.443 169.677 326.917 168.686C326.391 169.759 325.297 170.572 323.854 170.928L323.39 170.066C325.14 169.684 326.356 168.549 326.356 167.25V167.195H323.649V166.348H326.356V164.994H327.423V166.348H330.13V167.195H327.423V167.25ZM332.864 164.967V177.121H331.812V164.967H332.864ZM322.815 171.789C325.14 171.789 328.229 171.762 330.923 171.42L330.991 172.199C329.829 172.391 328.626 172.507 327.45 172.568V176.752H326.384V172.623C325.153 172.685 323.984 172.691 322.966 172.691L322.815 171.789ZM344.978 164.967V171.912H343.911V164.967H344.978ZM344.978 172.568V176.943H337.075V172.568H344.978ZM338.128 173.443V176.068H343.925V173.443H338.128ZM338.415 165.609C340.261 165.609 341.601 166.758 341.601 168.453C341.601 170.121 340.261 171.283 338.415 171.283C336.569 171.283 335.229 170.121 335.229 168.453C335.229 166.758 336.569 165.609 338.415 165.609ZM338.415 166.525C337.171 166.512 336.269 167.318 336.282 168.453C336.269 169.574 337.171 170.367 338.415 170.367C339.646 170.367 340.548 169.574 340.548 168.453C340.548 167.318 339.646 166.512 338.415 166.525ZM350.487 165.404C352.306 165.418 353.632 166.512 353.632 168.098C353.632 169.684 352.306 170.777 350.487 170.777C348.642 170.777 347.329 169.684 347.329 168.098C347.329 166.512 348.642 165.418 350.487 165.404ZM350.487 166.307C349.271 166.307 348.368 167.045 348.382 168.098C348.368 169.164 349.271 169.902 350.487 169.902C351.69 169.902 352.593 169.164 352.593 168.098C352.593 167.045 351.69 166.307 350.487 166.307ZM357.077 164.953V171.201H356.011V164.953H357.077ZM357.077 171.789V174.715H350.255V176.082H357.515V176.943H349.202V173.908H356.011V172.65H349.175V171.789H357.077Z" fill="#212121"/>
<path d="M421.606 236V234.715L425.106 231.338C426.104 230.34 426.624 229.752 426.624 228.918C426.624 228.002 425.899 227.414 424.929 227.414C423.903 227.414 423.247 228.057 423.261 229.055H421.565C421.552 227.182 422.96 225.965 424.942 225.965C426.966 225.965 428.333 227.168 428.333 228.836C428.333 229.957 427.786 230.859 425.845 232.691L424.081 234.441V234.51H428.483V236H421.606ZM433.692 236.137C431.313 236.137 429.892 234.291 429.892 231.051C429.892 227.824 431.313 225.965 433.692 225.965C436.058 225.965 437.493 227.824 437.493 231.051C437.493 234.291 436.071 236.137 433.692 236.137ZM433.692 234.646C434.937 234.646 435.702 233.43 435.702 231.051C435.702 228.686 434.923 227.441 433.692 227.441C432.462 227.441 431.683 228.686 431.683 231.051C431.683 233.43 432.448 234.646 433.692 234.646ZM438.983 236V234.715L442.483 231.338C443.481 230.34 444.001 229.752 444.001 228.918C444.001 228.002 443.276 227.414 442.306 227.414C441.28 227.414 440.624 228.057 440.638 229.055H438.942C438.929 227.182 440.337 225.965 442.319 225.965C444.343 225.965 445.71 227.168 445.71 228.836C445.71 229.957 445.163 230.859 443.222 232.691L441.458 234.441V234.51H445.86V236H438.983ZM447.419 236V234.715L450.919 231.338C451.917 230.34 452.437 229.752 452.437 228.918C452.437 228.002 451.712 227.414 450.741 227.414C449.716 227.414 449.06 228.057 449.073 229.055H447.378C447.364 227.182 448.772 225.965 450.755 225.965C452.778 225.965 454.146 227.168 454.146 228.836C454.146 229.957 453.599 230.859 451.657 232.691L449.894 234.441V234.51H454.296V236H447.419ZM460.366 230.34V231.775H455.909V230.34H460.366ZM465.712 236.137C463.333 236.137 461.911 234.291 461.911 231.051C461.911 227.824 463.333 225.965 465.712 225.965C468.077 225.965 469.513 227.824 469.513 231.051C469.513 234.291 468.091 236.137 465.712 236.137ZM465.712 234.646C466.956 234.646 467.722 233.43 467.722 231.051C467.722 228.686 466.942 227.441 465.712 227.441C464.481 227.441 463.702 228.686 463.702 231.051C463.702 233.43 464.468 234.646 465.712 234.646ZM474.599 236.137C472.479 236.137 470.976 234.988 470.935 233.32H472.726C472.78 234.113 473.573 234.633 474.599 234.633C475.692 234.633 476.472 234.031 476.472 233.156C476.472 232.268 475.706 231.625 474.421 231.625H473.532V230.258H474.421C475.474 230.258 476.212 229.67 476.198 228.809C476.212 227.975 475.583 227.414 474.612 227.414C473.683 227.414 472.876 227.934 472.849 228.768H471.14C471.181 227.1 472.685 225.965 474.626 225.965C476.636 225.965 477.935 227.195 477.921 228.713C477.935 229.82 477.196 230.627 476.116 230.846V230.928C477.511 231.119 478.304 232.008 478.29 233.252C478.304 234.92 476.745 236.137 474.599 236.137ZM484.36 230.34V231.775H479.903V230.34H484.36ZM489.706 236.137C487.327 236.137 485.905 234.291 485.905 231.051C485.905 227.824 487.327 225.965 489.706 225.965C492.071 225.965 493.507 227.824 493.507 231.051C493.507 234.291 492.085 236.137 489.706 236.137ZM489.706 234.646C490.95 234.646 491.716 233.43 491.716 231.051C491.716 228.686 490.937 227.441 489.706 227.441C488.476 227.441 487.696 228.686 487.696 231.051C487.696 233.43 488.462 234.646 489.706 234.646ZM494.819 234.154V232.732L499.099 226.102H501.313V232.691H502.612V234.154H501.313V236H499.618V234.154H494.819ZM496.638 232.691H499.646V228.125H499.536L496.638 232.623V232.691Z" fill="#212121"/>
<path d="M421.606 296V294.715L425.106 291.338C426.104 290.34 426.624 289.752 426.624 288.918C426.624 288.002 425.899 287.414 424.929 287.414C423.903 287.414 423.247 288.057 423.261 289.055H421.565C421.552 287.182 422.96 285.965 424.942 285.965C426.966 285.965 428.333 287.168 428.333 288.836C428.333 289.957 427.786 290.859 425.845 292.691L424.081 294.441V294.51H428.483V296H421.606ZM433.692 296.137C431.313 296.137 429.892 294.291 429.892 291.051C429.892 287.824 431.313 285.965 433.692 285.965C436.058 285.965 437.493 287.824 437.493 291.051C437.493 294.291 436.071 296.137 433.692 296.137ZM433.692 294.646C434.937 294.646 435.702 293.43 435.702 291.051C435.702 288.686 434.923 287.441 433.692 287.441C432.462 287.441 431.683 288.686 431.683 291.051C431.683 293.43 432.448 294.646 433.692 294.646ZM438.983 296V294.715L442.483 291.338C443.481 290.34 444.001 289.752 444.001 288.918C444.001 288.002 443.276 287.414 442.306 287.414C441.28 287.414 440.624 288.057 440.638 289.055H438.942C438.929 287.182 440.337 285.965 442.319 285.965C444.343 285.965 445.71 287.168 445.71 288.836C445.71 289.957 445.163 290.859 443.222 292.691L441.458 294.441V294.51H445.86V296H438.983ZM447.419 296V294.715L450.919 291.338C451.917 290.34 452.437 289.752 452.437 288.918C452.437 288.002 451.712 287.414 450.741 287.414C449.716 287.414 449.06 288.057 449.073 289.055H447.378C447.364 287.182 448.772 285.965 450.755 285.965C452.778 285.965 454.146 287.168 454.146 288.836C454.146 289.957 453.599 290.859 451.657 292.691L449.894 294.441V294.51H454.296V296H447.419ZM460.366 290.34V291.775H455.909V290.34H460.366ZM465.712 296.137C463.333 296.137 461.911 294.291 461.911 291.051C461.911 287.824 463.333 285.965 465.712 285.965C468.077 285.965 469.513 287.824 469.513 291.051C469.513 294.291 468.091 296.137 465.712 296.137ZM465.712 294.646C466.956 294.646 467.722 293.43 467.722 291.051C467.722 288.686 466.942 287.441 465.712 287.441C464.481 287.441 463.702 288.686 463.702 291.051C463.702 293.43 464.468 294.646 465.712 294.646ZM474.599 296.137C472.479 296.137 470.976 294.988 470.935 293.32H472.726C472.78 294.113 473.573 294.633 474.599 294.633C475.692 294.633 476.472 294.031 476.472 293.156C476.472 292.268 475.706 291.625 474.421 291.625H473.532V290.258H474.421C475.474 290.258 476.212 289.67 476.198 288.809C476.212 287.975 475.583 287.414 474.612 287.414C473.683 287.414 472.876 287.934 472.849 288.768H471.14C471.181 287.1 472.685 285.965 474.626 285.965C476.636 285.965 477.935 287.195 477.921 288.713C477.935 289.82 477.196 290.627 476.116 290.846V290.928C477.511 291.119 478.304 292.008 478.29 293.252C478.304 294.92 476.745 296.137 474.599 296.137ZM484.36 290.34V291.775H479.903V290.34H484.36ZM489.706 296.137C487.327 296.137 485.905 294.291 485.905 291.051C485.905 287.824 487.327 285.965 489.706 285.965C492.071 285.965 493.507 287.824 493.507 291.051C493.507 294.291 492.085 296.137 489.706 296.137ZM489.706 294.646C490.95 294.646 491.716 293.43 491.716 291.051C491.716 288.686 490.937 287.441 489.706 287.441C488.476 287.441 487.696 288.686 487.696 291.051C487.696 293.43 488.462 294.646 489.706 294.646ZM494.819 294.154V292.732L499.099 286.102H501.313V292.691H502.612V294.154H501.313V296H499.618V294.154H494.819ZM496.638 292.691H499.646V288.125H499.536L496.638 292.623V292.691Z" fill="#212121"/>
<path d="M421.504 356V354.715L425.004 351.338C426.002 350.34 426.521 349.752 426.521 348.918C426.521 348.002 425.797 347.414 424.826 347.414C423.801 347.414 423.145 348.057 423.158 349.055H421.463C421.449 347.182 422.857 345.965 424.84 345.965C426.863 345.965 428.23 347.168 428.23 348.836C428.23 349.957 427.684 350.859 425.742 352.691L423.979 354.441V354.51H428.381V356H421.504ZM433.59 356.137C431.211 356.137 429.789 354.291 429.789 351.051C429.789 347.824 431.211 345.965 433.59 345.965C435.955 345.965 437.391 347.824 437.391 351.051C437.391 354.291 435.969 356.137 433.59 356.137ZM433.59 354.646C434.834 354.646 435.6 353.43 435.6 351.051C435.6 348.686 434.82 347.441 433.59 347.441C432.359 347.441 431.58 348.686 431.58 351.051C431.58 353.43 432.346 354.646 433.59 354.646ZM438.881 356V354.715L442.381 351.338C443.379 350.34 443.898 349.752 443.898 348.918C443.898 348.002 443.174 347.414 442.203 347.414C441.178 347.414 440.521 348.057 440.535 349.055H438.84C438.826 347.182 440.234 345.965 442.217 345.965C444.24 345.965 445.607 347.168 445.607 348.836C445.607 349.957 445.061 350.859 443.119 352.691L441.355 354.441V354.51H445.758V356H438.881ZM450.912 356.137C448.793 356.137 447.289 354.988 447.248 353.32H449.039C449.094 354.113 449.887 354.633 450.912 354.633C452.006 354.633 452.785 354.031 452.785 353.156C452.785 352.268 452.02 351.625 450.734 351.625H449.846V350.258H450.734C451.787 350.258 452.525 349.67 452.512 348.809C452.525 347.975 451.896 347.414 450.926 347.414C449.996 347.414 449.189 347.934 449.162 348.768H447.453C447.494 347.1 448.998 345.965 450.939 345.965C452.949 345.965 454.248 347.195 454.234 348.713C454.248 349.82 453.51 350.627 452.43 350.846V350.928C453.824 351.119 454.617 352.008 454.604 353.252C454.617 354.92 453.059 356.137 450.912 356.137ZM460.674 350.34V351.775H456.217V350.34H460.674ZM466.02 356.137C463.641 356.137 462.219 354.291 462.219 351.051C462.219 347.824 463.641 345.965 466.02 345.965C468.385 345.965 469.82 347.824 469.82 351.051C469.82 354.291 468.398 356.137 466.02 356.137ZM466.02 354.646C467.264 354.646 468.029 353.43 468.029 351.051C468.029 348.686 467.25 347.441 466.02 347.441C464.789 347.441 464.01 348.686 464.01 351.051C464.01 353.43 464.775 354.646 466.02 354.646ZM471.133 354.154V352.732L475.412 346.102H477.627V352.691H478.926V354.154H477.627V356H475.932V354.154H471.133ZM472.951 352.691H475.959V348.125H475.85L472.951 352.623V352.691ZM484.859 350.34V351.775H480.402V350.34H484.859ZM490.205 356.137C487.826 356.137 486.404 354.291 486.404 351.051C486.404 347.824 487.826 345.965 490.205 345.965C492.57 345.965 494.006 347.824 494.006 351.051C494.006 354.291 492.584 356.137 490.205 356.137ZM490.205 354.646C491.449 354.646 492.215 353.43 492.215 351.051C492.215 348.686 491.436 347.441 490.205 347.441C488.975 347.441 488.195 348.686 488.195 351.051C488.195 353.43 488.961 354.646 490.205 354.646ZM499.01 356.137C497.027 356.137 495.578 354.961 495.523 353.32H497.26C497.314 354.127 498.066 354.701 499.01 354.701C500.117 354.701 500.91 353.895 500.91 352.801C500.91 351.666 500.09 350.859 498.955 350.859C498.189 350.846 497.629 351.119 497.314 351.707H495.66L496.262 346.102H502.113V347.592H497.725L497.424 350.217H497.52C497.902 349.779 498.627 349.465 499.434 349.465C501.279 349.465 502.633 350.846 502.633 352.746C502.633 354.729 501.143 356.137 499.01 356.137Z" fill="#212121"/>
<path d="M422.133 415V413.715L425.633 410.338C426.631 409.34 427.15 408.752 427.15 407.918C427.15 407.002 426.426 406.414 425.455 406.414C424.43 406.414 423.773 407.057 423.787 408.055H422.092C422.078 406.182 423.486 404.965 425.469 404.965C427.492 404.965 428.859 406.168 428.859 407.836C428.859 408.957 428.312 409.859 426.371 411.691L424.607 413.441V413.51H429.01V415H422.133ZM434.219 415.137C431.84 415.137 430.418 413.291 430.418 410.051C430.418 406.824 431.84 404.965 434.219 404.965C436.584 404.965 438.02 406.824 438.02 410.051C438.02 413.291 436.598 415.137 434.219 415.137ZM434.219 413.646C435.463 413.646 436.229 412.43 436.229 410.051C436.229 407.686 435.449 406.441 434.219 406.441C432.988 406.441 432.209 407.686 432.209 410.051C432.209 412.43 432.975 413.646 434.219 413.646ZM439.51 415V413.715L443.01 410.338C444.008 409.34 444.527 408.752 444.527 407.918C444.527 407.002 443.803 406.414 442.832 406.414C441.807 406.414 441.15 407.057 441.164 408.055H439.469C439.455 406.182 440.863 404.965 442.846 404.965C444.869 404.965 446.236 406.168 446.236 407.836C446.236 408.957 445.689 409.859 443.748 411.691L441.984 413.441V413.51H446.387V415H439.51ZM451.541 415.137C449.422 415.137 447.918 413.988 447.877 412.32H449.668C449.723 413.113 450.516 413.633 451.541 413.633C452.635 413.633 453.414 413.031 453.414 412.156C453.414 411.268 452.648 410.625 451.363 410.625H450.475V409.258H451.363C452.416 409.258 453.154 408.67 453.141 407.809C453.154 406.975 452.525 406.414 451.555 406.414C450.625 406.414 449.818 406.934 449.791 407.768H448.082C448.123 406.1 449.627 404.965 451.568 404.965C453.578 404.965 454.877 406.195 454.863 407.713C454.877 408.82 454.139 409.627 453.059 409.846V409.928C454.453 410.119 455.246 411.008 455.232 412.252C455.246 413.92 453.688 415.137 451.541 415.137ZM461.303 409.34V410.775H456.846V409.34H461.303ZM466.648 415.137C464.27 415.137 462.848 413.291 462.848 410.051C462.848 406.824 464.27 404.965 466.648 404.965C469.014 404.965 470.449 406.824 470.449 410.051C470.449 413.291 469.027 415.137 466.648 415.137ZM466.648 413.646C467.893 413.646 468.658 412.43 468.658 410.051C468.658 407.686 467.879 406.441 466.648 406.441C465.418 406.441 464.639 407.686 464.639 410.051C464.639 412.43 465.404 413.646 466.648 413.646ZM471.939 415V413.715L475.439 410.338C476.438 409.34 476.957 408.752 476.957 407.918C476.957 407.002 476.232 406.414 475.262 406.414C474.236 406.414 473.58 407.057 473.594 408.055H471.898C471.885 406.182 473.293 404.965 475.275 404.965C477.299 404.965 478.666 406.168 478.666 407.836C478.666 408.957 478.119 409.859 476.178 411.691L474.414 413.441V413.51H478.816V415H471.939ZM484.887 409.34V410.775H480.43V409.34H484.887ZM486.24 415V413.715L489.74 410.338C490.738 409.34 491.258 408.752 491.258 407.918C491.258 407.002 490.533 406.414 489.562 406.414C488.537 406.414 487.881 407.057 487.895 408.055H486.199C486.186 406.182 487.594 404.965 489.576 404.965C491.6 404.965 492.967 406.168 492.967 407.836C492.967 408.957 492.42 409.859 490.479 411.691L488.715 413.441V413.51H493.117V415H486.24ZM498.271 415.137C496.07 415.137 494.512 413.961 494.512 412.348C494.512 411.09 495.441 410.064 496.631 409.873V409.818C495.592 409.6 494.881 408.697 494.881 407.617C494.881 406.086 496.316 404.965 498.271 404.965C500.213 404.965 501.648 406.086 501.648 407.617C501.648 408.697 500.924 409.6 499.898 409.818V409.873C501.088 410.064 502.031 411.09 502.031 412.348C502.031 413.961 500.459 415.137 498.271 415.137ZM498.271 413.729C499.434 413.729 500.199 413.1 500.199 412.184C500.199 411.254 499.379 410.57 498.271 410.57C497.15 410.57 496.33 411.254 496.344 412.184C496.33 413.1 497.096 413.729 498.271 413.729ZM498.271 409.244C499.229 409.244 499.912 408.643 499.912 407.781C499.912 406.947 499.242 406.359 498.271 406.359C497.287 406.359 496.617 406.934 496.617 407.781C496.617 408.643 497.301 409.244 498.271 409.244Z" fill="#212121"/>
<path d="M442.94 170.586V171.83H431.661V170.586H442.94ZM441.642 168.398V169.615H433.042V165.254H441.573V166.484H434.56V168.398H441.642ZM437.28 172.691C439.946 172.678 441.546 173.498 441.56 174.934C441.546 176.383 439.946 177.203 437.28 177.203C434.587 177.203 432.974 176.383 432.974 174.934C432.974 173.498 434.587 172.678 437.28 172.691ZM437.28 173.854C435.476 173.854 434.505 174.236 434.519 174.934C434.505 175.658 435.476 176.027 437.28 176.027C439.044 176.027 440.028 175.658 440.042 174.934C440.028 174.236 439.044 173.854 437.28 173.854ZM454.083 164.857V177.217H452.552V164.857H454.083ZM450.392 166.17C450.392 169.848 448.97 172.979 444.636 175.029L443.843 173.812C447.076 172.274 448.58 170.183 448.847 167.373H444.472V166.17H450.392ZM466.524 164.857V177.217H465.062V164.857H466.524ZM464.022 165.076V176.615H462.587V172.719H460.974C460.516 173.936 459.695 174.626 458.649 174.619C457.036 174.633 455.983 172.924 455.983 170.203C455.983 167.482 457.036 165.801 458.649 165.801C459.695 165.801 460.509 166.484 460.974 167.688H462.587V165.076H464.022ZM458.649 167.236C457.843 167.223 457.364 168.275 457.378 170.203C457.364 172.131 457.843 173.184 458.649 173.17C459.47 173.184 459.976 172.131 459.976 170.203C459.976 168.275 459.47 167.223 458.649 167.236ZM461.274 168.918C461.336 169.314 461.37 169.745 461.37 170.203C461.37 170.654 461.336 171.078 461.288 171.475H462.587V168.918H461.274ZM478.31 164.857V172.199H476.792V169.178H474.687V167.934H476.792V164.857H478.31ZM474.126 172.514C476.751 172.514 478.351 173.375 478.351 174.865C478.351 176.355 476.751 177.217 474.126 177.217C471.515 177.217 469.915 176.355 469.929 174.865C469.915 173.375 471.515 172.514 474.126 172.514ZM474.126 173.676C472.403 173.676 471.433 174.086 471.433 174.865C471.433 175.631 472.403 176.041 474.126 176.041C475.849 176.041 476.833 175.631 476.833 174.865C476.833 174.086 475.849 173.676 474.126 173.676ZM472.499 166.977C472.499 168.48 473.497 169.998 475.411 170.641L474.646 171.844C473.271 171.379 472.294 170.436 471.761 169.273C471.214 170.593 470.182 171.646 468.712 172.172L467.919 170.969C469.901 170.285 470.954 168.617 470.954 166.99V166.895H468.384V165.664H475.056V166.895H472.499V166.977ZM483.56 165.254C485.433 165.254 486.827 166.416 486.841 168.043C486.827 169.684 485.433 170.832 483.56 170.832C481.673 170.832 480.278 169.684 480.278 168.043C480.278 166.416 481.673 165.254 483.56 165.254ZM483.56 166.512C482.521 166.512 481.755 167.1 481.755 168.043C481.755 169 482.521 169.602 483.56 169.602C484.599 169.602 485.364 169 485.364 168.043C485.364 167.1 484.599 166.512 483.56 166.512ZM490.354 164.857V171.105H488.823V164.857H490.354ZM490.354 171.639V174.865H483.669V175.863H490.724V177.066H482.179V173.744H488.837V172.828H482.151V171.639H490.354Z" fill="#212121"/>
<line x1="94" y1="200.5" x2="525" y2="200.5" stroke="#CCCCCC" stroke-dasharray="2 2"/>
<line x1="94" y1="140.5" x2="525" y2="140.5" stroke="#CCCCCC"/>
<line x1="94" y1="260.5" x2="525" y2="260.5" stroke="#CCCCCC" stroke-dasharray="2 2"/>
<line x1="94" y1="320.5" x2="525" y2="320.5" stroke="#CCCCCC" stroke-dasharray="2 2"/>
<line x1="94" y1="379.5" x2="525" y2="379.5" stroke="#CCCCCC" stroke-dasharray="2 2"/>
<path d="M116.76 117.871V127.277H115.242V124.844H113.41V123.627H115.242V122.246H113.41V121.016H115.242V117.871H116.76ZM113.342 119.238V120.455H106.438V119.238H109.199V117.857H110.717V119.238H113.342ZM109.938 120.961C111.619 120.961 112.822 121.945 112.836 123.367C112.822 124.789 111.619 125.773 109.938 125.773C108.27 125.773 107.066 124.789 107.08 123.367C107.066 121.945 108.27 120.961 109.938 120.961ZM109.938 122.15C109.09 122.164 108.488 122.615 108.502 123.367C108.488 124.146 109.09 124.598 109.938 124.598C110.785 124.598 111.4 124.146 111.4 123.367C111.4 122.615 110.785 122.164 109.938 122.15ZM117.033 128.74V129.971H108.611V126.471H110.156V128.74H117.033ZM129.229 117.857V130.217H127.779V123.955H126.508V129.615H125.072V118.076H126.508V122.697H127.779V117.857H129.229ZM122.352 121.016C122.352 123.217 123.09 125.24 124.922 126.184L124.033 127.346C122.857 126.717 122.085 125.63 121.654 124.283C121.23 125.821 120.458 127.059 119.234 127.783L118.305 126.621C120.137 125.582 120.875 123.422 120.875 121.016V120.428H118.674V119.211H124.375V120.428H122.352V121.016ZM144.227 117.871V124.871H142.695V117.871H144.227ZM144.227 125.473V130.066H136.023V125.473H144.227ZM137.527 126.676V128.836H142.736V126.676H137.527ZM137.486 118.459C139.387 118.459 140.809 119.662 140.809 121.412C140.809 123.107 139.387 124.338 137.486 124.338C135.572 124.338 134.15 123.107 134.15 121.412C134.15 119.662 135.572 118.459 137.486 118.459ZM137.486 119.744C136.406 119.744 135.627 120.387 135.641 121.412C135.627 122.41 136.406 123.053 137.486 123.053C138.553 123.053 139.318 122.41 139.318 121.412C139.318 120.387 138.553 119.744 137.486 119.744ZM156.395 117.871V127.223H154.863V126.143H152.443V125.076H154.863V117.871H156.395ZM156.682 128.74V129.971H147.617V126.32H149.135V128.74H156.682ZM145.977 123.422C148.26 123.408 151.322 123.381 153.947 123.053L154.029 124.146C153.011 124.317 151.958 124.434 150.912 124.502V126.881H149.395V124.584C148.239 124.632 147.139 124.639 146.168 124.639L145.977 123.422ZM150.01 118.322C151.814 118.322 153.072 119.211 153.086 120.51C153.072 121.836 151.814 122.684 150.01 122.684C148.178 122.684 146.92 121.836 146.92 120.51C146.92 119.211 148.178 118.322 150.01 118.322ZM150.01 119.443C149.025 119.443 148.355 119.84 148.355 120.51C148.355 121.18 149.025 121.576 150.01 121.576C150.953 121.576 151.623 121.18 151.637 120.51C151.623 119.84 150.953 119.443 150.01 119.443Z" fill="#2961FF"/>
<path d="M192.314 119.143V120.018C192.314 121.125 192.314 122.67 191.973 124.803L190.469 124.68C190.763 122.807 190.797 121.426 190.811 120.359H185.957V119.143H192.314ZM189.197 122.67V126.32C190.455 126.272 191.747 126.184 192.93 126.033L193.012 127.168C190.455 127.578 187.625 127.633 185.451 127.619L185.301 126.402C186.032 126.396 186.846 126.389 187.693 126.361V122.67H189.197ZM195.104 117.857V122.889H196.895V124.174H195.104V130.217H193.572V117.857H195.104ZM207.859 117.857V130.217H206.342V123.928H203.73V122.684H206.342V117.857H207.859ZM203.785 119.17C203.771 122.82 202.473 125.883 198.221 127.988L197.428 126.799C200.627 125.233 202.001 123.142 202.254 120.373H198.002V119.17H203.785ZM223.227 117.871V124.871H221.695V117.871H223.227ZM223.227 125.473V130.066H215.023V125.473H223.227ZM216.527 126.676V128.836H221.736V126.676H216.527ZM216.486 118.459C218.387 118.459 219.809 119.662 219.809 121.412C219.809 123.107 218.387 124.338 216.486 124.338C214.572 124.338 213.15 123.107 213.15 121.412C213.15 119.662 214.572 118.459 216.486 118.459ZM216.486 119.744C215.406 119.744 214.627 120.387 214.641 121.412C214.627 122.41 215.406 123.053 216.486 123.053C217.553 123.053 218.318 122.41 218.318 121.412C218.318 120.387 217.553 119.744 216.486 119.744ZM235.395 117.871V127.223H233.863V126.143H231.443V125.076H233.863V117.871H235.395ZM235.682 128.74V129.971H226.617V126.32H228.135V128.74H235.682ZM224.977 123.422C227.26 123.408 230.322 123.381 232.947 123.053L233.029 124.146C232.011 124.317 230.958 124.434 229.912 124.502V126.881H228.395V124.584C227.239 124.632 226.139 124.639 225.168 124.639L224.977 123.422ZM229.01 118.322C230.814 118.322 232.072 119.211 232.086 120.51C232.072 121.836 230.814 122.684 229.01 122.684C227.178 122.684 225.92 121.836 225.92 120.51C225.92 119.211 227.178 118.322 229.01 118.322ZM229.01 119.443C228.025 119.443 227.355 119.84 227.355 120.51C227.355 121.18 228.025 121.576 229.01 121.576C229.953 121.576 230.623 121.18 230.637 120.51C230.623 119.84 229.953 119.443 229.01 119.443Z" fill="black"/>
<rect x="94" y="138" width="76" height="2" fill="#2961FF"/>
</g>
<defs>
<filter id="filter0_d_54_129" x="54" y="48" width="511" height="413" filterUnits="userSpaceOnUse" color-interpolation-filters="sRGB">
<feFlood flood-opacity="0" result="BackgroundImageFix"/>
<feColorMatrix in="SourceAlpha" type="matrix" values="0 0 0 0 0 0 0 0 0 0 0 0 0 0 0 0 0 0 127 0" result="hardAlpha"/>
<feOffset dy="4"/>
<feGaussianBlur stdDeviation="7"/>
<feComposite in2="hardAlpha" operator="out"/>
<feColorMatrix type="matrix" values="0 0 0 0 0 0 0 0 0 0 0 0 0 0 0 0 0 0 0.04 0"/>
<feBlend mode="normal" in2="BackgroundImageFix" result="effect1_dropShadow_54_129"/>
<feBlend mode="normal" in="SourceGraphic" in2="effect1_dropShadow_54_129" result="shape"/>
</filter>
<clipPath id="clip0_54_129">
<rect width="620" height="500" rx="15" fill="white"/>
</clipPath>
</defs>
</svg>
