<svg width="620" height="500" viewBox="0 0 620 500" fill="none" xmlns="http://www.w3.org/2000/svg">
<g clip-path="url(#clip0_53_418)">
<rect width="620" height="500" rx="15" fill="#EEF8FD"/>
<rect width="620" height="500" rx="15" fill="#EEF8FD"/>
<g filter="url(#filter0_d_53_418)">
<path d="M68 68C68 62.4772 72.4772 58 78 58H541C546.523 58 551 62.4772 551 68V433C551 438.523 546.523 443 541 443H78C72.4771 443 68 438.523 68 433V68Z" fill="white"/>
<path d="M68.5 68C68.5 62.7533 72.7533 58.5 78 58.5H541C546.247 58.5 550.5 62.7533 550.5 68V433C550.5 438.247 546.247 442.5 541 442.5H78C72.7533 442.5 68.5 438.247 68.5 433V68Z" stroke="black" stroke-opacity="0.1"/>
</g>
<path d="M151.064 165.473V167.223H154.605V165.473H155.672V170.764H150.012V165.473H151.064ZM151.064 169.889H154.605V168.057H151.064V169.889ZM158.994 164.953V167.592H160.826V168.494H158.994V171.242H157.928V164.953H158.994ZM158.994 171.816V174.756H152.322V176.096H159.445V176.971H151.27V173.936H157.928V172.678H151.242V171.816H158.994ZM164.107 171.912V173.525H170.191V171.912H171.258V176.943H163.041V171.912H164.107ZM164.107 176.068H170.191V174.373H164.107V176.068ZM171.258 165.514V166.402C171.258 167.332 171.258 168.412 170.93 169.93H172.721V170.818H161.592V169.93H169.877C170.191 168.419 170.191 167.332 170.191 166.402H163V165.514H171.258ZM177.137 165.404C178.955 165.418 180.281 166.512 180.281 168.098C180.281 169.684 178.955 170.777 177.137 170.777C175.291 170.777 173.979 169.684 173.979 168.098C173.979 166.512 175.291 165.418 177.137 165.404ZM177.137 166.307C175.92 166.307 175.018 167.045 175.031 168.098C175.018 169.164 175.92 169.902 177.137 169.902C178.34 169.902 179.242 169.164 179.242 168.098C179.242 167.045 178.34 166.307 177.137 166.307ZM183.727 164.953V171.201H182.66V164.953H183.727ZM183.727 171.789V174.715H176.904V176.082H184.164V176.943H175.852V173.908H182.66V172.65H175.824V171.789H183.727ZM189.906 168.686C189.893 170.641 191.301 172.787 193.064 173.621L192.449 174.469C191.082 173.806 189.927 172.356 189.387 170.709C188.826 172.5 187.603 174.072 186.242 174.77L185.586 173.922C187.336 173.074 188.84 170.764 188.854 168.686V167.1H186.023V166.211H192.641V167.1H189.906V168.686ZM195.197 164.953V169.875H197.234V170.791H195.197V177.107H194.131V164.953H195.197Z" fill="#212121"/>
<path d="M141.797 227L141.785 226.227L144.68 223.18C145.688 222.113 146.168 221.539 146.168 220.754C146.168 219.887 145.43 219.312 144.48 219.312C143.473 219.312 142.828 219.957 142.828 220.906H141.832C141.82 219.406 142.98 218.398 144.516 218.398C146.051 218.398 147.152 219.43 147.152 220.754C147.152 221.703 146.707 222.441 145.207 223.988L143.262 225.992V226.062H147.305V227H141.797ZM151.617 227.117C149.73 227.117 148.652 225.535 148.652 222.758C148.652 220.004 149.754 218.398 151.617 218.398C153.48 218.398 154.582 220.004 154.582 222.758C154.582 225.535 153.492 227.117 151.617 227.117ZM151.617 226.18C152.836 226.18 153.551 224.949 153.551 222.758C153.551 220.566 152.836 219.312 151.617 219.312C150.398 219.312 149.672 220.566 149.672 222.758C149.672 224.949 150.387 226.18 151.617 226.18ZM155.988 227L155.977 226.227L158.871 223.18C159.879 222.113 160.359 221.539 160.359 220.754C160.359 219.887 159.621 219.312 158.672 219.312C157.664 219.312 157.02 219.957 157.02 220.906H156.023C156.012 219.406 157.172 218.398 158.707 218.398C160.242 218.398 161.344 219.43 161.344 220.754C161.344 221.703 160.898 222.441 159.398 223.988L157.453 225.992V226.062H161.496V227H155.988ZM165.961 227.117C164.273 227.117 163.066 226.215 163.008 224.867H164.074C164.133 225.676 164.941 226.18 165.949 226.18C167.062 226.18 167.883 225.57 167.883 224.691C167.883 223.766 167.145 223.109 165.82 223.109H165.129V222.184H165.82C166.852 222.184 167.566 221.609 167.566 220.73C167.566 219.887 166.945 219.312 165.984 219.312C165.082 219.312 164.25 219.816 164.203 220.648H163.184C163.242 219.301 164.484 218.398 165.996 218.398C167.613 218.398 168.598 219.453 168.586 220.672C168.598 221.633 168.035 222.348 167.145 222.594V222.652C168.246 222.828 168.926 223.613 168.914 224.691C168.926 226.086 167.648 227.117 165.961 227.117ZM174.094 222.301V223.227H170.379V222.301H174.094ZM178.629 218.516V227H177.562V219.617H177.516L175.453 220.988V219.922L177.562 218.516H178.629ZM183.891 218.516V227H182.824V219.617H182.777L180.715 220.988V219.922L182.824 218.516H183.891ZM189.809 222.301V223.227H186.094V222.301H189.809ZM190.957 227L190.945 226.227L193.84 223.18C194.848 222.113 195.328 221.539 195.328 220.754C195.328 219.887 194.59 219.312 193.641 219.312C192.633 219.312 191.988 219.957 191.988 220.906H190.992C190.98 219.406 192.141 218.398 193.676 218.398C195.211 218.398 196.312 219.43 196.312 220.754C196.312 221.703 195.867 222.441 194.367 223.988L192.422 225.992V226.062H196.465V227H190.957ZM200.777 227.117C198.891 227.117 197.812 225.535 197.812 222.758C197.812 220.004 198.914 218.398 200.777 218.398C202.641 218.398 203.742 220.004 203.742 222.758C203.742 225.535 202.652 227.117 200.777 227.117ZM200.777 226.18C201.996 226.18 202.711 224.949 202.711 222.758C202.711 220.566 201.996 219.312 200.777 219.312C199.559 219.312 198.832 220.566 198.832 222.758C198.832 224.949 199.547 226.18 200.777 226.18ZM144.797 234.516V243H143.73V235.617H143.684L141.621 236.988V235.922L143.73 234.516H144.797ZM150.059 234.516V243H148.992V235.617H148.945L146.883 236.988V235.922L148.992 234.516H150.059ZM153.047 241.875C152.637 241.875 152.285 241.535 152.297 241.113C152.285 240.703 152.637 240.363 153.047 240.363C153.457 240.363 153.797 240.703 153.797 241.113C153.797 241.535 153.457 241.875 153.047 241.875ZM153.047 237.164C152.637 237.164 152.285 236.824 152.297 236.402C152.285 235.992 152.637 235.652 153.047 235.652C153.457 235.652 153.797 235.992 153.797 236.402C153.797 236.824 153.457 237.164 153.047 237.164ZM158.145 243.117C156.258 243.117 155.18 241.535 155.18 238.758C155.18 236.004 156.281 234.398 158.145 234.398C160.008 234.398 161.109 236.004 161.109 238.758C161.109 241.535 160.02 243.117 158.145 243.117ZM158.145 242.18C159.363 242.18 160.078 240.949 160.078 238.758C160.078 236.566 159.363 235.312 158.145 235.312C156.926 235.312 156.199 236.566 156.199 238.758C156.199 240.949 156.914 242.18 158.145 242.18ZM162.516 243L162.504 242.227L165.398 239.18C166.406 238.113 166.887 237.539 166.887 236.754C166.887 235.887 166.148 235.312 165.199 235.312C164.191 235.312 163.547 235.957 163.547 236.906H162.551C162.539 235.406 163.699 234.398 165.234 234.398C166.77 234.398 167.871 235.43 167.871 236.754C167.871 237.703 167.426 238.441 165.926 239.988L163.98 241.992V242.062H168.023V243H162.516ZM170.285 241.875C169.875 241.875 169.523 241.535 169.535 241.113C169.523 240.703 169.875 240.363 170.285 240.363C170.695 240.363 171.035 240.703 171.035 241.113C171.035 241.535 170.695 241.875 170.285 241.875ZM170.285 237.164C169.875 237.164 169.523 236.824 169.535 236.402C169.523 235.992 169.875 235.652 170.285 235.652C170.695 235.652 171.035 235.992 171.035 236.402C171.035 236.824 170.695 237.164 170.285 237.164ZM175.605 234.516V243H174.539V235.617H174.492L172.43 236.988V235.922L174.539 234.516H175.605ZM180.703 243.117C178.922 243.117 177.68 242.133 177.691 240.75C177.68 239.648 178.441 238.746 179.414 238.594V238.547C178.57 238.348 178.02 237.574 178.02 236.648C178.02 235.348 179.156 234.398 180.703 234.398C182.25 234.398 183.387 235.348 183.398 236.648C183.387 237.574 182.824 238.348 181.992 238.547V238.594C182.953 238.746 183.715 239.648 183.727 240.75C183.715 242.133 182.473 243.117 180.703 243.117ZM180.703 242.191C181.922 242.191 182.672 241.582 182.672 240.691C182.672 239.754 181.84 239.062 180.703 239.062C179.566 239.062 178.723 239.754 178.746 240.691C178.723 241.582 179.484 242.191 180.703 242.191ZM180.703 238.172C181.664 238.172 182.367 237.586 182.367 236.73C182.367 235.887 181.699 235.312 180.703 235.312C179.695 235.312 179.039 235.887 179.039 236.73C179.039 237.586 179.73 238.172 180.703 238.172Z" fill="#212121"/>
<path d="M141.797 287L141.785 286.227L144.68 283.18C145.688 282.113 146.168 281.539 146.168 280.754C146.168 279.887 145.43 279.312 144.48 279.312C143.473 279.312 142.828 279.957 142.828 280.906H141.832C141.82 279.406 142.98 278.398 144.516 278.398C146.051 278.398 147.152 279.43 147.152 280.754C147.152 281.703 146.707 282.441 145.207 283.988L143.262 285.992V286.062H147.305V287H141.797ZM151.617 287.117C149.73 287.117 148.652 285.535 148.652 282.758C148.652 280.004 149.754 278.398 151.617 278.398C153.48 278.398 154.582 280.004 154.582 282.758C154.582 285.535 153.492 287.117 151.617 287.117ZM151.617 286.18C152.836 286.18 153.551 284.949 153.551 282.758C153.551 280.566 152.836 279.312 151.617 279.312C150.398 279.312 149.672 280.566 149.672 282.758C149.672 284.949 150.387 286.18 151.617 286.18ZM155.988 287L155.977 286.227L158.871 283.18C159.879 282.113 160.359 281.539 160.359 280.754C160.359 279.887 159.621 279.312 158.672 279.312C157.664 279.312 157.02 279.957 157.02 280.906H156.023C156.012 279.406 157.172 278.398 158.707 278.398C160.242 278.398 161.344 279.43 161.344 280.754C161.344 281.703 160.898 282.441 159.398 283.988L157.453 285.992V286.062H161.496V287H155.988ZM165.961 287.117C164.273 287.117 163.066 286.215 163.008 284.867H164.074C164.133 285.676 164.941 286.18 165.949 286.18C167.062 286.18 167.883 285.57 167.883 284.691C167.883 283.766 167.145 283.109 165.82 283.109H165.129V282.184H165.82C166.852 282.184 167.566 281.609 167.566 280.73C167.566 279.887 166.945 279.312 165.984 279.312C165.082 279.312 164.25 279.816 164.203 280.648H163.184C163.242 279.301 164.484 278.398 165.996 278.398C167.613 278.398 168.598 279.453 168.586 280.672C168.598 281.633 168.035 282.348 167.145 282.594V282.652C168.246 282.828 168.926 283.613 168.914 284.691C168.926 286.086 167.648 287.117 165.961 287.117ZM174.094 282.301V283.227H170.379V282.301H174.094ZM178.629 278.516V287H177.562V279.617H177.516L175.453 280.988V279.922L177.562 278.516H178.629ZM183.891 278.516V287H182.824V279.617H182.777L180.715 280.988V279.922L182.824 278.516H183.891ZM189.809 282.301V283.227H186.094V282.301H189.809ZM194.344 278.516V287H193.277V279.617H193.23L191.168 280.988V279.922L193.277 278.516H194.344ZM199.441 287.117C197.66 287.117 196.418 286.133 196.43 284.75C196.418 283.648 197.18 282.746 198.152 282.594V282.547C197.309 282.348 196.758 281.574 196.758 280.648C196.758 279.348 197.895 278.398 199.441 278.398C200.988 278.398 202.125 279.348 202.137 280.648C202.125 281.574 201.562 282.348 200.73 282.547V282.594C201.691 282.746 202.453 283.648 202.465 284.75C202.453 286.133 201.211 287.117 199.441 287.117ZM199.441 286.191C200.66 286.191 201.41 285.582 201.41 284.691C201.41 283.754 200.578 283.062 199.441 283.062C198.305 283.062 197.461 283.754 197.484 284.691C197.461 285.582 198.223 286.191 199.441 286.191ZM199.441 282.172C200.402 282.172 201.105 281.586 201.105 280.73C201.105 279.887 200.438 279.312 199.441 279.312C198.434 279.312 197.777 279.887 197.777 280.73C197.777 281.586 198.469 282.172 199.441 282.172ZM144.797 294.516V303H143.73V295.617H143.684L141.621 296.988V295.922L143.73 294.516H144.797ZM147.059 303L147.047 302.227L149.941 299.18C150.949 298.113 151.43 297.539 151.43 296.754C151.43 295.887 150.691 295.312 149.742 295.312C148.734 295.312 148.09 295.957 148.09 296.906H147.094C147.082 295.406 148.242 294.398 149.777 294.398C151.312 294.398 152.414 295.43 152.414 296.754C152.414 297.703 151.969 298.441 150.469 299.988L148.523 301.992V302.062H152.566V303H147.059ZM154.828 301.875C154.418 301.875 154.066 301.535 154.078 301.113C154.066 300.703 154.418 300.363 154.828 300.363C155.238 300.363 155.578 300.703 155.578 301.113C155.578 301.535 155.238 301.875 154.828 301.875ZM154.828 297.164C154.418 297.164 154.066 296.824 154.078 296.402C154.066 295.992 154.418 295.652 154.828 295.652C155.238 295.652 155.578 295.992 155.578 296.402C155.578 296.824 155.238 297.164 154.828 297.164ZM160.078 303.117C158.391 303.117 157.184 302.215 157.125 300.867H158.191C158.25 301.676 159.059 302.18 160.066 302.18C161.18 302.18 162 301.57 162 300.691C162 299.766 161.262 299.109 159.938 299.109H159.246V298.184H159.938C160.969 298.184 161.684 297.609 161.684 296.73C161.684 295.887 161.062 295.312 160.102 295.312C159.199 295.312 158.367 295.816 158.32 296.648H157.301C157.359 295.301 158.602 294.398 160.113 294.398C161.73 294.398 162.715 295.453 162.703 296.672C162.715 297.633 162.152 298.348 161.262 298.594V298.652C162.363 298.828 163.043 299.613 163.031 300.691C163.043 302.086 161.766 303.117 160.078 303.117ZM164.555 303L164.543 302.227L167.438 299.18C168.445 298.113 168.926 297.539 168.926 296.754C168.926 295.887 168.188 295.312 167.238 295.312C166.23 295.312 165.586 295.957 165.586 296.906H164.59C164.578 295.406 165.738 294.398 167.273 294.398C168.809 294.398 169.91 295.43 169.91 296.754C169.91 297.703 169.465 298.441 167.965 299.988L166.02 301.992V302.062H170.062V303H164.555ZM172.324 301.875C171.914 301.875 171.562 301.535 171.574 301.113C171.562 300.703 171.914 300.363 172.324 300.363C172.734 300.363 173.074 300.703 173.074 301.113C173.074 301.535 172.734 301.875 172.324 301.875ZM172.324 297.164C171.914 297.164 171.562 296.824 171.574 296.402C171.562 295.992 171.914 295.652 172.324 295.652C172.734 295.652 173.074 295.992 173.074 296.402C173.074 296.824 172.734 297.164 172.324 297.164ZM177.422 303.117C175.535 303.117 174.457 301.535 174.457 298.758C174.457 296.004 175.559 294.398 177.422 294.398C179.285 294.398 180.387 296.004 180.387 298.758C180.387 301.535 179.297 303.117 177.422 303.117ZM177.422 302.18C178.641 302.18 179.355 300.949 179.355 298.758C179.355 296.566 178.641 295.312 177.422 295.312C176.203 295.312 175.477 296.566 175.477 298.758C175.477 300.949 176.191 302.18 177.422 302.18ZM184.617 294.398C186.082 294.41 187.699 295.289 187.699 298.418C187.699 301.43 186.469 303.117 184.477 303.117C182.988 303.117 181.934 302.203 181.723 300.855H182.766C182.953 301.617 183.527 302.18 184.477 302.18C185.859 302.18 186.703 300.984 186.715 298.922H186.598C186.105 299.625 185.332 300.047 184.43 300.047C182.906 300.047 181.652 298.887 181.652 297.246C181.652 295.664 182.812 294.387 184.617 294.398ZM184.617 295.324C183.504 295.324 182.672 296.191 182.684 297.234C182.684 298.289 183.469 299.121 184.582 299.121C185.684 299.121 186.551 298.207 186.551 297.211C186.551 296.238 185.742 295.324 184.617 295.324Z" fill="#212121"/>
<path d="M141.797 347L141.785 346.227L144.68 343.18C145.688 342.113 146.168 341.539 146.168 340.754C146.168 339.887 145.43 339.312 144.48 339.312C143.473 339.312 142.828 339.957 142.828 340.906H141.832C141.82 339.406 142.98 338.398 144.516 338.398C146.051 338.398 147.152 339.43 147.152 340.754C147.152 341.703 146.707 342.441 145.207 343.988L143.262 345.992V346.062H147.305V347H141.797ZM151.617 347.117C149.73 347.117 148.652 345.535 148.652 342.758C148.652 340.004 149.754 338.398 151.617 338.398C153.48 338.398 154.582 340.004 154.582 342.758C154.582 345.535 153.492 347.117 151.617 347.117ZM151.617 346.18C152.836 346.18 153.551 344.949 153.551 342.758C153.551 340.566 152.836 339.312 151.617 339.312C150.398 339.312 149.672 340.566 149.672 342.758C149.672 344.949 150.387 346.18 151.617 346.18ZM155.988 347L155.977 346.227L158.871 343.18C159.879 342.113 160.359 341.539 160.359 340.754C160.359 339.887 159.621 339.312 158.672 339.312C157.664 339.312 157.02 339.957 157.02 340.906H156.023C156.012 339.406 157.172 338.398 158.707 338.398C160.242 338.398 161.344 339.43 161.344 340.754C161.344 341.703 160.898 342.441 159.398 343.988L157.453 345.992V346.062H161.496V347H155.988ZM165.961 347.117C164.273 347.117 163.066 346.215 163.008 344.867H164.074C164.133 345.676 164.941 346.18 165.949 346.18C167.062 346.18 167.883 345.57 167.883 344.691C167.883 343.766 167.145 343.109 165.82 343.109H165.129V342.184H165.82C166.852 342.184 167.566 341.609 167.566 340.73C167.566 339.887 166.945 339.312 165.984 339.312C165.082 339.312 164.25 339.816 164.203 340.648H163.184C163.242 339.301 164.484 338.398 165.996 338.398C167.613 338.398 168.598 339.453 168.586 340.672C168.598 341.633 168.035 342.348 167.145 342.594V342.652C168.246 342.828 168.926 343.613 168.914 344.691C168.926 346.086 167.648 347.117 165.961 347.117ZM174.094 342.301V343.227H170.379V342.301H174.094ZM178.629 338.516V347H177.562V339.617H177.516L175.453 340.988V339.922L177.562 338.516H178.629ZM183.891 338.516V347H182.824V339.617H182.777L180.715 340.988V339.922L182.824 338.516H183.891ZM189.809 342.301V343.227H186.094V342.301H189.809ZM194.344 338.516V347H193.277V339.617H193.23L191.168 340.988V339.922L193.277 338.516H194.344ZM196.875 347L200.766 339.512V339.453H196.277V338.516H201.855V339.5L197.977 347H196.875ZM144.797 354.516V363H143.73V355.617H143.684L141.621 356.988V355.922L143.73 354.516H144.797ZM149.824 363.117C148.289 363.117 147.129 362.168 147.07 360.867H148.09C148.172 361.629 148.91 362.191 149.824 362.191C150.926 362.191 151.723 361.383 151.723 360.316C151.723 359.215 150.891 358.406 149.754 358.395C149.039 358.383 148.488 358.605 148.172 359.156H147.152L147.75 354.516H152.344V355.453H148.629L148.312 357.938H148.395C148.77 357.645 149.344 357.445 149.941 357.445C151.559 357.445 152.754 358.641 152.754 360.293C152.754 361.934 151.512 363.117 149.824 363.117ZM154.945 361.875C154.535 361.875 154.184 361.535 154.195 361.113C154.184 360.703 154.535 360.363 154.945 360.363C155.355 360.363 155.695 360.703 155.695 361.113C155.695 361.535 155.355 361.875 154.945 361.875ZM154.945 357.164C154.535 357.164 154.184 356.824 154.195 356.402C154.184 355.992 154.535 355.652 154.945 355.652C155.355 355.652 155.695 355.992 155.695 356.402C155.695 356.824 155.355 357.164 154.945 357.164ZM160.195 363.117C158.508 363.117 157.301 362.215 157.242 360.867H158.309C158.367 361.676 159.176 362.18 160.184 362.18C161.297 362.18 162.117 361.57 162.117 360.691C162.117 359.766 161.379 359.109 160.055 359.109H159.363V358.184H160.055C161.086 358.184 161.801 357.609 161.801 356.73C161.801 355.887 161.18 355.312 160.219 355.312C159.316 355.312 158.484 355.816 158.438 356.648H157.418C157.477 355.301 158.719 354.398 160.23 354.398C161.848 354.398 162.832 355.453 162.82 356.672C162.832 357.633 162.27 358.348 161.379 358.594V358.652C162.48 358.828 163.16 359.613 163.148 360.691C163.16 362.086 161.883 363.117 160.195 363.117ZM167.672 354.516V363H166.605V355.617H166.559L164.496 356.988V355.922L166.605 354.516H167.672ZM170.66 361.875C170.25 361.875 169.898 361.535 169.91 361.113C169.898 360.703 170.25 360.363 170.66 360.363C171.07 360.363 171.41 360.703 171.41 361.113C171.41 361.535 171.07 361.875 170.66 361.875ZM170.66 357.164C170.25 357.164 169.898 356.824 169.91 356.402C169.898 355.992 170.25 355.652 170.66 355.652C171.07 355.652 171.41 355.992 171.41 356.402C171.41 356.824 171.07 357.164 170.66 357.164ZM172.77 361.266V360.398L176.59 354.516H177.891V360.34H179.074V361.266H177.891V363H176.883V361.266H172.77ZM173.906 360.34H176.883V355.852H176.777L173.906 360.27V360.34ZM183.234 363.117C181.699 363.117 180.539 362.168 180.48 360.867H181.5C181.582 361.629 182.32 362.191 183.234 362.191C184.336 362.191 185.133 361.383 185.133 360.316C185.133 359.215 184.301 358.406 183.164 358.395C182.449 358.383 181.898 358.605 181.582 359.156H180.562L181.16 354.516H185.754V355.453H182.039L181.723 357.938H181.805C182.18 357.645 182.754 357.445 183.352 357.445C184.969 357.445 186.164 358.641 186.164 360.293C186.164 361.934 184.922 363.117 183.234 363.117Z" fill="#212121"/>
<path d="M141.797 406L141.785 405.227L144.68 402.18C145.688 401.113 146.168 400.539 146.168 399.754C146.168 398.887 145.43 398.312 144.48 398.312C143.473 398.312 142.828 398.957 142.828 399.906H141.832C141.82 398.406 142.98 397.398 144.516 397.398C146.051 397.398 147.152 398.43 147.152 399.754C147.152 400.703 146.707 401.441 145.207 402.988L143.262 404.992V405.062H147.305V406H141.797ZM151.617 406.117C149.73 406.117 148.652 404.535 148.652 401.758C148.652 399.004 149.754 397.398 151.617 397.398C153.48 397.398 154.582 399.004 154.582 401.758C154.582 404.535 153.492 406.117 151.617 406.117ZM151.617 405.18C152.836 405.18 153.551 403.949 153.551 401.758C153.551 399.566 152.836 398.312 151.617 398.312C150.398 398.312 149.672 399.566 149.672 401.758C149.672 403.949 150.387 405.18 151.617 405.18ZM155.988 406L155.977 405.227L158.871 402.18C159.879 401.113 160.359 400.539 160.359 399.754C160.359 398.887 159.621 398.312 158.672 398.312C157.664 398.312 157.02 398.957 157.02 399.906H156.023C156.012 398.406 157.172 397.398 158.707 397.398C160.242 397.398 161.344 398.43 161.344 399.754C161.344 400.703 160.898 401.441 159.398 402.988L157.453 404.992V405.062H161.496V406H155.988ZM165.961 406.117C164.273 406.117 163.066 405.215 163.008 403.867H164.074C164.133 404.676 164.941 405.18 165.949 405.18C167.062 405.18 167.883 404.57 167.883 403.691C167.883 402.766 167.145 402.109 165.82 402.109H165.129V401.184H165.82C166.852 401.184 167.566 400.609 167.566 399.73C167.566 398.887 166.945 398.312 165.984 398.312C165.082 398.312 164.25 398.816 164.203 399.648H163.184C163.242 398.301 164.484 397.398 165.996 397.398C167.613 397.398 168.598 398.453 168.586 399.672C168.598 400.633 168.035 401.348 167.145 401.594V401.652C168.246 401.828 168.926 402.613 168.914 403.691C168.926 405.086 167.648 406.117 165.961 406.117ZM174.094 401.301V402.227H170.379V401.301H174.094ZM178.629 397.516V406H177.562V398.617H177.516L175.453 399.988V398.922L177.562 397.516H178.629ZM183.891 397.516V406H182.824V398.617H182.777L180.715 399.988V398.922L182.824 397.516H183.891ZM189.809 401.301V402.227H186.094V401.301H189.809ZM194.344 397.516V406H193.277V398.617H193.23L191.168 399.988V398.922L193.277 397.516H194.344ZM199.371 406.117C197.836 406.117 196.676 405.168 196.617 403.867H197.637C197.719 404.629 198.457 405.191 199.371 405.191C200.473 405.191 201.27 404.383 201.27 403.316C201.27 402.215 200.438 401.406 199.301 401.395C198.586 401.383 198.035 401.605 197.719 402.156H196.699L197.297 397.516H201.891V398.453H198.176L197.859 400.938H197.941C198.316 400.645 198.891 400.445 199.488 400.445C201.105 400.445 202.301 401.641 202.301 403.293C202.301 404.934 201.059 406.117 199.371 406.117ZM144.797 413.516V422H143.73V414.617H143.684L141.621 415.988V414.922L143.73 413.516H144.797ZM147.059 422L147.047 421.227L149.941 418.18C150.949 417.113 151.43 416.539 151.43 415.754C151.43 414.887 150.691 414.312 149.742 414.312C148.734 414.312 148.09 414.957 148.09 415.906H147.094C147.082 414.406 148.242 413.398 149.777 413.398C151.312 413.398 152.414 414.43 152.414 415.754C152.414 416.703 151.969 417.441 150.469 418.988L148.523 420.992V421.062H152.566V422H147.059ZM154.828 420.875C154.418 420.875 154.066 420.535 154.078 420.113C154.066 419.703 154.418 419.363 154.828 419.363C155.238 419.363 155.578 419.703 155.578 420.113C155.578 420.535 155.238 420.875 154.828 420.875ZM154.828 416.164C154.418 416.164 154.066 415.824 154.078 415.402C154.066 414.992 154.418 414.652 154.828 414.652C155.238 414.652 155.578 414.992 155.578 415.402C155.578 415.824 155.238 416.164 154.828 416.164ZM159.914 422.117C158.379 422.117 157.219 421.168 157.16 419.867H158.18C158.262 420.629 159 421.191 159.914 421.191C161.016 421.191 161.812 420.383 161.812 419.316C161.812 418.215 160.98 417.406 159.844 417.395C159.129 417.383 158.578 417.605 158.262 418.156H157.242L157.84 413.516H162.434V414.453H158.719L158.402 416.938H158.484C158.859 416.645 159.434 416.445 160.031 416.445C161.648 416.445 162.844 417.641 162.844 419.293C162.844 420.934 161.602 422.117 159.914 422.117ZM164.578 422L168.469 414.512V414.453H163.98V413.516H169.559V414.5L165.68 422H164.578ZM171.258 420.875C170.848 420.875 170.496 420.535 170.508 420.113C170.496 419.703 170.848 419.363 171.258 419.363C171.668 419.363 172.008 419.703 172.008 420.113C172.008 420.535 171.668 420.875 171.258 420.875ZM171.258 416.164C170.848 416.164 170.496 415.824 170.508 415.402C170.496 414.992 170.848 414.652 171.258 414.652C171.668 414.652 172.008 414.992 172.008 415.402C172.008 415.824 171.668 416.164 171.258 416.164ZM176.355 422.117C174.469 422.117 173.391 420.535 173.391 417.758C173.391 415.004 174.492 413.398 176.355 413.398C178.219 413.398 179.32 415.004 179.32 417.758C179.32 420.535 178.23 422.117 176.355 422.117ZM176.355 421.18C177.574 421.18 178.289 419.949 178.289 417.758C178.289 415.566 177.574 414.312 176.355 414.312C175.137 414.312 174.41 415.566 174.41 417.758C174.41 419.949 175.125 421.18 176.355 421.18ZM180.727 422L180.715 421.227L183.609 418.18C184.617 417.113 185.098 416.539 185.098 415.754C185.098 414.887 184.359 414.312 183.41 414.312C182.402 414.312 181.758 414.957 181.758 415.906H180.762C180.75 414.406 181.91 413.398 183.445 413.398C184.98 413.398 186.082 414.43 186.082 415.754C186.082 416.703 185.637 417.441 184.137 418.988L182.191 420.992V421.062H186.234V422H180.727Z" fill="#212121"/>
<path d="M263.754 210.516V219H262.688V211.617H262.641L260.578 212.988V211.922L262.688 210.516H263.754ZM266.016 219L266.004 218.227L268.898 215.18C269.906 214.113 270.387 213.539 270.387 212.754C270.387 211.887 269.648 211.312 268.699 211.312C267.691 211.312 267.047 211.957 267.047 212.906H266.051C266.039 211.406 267.199 210.398 268.734 210.398C270.27 210.398 271.371 211.43 271.371 212.754C271.371 213.703 270.926 214.441 269.426 215.988L267.48 217.992V218.062H271.523V219H266.016ZM275.836 219.117C273.949 219.117 272.871 217.535 272.871 214.758C272.871 212.004 273.973 210.398 275.836 210.398C277.699 210.398 278.801 212.004 278.801 214.758C278.801 217.535 277.711 219.117 275.836 219.117ZM275.836 218.18C277.055 218.18 277.77 216.949 277.77 214.758C277.77 212.566 277.055 211.312 275.836 211.312C274.617 211.312 273.891 212.566 273.891 214.758C273.891 216.949 274.605 218.18 275.836 218.18ZM283.207 210.516V219H282.141V211.617H282.094L280.031 212.988V211.922L282.141 210.516H283.207ZM289.125 214.91V215.836H285.41V214.91H289.125ZM290.273 219L290.262 218.227L293.156 215.18C294.164 214.113 294.645 213.539 294.645 212.754C294.645 211.887 293.906 211.312 292.957 211.312C291.949 211.312 291.305 211.957 291.305 212.906H290.309C290.297 211.406 291.457 210.398 292.992 210.398C294.527 210.398 295.629 211.43 295.629 212.754C295.629 213.703 295.184 214.441 293.684 215.988L291.738 217.992V218.062H295.781V219H290.273ZM300.094 219.117C298.207 219.117 297.129 217.535 297.129 214.758C297.129 212.004 298.23 210.398 300.094 210.398C301.957 210.398 303.059 212.004 303.059 214.758C303.059 217.535 301.969 219.117 300.094 219.117ZM300.094 218.18C301.312 218.18 302.027 216.949 302.027 214.758C302.027 212.566 301.312 211.312 300.094 211.312C298.875 211.312 298.148 212.566 298.148 214.758C298.148 216.949 298.863 218.18 300.094 218.18ZM307.465 210.516V219H306.398V211.617H306.352L304.289 212.988V211.922L306.398 210.516H307.465ZM312.551 210.398C314.016 210.41 315.633 211.289 315.633 214.418C315.633 217.43 314.402 219.117 312.41 219.117C310.922 219.117 309.867 218.203 309.656 216.855H310.699C310.887 217.617 311.461 218.18 312.41 218.18C313.793 218.18 314.637 216.984 314.648 214.922H314.531C314.039 215.625 313.266 216.047 312.363 216.047C310.84 216.047 309.586 214.887 309.586 213.246C309.586 211.664 310.746 210.387 312.551 210.398ZM312.551 211.324C311.438 211.324 310.605 212.191 310.617 213.234C310.617 214.289 311.402 215.121 312.516 215.121C313.617 215.121 314.484 214.207 314.484 213.211C314.484 212.238 313.676 211.324 312.551 211.324ZM320.742 214.91V215.836H317.027V214.91H320.742ZM325.055 219.117C323.168 219.117 322.09 217.535 322.09 214.758C322.09 212.004 323.191 210.398 325.055 210.398C326.918 210.398 328.02 212.004 328.02 214.758C328.02 217.535 326.93 219.117 325.055 219.117ZM325.055 218.18C326.273 218.18 326.988 216.949 326.988 214.758C326.988 212.566 326.273 211.312 325.055 211.312C323.836 211.312 323.109 212.566 323.109 214.758C323.109 216.949 323.824 218.18 325.055 218.18ZM332.426 210.516V219H331.359V211.617H331.312L329.25 212.988V211.922L331.359 210.516H332.426ZM337.617 219.117C335.93 219.117 334.723 218.215 334.664 216.867H335.73C335.789 217.676 336.598 218.18 337.605 218.18C338.719 218.18 339.539 217.57 339.539 216.691C339.539 215.766 338.801 215.109 337.477 215.109H336.785V214.184H337.477C338.508 214.184 339.223 213.609 339.223 212.73C339.223 211.887 338.602 211.312 337.641 211.312C336.738 211.312 335.906 211.816 335.859 212.648H334.84C334.898 211.301 336.141 210.398 337.652 210.398C339.27 210.398 340.254 211.453 340.242 212.672C340.254 213.633 339.691 214.348 338.801 214.594V214.652C339.902 214.828 340.582 215.613 340.57 216.691C340.582 218.086 339.305 219.117 337.617 219.117ZM344.871 219.117C342.984 219.117 341.906 217.535 341.906 214.758C341.906 212.004 343.008 210.398 344.871 210.398C346.734 210.398 347.836 212.004 347.836 214.758C347.836 217.535 346.746 219.117 344.871 219.117ZM344.871 218.18C346.09 218.18 346.805 216.949 346.805 214.758C346.805 212.566 346.09 211.312 344.871 211.312C343.652 211.312 342.926 212.566 342.926 214.758C342.926 216.949 343.641 218.18 344.871 218.18ZM352.008 219.117C350.473 219.117 349.312 218.168 349.254 216.867H350.273C350.355 217.629 351.094 218.191 352.008 218.191C353.109 218.191 353.906 217.383 353.906 216.316C353.906 215.215 353.074 214.406 351.938 214.395C351.223 214.383 350.672 214.605 350.355 215.156H349.336L349.934 210.516H354.527V211.453H350.812L350.496 213.938H350.578C350.953 213.645 351.527 213.445 352.125 213.445C353.742 213.445 354.938 214.641 354.938 216.293C354.938 217.934 353.695 219.117 352.008 219.117ZM359.402 210.516V219H358.336V211.617H358.289L356.227 212.988V211.922L358.336 210.516H359.402ZM366.152 209.32V220.195H365.285V209.32H366.152ZM374.73 211.254C374.73 212.613 375.867 213.82 377.414 214.289L376.945 215.016C375.727 214.629 374.748 213.791 374.273 212.719C373.816 213.867 372.832 214.764 371.59 215.191L371.109 214.465C372.68 213.973 373.805 212.684 373.805 211.254V210.984H371.367V210.234H377.133V210.984H374.73V211.254ZM379.582 209.531V215.168H378.668V209.531H379.582ZM373.746 215.684V216.949H378.668V215.684H379.582V219.809H372.832V215.684H373.746ZM373.746 219.059H378.668V217.688H373.746V219.059ZM389.496 209.531V212.203H391.066V212.988H389.496V215.59H388.582V209.531H389.496ZM383.824 216.047V217.16H388.582V216.047H389.496V219.809H382.91V216.047H383.824ZM383.824 219.07H388.582V217.887H383.824V219.07ZM387.586 210.609V211.371H381.375V210.609H384.023V209.438H384.938V210.609H387.586ZM384.48 211.852C385.98 211.852 386.977 212.566 386.988 213.68C386.977 214.793 385.98 215.508 384.48 215.508C382.969 215.508 381.961 214.793 381.973 213.68C381.961 212.566 382.969 211.852 384.48 211.852ZM384.48 212.566C383.496 212.555 382.84 213.012 382.852 213.68C382.84 214.359 383.496 214.805 384.48 214.805C385.453 214.805 386.109 214.359 386.121 213.68C386.109 213.012 385.453 212.555 384.48 212.566ZM400.359 209.543V217.242H399.434V213.527H397.125V212.754H399.434V209.543H400.359ZM397.172 210.34C397.16 213.012 395.25 215.051 392.285 216.023L391.887 215.285C394.289 214.494 395.959 213 396.164 211.113H392.414V210.34H397.172ZM400.629 218.953V219.727H393.727V216.457H394.664V218.953H400.629ZM411.586 213.938V214.688H407.285V215.719H410.367V218.051H404.18V219.105H410.684V219.832H403.266V217.359H409.465V216.434H403.242V215.719H406.371V214.688H402.094V213.938H411.586ZM410.355 209.883V213.059H403.324V209.883H410.355ZM404.238 210.621V212.32H409.441V210.621H404.238ZM242.748 228.332C242.748 230.219 243.955 232.117 245.467 232.809L244.916 233.559C243.732 232.949 242.754 231.701 242.291 230.219C241.828 231.777 240.85 233.113 239.666 233.746L239.068 233.008C240.592 232.258 241.811 230.254 241.811 228.332V226.434H242.748V228.332ZM247.717 225.531V235.973H246.803V229.844H244.33V229.094H246.803V225.531H247.717ZM254.197 225.66C256.518 225.66 257.877 226.305 257.877 227.465C257.877 228.637 256.518 229.27 254.197 229.281C251.877 229.27 250.506 228.637 250.506 227.465C250.506 226.305 251.877 225.66 254.197 225.66ZM254.197 226.363C252.463 226.375 251.455 226.773 251.467 227.465C251.455 228.18 252.463 228.566 254.197 228.578C255.92 228.566 256.939 228.18 256.939 227.465C256.939 226.773 255.92 226.375 254.197 226.363ZM258.943 229.973V230.711H254.643V231.695H257.725V234.027H251.537V235.105H258.041V235.832H250.623V233.348H256.822V232.398H250.6V231.695H253.729V230.711H249.451V229.973H258.943ZM269.314 231.051V231.789H259.811V231.051H269.314ZM268.084 232.809V235.949H267.146V233.547H260.877V232.809H268.084ZM268.189 229.328V230.043H261.076V225.812H268.131V226.551H262.002V227.547H267.85V228.262H262.002V229.328H268.189ZM278.818 225.531V230.98H277.904V229.645H275.443V230.559H270.721V226.023H271.635V227.523H274.541V226.023H275.443V227.031H277.904V225.531H278.818ZM278.818 231.484V233.934H273.006V235.07H279.217V235.809H272.092V233.23H277.904V232.223H272.068V231.484H278.818ZM271.635 229.809H274.541V228.25H271.635V229.809ZM275.443 228.918H277.904V227.746H275.443V228.918ZM284.268 228.332C284.256 230.23 285.557 232.152 287.092 232.844L286.529 233.57C285.346 232.99 284.32 231.766 283.822 230.277C283.336 231.854 282.311 233.166 281.092 233.781L280.506 233.008C282.053 232.293 283.342 230.312 283.354 228.332V226.434H284.268V228.332ZM289.154 225.531V235.973H288.229V225.531H289.154ZM303.451 230.488V231.262H293.947V230.488H303.451ZM302.338 228.742V229.492H295.154V225.953H302.268V226.727H296.057V228.742H302.338ZM298.693 232.176C300.932 232.176 302.268 232.855 302.279 234.051C302.268 235.258 300.932 235.926 298.693 235.926C296.443 235.926 295.096 235.258 295.096 234.051C295.096 232.855 296.443 232.176 298.693 232.176ZM298.693 232.891C297.018 232.902 296.021 233.324 296.033 234.051C296.021 234.789 297.018 235.199 298.693 235.199C300.346 235.199 301.354 234.789 301.354 234.051C301.354 233.324 300.346 232.902 298.693 232.891ZM312.932 225.531V235.949H312.006V225.531H312.932ZM309.85 226.668C309.838 229.668 308.443 232.316 304.951 233.992L304.447 233.242C307.266 231.906 308.701 229.908 308.912 227.418H304.928V226.668H309.85ZM322.928 226.211V227.125C322.928 228.115 322.928 229.188 322.635 230.688H324.182V231.449H319.881V235.973H318.955V231.449H314.689V230.688H321.697C322.014 229.188 322.014 228.092 322.014 227.125V226.973H315.885V226.211H322.928ZM337.576 230.488V231.262H328.072V230.488H337.576ZM336.463 228.742V229.492H329.279V225.953H336.393V226.727H330.182V228.742H336.463ZM332.818 232.176C335.057 232.176 336.393 232.855 336.404 234.051C336.393 235.258 335.057 235.926 332.818 235.926C330.568 235.926 329.221 235.258 329.221 234.051C329.221 232.855 330.568 232.176 332.818 232.176ZM332.818 232.891C331.143 232.902 330.146 233.324 330.158 234.051C330.146 234.789 331.143 235.199 332.818 235.199C334.471 235.199 335.479 234.789 335.479 234.051C335.479 233.324 334.471 232.902 332.818 232.891ZM347.057 225.531V235.949H346.131V225.531H347.057ZM343.975 226.668C343.963 229.668 342.568 232.316 339.076 233.992L338.572 233.242C341.391 231.906 342.826 229.908 343.037 227.418H339.053V226.668H343.975ZM357.732 225.531V235.949H356.842V225.531H357.732ZM355.6 225.789V235.41H354.721V230.289H352.447V229.516H354.721V225.789H355.6ZM353.15 226.82V227.582H350.115V232.668C351.615 232.662 352.564 232.598 353.689 232.352L353.783 233.137C352.576 233.383 351.557 233.43 349.881 233.441H349.225V226.82H353.15ZM367.775 225.531V235.973H366.85V225.531H367.775ZM362.232 226.34C363.779 226.352 364.893 227.758 364.893 229.973C364.893 232.188 363.779 233.594 362.232 233.594C360.674 233.594 359.572 232.188 359.572 229.973C359.572 227.758 360.674 226.352 362.232 226.34ZM362.232 227.16C361.189 227.172 360.463 228.273 360.463 229.973C360.463 231.672 361.189 232.773 362.232 232.773C363.275 232.773 364.002 231.672 364.002 229.973C364.002 228.273 363.275 227.172 362.232 227.16ZM378.193 225.531V235.973H377.279V230.23H375.076V229.469H377.279V225.531H378.193ZM374.9 226.492V227.254H370.963V229.422H374.443V230.172H370.963V232.691C372.879 232.691 374.098 232.627 375.533 232.375L375.639 233.137C374.127 233.383 372.85 233.453 370.834 233.453H370.037V226.492H374.9ZM389.467 233.887V234.66H379.928V233.887H384.217V231.918H381.123V228.707H387.357V227.066H381.1V226.305H388.26V229.457H382.037V231.156H388.506V231.918H385.119V233.887H389.467ZM396.686 226.516V235H395.619V227.617H395.572L393.51 228.988V227.922L395.619 226.516H396.686ZM398.947 235L398.936 234.227L401.83 231.18C402.838 230.113 403.318 229.539 403.318 228.754C403.318 227.887 402.58 227.312 401.631 227.312C400.623 227.312 399.979 227.957 399.979 228.906H398.982C398.971 227.406 400.131 226.398 401.666 226.398C403.201 226.398 404.303 227.43 404.303 228.754C404.303 229.703 403.857 230.441 402.357 231.988L400.412 233.992V234.062H404.455V235H398.947ZM408.92 235.117C407.232 235.117 406.025 234.215 405.967 232.867H407.033C407.092 233.676 407.9 234.18 408.908 234.18C410.021 234.18 410.842 233.57 410.842 232.691C410.842 231.766 410.104 231.109 408.779 231.109H408.088V230.184H408.779C409.811 230.184 410.525 229.609 410.525 228.73C410.525 227.887 409.904 227.312 408.943 227.312C408.041 227.312 407.209 227.816 407.162 228.648H406.143C406.201 227.301 407.443 226.398 408.955 226.398C410.572 226.398 411.557 227.453 411.545 228.672C411.557 229.633 410.994 230.348 410.104 230.594V230.652C411.205 230.828 411.885 231.613 411.873 232.691C411.885 234.086 410.607 235.117 408.92 235.117ZM421.658 225.543V233.254H420.732V229.246H418.271V231.473H413.549V226.234H414.463V228.086H417.369V226.234H418.271V228.473H420.732V225.543H421.658ZM421.893 234.953V235.727H414.92V232.492H415.846V234.953H421.893ZM414.463 230.711H417.369V228.812H414.463V230.711ZM431.994 225.531V230.863H431.08V225.531H431.994ZM428.877 226.047C428.877 228.707 426.99 230.371 423.908 231.086L423.568 230.312C426.176 229.732 427.705 228.484 427.869 226.809H424.096V226.047H428.877ZM431.994 231.355V233.875H426.158V235.117H432.369V235.855H425.244V233.172H431.08V232.094H425.221V231.355H431.994ZM311.613 241.531V251.949H310.734V241.531H311.613ZM309.504 241.789V251.41H308.637V246.043H306.879V245.293H308.637V241.789H309.504ZM305.766 244.508C305.766 246.312 306.574 248.105 308.016 248.938L307.453 249.617C306.428 249.002 305.701 247.877 305.344 246.547C304.963 247.982 304.207 249.207 303.164 249.863L302.578 249.172C304.031 248.305 304.875 246.406 304.875 244.508V243.523H302.871V242.762H307.676V243.523H305.766V244.508ZM316.453 242.516V251H315.387V243.617H315.34L313.277 244.988V243.922L315.387 242.516H316.453ZM327.832 246.828V247.59H318.34V246.828H327.832ZM323.531 241.508V242.551H326.871V243.301H323.59C323.666 244.455 325.318 245.252 327.27 245.434L326.988 246.148C325.26 245.967 323.719 245.346 323.086 244.297C322.447 245.346 320.9 245.967 319.184 246.148L318.891 245.434C320.842 245.252 322.494 244.455 322.582 243.301H319.324V242.551H322.629V241.508H323.531ZM323.086 248.48C325.348 248.48 326.66 249.09 326.672 250.203C326.66 251.328 325.348 251.926 323.086 251.926C320.824 251.926 319.488 251.328 319.488 250.203C319.488 249.09 320.824 248.48 323.086 248.48ZM323.086 249.172C321.398 249.172 320.414 249.547 320.426 250.203C320.414 250.859 321.398 251.223 323.086 251.211C324.75 251.223 325.746 250.859 325.746 250.203C325.746 249.547 324.75 249.172 323.086 249.172ZM340.629 241.531V251.949H339.75V241.531H340.629ZM338.52 241.789V251.41H337.652V246.043H335.895V245.293H337.652V241.789H338.52ZM334.781 244.508C334.781 246.312 335.59 248.105 337.031 248.938L336.469 249.617C335.443 249.002 334.717 247.877 334.359 246.547C333.979 247.982 333.223 249.207 332.18 249.863L331.594 249.172C333.047 248.305 333.891 246.406 333.891 244.508V243.523H331.887V242.762H336.691V243.523H334.781V244.508ZM345.469 242.516V251H344.402V243.617H344.355L342.293 244.988V243.922L344.402 242.516H345.469ZM350.508 251.117C348.621 251.117 347.543 249.535 347.543 246.758C347.543 244.004 348.645 242.398 350.508 242.398C352.371 242.398 353.473 244.004 353.473 246.758C353.473 249.535 352.383 251.117 350.508 251.117ZM350.508 250.18C351.727 250.18 352.441 248.949 352.441 246.758C352.441 244.566 351.727 243.312 350.508 243.312C349.289 243.312 348.562 244.566 348.562 246.758C348.562 248.949 349.277 250.18 350.508 250.18ZM357.879 242.516V251H356.812V243.617H356.766L354.703 244.988V243.922L356.812 242.516H357.879ZM368.766 243.078V243.84H360.234V243.078H364.055V241.707H364.957V243.078H368.766ZM369.305 249.969V250.73H359.766V249.969H364.055V248.504C362.203 248.404 361.078 247.684 361.09 246.512C361.078 245.27 362.391 244.543 364.512 244.555C366.609 244.543 367.934 245.27 367.934 246.512C367.934 247.684 366.797 248.404 364.957 248.504V249.969H369.305ZM364.512 245.281C362.953 245.281 362.004 245.738 362.016 246.512C362.004 247.309 362.953 247.754 364.512 247.766C366.047 247.754 366.996 247.309 366.996 246.512C366.996 245.738 366.047 245.281 364.512 245.281Z" fill="#212121"/>
<path d="M276.305 278.516V287H275.238V279.617H275.191L273.129 280.988V279.922L275.238 278.516H276.305ZM278.566 287L278.555 286.227L281.449 283.18C282.457 282.113 282.938 281.539 282.938 280.754C282.938 279.887 282.199 279.312 281.25 279.312C280.242 279.312 279.598 279.957 279.598 280.906H278.602C278.59 279.406 279.75 278.398 281.285 278.398C282.82 278.398 283.922 279.43 283.922 280.754C283.922 281.703 283.477 282.441 281.977 283.988L280.031 285.992V286.062H284.074V287H278.566ZM288.387 287.117C286.5 287.117 285.422 285.535 285.422 282.758C285.422 280.004 286.523 278.398 288.387 278.398C290.25 278.398 291.352 280.004 291.352 282.758C291.352 285.535 290.262 287.117 288.387 287.117ZM288.387 286.18C289.605 286.18 290.32 284.949 290.32 282.758C290.32 280.566 289.605 279.312 288.387 279.312C287.168 279.312 286.441 280.566 286.441 282.758C286.441 284.949 287.156 286.18 288.387 286.18ZM295.758 278.516V287H294.691V279.617H294.645L292.582 280.988V279.922L294.691 278.516H295.758ZM301.676 282.91V283.836H297.961V282.91H301.676ZM302.824 287L302.812 286.227L305.707 283.18C306.715 282.113 307.195 281.539 307.195 280.754C307.195 279.887 306.457 279.312 305.508 279.312C304.5 279.312 303.855 279.957 303.855 280.906H302.859C302.848 279.406 304.008 278.398 305.543 278.398C307.078 278.398 308.18 279.43 308.18 280.754C308.18 281.703 307.734 282.441 306.234 283.988L304.289 285.992V286.062H308.332V287H302.824ZM312.645 287.117C310.758 287.117 309.68 285.535 309.68 282.758C309.68 280.004 310.781 278.398 312.645 278.398C314.508 278.398 315.609 280.004 315.609 282.758C315.609 285.535 314.52 287.117 312.645 287.117ZM312.645 286.18C313.863 286.18 314.578 284.949 314.578 282.758C314.578 280.566 313.863 279.312 312.645 279.312C311.426 279.312 310.699 280.566 310.699 282.758C310.699 284.949 311.414 286.18 312.645 286.18ZM317.016 287L317.004 286.227L319.898 283.18C320.906 282.113 321.387 281.539 321.387 280.754C321.387 279.887 320.648 279.312 319.699 279.312C318.691 279.312 318.047 279.957 318.047 280.906H317.051C317.039 279.406 318.199 278.398 319.734 278.398C321.27 278.398 322.371 279.43 322.371 280.754C322.371 281.703 321.926 282.441 320.426 283.988L318.48 285.992V286.062H322.523V287H317.016ZM326.836 287.117C324.949 287.117 323.871 285.535 323.871 282.758C323.871 280.004 324.973 278.398 326.836 278.398C328.699 278.398 329.801 280.004 329.801 282.758C329.801 285.535 328.711 287.117 326.836 287.117ZM326.836 286.18C328.055 286.18 328.77 284.949 328.77 282.758C328.77 280.566 328.055 279.312 326.836 279.312C325.617 279.312 324.891 280.566 324.891 282.758C324.891 284.949 325.605 286.18 326.836 286.18ZM334.863 282.91V283.836H331.148V282.91H334.863ZM339.176 287.117C337.289 287.117 336.211 285.535 336.211 282.758C336.211 280.004 337.312 278.398 339.176 278.398C341.039 278.398 342.141 280.004 342.141 282.758C342.141 285.535 341.051 287.117 339.176 287.117ZM339.176 286.18C340.395 286.18 341.109 284.949 341.109 282.758C341.109 280.566 340.395 279.312 339.176 279.312C337.957 279.312 337.23 280.566 337.23 282.758C337.23 284.949 337.945 286.18 339.176 286.18ZM346.547 278.516V287H345.48V279.617H345.434L343.371 280.988V279.922L345.48 278.516H346.547ZM351.809 278.516V287H350.742V279.617H350.695L348.633 280.988V279.922L350.742 278.516H351.809ZM357.07 278.516V287H356.004V279.617H355.957L353.895 280.988V279.922L356.004 278.516H357.07ZM362.332 278.516V287H361.266V279.617H361.219L359.156 280.988V279.922L361.266 278.516H362.332ZM367.594 278.516V287H366.527V279.617H366.48L364.418 280.988V279.922L366.527 278.516H367.594ZM374.344 277.32V288.195H373.477V277.32H374.344ZM387.809 277.543V285.242H386.883V281.527H384.574V280.754H386.883V277.543H387.809ZM384.621 278.34C384.609 281.012 382.699 283.051 379.734 284.023L379.336 283.285C381.738 282.494 383.408 281 383.613 279.113H379.863V278.34H384.621ZM388.078 286.953V287.727H381.176V284.457H382.113V286.953H388.078ZM399.035 281.938V282.688H394.734V283.719H397.816V286.051H391.629V287.105H398.133V287.832H390.715V285.359H396.914V284.434H390.691V283.719H393.82V282.688H389.543V281.938H399.035ZM397.805 277.883V281.059H390.773V277.883H397.805ZM391.688 278.621V280.32H396.891V278.621H391.688ZM247.682 293.543V301.16H246.768V293.543H247.682ZM248.01 302.953V303.727H240.955V300.387H241.869V302.953H248.01ZM242.057 294.27C243.615 294.27 244.787 295.324 244.787 296.824C244.787 298.348 243.615 299.391 242.057 299.391C240.498 299.391 239.326 298.348 239.326 296.824C239.326 295.324 240.498 294.27 242.057 294.27ZM242.057 295.078C241.002 295.078 240.217 295.805 240.229 296.824C240.217 297.867 241.002 298.582 242.057 298.582C243.088 298.582 243.885 297.867 243.885 296.824C243.885 295.805 243.088 295.078 242.057 295.078ZM253.002 296.027C253.002 297.41 254.104 298.629 255.65 299.109L255.193 299.848C253.986 299.455 253.037 298.629 252.568 297.562C252.117 298.705 251.174 299.59 249.943 300.023L249.486 299.309C251.021 298.793 252.1 297.492 252.1 296.027V295.688H249.744V294.938H252.1V293.602H253.025V294.938H255.357V295.688H253.002V296.027ZM258.088 293.543V301.324H257.162V297.516H254.994V296.754H257.162V293.543H258.088ZM258.381 302.953V303.727H251.396V300.621H252.322V302.953H258.381ZM265.6 294.188V294.75C265.588 295.406 265.588 296.344 265.318 297.574L264.404 297.492C264.645 296.391 264.674 295.588 264.674 294.961H260.408V294.188H265.6ZM262.916 296.449V298.488C264.076 298.453 265.266 298.371 266.35 298.23L266.408 298.91C264.229 299.262 261.732 299.32 259.857 299.32L259.764 298.547C260.443 298.547 261.205 298.541 262.002 298.523V296.449H262.916ZM267.99 293.531V296.391H269.514V297.164H267.99V300.047H267.053V293.531H267.99ZM264.604 300.176C266.76 300.176 268.072 300.867 268.072 302.027C268.072 303.234 266.76 303.914 264.604 303.914C262.447 303.914 261.135 303.234 261.135 302.027C261.135 300.867 262.447 300.176 264.604 300.176ZM264.604 300.891C263.033 300.891 262.049 301.324 262.061 302.027C262.049 302.766 263.033 303.188 264.604 303.188C266.174 303.188 267.146 302.766 267.146 302.027C267.146 301.324 266.174 300.891 264.604 300.891ZM278.83 300.246V303.949H277.904V300.984H271.822V300.246H278.83ZM278.83 293.531V299.672H277.904V298.172H275.221C274.734 298.764 273.967 299.115 273.064 299.109C271.506 299.121 270.357 298.09 270.357 296.613C270.357 295.16 271.506 294.129 273.064 294.129C273.961 294.129 274.729 294.48 275.221 295.066H277.904V293.531H278.83ZM273.064 294.914C271.998 294.914 271.236 295.629 271.236 296.613C271.236 297.633 271.998 298.336 273.064 298.336C274.084 298.336 274.869 297.633 274.869 296.613C274.869 295.629 274.084 294.914 273.064 294.914ZM275.631 297.41H277.904V295.828H275.631C275.713 296.074 275.76 296.332 275.76 296.613C275.76 296.895 275.713 297.164 275.631 297.41ZM284.268 296.332C284.256 298.23 285.557 300.152 287.092 300.844L286.529 301.57C285.346 300.99 284.32 299.766 283.822 298.277C283.336 299.854 282.311 301.166 281.092 301.781L280.506 301.008C282.053 300.293 283.342 298.312 283.354 296.332V294.434H284.268V296.332ZM289.154 293.531V303.973H288.229V293.531H289.154ZM303.451 298.488V299.262H293.947V298.488H303.451ZM302.338 296.742V297.492H295.154V293.953H302.268V294.727H296.057V296.742H302.338ZM298.693 300.176C300.932 300.176 302.268 300.855 302.279 302.051C302.268 303.258 300.932 303.926 298.693 303.926C296.443 303.926 295.096 303.258 295.096 302.051C295.096 300.855 296.443 300.176 298.693 300.176ZM298.693 300.891C297.018 300.902 296.021 301.324 296.033 302.051C296.021 302.789 297.018 303.199 298.693 303.199C300.346 303.199 301.354 302.789 301.354 302.051C301.354 301.324 300.346 300.902 298.693 300.891ZM312.932 293.531V303.949H312.006V293.531H312.932ZM309.85 294.668C309.838 297.668 308.443 300.316 304.951 301.992L304.447 301.242C307.266 299.906 308.701 297.908 308.912 295.418H304.928V294.668H309.85ZM322.928 294.211V295.125C322.928 296.115 322.928 297.188 322.635 298.688H324.182V299.449H319.881V303.973H318.955V299.449H314.689V298.688H321.697C322.014 297.188 322.014 296.092 322.014 295.125V294.973H315.885V294.211H322.928ZM337.576 298.488V299.262H328.072V298.488H337.576ZM336.463 296.742V297.492H329.279V293.953H336.393V294.727H330.182V296.742H336.463ZM332.818 300.176C335.057 300.176 336.393 300.855 336.404 302.051C336.393 303.258 335.057 303.926 332.818 303.926C330.568 303.926 329.221 303.258 329.221 302.051C329.221 300.855 330.568 300.176 332.818 300.176ZM332.818 300.891C331.143 300.902 330.146 301.324 330.158 302.051C330.146 302.789 331.143 303.199 332.818 303.199C334.471 303.199 335.479 302.789 335.479 302.051C335.479 301.324 334.471 300.902 332.818 300.891ZM347.057 293.531V303.949H346.131V293.531H347.057ZM343.975 294.668C343.963 297.668 342.568 300.316 339.076 301.992L338.572 301.242C341.391 299.906 342.826 297.908 343.037 295.418H339.053V294.668H343.975ZM357.732 293.531V303.949H356.842V293.531H357.732ZM355.6 293.789V303.41H354.721V298.289H352.447V297.516H354.721V293.789H355.6ZM353.15 294.82V295.582H350.115V300.668C351.615 300.662 352.564 300.598 353.689 300.352L353.783 301.137C352.576 301.383 351.557 301.43 349.881 301.441H349.225V294.82H353.15ZM367.775 293.531V303.973H366.85V293.531H367.775ZM362.232 294.34C363.779 294.352 364.893 295.758 364.893 297.973C364.893 300.188 363.779 301.594 362.232 301.594C360.674 301.594 359.572 300.188 359.572 297.973C359.572 295.758 360.674 294.352 362.232 294.34ZM362.232 295.16C361.189 295.172 360.463 296.273 360.463 297.973C360.463 299.672 361.189 300.773 362.232 300.773C363.275 300.773 364.002 299.672 364.002 297.973C364.002 296.273 363.275 295.172 362.232 295.16ZM378.193 293.531V303.973H377.279V298.23H375.076V297.469H377.279V293.531H378.193ZM374.9 294.492V295.254H370.963V297.422H374.443V298.172H370.963V300.691C372.879 300.691 374.098 300.627 375.533 300.375L375.639 301.137C374.127 301.383 372.85 301.453 370.834 301.453H370.037V294.492H374.9ZM389.467 301.887V302.66H379.928V301.887H384.217V299.918H381.123V296.707H387.357V295.066H381.1V294.305H388.26V297.457H382.037V299.156H388.506V299.918H385.119V301.887H389.467ZM396.686 294.516V303H395.619V295.617H395.572L393.51 296.988V295.922L395.619 294.516H396.686ZM398.947 303L398.936 302.227L401.83 299.18C402.838 298.113 403.318 297.539 403.318 296.754C403.318 295.887 402.58 295.312 401.631 295.312C400.623 295.312 399.979 295.957 399.979 296.906H398.982C398.971 295.406 400.131 294.398 401.666 294.398C403.201 294.398 404.303 295.43 404.303 296.754C404.303 297.703 403.857 298.441 402.357 299.988L400.412 301.992V302.062H404.455V303H398.947ZM408.92 303.117C407.232 303.117 406.025 302.215 405.967 300.867H407.033C407.092 301.676 407.9 302.18 408.908 302.18C410.021 302.18 410.842 301.57 410.842 300.691C410.842 299.766 410.104 299.109 408.779 299.109H408.088V298.184H408.779C409.811 298.184 410.525 297.609 410.525 296.73C410.525 295.887 409.904 295.312 408.943 295.312C408.041 295.312 407.209 295.816 407.162 296.648H406.143C406.201 295.301 407.443 294.398 408.955 294.398C410.572 294.398 411.557 295.453 411.545 296.672C411.557 297.633 410.994 298.348 410.104 298.594V298.652C411.205 298.828 411.885 299.613 411.873 300.691C411.885 302.086 410.607 303.117 408.92 303.117ZM421.658 293.543V301.254H420.732V297.246H418.271V299.473H413.549V294.234H414.463V296.086H417.369V294.234H418.271V296.473H420.732V293.543H421.658ZM421.893 302.953V303.727H414.92V300.492H415.846V302.953H421.893ZM414.463 298.711H417.369V296.812H414.463V298.711ZM431.994 293.531V298.863H431.08V293.531H431.994ZM428.877 294.047C428.877 296.707 426.99 298.371 423.908 299.086L423.568 298.312C426.176 297.732 427.705 296.484 427.869 294.809H424.096V294.047H428.877ZM431.994 299.355V301.875H426.158V303.117H432.369V303.855H425.244V301.172H431.08V300.094H425.221V299.355H431.994Z" fill="#212121"/>
<path d="M268.436 330.516V339H267.369V331.617H267.322L265.26 332.988V331.922L267.369 330.516H268.436ZM273.697 330.516V339H272.631V331.617H272.584L270.521 332.988V331.922L272.631 330.516H273.697ZM278.736 339.117C276.85 339.117 275.771 337.535 275.771 334.758C275.771 332.004 276.873 330.398 278.736 330.398C280.6 330.398 281.701 332.004 281.701 334.758C281.701 337.535 280.611 339.117 278.736 339.117ZM278.736 338.18C279.955 338.18 280.67 336.949 280.67 334.758C280.67 332.566 279.955 331.312 278.736 331.312C277.518 331.312 276.791 332.566 276.791 334.758C276.791 336.949 277.506 338.18 278.736 338.18ZM286.107 330.516V339H285.041V331.617H284.994L282.932 332.988V331.922L285.041 330.516H286.107ZM292.025 334.91V335.836H288.311V334.91H292.025ZM293.174 339L293.162 338.227L296.057 335.18C297.064 334.113 297.545 333.539 297.545 332.754C297.545 331.887 296.807 331.312 295.857 331.312C294.85 331.312 294.205 331.957 294.205 332.906H293.209C293.197 331.406 294.357 330.398 295.893 330.398C297.428 330.398 298.529 331.43 298.529 332.754C298.529 333.703 298.084 334.441 296.584 335.988L294.639 337.992V338.062H298.682V339H293.174ZM302.994 339.117C301.107 339.117 300.029 337.535 300.029 334.758C300.029 332.004 301.131 330.398 302.994 330.398C304.857 330.398 305.959 332.004 305.959 334.758C305.959 337.535 304.869 339.117 302.994 339.117ZM302.994 338.18C304.213 338.18 304.928 336.949 304.928 334.758C304.928 332.566 304.213 331.312 302.994 331.312C301.775 331.312 301.049 332.566 301.049 334.758C301.049 336.949 301.764 338.18 302.994 338.18ZM307.365 339L307.354 338.227L310.248 335.18C311.256 334.113 311.736 333.539 311.736 332.754C311.736 331.887 310.998 331.312 310.049 331.312C309.041 331.312 308.396 331.957 308.396 332.906H307.4C307.389 331.406 308.549 330.398 310.084 330.398C311.619 330.398 312.721 331.43 312.721 332.754C312.721 333.703 312.275 334.441 310.775 335.988L308.83 337.992V338.062H312.873V339H307.365ZM317.408 330.516V339H316.342V331.617H316.295L314.232 332.988V331.922L316.342 330.516H317.408ZM323.326 334.91V335.836H319.611V334.91H323.326ZM327.639 339.117C325.752 339.117 324.674 337.535 324.674 334.758C324.674 332.004 325.775 330.398 327.639 330.398C329.502 330.398 330.604 332.004 330.604 334.758C330.604 337.535 329.514 339.117 327.639 339.117ZM327.639 338.18C328.857 338.18 329.572 336.949 329.572 334.758C329.572 332.566 328.857 331.312 327.639 331.312C326.42 331.312 325.693 332.566 325.693 334.758C325.693 336.949 326.408 338.18 327.639 338.18ZM332.01 339L331.998 338.227L334.893 335.18C335.9 334.113 336.381 333.539 336.381 332.754C336.381 331.887 335.643 331.312 334.693 331.312C333.686 331.312 333.041 331.957 333.041 332.906H332.045C332.033 331.406 333.193 330.398 334.729 330.398C336.264 330.398 337.365 331.43 337.365 332.754C337.365 333.703 336.92 334.441 335.42 335.988L333.475 337.992V338.062H337.518V339H332.01ZM341.982 339.117C340.295 339.117 339.088 338.215 339.029 336.867H340.096C340.154 337.676 340.963 338.18 341.971 338.18C343.084 338.18 343.904 337.57 343.904 336.691C343.904 335.766 343.166 335.109 341.842 335.109H341.15V334.184H341.842C342.873 334.184 343.588 333.609 343.588 332.73C343.588 331.887 342.967 331.312 342.006 331.312C341.104 331.312 340.271 331.816 340.225 332.648H339.205C339.264 331.301 340.506 330.398 342.018 330.398C343.635 330.398 344.619 331.453 344.607 332.672C344.619 333.633 344.057 334.348 343.166 334.594V334.652C344.268 334.828 344.947 335.613 344.936 336.691C344.947 338.086 343.67 339.117 341.982 339.117ZM349.459 330.516V339H348.393V331.617H348.346L346.283 332.988V331.922L348.393 330.516H349.459ZM354.721 330.516V339H353.654V331.617H353.607L351.545 332.988V331.922L353.654 330.516H354.721ZM361.471 329.32V340.195H360.604V329.32H361.471ZM370.049 331.254C370.049 332.613 371.186 333.82 372.732 334.289L372.264 335.016C371.045 334.629 370.066 333.791 369.592 332.719C369.135 333.867 368.15 334.764 366.908 335.191L366.428 334.465C367.998 333.973 369.123 332.684 369.123 331.254V330.984H366.686V330.234H372.451V330.984H370.049V331.254ZM374.9 329.531V335.168H373.986V329.531H374.9ZM369.064 335.684V336.949H373.986V335.684H374.9V339.809H368.15V335.684H369.064ZM369.064 339.059H373.986V337.688H369.064V339.059ZM384.814 329.531V332.203H386.385V332.988H384.814V335.59H383.9V329.531H384.814ZM379.143 336.047V337.16H383.9V336.047H384.814V339.809H378.229V336.047H379.143ZM379.143 339.07H383.9V337.887H379.143V339.07ZM382.904 330.609V331.371H376.693V330.609H379.342V329.438H380.256V330.609H382.904ZM379.799 331.852C381.299 331.852 382.295 332.566 382.307 333.68C382.295 334.793 381.299 335.508 379.799 335.508C378.287 335.508 377.279 334.793 377.291 333.68C377.279 332.566 378.287 331.852 379.799 331.852ZM379.799 332.566C378.814 332.555 378.158 333.012 378.17 333.68C378.158 334.359 378.814 334.805 379.799 334.805C380.771 334.805 381.428 334.359 381.439 333.68C381.428 333.012 380.771 332.555 379.799 332.566ZM395.678 329.543V337.242H394.752V333.527H392.443V332.754H394.752V329.543H395.678ZM392.49 330.34C392.479 333.012 390.568 335.051 387.604 336.023L387.205 335.285C389.607 334.494 391.277 333 391.482 331.113H387.732V330.34H392.49ZM395.947 338.953V339.727H389.045V336.457H389.982V338.953H395.947ZM406.904 333.938V334.688H402.604V335.719H405.686V338.051H399.498V339.105H406.002V339.832H398.584V337.359H404.783V336.434H398.561V335.719H401.689V334.688H397.412V333.938H406.904ZM405.674 329.883V333.059H398.643V329.883H405.674ZM399.557 330.621V332.32H404.76V330.621H399.557ZM264.562 345.531V355.949H263.684V350.488H262.148V355.41H261.305V345.766H262.148V349.727H263.684V345.531H264.562ZM259.945 346.809V347.57H256.957V352.586C258.393 352.58 259.389 352.527 260.543 352.293L260.625 353.066C259.371 353.324 258.305 353.371 256.711 353.371H256.043V346.809H259.945ZM274.664 345.543V353.184H273.738V349.188H271.594V348.426H273.738V345.543H274.664ZM274.957 354.953V355.727H267.973V352.492H268.898V354.953H274.957ZM269.648 347.688C269.648 349.035 270.691 350.348 272.215 350.863L271.734 351.602C270.557 351.18 269.648 350.301 269.203 349.223C268.752 350.424 267.791 351.385 266.555 351.848L266.074 351.098C267.609 350.559 268.723 349.188 268.723 347.688V347.148H266.367V346.387H271.98V347.148H269.648V347.688ZM282.176 346.188V346.75C282.164 347.406 282.164 348.344 281.895 349.574L280.98 349.492C281.221 348.391 281.25 347.588 281.25 346.961H276.984V346.188H282.176ZM279.492 348.449V350.488C280.652 350.453 281.842 350.371 282.926 350.23L282.984 350.91C280.805 351.262 278.309 351.32 276.434 351.32L276.34 350.547C277.02 350.547 277.781 350.541 278.578 350.523V348.449H279.492ZM284.566 345.531V348.391H286.09V349.164H284.566V352.047H283.629V345.531H284.566ZM281.18 352.176C283.336 352.176 284.648 352.867 284.648 354.027C284.648 355.234 283.336 355.914 281.18 355.914C279.023 355.914 277.711 355.234 277.711 354.027C277.711 352.867 279.023 352.176 281.18 352.176ZM281.18 352.891C279.609 352.891 278.625 353.324 278.637 354.027C278.625 354.766 279.609 355.188 281.18 355.188C282.75 355.188 283.723 354.766 283.723 354.027C283.723 353.324 282.75 352.891 281.18 352.891ZM295.406 352.246V355.949H294.48V352.984H288.398V352.246H295.406ZM295.406 345.531V351.672H294.48V350.172H291.797C291.311 350.764 290.543 351.115 289.641 351.109C288.082 351.121 286.934 350.09 286.934 348.613C286.934 347.16 288.082 346.129 289.641 346.129C290.537 346.129 291.305 346.48 291.797 347.066H294.48V345.531H295.406ZM289.641 346.914C288.574 346.914 287.812 347.629 287.812 348.613C287.812 349.633 288.574 350.336 289.641 350.336C290.66 350.336 291.445 349.633 291.445 348.613C291.445 347.629 290.66 346.914 289.641 346.914ZM292.207 349.41H294.48V347.828H292.207C292.289 348.074 292.336 348.332 292.336 348.613C292.336 348.895 292.289 349.164 292.207 349.41ZM300.844 348.332C300.832 350.23 302.133 352.152 303.668 352.844L303.105 353.57C301.922 352.99 300.896 351.766 300.398 350.277C299.912 351.854 298.887 353.166 297.668 353.781L297.082 353.008C298.629 352.293 299.918 350.312 299.93 348.332V346.434H300.844V348.332ZM305.73 345.531V355.973H304.805V345.531H305.73ZM320.027 350.488V351.262H310.523V350.488H320.027ZM318.914 348.742V349.492H311.73V345.953H318.844V346.727H312.633V348.742H318.914ZM315.27 352.176C317.508 352.176 318.844 352.855 318.855 354.051C318.844 355.258 317.508 355.926 315.27 355.926C313.02 355.926 311.672 355.258 311.672 354.051C311.672 352.855 313.02 352.176 315.27 352.176ZM315.27 352.891C313.594 352.902 312.598 353.324 312.609 354.051C312.598 354.789 313.594 355.199 315.27 355.199C316.922 355.199 317.93 354.789 317.93 354.051C317.93 353.324 316.922 352.902 315.27 352.891ZM329.508 345.531V355.949H328.582V345.531H329.508ZM326.426 346.668C326.414 349.668 325.02 352.316 321.527 353.992L321.023 353.242C323.842 351.906 325.277 349.908 325.488 347.418H321.504V346.668H326.426ZM339.504 346.211V347.125C339.504 348.115 339.504 349.188 339.211 350.688H340.758V351.449H336.457V355.973H335.531V351.449H331.266V350.688H338.273C338.59 349.188 338.59 348.092 338.59 347.125V346.973H332.461V346.211H339.504ZM354.152 350.488V351.262H344.648V350.488H354.152ZM353.039 348.742V349.492H345.855V345.953H352.969V346.727H346.758V348.742H353.039ZM349.395 352.176C351.633 352.176 352.969 352.855 352.98 354.051C352.969 355.258 351.633 355.926 349.395 355.926C347.145 355.926 345.797 355.258 345.797 354.051C345.797 352.855 347.145 352.176 349.395 352.176ZM349.395 352.891C347.719 352.902 346.723 353.324 346.734 354.051C346.723 354.789 347.719 355.199 349.395 355.199C351.047 355.199 352.055 354.789 352.055 354.051C352.055 353.324 351.047 352.902 349.395 352.891ZM363.633 345.531V355.949H362.707V345.531H363.633ZM360.551 346.668C360.539 349.668 359.145 352.316 355.652 353.992L355.148 353.242C357.967 351.906 359.402 349.908 359.613 347.418H355.629V346.668H360.551ZM374.93 353.887V354.66H365.391V353.887H369.68V351.918H366.586V348.707H372.82V347.066H366.562V346.305H373.723V349.457H367.5V351.156H373.969V351.918H370.582V353.887H374.93ZM382.148 346.516V355H381.082V347.617H381.035L378.973 348.988V347.922L381.082 346.516H382.148ZM387.188 355.117C385.301 355.117 384.223 353.535 384.223 350.758C384.223 348.004 385.324 346.398 387.188 346.398C389.051 346.398 390.152 348.004 390.152 350.758C390.152 353.535 389.062 355.117 387.188 355.117ZM387.188 354.18C388.406 354.18 389.121 352.949 389.121 350.758C389.121 348.566 388.406 347.312 387.188 347.312C385.969 347.312 385.242 348.566 385.242 350.758C385.242 352.949 385.957 354.18 387.188 354.18ZM394.559 346.516V355H393.492V347.617H393.445L391.383 348.988V347.922L393.492 346.516H394.559ZM405.082 345.543V353.254H404.156V349.246H401.695V351.473H396.973V346.234H397.887V348.086H400.793V346.234H401.695V348.473H404.156V345.543H405.082ZM405.316 354.953V355.727H398.344V352.492H399.27V354.953H405.316ZM397.887 350.711H400.793V348.812H397.887V350.711ZM415.418 345.531V350.863H414.504V345.531H415.418ZM412.301 346.047C412.301 348.707 410.414 350.371 407.332 351.086L406.992 350.312C409.6 349.732 411.129 348.484 411.293 346.809H407.52V346.047H412.301ZM415.418 351.355V353.875H409.582V355.117H415.793V355.855H408.668V353.172H414.504V352.094H408.645V351.355H415.418ZM308.941 361.531V371.949H308.062V361.531H308.941ZM306.832 361.789V371.41H305.965V366.043H304.207V365.293H305.965V361.789H306.832ZM303.094 364.508C303.094 366.312 303.902 368.105 305.344 368.938L304.781 369.617C303.756 369.002 303.029 367.877 302.672 366.547C302.291 367.982 301.535 369.207 300.492 369.863L299.906 369.172C301.359 368.305 302.203 366.406 302.203 364.508V363.523H300.199V362.762H305.004V363.523H303.094V364.508ZM310.781 371L310.77 370.227L313.664 367.18C314.672 366.113 315.152 365.539 315.152 364.754C315.152 363.887 314.414 363.312 313.465 363.312C312.457 363.312 311.812 363.957 311.812 364.906H310.816C310.805 363.406 311.965 362.398 313.5 362.398C315.035 362.398 316.137 363.43 316.137 364.754C316.137 365.703 315.691 366.441 314.191 367.988L312.246 369.992V370.062H316.289V371H310.781ZM326.941 366.828V367.59H317.449V366.828H326.941ZM322.641 361.508V362.551H325.98V363.301H322.699C322.775 364.455 324.428 365.252 326.379 365.434L326.098 366.148C324.369 365.967 322.828 365.346 322.195 364.297C321.557 365.346 320.01 365.967 318.293 366.148L318 365.434C319.951 365.252 321.604 364.455 321.691 363.301H318.434V362.551H321.738V361.508H322.641ZM322.195 368.48C324.457 368.48 325.77 369.09 325.781 370.203C325.77 371.328 324.457 371.926 322.195 371.926C319.934 371.926 318.598 371.328 318.598 370.203C318.598 369.09 319.934 368.48 322.195 368.48ZM322.195 369.172C320.508 369.172 319.523 369.547 319.535 370.203C319.523 370.859 320.508 371.223 322.195 371.211C323.859 371.223 324.855 370.859 324.855 370.203C324.855 369.547 323.859 369.172 322.195 369.172ZM339.738 361.531V371.949H338.859V361.531H339.738ZM337.629 361.789V371.41H336.762V366.043H335.004V365.293H336.762V361.789H337.629ZM333.891 364.508C333.891 366.312 334.699 368.105 336.141 368.938L335.578 369.617C334.553 369.002 333.826 367.877 333.469 366.547C333.088 367.982 332.332 369.207 331.289 369.863L330.703 369.172C332.156 368.305 333 366.406 333 364.508V363.523H330.996V362.762H335.801V363.523H333.891V364.508ZM341.578 371L341.566 370.227L344.461 367.18C345.469 366.113 345.949 365.539 345.949 364.754C345.949 363.887 345.211 363.312 344.262 363.312C343.254 363.312 342.609 363.957 342.609 364.906H341.613C341.602 363.406 342.762 362.398 344.297 362.398C345.832 362.398 346.934 363.43 346.934 364.754C346.934 365.703 346.488 366.441 344.988 367.988L343.043 369.992V370.062H347.086V371H341.578ZM351.398 371.117C349.512 371.117 348.434 369.535 348.434 366.758C348.434 364.004 349.535 362.398 351.398 362.398C353.262 362.398 354.363 364.004 354.363 366.758C354.363 369.535 353.273 371.117 351.398 371.117ZM351.398 370.18C352.617 370.18 353.332 368.949 353.332 366.758C353.332 364.566 352.617 363.312 351.398 363.312C350.18 363.312 349.453 364.566 349.453 366.758C349.453 368.949 350.168 370.18 351.398 370.18ZM355.77 371L355.758 370.227L358.652 367.18C359.66 366.113 360.141 365.539 360.141 364.754C360.141 363.887 359.402 363.312 358.453 363.312C357.445 363.312 356.801 363.957 356.801 364.906H355.805C355.793 363.406 356.953 362.398 358.488 362.398C360.023 362.398 361.125 363.43 361.125 364.754C361.125 365.703 360.68 366.441 359.18 367.988L357.234 369.992V370.062H361.277V371H355.77ZM371.438 363.078V363.84H362.906V363.078H366.727V361.707H367.629V363.078H371.438ZM371.977 369.969V370.73H362.438V369.969H366.727V368.504C364.875 368.404 363.75 367.684 363.762 366.512C363.75 365.27 365.062 364.543 367.184 364.555C369.281 364.543 370.605 365.27 370.605 366.512C370.605 367.684 369.469 368.404 367.629 368.504V369.969H371.977ZM367.184 365.281C365.625 365.281 364.676 365.738 364.688 366.512C364.676 367.309 365.625 367.754 367.184 367.766C368.719 367.754 369.668 367.309 369.668 366.512C369.668 365.738 368.719 365.281 367.184 365.281Z" fill="#212121"/>
<path d="M275.408 397.516V406H274.342V398.617H274.295L272.232 399.988V398.922L274.342 397.516H275.408ZM280.67 397.516V406H279.604V398.617H279.557L277.494 399.988V398.922L279.604 397.516H280.67ZM285.709 406.117C283.822 406.117 282.744 404.535 282.744 401.758C282.744 399.004 283.846 397.398 285.709 397.398C287.572 397.398 288.674 399.004 288.674 401.758C288.674 404.535 287.584 406.117 285.709 406.117ZM285.709 405.18C286.928 405.18 287.643 403.949 287.643 401.758C287.643 399.566 286.928 398.312 285.709 398.312C284.49 398.312 283.764 399.566 283.764 401.758C283.764 403.949 284.479 405.18 285.709 405.18ZM290.08 406L290.068 405.227L292.963 402.18C293.971 401.113 294.451 400.539 294.451 399.754C294.451 398.887 293.713 398.312 292.764 398.312C291.756 398.312 291.111 398.957 291.111 399.906H290.115C290.104 398.406 291.264 397.398 292.799 397.398C294.334 397.398 295.436 398.43 295.436 399.754C295.436 400.703 294.99 401.441 293.49 402.988L291.545 404.992V405.062H295.588V406H290.08ZM300.779 401.91V402.836H297.064V401.91H300.779ZM301.928 406L301.916 405.227L304.811 402.18C305.818 401.113 306.299 400.539 306.299 399.754C306.299 398.887 305.561 398.312 304.611 398.312C303.604 398.312 302.959 398.957 302.959 399.906H301.963C301.951 398.406 303.111 397.398 304.646 397.398C306.182 397.398 307.283 398.43 307.283 399.754C307.283 400.703 306.838 401.441 305.338 402.988L303.393 404.992V405.062H307.436V406H301.928ZM311.748 406.117C309.861 406.117 308.783 404.535 308.783 401.758C308.783 399.004 309.885 397.398 311.748 397.398C313.611 397.398 314.713 399.004 314.713 401.758C314.713 404.535 313.623 406.117 311.748 406.117ZM311.748 405.18C312.967 405.18 313.682 403.949 313.682 401.758C313.682 399.566 312.967 398.312 311.748 398.312C310.529 398.312 309.803 399.566 309.803 401.758C309.803 403.949 310.518 405.18 311.748 405.18ZM319.119 397.516V406H318.053V398.617H318.006L315.943 399.988V398.922L318.053 397.516H319.119ZM324.146 406.117C322.611 406.117 321.451 405.168 321.393 403.867H322.412C322.494 404.629 323.232 405.191 324.146 405.191C325.248 405.191 326.045 404.383 326.045 403.316C326.045 402.215 325.213 401.406 324.076 401.395C323.361 401.383 322.811 401.605 322.494 402.156H321.475L322.072 397.516H326.666V398.453H322.951L322.635 400.938H322.717C323.092 400.645 323.666 400.445 324.264 400.445C325.881 400.445 327.076 401.641 327.076 403.293C327.076 404.934 325.834 406.117 324.146 406.117ZM332.197 401.91V402.836H328.482V401.91H332.197ZM336.51 406.117C334.623 406.117 333.545 404.535 333.545 401.758C333.545 399.004 334.646 397.398 336.51 397.398C338.373 397.398 339.475 399.004 339.475 401.758C339.475 404.535 338.385 406.117 336.51 406.117ZM336.51 405.18C337.729 405.18 338.443 403.949 338.443 401.758C338.443 399.566 337.729 398.312 336.51 398.312C335.291 398.312 334.564 399.566 334.564 401.758C334.564 403.949 335.279 405.18 336.51 405.18ZM340.881 406L340.869 405.227L343.764 402.18C344.771 401.113 345.252 400.539 345.252 399.754C345.252 398.887 344.514 398.312 343.564 398.312C342.557 398.312 341.912 398.957 341.912 399.906H340.916C340.904 398.406 342.064 397.398 343.6 397.398C345.135 397.398 346.236 398.43 346.236 399.754C346.236 400.703 345.791 401.441 344.291 402.988L342.346 404.992V405.062H346.389V406H340.881ZM350.924 397.516V406H349.857V398.617H349.811L347.748 399.988V398.922L349.857 397.516H350.924ZM353.186 406L353.174 405.227L356.068 402.18C357.076 401.113 357.557 400.539 357.557 399.754C357.557 398.887 356.818 398.312 355.869 398.312C354.861 398.312 354.217 398.957 354.217 399.906H353.221C353.209 398.406 354.369 397.398 355.904 397.398C357.439 397.398 358.541 398.43 358.541 399.754C358.541 400.703 358.096 401.441 356.596 402.988L354.65 404.992V405.062H358.693V406H353.186ZM363.229 397.516V406H362.162V398.617H362.115L360.053 399.988V398.922L362.162 397.516H363.229ZM368.49 397.516V406H367.424V398.617H367.377L365.314 399.988V398.922L367.424 397.516H368.49ZM375.24 396.32V407.195H374.373V396.32H375.24ZM388.506 401.957V402.707H385.271V404.887H389.607V405.648H380.068V404.887H384.357V402.707H381.299V397.387H388.389V398.148H382.236V399.637H388.166V400.387H382.236V401.957H388.506ZM394.166 399.73C394.166 401.5 395.455 403.293 396.99 403.961L396.475 404.688C395.256 404.131 394.201 402.93 393.721 401.488C393.229 403.018 392.18 404.348 390.99 404.945L390.439 404.219C391.928 403.504 393.229 401.535 393.24 399.73V398.371H390.779V397.609H396.65V398.371H394.166V399.73ZM399.029 396.531V406.949H398.104V396.531H399.029ZM260.244 412.543V418.801H259.318V417.395H256.553V416.633H259.318V415.227H256.658C255.973 416.902 254.361 418.115 252.135 418.777L251.748 418.051C254.268 417.301 255.832 415.895 256.025 414.09H252.275V413.316H257.021C257.021 413.727 256.975 414.119 256.893 414.488H259.318V412.543H260.244ZM256.834 418.906C258.943 418.906 260.303 419.656 260.303 420.898C260.303 422.152 258.943 422.902 256.834 422.902C254.701 422.902 253.354 422.152 253.354 420.898C253.354 419.656 254.701 418.906 256.834 418.906ZM256.834 419.645C255.264 419.633 254.256 420.113 254.256 420.898C254.256 421.684 255.264 422.152 256.834 422.152C258.381 422.152 259.377 421.684 259.389 420.898C259.377 420.113 258.381 419.633 256.834 419.645ZM270.592 412.531V422.949H269.666V412.531H270.592ZM267.51 413.668C267.498 416.668 266.104 419.316 262.611 420.992L262.107 420.242C264.926 418.906 266.361 416.908 266.572 414.418H262.588V413.668H267.51ZM280.764 417.418V418.168H277.541V420.863H281.889V421.637H272.35V420.863H276.639V418.168H273.568V413.387H280.658V414.137H274.494V417.418H280.764ZM295.236 417.488V418.262H285.732V417.488H295.236ZM294.123 415.742V416.492H286.939V412.953H294.053V413.727H287.842V415.742H294.123ZM290.479 419.176C292.717 419.176 294.053 419.855 294.064 421.051C294.053 422.258 292.717 422.926 290.479 422.926C288.229 422.926 286.881 422.258 286.881 421.051C286.881 419.855 288.229 419.176 290.479 419.176ZM290.479 419.891C288.803 419.902 287.807 420.324 287.818 421.051C287.807 421.789 288.803 422.199 290.479 422.199C292.131 422.199 293.139 421.789 293.139 421.051C293.139 420.324 292.131 419.902 290.479 419.891ZM304.717 412.531V422.949H303.791V412.531H304.717ZM301.635 413.668C301.623 416.668 300.229 419.316 296.736 420.992L296.232 420.242C299.051 418.906 300.486 416.908 300.697 414.418H296.713V413.668H301.635ZM310.178 415.332C310.166 417.23 311.467 419.152 313.002 419.844L312.439 420.57C311.256 419.99 310.23 418.766 309.732 417.277C309.246 418.854 308.221 420.166 307.002 420.781L306.416 420.008C307.963 419.293 309.252 417.312 309.264 415.332V413.434H310.178V415.332ZM315.064 412.531V422.973H314.139V412.531H315.064ZM328.775 412.531V422.949H327.885V412.531H328.775ZM326.643 412.789V422.41H325.764V417.289H323.49V416.516H325.764V412.789H326.643ZM324.193 413.82V414.582H321.158V419.668C322.658 419.662 323.607 419.598 324.732 419.352L324.826 420.137C323.619 420.383 322.6 420.43 320.924 420.441H320.268V413.82H324.193ZM338.818 412.531V422.973H337.893V412.531H338.818ZM333.275 413.34C334.822 413.352 335.936 414.758 335.936 416.973C335.936 419.188 334.822 420.594 333.275 420.594C331.717 420.594 330.615 419.188 330.615 416.973C330.615 414.758 331.717 413.352 333.275 413.34ZM333.275 414.16C332.232 414.172 331.506 415.273 331.506 416.973C331.506 418.672 332.232 419.773 333.275 419.773C334.318 419.773 335.045 418.672 335.045 416.973C335.045 415.273 334.318 414.172 333.275 414.16ZM349.236 412.531V422.973H348.322V417.23H346.119V416.469H348.322V412.531H349.236ZM345.943 413.492V414.254H342.006V416.422H345.486V417.172H342.006V419.691C343.922 419.691 345.141 419.627 346.576 419.375L346.682 420.137C345.17 420.383 343.893 420.453 341.877 420.453H341.08V413.492H345.943ZM359.209 413.211V414.125C359.209 415.115 359.209 416.188 358.916 417.688H360.463V418.449H356.162V422.973H355.236V418.449H350.971V417.688H357.979C358.295 416.188 358.295 415.092 358.295 414.125V413.973H352.166V413.211H359.209ZM373.857 417.488V418.262H364.354V417.488H373.857ZM372.744 415.742V416.492H365.561V412.953H372.674V413.727H366.463V415.742H372.744ZM369.1 419.176C371.338 419.176 372.674 419.855 372.686 421.051C372.674 422.258 371.338 422.926 369.1 422.926C366.85 422.926 365.502 422.258 365.502 421.051C365.502 419.855 366.85 419.176 369.1 419.176ZM369.1 419.891C367.424 419.902 366.428 420.324 366.439 421.051C366.428 421.789 367.424 422.199 369.1 422.199C370.752 422.199 371.76 421.789 371.76 421.051C371.76 420.324 370.752 419.902 369.1 419.891ZM383.338 412.531V422.949H382.412V412.531H383.338ZM380.256 413.668C380.244 416.668 378.85 419.316 375.357 420.992L374.854 420.242C377.672 418.906 379.107 416.908 379.318 414.418H375.334V413.668H380.256ZM394.6 417.688V418.426H385.096V417.688H389.396V416.469H386.303V413.023H393.416V413.762H387.205V415.719H393.486V416.469H390.287V417.688H394.6ZM389.842 419.188C392.08 419.188 393.416 419.867 393.428 421.062C393.416 422.27 392.08 422.938 389.842 422.949C387.592 422.938 386.244 422.27 386.244 421.062C386.244 419.867 387.592 419.188 389.842 419.188ZM389.842 419.914C388.166 419.914 387.17 420.348 387.182 421.062C387.17 421.789 388.166 422.211 389.842 422.211C391.494 422.211 392.502 421.789 392.502 421.062C392.502 420.348 391.494 419.914 389.842 419.914ZM401.854 413.516V422H400.787V414.617H400.74L398.678 415.988V414.922L400.787 413.516H401.854ZM404.115 422L404.104 421.227L406.998 418.18C408.006 417.113 408.486 416.539 408.486 415.754C408.486 414.887 407.748 414.312 406.799 414.312C405.791 414.312 405.146 414.957 405.146 415.906H404.15C404.139 414.406 405.299 413.398 406.834 413.398C408.369 413.398 409.471 414.43 409.471 415.754C409.471 416.703 409.025 417.441 407.525 418.988L405.58 420.992V421.062H409.623V422H404.115ZM414.814 417.91V418.836H411.1V417.91H414.814ZM419.35 413.516V422H418.283V414.617H418.236L416.174 415.988V414.922L418.283 413.516H419.35Z" fill="#212121"/>
<path d="M313.607 172.172V173.047H308.535V177.107H307.482V173.047H302.479V172.172H313.607ZM304.967 165.459V167.141H311.092V165.459H312.172V170.695H303.9V165.459H304.967ZM304.967 169.82H311.092V168.016H304.967V169.82ZM325.68 170.969V171.83H314.592V170.969H319.609V169.547H316V165.527H324.299V166.389H317.053V168.672H324.381V169.547H320.648V170.969H325.68ZM320.129 172.719C322.74 172.719 324.299 173.512 324.313 174.906C324.299 176.314 322.74 177.094 320.129 177.107C317.504 177.094 315.932 176.314 315.932 174.906C315.932 173.512 317.504 172.719 320.129 172.719ZM320.129 173.566C318.174 173.566 317.012 174.072 317.025 174.906C317.012 175.754 318.174 176.246 320.129 176.246C322.057 176.246 323.232 175.754 323.232 174.906C323.232 174.072 322.057 173.566 320.129 173.566ZM330.779 167.25C330.766 168.918 332.037 170.463 333.828 171.092L333.281 171.953C331.9 171.454 330.827 170.422 330.287 169.123C329.774 170.579 328.674 171.7 327.238 172.254L326.65 171.393C328.496 170.736 329.713 169.096 329.727 167.209V165.705H330.779V167.25ZM336.193 164.953V168.686H338.025V169.602H336.193V173.936H335.127V164.953H336.193ZM336.754 175.945V176.848H328.605V173.074H329.699V175.945H336.754ZM348.867 164.953V172.199H347.787V169.014H345.34V168.125H347.787V164.953H348.867ZM344.834 172.582C347.363 172.582 348.908 173.402 348.908 174.838C348.908 176.273 347.363 177.094 344.834 177.107C342.305 177.094 340.76 176.273 340.76 174.838C340.76 173.402 342.305 172.582 344.834 172.582ZM344.834 173.416C342.975 173.416 341.813 173.949 341.826 174.838C341.813 175.713 342.975 176.246 344.834 176.246C346.693 176.246 347.842 175.713 347.842 174.838C347.842 173.949 346.693 173.416 344.834 173.416ZM343.016 167.182C343.016 168.768 344.232 170.271 346.01 170.887L345.449 171.748C344.082 171.256 343.022 170.237 342.51 168.973C341.977 170.401 340.849 171.543 339.406 172.09L338.846 171.229C340.65 170.572 341.936 168.932 341.936 167.195V166.744H339.188V165.842H345.736V166.744H343.016V167.182ZM362.02 174.66V175.549H350.891V174.66H355.895V172.035H352.203V165.814H353.283V168.016H359.6V165.814H360.652V172.035H356.947V174.66H362.02ZM353.283 171.16H359.6V168.891H353.283V171.16Z" fill="#212121"/>
<path d="M490.98 163.736V164.639H479.893V163.736H490.98ZM489.682 161.699V162.574H481.301V158.445H489.6V159.348H482.354V161.699H489.682ZM485.43 165.705C488.041 165.705 489.6 166.498 489.613 167.893C489.6 169.301 488.041 170.08 485.43 170.08C482.805 170.08 481.232 169.301 481.232 167.893C481.232 166.498 482.805 165.705 485.43 165.705ZM485.43 166.539C483.475 166.553 482.312 167.045 482.326 167.893C482.312 168.754 483.475 169.232 485.43 169.232C487.357 169.232 488.533 168.754 488.533 167.893C488.533 167.045 487.357 166.553 485.43 166.539ZM502.041 157.953V170.107H500.961V157.953H502.041ZM498.445 159.279C498.432 162.779 496.805 165.869 492.73 167.824L492.143 166.949C495.431 165.391 497.105 163.06 497.352 160.154H492.703V159.279H498.445ZM484.958 179.172V180.047H479.886V184.107H478.833V180.047H473.829V179.172H484.958ZM476.317 172.459V174.141H482.442V172.459H483.522V177.695H475.251V172.459H476.317ZM476.317 176.82H482.442V175.016H476.317V176.82ZM497.03 177.736V178.639H485.942V177.736H497.03ZM495.731 175.699V176.574H487.351V172.445H495.649V173.348H488.403V175.699H495.731ZM491.479 179.705C494.091 179.705 495.649 180.498 495.663 181.893C495.649 183.301 494.091 184.08 491.479 184.08C488.854 184.08 487.282 183.301 487.282 181.893C487.282 180.498 488.854 179.705 491.479 179.705ZM491.479 180.539C489.524 180.553 488.362 181.045 488.376 181.893C488.362 182.754 489.524 183.232 491.479 183.232C493.407 183.232 494.583 182.754 494.583 181.893C494.583 181.045 493.407 180.553 491.479 180.539ZM500.585 172.445V173.99H506.601V172.445H507.667V177.299H504.112V178.598H509.116V179.486H498.042V178.598H503.046V177.299H499.519V172.445H500.585ZM500.585 176.437H506.601V174.838H500.585V176.437ZM507.886 182.945V183.848H499.478V180.457H500.558V182.945H507.886Z" fill="#212121"/>
<line x1="94" y1="200.5" x2="525" y2="200.5" stroke="#CCCCCC" stroke-dasharray="2 2"/>
<rect x="106.5" y="343.5" width="15" height="15" rx="2.5" fill="white" stroke="#CCCCCC"/>
<line x1="94" y1="140.5" x2="525" y2="140.5" stroke="#CCCCCC"/>
<rect x="106.5" y="283.5" width="15" height="15" rx="2.5" fill="white" stroke="#CCCCCC"/>
<rect x="106.5" y="402.5" width="15" height="15" rx="2.5" fill="white" stroke="#CCCCCC"/>
<line x1="94" y1="260.5" x2="525" y2="260.5" stroke="#CCCCCC" stroke-dasharray="2 2"/>
<rect x="106.5" y="223.5" width="15" height="15" rx="2.5" fill="white" stroke="#CCCCCC"/>
<rect x="106.5" y="163.5" width="15" height="15" rx="2.5" fill="white" stroke="#CCCCCC"/>
<line x1="94" y1="320.5" x2="525" y2="320.5" stroke="#CCCCCC" stroke-dasharray="2 2"/>
<line x1="94" y1="379.5" x2="525" y2="379.5" stroke="#CCCCCC" stroke-dasharray="2 2"/>
<rect x="476" y="283" width="32" height="15" rx="2" fill="#E31B53"/>
<path d="M122.699 114.355V116.074H115.668V121.738H113.52V116.074H106.566V114.355H122.699ZM110.668 104.785V106.953H118.559V104.785H120.746V112.52H108.52V104.785H110.668ZM110.668 110.762H118.559V108.672H110.668V110.762ZM139.984 112.539V114.277H123.871V112.539H130.863V110.859H125.844V104.883H138.031V106.582H128.012V109.141H138.129V110.859H132.992V112.539H139.984ZM131.898 115.293C135.707 115.293 137.992 116.445 138.012 118.516C137.992 120.566 135.707 121.738 131.898 121.738C128.051 121.738 125.746 120.566 125.746 118.516C125.746 116.445 128.051 115.293 131.898 115.293ZM131.898 116.953C129.32 116.953 127.934 117.5 127.953 118.516C127.934 119.531 129.32 120.059 131.898 120.059C134.418 120.059 135.824 119.531 135.844 118.516C135.824 117.5 134.418 116.953 131.898 116.953ZM147.484 107.207C147.465 109.531 148.93 111.738 151.703 112.637L150.57 114.355C148.607 113.691 147.221 112.363 146.449 110.664C145.658 112.539 144.203 114.004 142.152 114.727L140.941 113.008C143.852 112.07 145.297 109.688 145.297 107.188V105.176H147.484V107.207ZM155.082 104.082V109.297H157.543V111.133H155.082V117.051H152.914V104.082H155.082ZM155.785 119.629V121.387H143.773V115.781H146V119.629H155.785ZM179.301 112.266V114.043H163.188V112.266H179.301ZM177.445 109.141V110.879H165.16V104.648H177.348V106.406H167.328V109.141H177.445ZM171.215 115.273C175.023 115.254 177.309 116.426 177.328 118.477C177.309 120.547 175.023 121.719 171.215 121.719C167.367 121.719 165.062 120.547 165.062 118.477C165.062 116.426 167.367 115.254 171.215 115.273ZM171.215 116.934C168.637 116.934 167.25 117.48 167.27 118.477C167.25 119.512 168.637 120.039 171.215 120.039C173.734 120.039 175.141 119.512 175.16 118.477C175.141 117.48 173.734 116.934 171.215 116.934ZM195.219 104.082V121.738H193.031V104.082H195.219ZM189.945 105.957C189.945 111.211 187.914 115.684 181.723 118.613L180.59 116.875C185.209 114.678 187.357 111.689 187.738 107.676H181.488V105.957H189.945ZM212.367 105.391V106.445C212.348 107.656 212.348 109.395 211.938 111.641L209.789 111.445C210.131 109.619 210.199 108.271 210.238 107.188H203.363V105.391H212.367ZM207.914 109.414V112.93C209.74 112.861 211.615 112.725 213.324 112.48L213.441 114.043C209.77 114.707 205.609 114.766 202.504 114.785L202.309 113.047C203.354 113.037 204.525 113.027 205.766 113.008V109.414H207.914ZM216.586 104.082V109.59H218.871V111.406H216.586V117.305H214.359V104.082H216.586ZM217.152 119.629V121.387H204.945V116.133H207.133V119.629H217.152ZM234.496 104.082V121.758H232.348V104.082H234.496ZM229.066 105.625V112.246H222.992V115.801C225.775 115.781 228.178 115.645 230.922 115.176L231.117 116.953C228.109 117.48 225.473 117.578 222.309 117.578H220.766V110.527H226.859V107.383H220.746V105.625H229.066Z" fill="black"/>
<rect x="106" y="223" width="16" height="16" rx="2" fill="#5984FF"/>
<g clip-path="url(#clip1_53_418)">
<path d="M107 224H121V238H107V224Z" fill="#2961FF"/>
<path d="M109.917 231L112.833 233.917L118.667 228.083" stroke="white" stroke-width="1.47" stroke-linecap="round" stroke-linejoin="round"/>
</g>
<rect x="106" y="283" width="16" height="16" rx="2" fill="#5984FF"/>
<g clip-path="url(#clip2_53_418)">
<path d="M107 284H121V298H107V284Z" fill="#2961FF"/>
<path d="M109.917 291L112.833 293.917L118.667 288.083" stroke="white" stroke-width="1.47" stroke-linecap="round" stroke-linejoin="round"/>
</g>
<rect x="106" y="343" width="16" height="16" rx="2" fill="#5984FF"/>
<g clip-path="url(#clip3_53_418)">
<path d="M107 344H121V358H107V344Z" fill="#2961FF"/>
<path d="M109.917 351L112.833 353.917L118.667 348.083" stroke="white" stroke-width="1.47" stroke-linecap="round" stroke-linejoin="round"/>
</g>
<rect x="106" y="402" width="16" height="16" rx="2" fill="#5984FF"/>
<g clip-path="url(#clip4_53_418)">
<path d="M107 403H121V417H107V403Z" fill="#2961FF"/>
<path d="M109.917 410L112.833 412.917L118.667 407.083" stroke="white" stroke-width="1.47" stroke-linecap="round" stroke-linejoin="round"/>
</g>
<rect x="476" y="343" width="32" height="15" rx="2" fill="#E31B53"/>
<path d="M482.72 294V286.223H485.642C487.425 286.223 488.381 287.308 488.381 288.801C488.381 290.294 487.414 291.368 485.62 291.368H484.116V294H482.72ZM484.116 290.219H485.427C486.479 290.219 486.952 289.628 486.952 288.801C486.952 287.963 486.479 287.394 485.427 287.394H484.116V290.219ZM492.151 294H489.509V286.223H492.194C494.515 286.223 495.922 287.684 495.922 290.101C495.922 292.528 494.515 294 492.151 294ZM490.905 292.786H492.076C493.698 292.786 494.525 291.895 494.525 290.101C494.525 288.317 493.698 287.437 492.119 287.437H490.905V292.786ZM497.157 294V286.223H502.142V287.394H498.554V289.521H501.798V290.691H498.554V294H497.157Z" fill="white"/>
<path d="M482.72 354V346.223H485.642C487.425 346.223 488.381 347.308 488.381 348.801C488.381 350.294 487.414 351.368 485.62 351.368H484.116V354H482.72ZM484.116 350.219H485.427C486.479 350.219 486.952 349.628 486.952 348.801C486.952 347.963 486.479 347.394 485.427 347.394H484.116V350.219ZM492.151 354H489.509V346.223H492.194C494.515 346.223 495.922 347.684 495.922 350.101C495.922 352.528 494.515 354 492.151 354ZM490.905 352.786H492.076C493.698 352.786 494.525 351.895 494.525 350.101C494.525 348.317 493.698 347.437 492.119 347.437H490.905V352.786ZM497.157 354V346.223H502.142V347.394H498.554V349.521H501.798V350.691H498.554V354H497.157Z" fill="white"/>
<rect x="476" y="223" width="32" height="15" rx="2" fill="#E31B53"/>
<rect x="476" y="402" width="32" height="15" rx="2" fill="#E31B53"/>
<path d="M482.72 234V226.223H485.642C487.425 226.223 488.381 227.308 488.381 228.801C488.381 230.294 487.414 231.368 485.62 231.368H484.116V234H482.72ZM484.116 230.219H485.427C486.479 230.219 486.952 229.628 486.952 228.801C486.952 227.963 486.479 227.394 485.427 227.394H484.116V230.219ZM492.151 234H489.509V226.223H492.194C494.515 226.223 495.922 227.684 495.922 230.101C495.922 232.528 494.515 234 492.151 234ZM490.905 232.786H492.076C493.698 232.786 494.525 231.895 494.525 230.101C494.525 228.317 493.698 227.437 492.119 227.437H490.905V232.786ZM497.157 234V226.223H502.142V227.394H498.554V229.521H501.798V230.691H498.554V234H497.157Z" fill="white"/>
<path d="M482.72 413V405.223H485.642C487.425 405.223 488.381 406.308 488.381 407.801C488.381 409.294 487.414 410.368 485.62 410.368H484.116V413H482.72ZM484.116 409.219H485.427C486.479 409.219 486.952 408.628 486.952 407.801C486.952 406.963 486.479 406.394 485.427 406.394H484.116V409.219ZM492.151 413H489.509V405.223H492.194C494.515 405.223 495.922 406.684 495.922 409.101C495.922 411.528 494.515 413 492.151 413ZM490.905 411.786H492.076C493.698 411.786 494.525 410.895 494.525 409.101C494.525 407.317 493.698 406.437 492.119 406.437H490.905V411.786ZM497.157 413V405.223H502.142V406.394H498.554V408.521H501.798V409.691H498.554V413H497.157Z" fill="white"/>
<rect x="420" y="98" width="104" height="30" rx="3.37037" fill="#192534"/>
<path d="M450.025 107.734V114.896V107.734Z" fill="white"/>
<path d="M446.234 117.424H453.817M446.655 111.947L450.025 114.896M450.025 114.896L453.396 111.947M450.025 114.896V107.734" stroke="white" stroke-width="1.21333" stroke-linecap="round" stroke-linejoin="round"/>
<path d="M467.926 108.157V112.155H469.584V113.053H467.926V118.502H466.831V108.157H467.926ZM465.149 109.148V110.035H461.417V115.023C463.151 115.017 464.452 114.943 465.921 114.678L466.059 115.599C464.447 115.887 463.076 115.945 461.152 115.933H460.323V109.148H465.149ZM479.515 113.33V114.217H475.425V116.221H474.319V114.217H470.068V113.33H479.515ZM478.466 117.362V118.26H471.255V115.231H472.349V117.362H478.466ZM474.78 108.399C477.003 108.399 478.443 109.206 478.443 110.496C478.443 111.786 477.003 112.581 474.78 112.581C472.568 112.581 471.105 111.786 471.105 110.496C471.105 109.206 472.568 108.399 474.78 108.399ZM474.78 109.275C473.271 109.275 472.269 109.736 472.28 110.496C472.269 111.245 473.271 111.694 474.78 111.694C476.301 111.694 477.291 111.245 477.291 110.496C477.291 109.736 476.301 109.275 474.78 109.275ZM489.721 116.325V117.247H480.275V116.325H484.434V114.516H481.427V111.233H487.486V109.782H481.404V108.883H488.569V112.109H482.51V113.618H488.811V114.516H485.516V116.325H489.721ZM498.833 113.053V113.952H491.645V109.079H498.741V109.978H492.728V113.053H498.833ZM499.916 116.21V117.12H490.47V116.21H499.916Z" fill="white"/>
</g>
<defs>
<filter id="filter0_d_53_418" x="54" y="48" width="511" height="413" filterUnits="userSpaceOnUse" color-interpolation-filters="sRGB">
<feFlood flood-opacity="0" result="BackgroundImageFix"/>
<feColorMatrix in="SourceAlpha" type="matrix" values="0 0 0 0 0 0 0 0 0 0 0 0 0 0 0 0 0 0 127 0" result="hardAlpha"/>
<feOffset dy="4"/>
<feGaussianBlur stdDeviation="7"/>
<feComposite in2="hardAlpha" operator="out"/>
<feColorMatrix type="matrix" values="0 0 0 0 0 0 0 0 0 0 0 0 0 0 0 0 0 0 0.04 0"/>
<feBlend mode="normal" in2="BackgroundImageFix" result="effect1_dropShadow_53_418"/>
<feBlend mode="normal" in="SourceGraphic" in2="effect1_dropShadow_53_418" result="shape"/>
</filter>
<clipPath id="clip0_53_418">
<rect width="620" height="500" rx="15" fill="white"/>
</clipPath>
<clipPath id="clip1_53_418">
<rect width="14" height="14" fill="white" transform="translate(107 224)"/>
</clipPath>
<clipPath id="clip2_53_418">
<rect width="14" height="14" fill="white" transform="translate(107 284)"/>
</clipPath>
<clipPath id="clip3_53_418">
<rect width="14" height="14" fill="white" transform="translate(107 344)"/>
</clipPath>
<clipPath id="clip4_53_418">
<rect width="14" height="14" fill="white" transform="translate(107 403)"/>
</clipPath>
</defs>
</svg>
