<svg width="620" height="500" viewBox="0 0 620 500" fill="none" xmlns="http://www.w3.org/2000/svg">
<g clip-path="url(#clip0_1_2)">
<rect width="620" height="500" rx="15" fill="#EEF8FD"/>
<rect width="620" height="500" rx="15" fill="white"/>
<g filter="url(#filter0_d_1_2)">
<path d="M68 68C68 62.4772 72.4772 58 78 58H541C546.523 58 551 62.4772 551 68V134C551 139.523 546.523 144 541 144H78C72.4771 144 68 139.523 68 134V68Z" fill="white"/>
<path d="M68.5 68C68.5 62.7533 72.7533 58.5 78 58.5H541C546.247 58.5 550.5 62.7533 550.5 68V134C550.5 139.247 546.247 143.5 541 143.5H78C72.7533 143.5 68.5 139.247 68.5 134V68Z" stroke="black" stroke-opacity="0.2"/>
</g>
<g filter="url(#filter1_d_1_2)">
<path d="M68 167C68 161.477 72.4772 157 78 157H541C546.523 157 551 161.477 551 167V433C551 438.523 546.523 443 541 443H78C72.4771 443 68 438.523 68 433V167Z" fill="white"/>
<path d="M68.5 167C68.5 161.753 72.7533 157.5 78 157.5H541C546.247 157.5 550.5 161.753 550.5 167V433C550.5 438.247 546.247 442.5 541 442.5H78C72.7533 442.5 68.5 438.247 68.5 433V167Z" stroke="black" stroke-opacity="0.2"/>
</g>
<path d="M158.867 256.963C158.867 258.549 160.193 259.957 161.998 260.504L161.451 261.352C160.029 260.9 158.888 259.923 158.334 258.672C157.801 260.012 156.652 261.058 155.203 261.557L154.643 260.709C156.475 260.135 157.787 258.631 157.787 256.963V256.648H154.943V255.773H161.67V256.648H158.867V256.963ZM164.527 254.953V261.529H163.461V254.953H164.527ZM157.719 262.131V263.607H163.461V262.131H164.527V266.943H156.652V262.131H157.719ZM157.719 266.068H163.461V264.469H157.719V266.068ZM176.094 254.953V258.07H177.926V258.986H176.094V262.021H175.027V254.953H176.094ZM169.477 262.555V263.854H175.027V262.555H176.094V266.943H168.41V262.555H169.477ZM169.477 266.082H175.027V264.701H169.477V266.082ZM173.865 256.211V257.1H166.619V256.211H169.709V254.844H170.775V256.211H173.865ZM170.242 257.66C171.992 257.66 173.154 258.494 173.168 259.793C173.154 261.092 171.992 261.926 170.242 261.926C168.479 261.926 167.303 261.092 167.316 259.793C167.303 258.494 168.479 257.66 170.242 257.66ZM170.242 258.494C169.094 258.48 168.328 259.014 168.342 259.793C168.328 260.586 169.094 261.105 170.242 261.105C171.377 261.105 172.143 260.586 172.156 259.793C172.143 259.014 171.377 258.48 170.242 258.494ZM188.768 254.967V263.949H187.688V259.615H184.994V258.713H187.688V254.967H188.768ZM185.049 255.896C185.035 259.014 182.807 261.393 179.348 262.527L178.883 261.666C181.686 260.743 183.634 259 183.873 256.799H179.498V255.896H185.049ZM189.082 265.945V266.848H181.029V263.033H182.123V265.945H189.082ZM201.865 260.094V260.969H196.848V262.172H200.443V264.893H193.225V266.123H200.813V266.971H192.158V264.086H199.391V263.006H192.131V262.172H195.781V260.969H190.791V260.094H201.865ZM200.43 255.363V259.068H192.227V255.363H200.43ZM193.293 256.225V258.207H199.363V256.225H193.293Z" fill="#212121"/>
<path d="M164.568 314.967V323.949H163.488V319.615H160.795V318.713H163.488V314.967H164.568ZM160.85 315.896C160.836 319.014 158.607 321.393 155.148 322.527L154.684 321.666C157.486 320.743 159.435 319 159.674 316.799H155.299V315.896H160.85ZM164.883 325.945V326.848H156.83V323.033H157.924V325.945H164.883ZM177.666 320.094V320.969H172.648V322.172H176.244V324.893H169.025V326.123H176.613V326.971H167.959V324.086H175.191V323.006H167.932V322.172H171.582V320.969H166.592V320.094H177.666ZM176.23 315.363V319.068H168.027V315.363H176.23ZM169.094 316.225V318.207H175.164V316.225H169.094Z" fill="#212121"/>
<path d="M158.867 376.963C158.867 378.549 160.193 379.957 161.998 380.504L161.451 381.352C160.029 380.9 158.888 379.923 158.334 378.672C157.801 380.012 156.652 381.058 155.203 381.557L154.643 380.709C156.475 380.135 157.787 378.631 157.787 376.963V376.648H154.943V375.773H161.67V376.648H158.867V376.963ZM164.527 374.953V381.529H163.461V374.953H164.527ZM157.719 382.131V383.607H163.461V382.131H164.527V386.943H156.652V382.131H157.719ZM157.719 386.068H163.461V384.469H157.719V386.068ZM176.094 374.953V378.07H177.926V378.986H176.094V382.021H175.027V374.953H176.094ZM169.477 382.555V383.854H175.027V382.555H176.094V386.943H168.41V382.555H169.477ZM169.477 386.082H175.027V384.701H169.477V386.082ZM173.865 376.211V377.1H166.619V376.211H169.709V374.844H170.775V376.211H173.865ZM170.242 377.66C171.992 377.66 173.154 378.494 173.168 379.793C173.154 381.092 171.992 381.926 170.242 381.926C168.479 381.926 167.303 381.092 167.316 379.793C167.303 378.494 168.479 377.66 170.242 377.66ZM170.242 378.494C169.094 378.48 168.328 379.014 168.342 379.793C168.328 380.586 169.094 381.105 170.242 381.105C171.377 381.105 172.143 380.586 172.156 379.793C172.143 379.014 171.377 378.48 170.242 378.494ZM188.768 374.967V383.949H187.688V379.615H184.994V378.713H187.688V374.967H188.768ZM185.049 375.896C185.035 379.014 182.807 381.393 179.348 382.527L178.883 381.666C181.686 380.743 183.634 379 183.873 376.799H179.498V375.896H185.049ZM189.082 385.945V386.848H181.029V383.033H182.123V385.945H189.082ZM201.865 380.094V380.969H196.848V382.172H200.443V384.893H193.225V386.123H200.813V386.971H192.158V384.086H199.391V383.006H192.131V382.172H195.781V380.969H190.791V380.094H201.865ZM200.43 375.363V379.068H192.227V375.363H200.43ZM193.293 376.225V378.207H199.363V376.225H193.293Z" fill="#212121"/>
<path d="M234.771 258.221C234.771 260.422 236.18 262.637 237.943 263.443L237.301 264.318C235.92 263.607 234.778 262.151 234.238 260.422C233.698 262.24 232.557 263.799 231.176 264.537L230.479 263.676C232.256 262.801 233.678 260.463 233.678 258.221V256.006H234.771V258.221ZM240.568 254.953V267.135H239.502V259.984H236.617V259.109H239.502V254.953H240.568ZM248.129 255.104C250.836 255.104 252.422 255.855 252.422 257.209C252.422 258.576 250.836 259.314 248.129 259.328C245.422 259.314 243.822 258.576 243.822 257.209C243.822 255.855 245.422 255.104 248.129 255.104ZM248.129 255.924C246.105 255.937 244.93 256.402 244.943 257.209C244.93 258.043 246.105 258.494 248.129 258.508C250.139 258.494 251.328 258.043 251.328 257.209C251.328 256.402 250.139 255.937 248.129 255.924ZM253.666 260.135V260.996H248.648V262.145H252.244V264.865H245.025V266.123H252.613V266.971H243.959V264.072H251.191V262.965H243.932V262.145H247.582V260.996H242.592V260.135H253.666ZM265.766 261.393V262.254H254.678V261.393H265.766ZM264.33 263.443V267.107H263.236V264.305H255.922V263.443H264.33ZM264.453 259.383V260.217H256.154V255.281H264.385V256.143H257.234V257.305H264.057V258.139H257.234V259.383H264.453ZM276.854 254.953V261.311H275.787V259.752H272.916V260.818H267.406V255.527H268.473V257.277H271.863V255.527H272.916V256.703H275.787V254.953H276.854ZM276.854 261.898V264.756H270.072V266.082H277.318V266.943H269.006V263.936H275.787V262.76H268.979V261.898H276.854ZM268.473 259.943H271.863V258.125H268.473V259.943ZM272.916 258.904H275.787V257.537H272.916V258.904ZM283.211 258.221C283.197 260.436 284.715 262.678 286.506 263.484L285.85 264.332C284.469 263.655 283.272 262.227 282.691 260.49C282.124 262.329 280.928 263.86 279.506 264.578L278.822 263.676C280.627 262.842 282.131 260.531 282.145 258.221V256.006H283.211V258.221ZM288.912 254.953V267.135H287.832V254.953H288.912ZM305.592 260.736V261.639H294.504V260.736H305.592ZM304.293 258.699V259.574H295.912V255.445H304.211V256.348H296.965V258.699H304.293ZM300.041 262.705C302.652 262.705 304.211 263.498 304.225 264.893C304.211 266.301 302.652 267.08 300.041 267.08C297.416 267.08 295.844 266.301 295.844 264.893C295.844 263.498 297.416 262.705 300.041 262.705ZM300.041 263.539C298.086 263.553 296.924 264.045 296.938 264.893C296.924 265.754 298.086 266.232 300.041 266.232C301.969 266.232 303.145 265.754 303.145 264.893C303.145 264.045 301.969 263.553 300.041 263.539ZM316.652 254.953V267.107H315.572V254.953H316.652ZM313.057 256.279C313.043 259.779 311.416 262.869 307.342 264.824L306.754 263.949C310.042 262.391 311.717 260.06 311.963 257.154H307.314V256.279H313.057ZM328.314 255.746V256.812C328.314 257.968 328.314 259.219 327.973 260.969H329.777V261.857H324.76V267.135H323.68V261.857H318.703V260.969H326.879C327.248 259.219 327.248 257.94 327.248 256.812V256.635H320.098V255.746H328.314ZM345.404 260.736V261.639H334.316V260.736H345.404ZM344.105 258.699V259.574H335.725V255.445H344.023V256.348H336.777V258.699H344.105ZM339.854 262.705C342.465 262.705 344.023 263.498 344.037 264.893C344.023 266.301 342.465 267.08 339.854 267.08C337.229 267.08 335.656 266.301 335.656 264.893C335.656 263.498 337.229 262.705 339.854 262.705ZM339.854 263.539C337.898 263.553 336.736 264.045 336.75 264.893C336.736 265.754 337.898 266.232 339.854 266.232C341.781 266.232 342.957 265.754 342.957 264.893C342.957 264.045 341.781 263.553 339.854 263.539ZM356.465 254.953V267.107H355.385V254.953H356.465ZM352.869 256.279C352.855 259.779 351.229 262.869 347.154 264.824L346.566 263.949C349.855 262.391 351.529 260.06 351.775 257.154H347.127V256.279H352.869ZM368.92 254.953V267.107H367.881V254.953H368.92ZM366.432 255.254V266.479H365.406V260.504H362.754V259.602H365.406V255.254H366.432ZM363.574 256.457V257.346H360.033V263.279C361.783 263.272 362.891 263.197 364.203 262.91L364.313 263.826C362.904 264.113 361.715 264.168 359.76 264.182H358.994V256.457H363.574ZM380.637 254.953V267.135H379.557V254.953H380.637ZM374.17 255.896C375.975 255.91 377.273 257.551 377.273 260.135C377.273 262.719 375.975 264.359 374.17 264.359C372.352 264.359 371.066 262.719 371.066 260.135C371.066 257.551 372.352 255.91 374.17 255.896ZM374.17 256.854C372.953 256.867 372.105 258.152 372.105 260.135C372.105 262.117 372.953 263.402 374.17 263.402C375.387 263.402 376.234 262.117 376.234 260.135C376.234 258.152 375.387 256.867 374.17 256.854ZM392.791 254.953V267.135H391.725V260.436H389.154V259.547H391.725V254.953H392.791ZM388.949 256.074V256.963H384.355V259.492H388.416V260.367H384.355V263.307C386.591 263.307 388.013 263.231 389.688 262.937L389.811 263.826C388.047 264.113 386.557 264.195 384.205 264.195H383.275V256.074H388.949ZM405.943 264.701V265.604H394.814V264.701H399.818V262.404H396.209V258.658H403.482V256.744H396.182V255.855H404.535V259.533H397.275V261.516H404.822V262.404H400.871V264.701H405.943ZM414.365 256.102V266H413.121V257.387H413.066L410.66 258.986V257.742L413.121 256.102H414.365ZM417.004 266L416.99 265.098L420.367 261.543C421.543 260.299 422.104 259.629 422.104 258.713C422.104 257.701 421.242 257.031 420.135 257.031C418.959 257.031 418.207 257.783 418.207 258.891H417.045C417.031 257.141 418.385 255.965 420.176 255.965C421.967 255.965 423.252 257.168 423.252 258.713C423.252 259.82 422.732 260.682 420.982 262.486L418.713 264.824V264.906H423.43V266H417.004ZM428.639 266.137C426.67 266.137 425.262 265.084 425.193 263.512H426.438C426.506 264.455 427.449 265.043 428.625 265.043C429.924 265.043 430.881 264.332 430.881 263.307C430.881 262.227 430.02 261.461 428.475 261.461H427.668V260.381H428.475C429.678 260.381 430.512 259.711 430.512 258.686C430.512 257.701 429.787 257.031 428.666 257.031C427.613 257.031 426.643 257.619 426.588 258.59H425.398C425.467 257.018 426.916 255.965 428.68 255.965C430.566 255.965 431.715 257.195 431.701 258.617C431.715 259.738 431.059 260.572 430.02 260.859V260.928C431.305 261.133 432.098 262.049 432.084 263.307C432.098 264.934 430.607 266.137 428.639 266.137ZM443.459 254.953V261.174H442.393V254.953H443.459ZM439.822 255.555C439.822 258.658 437.621 260.6 434.025 261.434L433.629 260.531C436.671 259.854 438.455 258.398 438.647 256.443H434.244V255.555H439.822ZM443.459 261.748V264.687H436.65V266.137H443.897V266.998H435.584V263.867H442.393V262.609H435.557V261.748H443.459Z" fill="#212121"/>
<path d="M240.527 314.967V323.854H239.461V314.967H240.527ZM240.91 325.945V326.848H232.68V322.951H233.746V325.945H240.91ZM233.965 315.814C235.783 315.814 237.15 317.045 237.15 318.795C237.15 320.572 235.783 321.789 233.965 321.789C232.146 321.789 230.779 320.572 230.779 318.795C230.779 317.045 232.146 315.814 233.965 315.814ZM233.965 316.758C232.734 316.758 231.818 317.605 231.832 318.795C231.818 320.012 232.734 320.846 233.965 320.846C235.168 320.846 236.098 320.012 236.098 318.795C236.098 317.605 235.168 316.758 233.965 316.758ZM246.734 317.865C246.734 319.479 248.02 320.9 249.824 321.461L249.291 322.322C247.883 321.864 246.775 320.9 246.229 319.656C245.702 320.989 244.602 322.021 243.166 322.527L242.633 321.693C244.424 321.092 245.682 319.574 245.682 317.865V317.469H242.934V316.594H245.682V315.035H246.762V316.594H249.482V317.469H246.734V317.865ZM252.668 314.967V324.045H251.588V319.602H249.059V318.713H251.588V314.967H252.668ZM253.01 325.945V326.848H244.861V323.225H245.941V325.945H253.01ZM261.432 315.719V316.375C261.418 317.141 261.418 318.234 261.104 319.67L260.037 319.574C260.317 318.289 260.352 317.353 260.352 316.621H255.375V315.719H261.432ZM258.301 318.357V320.736C259.654 320.695 261.042 320.6 262.307 320.436L262.375 321.229C259.832 321.639 256.92 321.707 254.732 321.707L254.623 320.805C255.416 320.805 256.305 320.798 257.234 320.777V318.357H258.301ZM264.221 314.953V318.289H265.998V319.191H264.221V322.555H263.127V314.953H264.221ZM260.27 322.705C262.785 322.705 264.316 323.512 264.316 324.865C264.316 326.273 262.785 327.066 260.27 327.066C257.754 327.066 256.223 326.273 256.223 324.865C256.223 323.512 257.754 322.705 260.27 322.705ZM260.27 323.539C258.438 323.539 257.289 324.045 257.303 324.865C257.289 325.727 258.438 326.219 260.27 326.219C262.102 326.219 263.236 325.727 263.236 324.865C263.236 324.045 262.102 323.539 260.27 323.539ZM276.867 322.787V327.107H275.787V323.648H268.691V322.787H276.867ZM276.867 314.953V322.117H275.787V320.367H272.656C272.089 321.058 271.193 321.468 270.141 321.461C268.322 321.475 266.982 320.271 266.982 318.549C266.982 316.854 268.322 315.65 270.141 315.65C271.187 315.65 272.082 316.061 272.656 316.744H275.787V314.953H276.867ZM270.141 316.566C268.896 316.566 268.008 317.4 268.008 318.549C268.008 319.738 268.896 320.559 270.141 320.559C271.33 320.559 272.246 319.738 272.246 318.549C272.246 317.4 271.33 316.566 270.141 316.566ZM273.135 319.479H275.787V317.633H273.135C273.23 317.92 273.285 318.221 273.285 318.549C273.285 318.877 273.23 319.191 273.135 319.479ZM283.211 318.221C283.197 320.436 284.715 322.678 286.506 323.484L285.85 324.332C284.469 323.655 283.272 322.227 282.691 320.49C282.124 322.329 280.928 323.86 279.506 324.578L278.822 323.676C280.627 322.842 282.131 320.531 282.145 318.221V316.006H283.211V318.221ZM288.912 314.953V327.135H287.832V314.953H288.912ZM304.908 314.953V327.107H303.869V314.953H304.908ZM302.42 315.254V326.479H301.395V320.504H298.742V319.602H301.395V315.254H302.42ZM299.563 316.457V317.346H296.021V323.279C297.771 323.272 298.879 323.197 300.191 322.91L300.301 323.826C298.893 324.113 297.703 324.168 295.748 324.182H294.982V316.457H299.563ZM316.625 314.953V327.135H315.545V314.953H316.625ZM310.158 315.896C311.963 315.91 313.262 317.551 313.262 320.135C313.262 322.719 311.963 324.359 310.158 324.359C308.34 324.359 307.055 322.719 307.055 320.135C307.055 317.551 308.34 315.91 310.158 315.896ZM310.158 316.854C308.941 316.867 308.094 318.152 308.094 320.135C308.094 322.117 308.941 323.402 310.158 323.402C311.375 323.402 312.223 322.117 312.223 320.135C312.223 318.152 311.375 316.867 310.158 316.854ZM328.779 314.953V327.135H327.713V320.436H325.143V319.547H327.713V314.953H328.779ZM324.938 316.074V316.963H320.344V319.492H324.404V320.367H320.344V323.307C322.579 323.307 324.001 323.231 325.676 322.937L325.799 323.826C324.035 324.113 322.545 324.195 320.193 324.195H319.264V316.074H324.938ZM340.414 315.746V316.812C340.414 317.968 340.414 319.219 340.072 320.969H341.877V321.857H336.859V327.135H335.779V321.857H330.803V320.969H338.979C339.348 319.219 339.348 317.94 339.348 316.812V316.635H332.197V315.746H340.414ZM357.504 320.736V321.639H346.416V320.736H357.504ZM356.205 318.699V319.574H347.824V315.445H356.123V316.348H348.877V318.699H356.205ZM351.953 322.705C354.564 322.705 356.123 323.498 356.137 324.893C356.123 326.301 354.564 327.08 351.953 327.08C349.328 327.08 347.756 326.301 347.756 324.893C347.756 323.498 349.328 322.705 351.953 322.705ZM351.953 323.539C349.998 323.553 348.836 324.045 348.85 324.893C348.836 325.754 349.998 326.232 351.953 326.232C353.881 326.232 355.057 325.754 355.057 324.893C355.057 324.045 353.881 323.553 351.953 323.539ZM368.564 314.953V327.107H367.484V314.953H368.564ZM364.969 316.279C364.955 319.779 363.328 322.869 359.254 324.824L358.666 323.949C361.954 322.391 363.629 320.06 363.875 317.154H359.227V316.279H364.969ZM381.02 314.953V327.107H379.98V314.953H381.02ZM378.531 315.254V326.479H377.506V320.504H374.854V319.602H377.506V315.254H378.531ZM375.674 316.457V317.346H372.133V323.279C373.883 323.272 374.99 323.197 376.303 322.91L376.412 323.826C375.004 324.113 373.814 324.168 371.859 324.182H371.094V316.457H375.674ZM392.736 314.953V327.135H391.656V314.953H392.736ZM386.27 315.896C388.074 315.91 389.373 317.551 389.373 320.135C389.373 322.719 388.074 324.359 386.27 324.359C384.451 324.359 383.166 322.719 383.166 320.135C383.166 317.551 384.451 315.91 386.27 315.896ZM386.27 316.854C385.053 316.867 384.205 318.152 384.205 320.135C384.205 322.117 385.053 323.402 386.27 323.402C387.486 323.402 388.334 322.117 388.334 320.135C388.334 318.152 387.486 316.867 386.27 316.854ZM404.891 314.953V327.135H403.824V320.436H401.254V319.547H403.824V314.953H404.891ZM401.049 316.074V316.963H396.455V319.492H400.516V320.367H396.455V323.307C398.69 323.307 400.112 323.231 401.787 322.937L401.91 323.826C400.147 324.113 398.656 324.195 396.305 324.195H395.375V316.074H401.049ZM418.043 324.701V325.604H406.914V324.701H411.918V322.404H408.309V318.658H415.582V316.744H408.281V315.855H416.635V319.533H409.375V321.516H416.922V322.404H412.971V324.701H418.043ZM426.465 316.102V326H425.221V317.387H425.166L422.76 318.986V317.742L425.221 316.102H426.465ZM429.104 326L429.09 325.098L432.467 321.543C433.643 320.299 434.203 319.629 434.203 318.713C434.203 317.701 433.342 317.031 432.234 317.031C431.059 317.031 430.307 317.783 430.307 318.891H429.145C429.131 317.141 430.484 315.965 432.275 315.965C434.066 315.965 435.352 317.168 435.352 318.713C435.352 319.82 434.832 320.682 433.082 322.486L430.813 324.824V324.906H435.529V326H429.104ZM440.738 326.137C438.77 326.137 437.361 325.084 437.293 323.512H438.537C438.605 324.455 439.549 325.043 440.725 325.043C442.023 325.043 442.98 324.332 442.98 323.307C442.98 322.227 442.119 321.461 440.574 321.461H439.768V320.381H440.574C441.777 320.381 442.611 319.711 442.611 318.686C442.611 317.701 441.887 317.031 440.766 317.031C439.713 317.031 438.742 317.619 438.688 318.59H437.498C437.566 317.018 439.016 315.965 440.779 315.965C442.666 315.965 443.814 317.195 443.801 318.617C443.814 319.738 443.158 320.572 442.119 320.859V320.928C443.404 321.133 444.197 322.049 444.184 323.307C444.197 324.934 442.707 326.137 440.738 326.137Z" fill="#212121"/>
<path d="M240.568 374.967V382.268H239.488V380.627H236.262V379.738H239.488V378.098H236.385C235.585 380.053 233.705 381.468 231.107 382.24L230.656 381.393C233.596 380.518 235.421 378.877 235.646 376.771H231.271V375.869H236.809C236.809 376.348 236.754 376.806 236.658 377.236H239.488V374.967H240.568ZM236.59 382.391C239.051 382.391 240.637 383.266 240.637 384.715C240.637 386.178 239.051 387.053 236.59 387.053C234.102 387.053 232.529 386.178 232.529 384.715C232.529 383.266 234.102 382.391 236.59 382.391ZM236.59 383.252C234.758 383.238 233.582 383.799 233.582 384.715C233.582 385.631 234.758 386.178 236.59 386.178C238.395 386.178 239.557 385.631 239.57 384.715C239.557 383.799 238.395 383.238 236.59 383.252ZM252.641 374.953V387.107H251.561V374.953H252.641ZM249.045 376.279C249.031 379.779 247.404 382.869 243.33 384.824L242.742 383.949C246.03 382.391 247.705 380.06 247.951 377.154H243.303V376.279H249.045ZM264.508 380.654V381.529H260.748V384.674H265.82V385.576H254.691V384.674H259.695V381.529H256.113V375.951H264.385V376.826H257.193V380.654H264.508ZM281.393 380.736V381.639H270.305V380.736H281.393ZM280.094 378.699V379.574H271.713V375.445H280.012V376.348H272.766V378.699H280.094ZM275.842 382.705C278.453 382.705 280.012 383.498 280.025 384.893C280.012 386.301 278.453 387.08 275.842 387.08C273.217 387.08 271.645 386.301 271.645 384.893C271.645 383.498 273.217 382.705 275.842 382.705ZM275.842 383.539C273.887 383.553 272.725 384.045 272.738 384.893C272.725 385.754 273.887 386.232 275.842 386.232C277.77 386.232 278.945 385.754 278.945 384.893C278.945 384.045 277.77 383.553 275.842 383.539ZM292.453 374.953V387.107H291.373V374.953H292.453ZM288.857 376.279C288.844 379.779 287.217 382.869 283.143 384.824L282.555 383.949C285.843 382.391 287.518 380.06 287.764 377.154H283.115V376.279H288.857ZM298.824 378.221C298.811 380.436 300.328 382.678 302.119 383.484L301.463 384.332C300.082 383.655 298.886 382.227 298.305 380.49C297.737 382.329 296.541 383.86 295.119 384.578L294.436 383.676C296.24 382.842 297.744 380.531 297.758 378.221V376.006H298.824V378.221ZM304.525 374.953V387.135H303.445V374.953H304.525ZM321.205 380.736V381.639H310.117V380.736H321.205ZM319.906 378.699V379.574H311.525V375.445H319.824V376.348H312.578V378.699H319.906ZM315.654 382.705C318.266 382.705 319.824 383.498 319.838 384.893C319.824 386.301 318.266 387.08 315.654 387.08C313.029 387.08 311.457 386.301 311.457 384.893C311.457 383.498 313.029 382.705 315.654 382.705ZM315.654 383.539C313.699 383.553 312.537 384.045 312.551 384.893C312.537 385.754 313.699 386.232 315.654 386.232C317.582 386.232 318.758 385.754 318.758 384.893C318.758 384.045 317.582 383.553 315.654 383.539ZM332.266 374.953V387.107H331.186V374.953H332.266ZM328.67 376.279C328.656 379.779 327.029 382.869 322.955 384.824L322.367 383.949C325.655 382.391 327.33 380.06 327.576 377.154H322.928V376.279H328.67ZM344.721 374.953V387.107H343.682V374.953H344.721ZM342.232 375.254V386.479H341.207V380.504H338.555V379.602H341.207V375.254H342.232ZM339.375 376.457V377.346H335.834V383.279C337.584 383.272 338.691 383.197 340.004 382.91L340.113 383.826C338.705 384.113 337.516 384.168 335.561 384.182H334.795V376.457H339.375ZM356.438 374.953V387.135H355.357V374.953H356.438ZM349.971 375.896C351.775 375.91 353.074 377.551 353.074 380.135C353.074 382.719 351.775 384.359 349.971 384.359C348.152 384.359 346.867 382.719 346.867 380.135C346.867 377.551 348.152 375.91 349.971 375.896ZM349.971 376.854C348.754 376.867 347.906 378.152 347.906 380.135C347.906 382.117 348.754 383.402 349.971 383.402C351.188 383.402 352.035 382.117 352.035 380.135C352.035 378.152 351.188 376.867 349.971 376.854ZM368.592 374.953V387.135H367.525V380.436H364.955V379.547H367.525V374.953H368.592ZM364.75 376.074V376.963H360.156V379.492H364.217V380.367H360.156V383.307C362.392 383.307 363.813 383.231 365.488 382.937L365.611 383.826C363.848 384.113 362.357 384.195 360.006 384.195H359.076V376.074H364.75ZM381.744 384.701V385.604H370.615V384.701H375.619V382.404H372.01V378.658H379.283V376.744H371.982V375.855H380.336V379.533H373.076V381.516H380.623V382.404H376.672V384.701H381.744ZM390.166 376.102V386H388.922V377.387H388.867L386.461 378.986V377.742L388.922 376.102H390.166ZM396.1 375.965C397.809 375.979 399.695 377.004 399.695 380.654C399.695 384.168 398.26 386.137 395.936 386.137C394.199 386.137 392.969 385.07 392.723 383.498H393.939C394.158 384.387 394.828 385.043 395.936 385.043C397.549 385.043 398.533 383.648 398.547 381.242H398.41C397.836 382.062 396.934 382.555 395.881 382.555C394.104 382.555 392.641 381.201 392.641 379.287C392.641 377.441 393.994 375.951 396.1 375.965ZM396.1 377.045C394.801 377.045 393.83 378.057 393.844 379.273C393.844 380.504 394.76 381.475 396.059 381.475C397.344 381.475 398.355 380.408 398.355 379.246C398.355 378.111 397.412 377.045 396.1 377.045ZM404.809 386.137C402.84 386.137 401.432 385.084 401.363 383.512H402.607C402.676 384.455 403.619 385.043 404.795 385.043C406.094 385.043 407.051 384.332 407.051 383.307C407.051 382.227 406.189 381.461 404.645 381.461H403.838V380.381H404.645C405.848 380.381 406.682 379.711 406.682 378.686C406.682 377.701 405.957 377.031 404.836 377.031C403.783 377.031 402.813 377.619 402.758 378.59H401.568C401.637 377.018 403.086 375.965 404.85 375.965C406.736 375.965 407.885 377.195 407.871 378.617C407.885 379.738 407.229 380.572 406.189 380.859V380.928C407.475 381.133 408.268 382.049 408.254 383.307C408.268 384.934 406.777 386.137 404.809 386.137Z" fill="#212121"/>
<line x1="94" y1="230.5" x2="525" y2="230.5" stroke="#CCCCCC" stroke-dasharray="2 2"/>
<rect x="106.5" y="253.5" width="15" height="15" rx="2.5" fill="white" stroke="#CCCCCC"/>
<rect x="106.5" y="373.5" width="15" height="15" rx="2.5" fill="white" stroke="#CCCCCC"/>
<line x1="94" y1="290.5" x2="525" y2="290.5" stroke="#CCCCCC" stroke-dasharray="2 2"/>
<rect x="106.5" y="313.5" width="15" height="15" rx="2.5" fill="white" stroke="#CCCCCC"/>
<line x1="94" y1="350.5" x2="525" y2="350.5" stroke="#CCCCCC" stroke-dasharray="2 2"/>
<line x1="94" y1="410.5" x2="525" y2="410.5" stroke="#CCCCCC" stroke-dasharray="2 2"/>
<path d="M117.566 209.256V210.145H106.492V209.256H111.496V207.738H112.549V209.256H117.566ZM112.549 202.926V204.143H116.445V205.018H112.617C112.706 206.364 114.634 207.294 116.91 207.506L116.582 208.34C114.565 208.128 112.768 207.403 112.029 206.18C111.284 207.403 109.479 208.128 107.477 208.34L107.135 207.506C109.411 207.294 111.339 206.364 111.441 205.018H107.641V204.143H111.496V202.926H112.549ZM112.029 211.061C114.668 211.061 116.199 211.771 116.213 213.07C116.199 214.383 114.668 215.08 112.029 215.08C109.391 215.08 107.832 214.383 107.832 213.07C107.832 211.771 109.391 211.061 112.029 211.061ZM112.029 211.867C110.061 211.867 108.912 212.305 108.926 213.07C108.912 213.836 110.061 214.26 112.029 214.246C113.971 214.26 115.133 213.836 115.133 213.07C115.133 212.305 113.971 211.867 112.029 211.867ZM125.961 214.137C123.992 214.137 122.584 213.084 122.516 211.512H123.76C123.828 212.455 124.771 213.043 125.947 213.043C127.246 213.043 128.203 212.332 128.203 211.307C128.203 210.227 127.342 209.461 125.797 209.461H124.99V208.381H125.797C127 208.381 127.834 207.711 127.834 206.686C127.834 205.701 127.109 205.031 125.988 205.031C124.936 205.031 123.965 205.619 123.91 206.59H122.721C122.789 205.018 124.238 203.965 126.002 203.965C127.889 203.965 129.037 205.195 129.023 206.617C129.037 207.738 128.381 208.572 127.342 208.859V208.928C128.627 209.133 129.42 210.049 129.406 211.307C129.42 212.934 127.93 214.137 125.961 214.137ZM140.822 202.967V211.949H139.742V207.615H137.049V206.713H139.742V202.967H140.822ZM137.104 203.896C137.09 207.014 134.861 209.393 131.402 210.527L130.938 209.666C133.74 208.743 135.688 207 135.928 204.799H131.553V203.896H137.104ZM141.137 213.945V214.848H133.084V211.033H134.178V213.945H141.137Z" fill="black"/>
<rect x="106" y="253" width="16" height="16" rx="2" fill="#5984FF"/>
<g clip-path="url(#clip1_1_2)">
<path d="M107 254H121V268H107V254Z" fill="#2961FF"/>
<path d="M109.917 261L112.833 263.917L118.667 258.083" stroke="white" stroke-width="1.47" stroke-linecap="round" stroke-linejoin="round"/>
</g>
<rect x="476" y="253" width="32" height="15" rx="2" fill="#12B76A"/>
<rect x="476" y="313" width="32" height="15" rx="2" fill="#12B76A"/>
<rect x="476" y="373" width="32" height="15" rx="2" fill="#12B76A"/>
<path d="M485.985 258.006C485.985 259.596 486.92 261.271 488.488 261.927L487.833 262.872C486.684 262.373 485.846 261.357 485.4 260.122C484.954 261.454 484.1 262.571 482.967 263.108L482.279 262.174C483.81 261.465 484.766 259.655 484.771 258.006V257.189H482.634V256.201H488.112V257.189H485.985V258.006ZM489.197 264.956V255.245H490.4V264.956H489.197ZM499.714 259.66V260.605H496.835V262.829H500.702V263.807H491.829V262.829H495.653V260.605H492.903V255.965H499.639V256.921H494.096V259.66H499.714Z" fill="white"/>
<path d="M485.985 318.006C485.985 319.596 486.92 321.271 488.488 321.927L487.833 322.872C486.684 322.373 485.846 321.357 485.4 320.122C484.954 321.454 484.1 322.571 482.967 323.108L482.279 322.174C483.81 321.465 484.766 319.655 484.771 318.006V317.189H482.634V316.201H488.112V317.189H485.985V318.006ZM489.197 324.956V315.245H490.4V324.956H489.197ZM499.714 319.66V320.605H496.835V322.829H500.702V323.807H491.829V322.829H495.653V320.605H492.903V315.965H499.639V316.921H494.096V319.66H499.714Z" fill="white"/>
<path d="M485.985 378.006C485.985 379.596 486.92 381.271 488.488 381.927L487.833 382.872C486.684 382.373 485.846 381.357 485.4 380.122C484.954 381.454 484.1 382.571 482.967 383.108L482.279 382.174C483.81 381.465 484.766 379.655 484.771 378.006V377.189H482.634V376.201H488.112V377.189H485.985V378.006ZM489.197 384.956V375.245H490.4V384.956H489.197ZM499.714 379.66V380.605H496.835V382.829H500.702V383.807H491.829V382.829H495.653V380.605H492.903V375.965H499.639V376.921H494.096V379.66H499.714Z" fill="white"/>
<rect x="94.5" y="79.5" width="123" height="43" rx="3.5" fill="white"/>
<rect x="94.5" y="79.5" width="123" height="43" rx="3.5" stroke="#E0E0E0"/>
<path d="M108.99 96.8672C108.99 98.3848 110.18 99.8066 112.066 100.354L111.41 101.365C109.981 100.935 108.901 99.998 108.348 98.7949C107.794 100.08 106.7 101.099 105.23 101.584L104.574 100.559C106.475 99.9707 107.664 98.4805 107.678 96.8672V96.7305H104.93V95.6777H111.684V96.7305H108.99V96.8672ZM114.609 94.9121V101.543H113.311V94.9121H114.609ZM107.869 102.117V103.484H113.324V102.117H114.609V107.012H106.598V102.117H107.869ZM107.869 105.959H113.324V104.51H107.869V105.959ZM126.176 94.9121V97.9883H127.953V99.082H126.176V102.049H124.877V94.9121H126.176ZM119.627 102.555V103.744H124.877V102.555H126.176V107.012H118.342V102.555H119.627ZM119.627 105.973H124.877V104.756H119.627V105.973ZM123.865 96.1152V97.1543H116.564V96.1152H119.572V94.8027H120.871V96.1152H123.865ZM120.215 97.6602C121.979 97.6602 123.182 98.4941 123.182 99.8066C123.182 101.105 121.979 101.967 120.215 101.953C118.424 101.967 117.234 101.105 117.234 99.8066C117.234 98.4941 118.424 97.6602 120.215 97.6602ZM120.215 98.6309C119.176 98.6172 118.479 99.0957 118.492 99.8066C118.479 100.531 119.176 100.996 120.215 100.996C121.254 100.996 121.951 100.531 121.965 99.8066C121.951 99.0957 121.254 98.6172 120.215 98.6309ZM138.863 94.9258V103.949H137.564V99.6973H135.021V98.6172H137.564V94.9258H138.863ZM135.104 95.8418C135.09 99.041 132.889 101.447 129.375 102.582L128.828 101.543C131.556 100.661 133.408 98.9932 133.682 96.9219H129.457V95.8418H135.104ZM139.178 105.85V106.902H130.975V103.02H132.287V105.85H139.178ZM151.92 99.9844V101.023H146.971V102.09H150.512V104.961H143.375V106.041H150.854V107.039H142.104V104.018H149.227V103.088H142.09V102.09H145.672V101.023H140.75V99.9844H151.92ZM150.484 95.3086V99.082H142.186V95.3086H150.484ZM143.457 96.334V98.0566H149.186V96.334H143.457Z" fill="black"/>
<path d="M191 99L196 104L201 99" stroke="black" stroke-width="1.2" stroke-linecap="round" stroke-linejoin="round"/>
<rect x="230.5" y="79.5" width="183" height="43" rx="3.5" fill="white"/>
<rect x="230.5" y="79.5" width="183" height="43" rx="3.5" stroke="#E0E0E0"/>
<path d="M251.635 100.668V101.734H240.451V100.668H251.635ZM250.336 98.5488V99.6016H241.846V95.3496H250.254V96.416H243.131V98.5488H250.336ZM246.029 102.691C248.668 102.691 250.254 103.498 250.254 104.92C250.254 106.342 248.668 107.148 246.029 107.135C243.377 107.148 241.777 106.342 241.777 104.92C241.777 103.498 243.377 102.691 246.029 102.691ZM246.029 103.689C244.156 103.703 243.09 104.141 243.09 104.92C243.09 105.699 244.156 106.137 246.029 106.137C247.875 106.137 248.955 105.699 248.955 104.92C248.955 104.141 247.875 103.703 246.029 103.689ZM262.736 94.9121V107.162H261.424V94.9121H262.736ZM259.086 96.2246C259.086 99.8066 257.555 102.924 253.357 104.934L252.674 103.881C255.935 102.329 257.521 100.121 257.773 97.2637H253.262V96.2246H259.086ZM275.178 94.9121V107.162H273.92V94.9121H275.178ZM272.648 95.1719V106.547H271.418V100.6H268.902V99.5195H271.418V95.1719H272.648ZM269.736 96.375V97.4414H266.359V103.197C267.966 103.184 269.046 103.115 270.311 102.842L270.42 103.936C269.012 104.223 267.809 104.277 265.895 104.277H265.088V96.375H269.736ZM286.895 94.9121V107.189H285.596V94.9121H286.895ZM280.346 95.8281C282.164 95.8281 283.504 97.4961 283.504 100.121C283.504 102.76 282.164 104.428 280.346 104.428C278.5 104.428 277.174 102.76 277.174 100.121C277.174 97.4961 278.5 95.8281 280.346 95.8281ZM280.346 96.9902C279.211 96.9902 278.432 98.1934 278.432 100.121C278.432 102.062 279.211 103.266 280.346 103.266C281.467 103.266 282.246 102.062 282.246 100.121C282.246 98.1934 281.467 96.9902 280.346 96.9902ZM299.063 94.9121V107.189H297.777V100.504H295.344V99.4375H297.777V94.9121H299.063ZM295.139 96.0059V97.0586H290.723V99.4375H294.619V100.477H290.723V103.211C292.773 103.204 294.195 103.156 295.822 102.869L295.959 103.922C294.182 104.209 292.637 104.277 290.367 104.291H289.41V96.0059H295.139ZM312.16 104.605V105.699H300.949V104.605H305.885V102.459H302.316V98.5625H309.508V96.8398H302.289V95.7734H310.793V99.6016H303.602V101.393H311.08V102.459H307.17V104.605H312.16ZM320.65 96.1016V106H319.133V97.6055H319.078L316.713 99.1504V97.7148L319.174 96.1016H320.65ZM323.166 106V104.906L326.598 101.447C327.678 100.312 328.225 99.6836 328.225 98.8223C328.225 97.8516 327.432 97.2227 326.393 97.2227C325.299 97.2227 324.588 97.9199 324.588 98.9727H323.166C323.152 97.168 324.533 95.9648 326.42 95.9648C328.334 95.9648 329.646 97.168 329.66 98.7812C329.646 99.8887 329.127 100.764 327.268 102.596L325.258 104.633V104.715H329.824V106H323.166ZM335.006 106.137C332.955 106.137 331.492 105.029 331.438 103.416H332.969C333.023 104.291 333.885 104.838 334.992 104.838C336.182 104.838 337.057 104.182 337.057 103.225C337.057 102.254 336.236 101.543 334.828 101.543H333.98V100.312H334.828C335.949 100.312 336.742 99.6836 336.742 98.7402C336.742 97.8379 336.072 97.2227 335.02 97.2227C334.021 97.2227 333.146 97.7695 333.105 98.6719H331.656C331.697 97.0586 333.188 95.9648 335.033 95.9648C336.975 95.9648 338.205 97.1953 338.191 98.6582C338.205 99.7793 337.508 100.6 336.441 100.859V100.928C337.795 101.119 338.574 102.021 338.574 103.279C338.574 104.934 337.057 106.137 335.006 106.137ZM349.963 94.9121V101.146H348.664V94.9121H349.963ZM346.285 95.459C346.271 98.6719 344.18 100.572 340.475 101.393L339.996 100.34C343.065 99.6973 344.665 98.3232 344.863 96.5254H340.639V95.459H346.285ZM349.963 101.693V104.77H343.236V106.014H350.373V107.039H341.951V103.799H348.664V102.719H341.91V101.693H349.963Z" fill="#212121"/>
<rect x="426" y="79" width="99" height="44" rx="4" fill="#192534"/>
<path d="M469.781 95.6777C469.781 98.7949 467.648 101.01 464.094 102.008L463.561 100.996C466.384 100.203 468.141 98.6719 468.4 96.7441H464.203V95.6777H469.781ZM473.664 94.9258V101.857H472.365V99.0684H469.836V97.9883H472.365V94.9258H473.664ZM473.664 102.363V106.998H465.652V102.363H473.664ZM466.924 103.402V105.959H472.379V103.402H466.924ZM479.297 97.2227C479.297 98.6035 480.145 99.9844 481.73 100.6L481.033 101.598C479.912 101.146 479.119 100.299 478.682 99.2734C478.224 100.415 477.39 101.399 476.207 101.912L475.496 100.914C477.15 100.189 478.039 98.6035 478.039 97.2227V95.6504H479.297V97.2227ZM485.996 94.9258V102.322H484.766V99.123H483.33V102.254H482.127V95.1309H483.33V98.043H484.766V94.9258H485.996ZM485.996 102.965V107.162H484.711V104.018H477.67V102.965H485.996Z" fill="white"/>
<rect x="426" y="190" width="99" height="30" rx="3.33333" fill="#2961FF"/>
<path d="M458.942 202.14C458.942 203.439 459.842 204.624 461.392 205.114L460.879 205.957C459.717 205.586 458.868 204.817 458.418 203.849C457.974 204.965 457.079 205.848 455.854 206.276L455.296 205.41C456.891 204.886 457.848 203.564 457.86 202.151V201.867H455.615V200.989H461.141V201.867H458.942V202.14ZM463.397 200.26V202.789H464.878V203.678H463.397V206.39H462.314V200.26H463.397ZM460.104 206.64C462.212 206.64 463.488 207.335 463.488 208.532C463.488 209.739 462.212 210.457 460.104 210.446C457.974 210.457 456.675 209.739 456.675 208.532C456.675 207.335 457.974 206.64 460.104 206.64ZM460.104 207.495C458.623 207.495 457.746 207.871 457.757 208.532C457.746 209.215 458.623 209.591 460.104 209.591C461.574 209.591 462.428 209.215 462.428 208.532C462.428 207.871 461.574 207.495 460.104 207.495ZM473.411 200.26V204.214H475.052V205.125H473.411V210.468H472.329V200.26H473.411ZM466.917 201.115V203.735H469.618V201.115H470.688V208.042H465.846V201.115H466.917ZM466.917 207.153H469.618V204.59H466.917V207.153ZM483.665 200.898V201.798C483.665 202.767 483.665 203.815 483.381 205.273H484.85V206.162H480.715V210.48H479.621V206.162H475.542V205.273H482.287C482.594 203.82 482.594 202.75 482.594 201.798V201.787H476.681V200.898H483.665ZM494.102 200.26V210.468H493.019V200.26H494.102ZM487.323 201.251V206.937C488.809 206.925 490.376 206.806 492.017 206.469L492.165 207.381C490.353 207.745 488.713 207.871 487.106 207.871H486.252V201.251H487.323Z" fill="white"/>
</g>
<defs>
<filter id="filter0_d_1_2" x="54" y="48" width="511" height="114" filterUnits="userSpaceOnUse" color-interpolation-filters="sRGB">
<feFlood flood-opacity="0" result="BackgroundImageFix"/>
<feColorMatrix in="SourceAlpha" type="matrix" values="0 0 0 0 0 0 0 0 0 0 0 0 0 0 0 0 0 0 127 0" result="hardAlpha"/>
<feOffset dy="4"/>
<feGaussianBlur stdDeviation="7"/>
<feComposite in2="hardAlpha" operator="out"/>
<feColorMatrix type="matrix" values="0 0 0 0 0 0 0 0 0 0 0 0 0 0 0 0 0 0 0.04 0"/>
<feBlend mode="normal" in2="BackgroundImageFix" result="effect1_dropShadow_1_2"/>
<feBlend mode="normal" in="SourceGraphic" in2="effect1_dropShadow_1_2" result="shape"/>
</filter>
<filter id="filter1_d_1_2" x="54" y="147" width="511" height="314" filterUnits="userSpaceOnUse" color-interpolation-filters="sRGB">
<feFlood flood-opacity="0" result="BackgroundImageFix"/>
<feColorMatrix in="SourceAlpha" type="matrix" values="0 0 0 0 0 0 0 0 0 0 0 0 0 0 0 0 0 0 127 0" result="hardAlpha"/>
<feOffset dy="4"/>
<feGaussianBlur stdDeviation="7"/>
<feComposite in2="hardAlpha" operator="out"/>
<feColorMatrix type="matrix" values="0 0 0 0 0 0 0 0 0 0 0 0 0 0 0 0 0 0 0.04 0"/>
<feBlend mode="darken" in2="BackgroundImageFix" result="effect1_dropShadow_1_2"/>
<feBlend mode="normal" in="SourceGraphic" in2="effect1_dropShadow_1_2" result="shape"/>
</filter>
<clipPath id="clip0_1_2">
<rect width="620" height="500" rx="15" fill="white"/>
</clipPath>
<clipPath id="clip1_1_2">
<rect width="14" height="14" fill="white" transform="translate(107 254)"/>
</clipPath>
</defs>
</svg>
